<svg width="20" height="20" viewBox="0 0 20 20" fill="none" xmlns="http://www.w3.org/2000/svg">
<path opacity="0.4" d="M9.99935 18.3334C14.6017 18.3334 18.3327 14.6024 18.3327 10C18.3327 5.39765 14.6017 1.66669 9.99935 1.66669C5.39698 1.66669 1.66602 5.39765 1.66602 10C1.66602 14.6024 5.39698 18.3334 9.99935 18.3334Z" fill="#707070"/>
<path d="M13.3327 9.37502H10.6243V6.66669C10.6243 6.32502 10.341 6.04169 9.99935 6.04169C9.65768 6.04169 9.37435 6.32502 9.37435 6.66669V9.37502H6.66602C6.32435 9.37502 6.04102 9.65835 6.04102 10C6.04102 10.3417 6.32435 10.625 6.66602 10.625H9.37435V13.3334C9.37435 13.675 9.65768 13.9584 9.99935 13.9584C10.341 13.9584 10.6243 13.675 10.6243 13.3334V10.625H13.3327C13.6743 10.625 13.9577 10.3417 13.9577 10C13.9577 9.65835 13.6743 9.37502 13.3327 9.37502Z" fill="#292D32"/>
</svg>
