<svg width="67" height="66" viewBox="0 0 67 66" fill="none" xmlns="http://www.w3.org/2000/svg">
<path d="M64.9712 28.848L60.4945 23.6471C59.6387 22.6596 58.9475 20.8163 58.9475 19.4996V13.9038C58.9475 10.4146 56.0837 7.55087 52.5945 7.55087H46.9987C45.715 7.55087 43.8387 6.85962 42.8512 6.00379L37.6504 1.52712C35.3791 -0.414964 31.6595 -0.414964 29.3554 1.52712L24.1873 6.0367C23.1998 6.85962 21.3236 7.55087 20.0398 7.55087H14.3452C10.8561 7.55087 7.99233 10.4146 7.99233 13.9038V19.5325C7.99233 20.8163 7.30108 22.6596 6.47816 23.6471L2.03441 28.8809C0.125247 31.1522 0.125247 34.8388 2.03441 37.1101L6.47816 42.3438C7.30108 43.3313 7.99233 45.1747 7.99233 46.4584V52.0872C7.99233 55.5763 10.8561 58.4401 14.3452 58.4401H20.0398C21.3236 58.4401 23.1998 59.1313 24.1873 59.9872L29.3883 64.4638C31.6595 66.4059 35.3791 66.4059 37.6833 64.4638L42.8841 59.9872C43.8716 59.1313 45.715 58.4401 47.0316 58.4401H52.6275C56.1166 58.4401 58.9804 55.5763 58.9804 52.0872V46.4913C58.9804 45.2076 59.6716 43.3313 60.5275 42.3438L65.0041 37.143C66.9133 34.8717 66.9133 31.1192 64.9712 28.848ZM47.1962 26.7742L31.2975 42.673C30.8366 43.1338 30.2112 43.3972 29.5529 43.3972C28.8945 43.3972 28.2691 43.1338 27.8083 42.673L19.8423 34.7072C18.8877 33.7526 18.8877 32.1726 19.8423 31.218C20.7969 30.2634 22.3769 30.2634 23.3315 31.218L29.5529 37.4392L43.707 23.285C44.6616 22.3305 46.2416 22.3305 47.1962 23.285C48.1508 24.2396 48.1508 25.8196 47.1962 26.7742Z" fill="#52A43E"/>
</svg>
