<svg width="18" height="19" viewBox="0 0 18 19" fill="none" xmlns="http://www.w3.org/2000/svg">
<path opacity="0.4" d="M14.625 7.97754V14.75C14.625 16.25 14.25 17 12.375 17H5.625C3.75 17 3.375 16.25 3.375 14.75V7.97754C3.495 7.99254 3.6225 8.00004 3.75 8.00004H14.25C14.3775 8.00004 14.505 7.99254 14.625 7.97754Z" fill="#707070"/>
<path d="M16.5 4.25V5.75C16.5 7.1225 15.8775 7.865 14.625 7.9775C14.505 7.9925 14.3775 8 14.25 8H3.75C3.6225 8 3.495 7.9925 3.375 7.9775C2.1225 7.865 1.5 7.1225 1.5 5.75V4.25C1.5 2.75 2.25 2 3.75 2H14.25C15.75 2 16.5 2.75 16.5 4.25Z" fill="#707070"/>
<path d="M10.365 11.5625H7.63501C7.32751 11.5625 7.07251 11.3075 7.07251 11C7.07251 10.6925 7.32751 10.4375 7.63501 10.4375H10.365C10.6725 10.4375 10.9275 10.6925 10.9275 11C10.9275 11.3075 10.6725 11.5625 10.365 11.5625Z" fill="#707070"/>
</svg>
