<svg width="18" height="19" viewBox="0 0 18 19" fill="none" xmlns="http://www.w3.org/2000/svg">
<path opacity="0.4" d="M13.4625 6.2827L13.3575 6.2227L12.315 5.6227L10.1625 4.3777C9.50245 3.9952 8.49745 3.9952 7.83745 4.3777L5.68495 5.6227L4.64245 6.2302L4.50745 6.3052C3.16495 7.2052 3.07495 7.3702 3.07495 8.8177V12.2752C3.07495 13.7227 3.16495 13.8877 4.53745 14.8102L7.83745 16.7152C8.16745 16.9102 8.57995 17.0002 8.99995 17.0002C9.41245 17.0002 9.83245 16.9102 10.1625 16.7152L13.4925 14.7877C14.835 13.8877 14.925 13.7227 14.925 12.2752V8.8177C14.925 7.3702 14.835 7.2052 13.4625 6.2827Z" fill="#FF9500"/>
<path d="M4.64246 6.23L5.68496 5.6225L7.73996 4.4375L7.83746 4.3775C8.49746 3.995 9.50246 3.995 10.1625 4.3775L10.26 4.4375L12.315 5.6225L13.3575 6.2225V4.6175C13.3575 2.93 12.4275 2 10.74 2H7.25246C5.56496 2 4.64246 2.93 4.64246 4.6175V6.23Z" fill="#FF9500"/>
<path d="M11.1301 10.505L10.6651 11.075C10.5901 11.1575 10.5376 11.3225 10.5451 11.435L10.5901 12.17C10.6201 12.62 10.2976 12.8525 9.87755 12.6875L9.19505 12.4175C9.09005 12.38 8.91005 12.38 8.80505 12.4175L8.12255 12.6875C7.70255 12.8525 7.38005 12.62 7.41005 12.17L7.45505 11.435C7.46255 11.3225 7.41005 11.1575 7.33505 11.075L6.87005 10.505C6.57755 10.16 6.70505 9.77746 7.14005 9.66496L7.85255 9.48496C7.96505 9.45496 8.10005 9.34996 8.16005 9.25246L8.55755 8.63746C8.80505 8.25496 9.19505 8.25496 9.44255 8.63746L9.84005 9.25246C9.90005 9.34996 10.0351 9.45496 10.1476 9.48496L10.8601 9.66496C11.2951 9.77746 11.4226 10.16 11.1301 10.505Z" fill="#FF9500"/>
</svg>
