<svg width="70" height="35" viewBox="0 0 70 35" fill="none" xmlns="http://www.w3.org/2000/svg">
<g clip-path="url(#clip0_4057_2526)">
<path d="M42.4158 34.269C37.5416 34.2688 32.6674 34.2675 27.7931 34.2714C27.3856 34.2717 26.9877 34.2282 26.5893 34.1467C26.4141 34.1108 26.2276 34.1275 26.0461 34.1247C25.7783 34.1205 25.513 34.105 25.2637 33.9925C25.2595 33.9905 25.2544 33.9886 25.2499 33.9889C24.8778 34.0159 24.5366 33.8467 24.1727 33.8188C24.0758 33.8114 23.9808 33.7766 23.8852 33.7532C23.7805 33.7276 23.6762 33.7001 23.5714 33.6746C23.5531 33.6702 23.5321 33.6753 23.5145 33.6695C23.2805 33.591 23.0467 33.5115 22.8129 33.432C22.7731 33.4184 22.7339 33.4028 22.694 33.3896C22.5882 33.3546 22.4818 33.3221 22.3767 33.2858C22.196 33.2234 22.0161 33.1586 21.8357 33.0953C21.8226 33.0907 21.8059 33.0943 21.7936 33.0884C21.5701 32.9826 21.3461 32.8781 21.1243 32.7688C20.9346 32.6755 20.7423 32.5855 20.5606 32.4779C20.2896 32.3174 20.0151 32.1585 19.7635 31.9702C19.3261 31.643 18.8891 31.3118 18.4824 30.9483C18.1633 30.663 17.8761 30.338 17.6007 30.009C17.3362 29.6929 17.095 29.3555 16.8627 29.0145C16.7216 28.8075 16.6156 28.5765 16.496 28.3552C16.3594 28.1025 16.2158 27.8529 16.0932 27.5936C15.9989 27.3942 15.9337 27.1811 15.8524 26.9754C15.83 26.9187 15.7936 26.8677 15.7692 26.8116C15.747 26.7603 15.7289 26.7065 15.7158 26.6522C15.707 26.6156 15.7256 26.5598 15.7054 26.5406C15.5072 26.3527 15.6296 26.0445 15.4441 25.8541C15.4379 25.8478 15.4326 25.8364 15.4335 25.8281C15.4696 25.498 15.2342 25.2316 15.2213 24.9099C15.2141 24.7307 15.2703 24.6419 15.4684 24.6425C17.3416 24.6484 19.2149 24.6456 21.0881 24.6453C21.3474 24.6452 21.4449 24.7378 21.5383 24.9873C21.6153 25.1925 21.7267 25.3864 21.8373 25.577C21.9433 25.7598 22.0631 25.9352 22.1861 26.1073C22.2887 26.2511 22.3919 26.3984 22.5173 26.5212C22.7687 26.7672 23.0213 27.0161 23.3 27.2289C23.5675 27.4331 23.8653 27.5991 24.1564 27.7705C24.326 27.8703 24.5027 27.9643 24.6869 28.0314C24.9071 28.1116 25.1386 28.1605 25.3653 28.2226C25.4241 28.2387 25.4895 28.2427 25.5408 28.2717C25.6834 28.3524 25.8345 28.3665 25.9945 28.3725C26.1396 28.3779 26.2835 28.417 26.4279 28.4423C26.5438 28.4626 26.6588 28.4959 26.7755 28.5031C26.9756 28.5152 27.1766 28.5116 27.3773 28.5145C28.389 28.5289 29.4007 28.5567 30.4124 28.5557C38.2481 28.5478 46.0838 28.5331 53.9196 28.5251C54.4104 28.5246 54.9012 28.5761 55.3921 28.5767C55.8731 28.5772 56.3539 28.5394 56.8351 28.5261C57.2363 28.515 57.6379 28.5085 58.0391 28.5125C58.2524 28.5145 58.4553 28.4839 58.6548 28.4119C58.7205 28.3882 58.7929 28.3724 58.8623 28.3715C59.0392 28.3696 59.211 28.3653 59.3754 28.2787C59.4515 28.2386 59.5497 28.2417 59.6362 28.2193C59.731 28.1947 59.8256 28.1678 59.9173 28.134C60.0977 28.0674 60.2761 27.9949 60.4554 27.9253C60.5304 27.8962 60.6116 27.8781 60.68 27.8379C60.9312 27.6905 61.1748 27.53 61.4276 27.3853C61.8717 27.1311 62.2191 26.7649 62.5566 26.3942C62.7539 26.1775 62.9036 25.9158 63.0623 25.6663C63.1757 25.4878 63.2937 25.305 63.3629 25.1077C63.4327 24.9081 63.5395 24.7265 63.5891 24.5114C63.6453 24.2683 63.6556 24.0035 63.7439 23.7854C63.9377 23.307 63.8513 22.8254 63.8683 22.3447C63.8718 22.2449 63.8238 22.1436 63.8025 22.0424C63.7716 21.8951 63.7444 21.7471 63.7138 21.5998C63.6938 21.5036 63.6725 21.4075 63.6485 21.312C63.6222 21.2078 63.5944 21.1037 63.5628 21.001C63.5455 20.9447 63.5191 20.8912 63.496 20.8367C63.4707 20.7772 63.4453 20.7176 63.4183 20.6588C63.344 20.4965 63.2844 20.3247 63.1903 20.1746C63.0203 19.9033 62.819 19.6516 62.6501 19.3797C62.4488 19.0555 62.1486 18.8337 61.8738 18.5853C61.7396 18.464 61.6017 18.3413 61.4482 18.2475C61.1362 18.0565 60.816 17.8784 60.4923 17.7076C60.3018 17.6071 60.1038 17.5141 59.8994 17.4482C59.6591 17.3708 59.4088 17.3245 59.162 17.2683C58.9782 17.2265 58.7934 17.1883 58.6082 17.1529C58.529 17.1377 58.4476 17.1256 58.3672 17.1256C57.2586 17.1257 56.1498 17.1162 55.0415 17.1352C54.5281 17.144 54.0163 17.2283 53.5028 17.2417C53.1876 17.2499 52.8707 17.1866 52.5542 17.1592C52.3692 17.1432 52.1838 17.1294 51.9981 17.1242C51.7257 17.1166 51.6341 17.0374 51.636 16.7657C51.6411 16.0205 51.661 15.2753 51.6602 14.53C51.6589 13.4313 51.648 12.3326 51.6326 11.234C51.6301 11.0648 51.5777 10.8967 51.5547 10.7271C51.5336 10.5715 51.5284 10.4135 51.5022 10.2589C51.4846 10.155 51.4437 10.0547 51.4107 9.95367C51.4019 9.92708 51.3718 9.90369 51.3716 9.87857C51.3693 9.66696 51.3276 9.47005 51.217 9.2834C51.1374 9.14906 51.1007 8.98941 51.0231 8.85361C50.8572 8.56316 50.6619 8.29299 50.463 8.0226C50.2282 7.70348 49.9434 7.44509 49.6574 7.18437C49.4914 7.03297 49.2972 6.91071 49.1091 6.78554C48.8976 6.64484 48.6832 6.50682 48.4608 6.38466C48.3152 6.30457 48.154 6.25184 47.9979 6.19176C47.7786 6.10739 47.5577 6.02756 47.3376 5.94587C47.3066 5.93437 47.2763 5.9185 47.2443 5.9126C46.7722 5.82523 46.305 5.71567 45.8185 5.71678C44.8394 5.71892 43.8604 5.69937 42.8812 5.69595C41.7582 5.69192 40.6353 5.69381 39.5123 5.69844C39.3794 5.69896 39.3388 5.65377 39.3399 5.52423C39.3535 3.7468 39.3632 1.96918 39.3745 0.191653C39.3756 0.0165909 39.3886 0.00356619 39.5785 0.00348389C41.5425 0.0032164 43.5065 0.0042452 45.4705 0.00440981C45.676 0.00440981 45.8816 -0.00347085 46.0869 0.0018378C46.3275 0.00801064 46.5649 -0.00647496 46.8057 0.0759119C46.9981 0.141756 47.2194 0.121879 47.4273 0.144328C47.6531 0.16869 47.8784 0.197311 48.1038 0.225603C48.2592 0.245068 48.415 0.262558 48.5691 0.289821C48.6507 0.304307 48.7292 0.337579 48.8088 0.362784C48.836 0.371447 48.8621 0.383957 48.8896 0.39083C49.1489 0.455377 49.4097 0.513854 49.6671 0.585089C49.8153 0.626076 49.9608 0.680768 50.1026 0.740871C50.2792 0.815809 50.4499 0.904801 50.625 0.983587C50.7706 1.04908 50.9212 1.10369 51.0653 1.17229C51.1879 1.23067 51.3075 1.29729 51.4232 1.36853C51.6919 1.53416 51.9569 1.70581 52.2246 1.87299C52.487 2.03682 52.7613 2.18369 53.0112 2.36449C53.2634 2.54702 53.4981 2.75544 53.7296 2.96447C54.1329 3.32848 54.5399 3.68994 54.9224 4.07515C55.1872 4.34186 55.4216 4.6404 55.6548 4.93634C55.8399 5.17126 56.0161 5.4156 56.1711 5.67099C56.3312 5.9348 56.4607 6.21713 56.6039 6.49122C56.6855 6.64733 56.7691 6.80235 56.8486 6.95957C56.8673 6.99645 56.8692 7.04145 56.8849 7.08021C56.9856 7.32918 57.0143 7.60163 57.1456 7.84213C57.1937 7.93025 57.1963 8.04309 57.2209 8.14433C57.2498 8.26342 57.2822 8.38165 57.3093 8.50116C57.3334 8.60688 57.3514 8.71396 57.374 8.82009C57.4003 8.94363 57.4262 9.06744 57.457 9.18986C57.4708 9.2449 57.5075 9.29556 57.5143 9.3506C57.5744 9.83466 57.6309 10.3192 57.6862 10.8039C57.6965 10.8936 57.6823 10.9886 57.7053 11.0742C57.7726 11.3251 57.8541 11.3709 58.121 11.393C58.3186 11.4094 58.5129 11.4622 58.7102 11.4854C58.8803 11.5054 59.0537 11.4976 59.2237 11.5181C59.4103 11.5405 59.595 11.5804 59.7802 11.6145C59.8593 11.6291 59.9375 11.6616 60.0164 11.6626C60.2661 11.6659 60.5101 11.6861 60.742 11.7922C60.7953 11.8166 60.8655 11.8009 60.9253 11.8149C61.0378 11.8413 61.1486 11.8753 61.2597 11.9077C61.3095 11.9222 61.3579 11.9533 61.4075 11.9547C61.5719 11.9591 61.7312 11.9688 61.8649 12.0836C61.8868 12.1025 61.9282 12.1004 61.961 12.1043C61.9988 12.1089 62.0403 12.1007 62.0749 12.1132C62.2704 12.1839 62.4648 12.2578 62.6586 12.333C62.8379 12.4026 63.0167 12.4735 63.1943 12.5469C63.3161 12.5973 63.4403 12.6446 63.5554 12.7079C64.1258 13.0218 64.701 13.3315 65.2148 13.7336C65.6597 14.0819 66.1044 14.4365 66.5076 14.831C66.9211 15.2358 67.291 15.6864 67.6664 16.1286C67.8717 16.3703 68.0545 16.6321 68.2361 16.8925C68.3232 17.0172 68.382 17.1612 68.4575 17.2942C68.5321 17.4255 68.6182 17.5506 68.6876 17.6845C68.7839 17.87 68.8678 18.0619 68.9602 18.2496C69.0378 18.4074 69.1197 18.5629 69.2001 18.7192C69.2043 18.7273 69.2165 18.732 69.2191 18.7403C69.2785 18.9269 69.3378 19.1136 69.3952 19.3008C69.409 19.3457 69.412 19.3941 69.4264 19.4388C69.4799 19.604 69.5359 19.7686 69.5913 19.9333C69.6154 20.0046 69.6452 20.0743 69.6641 20.1469C69.6952 20.2656 69.7199 20.386 69.7465 20.5059C69.7709 20.6156 69.7944 20.7255 69.8177 20.8354C69.8432 20.9553 69.8801 21.0741 69.8909 21.1954C69.9225 21.5508 69.9422 21.9073 69.9692 22.2633C70.0047 22.7307 70.0076 23.1942 69.921 23.6603C69.8752 23.9062 69.9055 24.1655 69.8911 24.4183C69.8848 24.5307 69.8543 24.642 69.8321 24.7533C69.8045 24.8912 69.7796 25.0299 69.7436 25.1656C69.6962 25.3442 69.6375 25.5198 69.5865 25.6976C69.5176 25.9375 69.4621 26.1821 69.3806 26.4177C69.3111 26.6186 69.209 26.808 69.1283 27.0053C69.0619 27.1673 69.0102 27.3354 68.9433 27.4971C68.9008 27.5998 68.8454 27.6978 68.7901 27.7946C68.7058 27.9418 68.6146 28.085 68.5298 28.2319C68.4489 28.3724 68.3738 28.5162 68.2934 28.657C68.2428 28.7456 68.1916 28.8342 68.1329 28.9175C68.042 29.0463 67.9449 29.1707 67.8498 29.2965C67.733 29.4512 67.6241 29.6128 67.4969 29.7585C67.0351 30.2878 66.574 30.8188 66.0282 31.2659C65.882 31.3857 65.7199 31.486 65.5666 31.5974C65.2504 31.827 64.9417 32.0676 64.6175 32.2852C64.4035 32.4288 64.167 32.5389 63.9419 32.6662C63.8038 32.7443 63.6715 32.8335 63.5301 32.905C63.3845 32.9787 63.2299 33.0342 63.0815 33.1027C62.91 33.1818 62.7415 33.2675 62.5707 33.3479C62.5334 33.3654 62.4907 33.3711 62.4513 33.3846C62.3813 33.4085 62.3117 33.4335 62.2425 33.4598C62.2249 33.4663 62.2109 33.4832 62.1933 33.4885C61.9834 33.5514 61.7732 33.6134 61.5629 33.6749C61.4689 33.7025 61.3753 33.7317 61.2801 33.7546C61.1707 33.7808 61.06 33.8017 60.9496 33.8236C60.8338 33.8466 60.7177 33.8679 60.6018 33.8904C60.4727 33.9154 60.344 33.9424 60.2146 33.9659C60.0707 33.9922 59.9271 34.0215 59.7821 34.0389C59.5085 34.0717 59.2345 34.1153 58.96 34.1211C58.5259 34.1304 58.0973 34.1691 57.6678 34.2333C57.3908 34.2747 57.1053 34.2678 56.8236 34.2679C52.021 34.2697 47.2185 34.2692 42.4159 34.269" fill="#FAFCFF"/>
<path d="M4.46573 15.0251V15.0265C3.68246 15.0265 2.89918 15.0259 2.11593 15.0269C1.91009 15.0271 1.88196 15.0558 1.88145 15.2577C1.88015 15.7258 1.87974 16.1938 1.87974 16.6618C1.87964 16.9515 1.90888 16.9815 2.20287 16.9817C3.57838 16.9821 4.9539 16.9824 6.32941 16.9804C6.56937 16.9801 6.81945 17.0254 7.03062 16.8559C7.04048 16.848 7.05813 16.848 7.07229 16.8474C7.25988 16.8394 7.37449 16.7053 7.50233 16.5963C7.63624 16.4821 7.6462 16.3212 7.67482 16.1598C7.72439 15.8807 7.70758 15.624 7.50464 15.4109C7.27959 15.1746 7.0247 15.0137 6.67217 15.0207C5.93692 15.0352 5.20124 15.0251 4.46573 15.0251ZM4.69935 21.5764V21.5772C5.49204 21.5772 6.28474 21.5812 7.07735 21.574C7.24581 21.5726 7.41591 21.5398 7.5818 21.5052C7.80908 21.4579 8.02359 21.3706 8.22017 21.2453C8.47017 21.086 8.57811 20.8155 8.73029 20.5802C8.7447 20.558 8.74959 20.5244 8.74702 20.4971C8.71513 20.1564 8.83507 19.8125 8.61902 19.4749C8.35383 19.0604 8.05196 18.7491 7.53311 18.7267C7.42826 18.7222 7.32315 18.7206 7.21811 18.7205C5.61369 18.72 4.00918 18.7204 2.40476 18.7189C2.3246 18.7188 2.24367 18.7093 2.16437 18.6963C1.98536 18.6671 1.88058 18.7489 1.8805 18.9277C1.88042 19.7204 1.8805 20.513 1.88221 21.3057C1.88272 21.5599 1.90083 21.5763 2.14945 21.5764C2.99941 21.5766 3.84939 21.5764 4.69935 21.5764ZM0.0024968 18.2996C0.00268198 16.7179 0.0049042 15.1363 7.08406e-06 13.5546C-0.000671928 13.3487 0.0471676 13.2921 0.270686 13.2922C2.50696 13.2928 4.74332 13.2915 6.97962 13.298C7.10624 13.2983 7.2327 13.3619 7.35906 13.3969C7.38169 13.4032 7.40297 13.4207 7.42525 13.4214C7.83618 13.4341 8.15922 13.6669 8.4725 13.8834C8.72567 14.0583 8.93486 14.3024 9.14328 14.5342C9.232 14.6329 9.26879 14.7782 9.32933 14.9023C9.37278 14.9916 9.44171 15.077 9.45544 15.1707C9.4971 15.4565 9.53696 15.7452 9.54031 16.0333C9.54297 16.2736 9.51476 16.5197 9.45912 16.7534C9.41976 16.9188 9.31894 17.0718 9.23252 17.223C9.14328 17.3792 9.15254 17.4827 9.29939 17.5897C9.60058 17.809 9.87357 18.0648 10.08 18.369C10.253 18.624 10.4655 18.8757 10.4767 19.2132C10.4769 19.2179 10.4774 19.2235 10.48 19.227C10.7116 19.5445 10.5861 19.9093 10.6092 20.2528C10.626 20.5018 10.6274 20.7507 10.4931 20.9886C10.3882 21.1745 10.3558 21.4005 10.2567 21.5908C10.1686 21.7598 10.0314 21.903 9.91892 22.0598C9.69892 22.3664 9.40494 22.5816 9.07597 22.7564C8.93674 22.8303 8.81114 22.9447 8.66402 22.9854C8.43684 23.0484 8.24418 23.2016 7.9827 23.1876C7.76544 23.176 7.54392 23.2512 7.32383 23.2851C7.23492 23.2988 7.1449 23.3136 7.0554 23.3137C4.7904 23.3156 2.5254 23.3159 0.260398 23.3158C0.0367149 23.3158 0.00241449 23.2804 0.00241449 23.0589C0.00224988 21.4725 0.00233219 19.886 0.0024968 18.2996Z" fill="#FAFCFF"/>
<path d="M13.7468 18.2842H13.7505C13.7505 18.7187 13.7504 19.1534 13.7505 19.588C13.7507 20.1658 13.7493 20.7438 13.7522 21.3216C13.7533 21.5288 13.7954 21.5749 13.9761 21.5749C15.1176 21.575 16.2589 21.5733 17.4004 21.5708C17.4617 21.5707 17.5236 21.5609 17.584 21.5494C17.784 21.5113 17.9834 21.4706 18.1829 21.4302C18.2289 21.4209 18.2779 21.4164 18.3198 21.3971C18.4906 21.3181 18.6622 21.2402 18.8276 21.1508C19.0442 21.0337 19.2666 20.9224 19.4655 20.7794C19.7498 20.5749 19.9617 20.2963 20.1618 20.0107C20.2022 19.9531 20.2606 19.9055 20.2903 19.8435C20.3633 19.6918 20.4258 19.5351 20.4897 19.3792C20.5821 19.1539 20.6594 18.9275 20.6495 18.6758C20.6372 18.3611 20.6457 18.0455 20.6409 17.7304C20.6398 17.6599 20.6333 17.5845 20.607 17.5205C20.5178 17.3031 20.4023 17.0952 20.3278 16.8733C20.2455 16.6286 20.0821 16.4389 19.9267 16.2519C19.6645 15.9364 19.3474 15.668 18.9749 15.4898C18.6758 15.3468 18.3899 15.1475 18.0329 15.1631C18.011 15.1641 17.9887 15.1473 17.9658 15.1417C17.806 15.1028 17.6464 15.0327 17.4861 15.0314C16.3209 15.0219 15.1555 15.0259 13.9902 15.0268C13.7948 15.027 13.7468 15.0786 13.7468 15.2754V18.2842ZM11.8785 18.2942C11.8785 16.6982 11.8802 15.1024 11.875 13.5065C11.8747 13.383 11.926 13.3313 12.0274 13.3065C12.0775 13.2943 12.1314 13.2945 12.1836 13.2945C13.9945 13.2937 15.8054 13.2916 17.6163 13.2973C17.7443 13.2976 17.8717 13.3569 18 13.3859C18.0781 13.4035 18.1574 13.4275 18.2363 13.4279C18.4437 13.429 18.6362 13.4659 18.8266 13.5592C18.9846 13.6366 19.1662 13.6641 19.3333 13.7248C19.4746 13.7761 19.6188 13.8289 19.7468 13.9059C20.0674 14.0987 20.3892 14.2921 20.6913 14.5117C20.8865 14.6538 21.0514 14.8389 21.2231 15.0115C21.5361 15.326 21.7689 15.7012 21.9904 16.0806C22.0833 16.2398 22.1263 16.4281 22.1924 16.603C22.2006 16.625 22.2064 16.6599 22.2216 16.6652C22.3642 16.7156 22.3242 16.8366 22.3373 16.9404C22.3471 17.0187 22.3739 17.0949 22.3914 17.1723C22.4226 17.3101 22.4758 17.4478 22.4789 17.5865C22.4897 18.0688 22.486 18.5515 22.4804 19.034C22.4793 19.1262 22.4444 19.2181 22.4245 19.3101C22.3946 19.4477 22.364 19.5853 22.3344 19.723C22.3304 19.7415 22.3351 19.7632 22.3275 19.7795C22.2559 19.9331 22.1851 20.0871 22.1087 20.2383C22.05 20.3545 21.9779 20.4641 21.9216 20.5814C21.7903 20.8555 21.6302 21.1049 21.407 21.3178C21.2175 21.4984 21.0737 21.7305 20.8732 21.8952C20.5523 22.1587 20.2371 22.4369 19.8477 22.6063C19.6902 22.6747 19.5466 22.7764 19.3872 22.8389C19.1915 22.9156 18.986 22.9672 18.7845 23.029C18.7619 23.036 18.7313 23.0316 18.7159 23.0453C18.5402 23.2011 18.3246 23.1622 18.1176 23.1803C17.8536 23.2033 17.5916 23.2492 17.3287 23.2842C17.2443 23.2956 17.1595 23.312 17.0748 23.3121C15.4216 23.314 13.7683 23.314 12.1151 23.3139C11.9176 23.3138 11.8789 23.2729 11.879 23.0818C11.8794 21.486 11.8792 19.89 11.8792 18.2942H11.8785Z" fill="#FAFCFF"/>
<path d="M35.0959 13.2841C36.0563 13.2841 37.0167 13.284 37.9772 13.2841C38.1877 13.2841 38.1932 13.2901 38.1932 13.5011C38.1933 13.9358 38.1932 14.3707 38.1934 14.8055C38.1936 15.0377 38.1929 15.0384 37.9664 15.0384C36.2893 15.0377 34.6121 15.0347 32.935 15.0393C32.6746 15.04 32.4103 15.0544 32.155 15.1014C31.9221 15.1441 31.6966 15.2336 31.4716 15.3132C30.8856 15.5204 30.3925 15.8627 30.0146 16.3583C29.8501 16.5739 29.7192 16.8094 29.5948 17.0543C29.3218 17.5914 29.2891 18.1534 29.3385 18.7285C29.3573 18.947 29.4128 19.1737 29.5045 19.3723C29.7467 19.8973 30.0591 20.3771 30.5386 20.7253C30.6829 20.8299 30.8143 20.9558 30.9682 21.0426C31.1427 21.141 31.3463 21.1886 31.5183 21.2905C31.7392 21.4212 31.9842 21.3994 32.2155 21.4554C32.5094 21.5264 32.8007 21.5669 33.1015 21.5665C34.7213 21.5642 36.341 21.5647 37.9609 21.5643C38.1936 21.5642 38.1935 21.5646 38.1936 21.7926C38.1937 22.2465 38.1909 22.7005 38.1962 23.1543C38.1975 23.2755 38.1606 23.3261 38.0335 23.3256C36.213 23.3204 34.3927 23.3199 32.5722 23.3125C32.4318 23.3119 32.2916 23.2673 32.1511 23.2448C32.0109 23.2225 31.8709 23.1912 31.7298 23.1843C31.5657 23.1763 31.4083 23.167 31.2689 23.0643C31.2343 23.0389 31.177 23.0464 31.1323 23.0322C31.0447 23.0044 30.9583 22.9732 30.8723 22.9409C30.8508 22.9327 30.8338 22.905 30.8132 22.9033C30.5456 22.8804 30.3271 22.7385 30.1069 22.6069C29.8783 22.4704 29.6541 22.3254 29.4366 22.172C29.0754 21.9173 28.7616 21.6073 28.4846 21.266C28.3231 21.0668 28.204 20.8331 28.0679 20.6136C28.0148 20.528 27.9619 20.4414 27.9189 20.3505C27.8303 20.1638 27.7473 19.9744 27.6643 19.7851C27.6361 19.7206 27.5933 19.6526 27.5946 19.587C27.5989 19.3763 27.5322 19.1862 27.4639 18.9928C27.4377 18.9187 27.4363 18.8334 27.4356 18.7529C27.4331 18.4472 27.4233 18.1407 27.441 17.8358C27.4507 17.6689 27.512 17.5053 27.5457 17.3392C27.5646 17.2462 27.5672 17.1496 27.5904 17.0578C27.6155 16.9591 27.6542 16.8636 27.6905 16.768C27.7089 16.7194 27.7384 16.675 27.757 16.6265C27.8155 16.4736 27.8517 16.3085 27.9321 16.1686C28.0949 15.8851 28.273 15.6094 28.4608 15.3418C28.5742 15.1801 28.7072 15.0287 28.8503 14.8924C29.0446 14.7075 29.2485 14.5302 29.4639 14.3707C29.6937 14.2005 29.9383 14.0494 30.1831 13.9008C30.2892 13.8364 30.4099 13.7941 30.5272 13.7509C30.7057 13.6852 30.9059 13.6579 31.0631 13.56C31.3733 13.367 31.7525 13.4894 32.0613 13.3069C32.1271 13.2679 32.2295 13.2859 32.3151 13.2858C33.242 13.2846 34.169 13.2851 35.0959 13.2851V13.2841Z" fill="#FAFCFF"/>
<path d="M25.9888 15.3741C26.0196 15.1144 25.7918 14.804 25.5686 14.6681C25.3479 14.5337 25.1019 14.506 24.8343 14.5639C24.632 14.6075 24.5021 14.7156 24.3606 14.8469C24.201 14.9949 24.1699 15.197 24.1613 15.3708C24.1531 15.5376 24.2408 15.7364 24.3459 15.8763C24.6055 16.2217 25.0425 16.3004 25.4408 16.1336C25.7858 15.9892 25.9397 15.7222 25.9888 15.3741ZM27.0731 15.3809C27.1239 15.7117 26.9569 15.9867 26.8165 16.2773C26.6195 16.6852 26.2746 16.9224 25.8876 17.0857C25.479 17.2581 25.0377 17.3307 24.5944 17.2061C23.958 17.0271 23.4447 16.6749 23.1919 16.0465C23.0815 15.772 22.9976 15.468 23.0586 15.1573C23.1659 14.6106 23.4093 14.1504 23.9051 13.8553C24.0336 13.7788 24.1612 13.7011 24.2895 13.6244C24.3099 13.6121 24.331 13.5936 24.3528 13.5921C24.6595 13.57 24.9538 13.4376 25.2693 13.4911C25.8992 13.5981 26.4435 13.8432 26.7904 14.416C26.9687 14.71 27.1163 15.012 27.0731 15.3809Z" fill="#FAFCFF"/>
<path d="M25.9778 20.7272C25.9778 21.5109 25.9783 22.2946 25.9774 23.0782C25.9772 23.2653 25.9681 23.2715 25.7834 23.2713C25.3103 23.271 24.8373 23.2698 24.3643 23.2717C24.1595 23.2724 24.1404 23.2586 24.1403 23.0404C24.1392 21.5734 24.1394 20.1064 24.1392 18.6393C24.1392 18.5295 24.1341 18.4194 24.1385 18.3096C24.1435 18.1875 24.2101 18.1389 24.3176 18.1938C24.7301 18.4045 25.1683 18.2959 25.5964 18.302C25.6682 18.303 25.7403 18.2372 25.8136 18.2051C25.9268 18.1553 25.9754 18.1821 25.978 18.3044C25.9822 18.5002 25.9785 18.6962 25.9785 18.8922C25.9784 19.5038 25.9784 20.1156 25.9784 20.7272H25.9778Z" fill="#FAFCFF"/>
<path d="M36.9811 26.5668C37.2601 26.5668 37.5266 26.5782 37.7914 26.5625C37.9481 26.5532 38.0373 26.4242 38.0422 26.2626C38.0468 26.1078 37.9693 25.9678 37.8202 25.9566C37.5433 25.9356 37.2637 25.9506 36.9811 25.9506V26.5668ZM36.9755 27.0281V28.0953H36.4609V25.5011C36.658 25.5011 36.8525 25.4983 37.0468 25.5017C37.3473 25.5071 37.6489 25.502 37.9478 25.5284C38.3348 25.5623 38.5484 25.7967 38.5791 26.1805C38.6071 26.5323 38.4162 26.8062 38.068 26.9137C38.0244 26.927 37.9808 26.9406 37.9182 26.9601C38.3401 27.2495 38.5103 27.701 38.7936 28.106C38.5823 28.106 38.402 28.1113 38.2227 28.102C38.1824 28.0999 38.134 28.0548 38.1075 28.0169C37.9353 27.7704 37.763 27.5236 37.6008 27.2705C37.4536 27.0407 37.2442 26.9911 36.9755 27.0281Z" fill="#FAFCFF"/>
<path d="M57.0895 26.3666C57.0888 26.1037 56.9256 25.9179 56.7048 25.9284C56.4982 25.9384 56.3838 26.1063 56.3987 26.3779C56.3989 26.3826 56.3989 26.3874 56.3993 26.3922C56.4174 26.6284 56.5601 26.7715 56.7673 26.7615C56.9677 26.7518 57.0901 26.6018 57.0895 26.3666ZM55.9708 27.4763C56.1322 27.4578 56.2824 27.4405 56.4046 27.4265C56.4761 27.5213 56.5197 27.6193 56.5949 27.6704C56.7431 27.7709 56.9547 27.6907 57.0283 27.5013C57.0873 27.3496 57.1091 27.1832 57.1315 27.0128C56.9429 27.1542 56.7483 27.2235 56.5222 27.1753C56.0989 27.0849 55.8406 26.6626 55.9223 26.1938C55.989 25.8106 56.2486 25.5569 56.6255 25.5067C57.007 25.4559 57.3586 25.6452 57.5125 25.9958C57.6523 26.3144 57.6693 26.6542 57.6411 26.9938C57.6255 27.1824 57.5956 27.3752 57.5347 27.5533C57.3954 27.9598 57.0131 28.1823 56.5874 28.1305C56.2437 28.0887 56.0385 27.8766 55.9708 27.4763Z" fill="#FAFCFF"/>
<path d="M53.1594 27.2971C53.1583 27.0406 53.0367 26.8847 52.8298 26.8744C52.6178 26.8639 52.4728 27.0121 52.467 27.2447C52.4606 27.5115 52.61 27.7028 52.8288 27.7077C53.04 27.7124 53.1605 27.5626 53.1594 27.2971ZM53.5849 26.1609C53.4282 26.1789 53.2823 26.1956 53.1325 26.2128C53.1222 26.1925 53.1103 26.1772 53.1065 26.1601C53.0779 26.0295 53.0029 25.9459 52.867 25.9304C52.7229 25.9142 52.6007 25.9757 52.5485 26.1019C52.4825 26.2609 52.4525 26.4348 52.407 26.6023C52.4484 26.6135 52.4608 26.6204 52.4645 26.6172C52.692 26.4193 52.9457 26.3927 53.2096 26.5228C53.486 26.659 53.6248 26.8967 53.6419 27.2002C53.6707 27.708 53.406 28.056 52.946 28.1271C52.4904 28.1976 52.101 27.931 51.9806 27.4512C51.8743 27.0272 51.8753 26.598 51.9899 26.1764C52.1254 25.6786 52.5738 25.4114 53.0553 25.5241C53.3516 25.5934 53.5522 25.8281 53.5849 26.1609Z" fill="#FAFCFF"/>
<path d="M46.6737 26.5036C46.8593 26.5019 46.983 26.3819 46.9842 26.2021C46.9855 26.0234 46.8604 25.901 46.6753 25.8999C46.4824 25.8986 46.3571 26.0215 46.3601 26.2088C46.3631 26.3909 46.4848 26.5053 46.6737 26.5036ZM46.6751 26.9032C46.4604 26.9028 46.3089 27.073 46.3105 27.3129C46.312 27.559 46.4674 27.7361 46.6821 27.7367C46.8993 27.7373 47.0459 27.5644 47.0443 27.3095C47.0429 27.0702 46.8915 26.9036 46.6751 26.9032ZM47.1105 26.6858C47.4984 26.938 47.6128 27.2123 47.4967 27.5942C47.3955 27.9268 47.0957 28.1319 46.7061 28.135C46.2893 28.1384 45.9629 27.934 45.86 27.6051C45.744 27.2342 45.8633 26.9383 46.236 26.6883C46.0622 26.591 45.9295 26.4654 45.8991 26.2588C45.8498 25.923 46.034 25.6194 46.3681 25.5438C46.5312 25.5069 46.7102 25.5028 46.8765 25.5254C47.1902 25.568 47.3888 25.7592 47.438 26.0355C47.4892 26.3231 47.3773 26.5379 47.1105 26.6858Z" fill="#FAFCFF"/>
<path d="M41.2296 27.2781C41.0581 27.8668 40.6743 28.1341 40.0665 28.105C39.5266 28.0792 39.093 27.696 38.9976 27.1558C38.9394 26.8256 38.951 26.4987 39.0757 26.1834C39.3372 25.5227 40.2148 25.2512 40.8083 25.6446C41.0312 25.7923 41.1555 26.0045 41.2218 26.2701C41.0538 26.2989 40.8902 26.3269 40.7211 26.3559C40.7086 26.3314 40.6963 26.3119 40.6882 26.2907C40.5981 26.054 40.4226 25.9348 40.1733 25.9294C39.9115 25.9236 39.6985 26.0276 39.5976 26.2748C39.4567 26.6201 39.462 26.9783 39.6061 27.3212C39.7021 27.5496 39.9026 27.6501 40.1483 27.6499C40.3817 27.6497 40.5472 27.5356 40.6488 27.329C40.682 27.2613 40.7046 27.1883 40.7349 27.1104C40.8993 27.1661 41.0606 27.2207 41.2296 27.2781Z" fill="#FAFCFF"/>
<path d="M50.3795 26.8494C50.3985 27.0281 50.4082 27.243 50.4478 27.4523C50.4809 27.6282 50.5806 27.7054 50.7116 27.7075C50.8492 27.7097 50.937 27.6278 50.9875 27.4473C50.9977 27.4108 51.0085 27.3731 51.0096 27.3357C51.0183 27.0408 51.0331 26.7457 51.0276 26.4511C51.0254 26.3304 50.9857 26.2083 50.9488 26.0912C50.9158 25.9865 50.831 25.931 50.7197 25.9294C50.602 25.9277 50.5206 25.9882 50.4764 26.0948C50.4547 26.147 50.4354 26.2028 50.4297 26.2585C50.4104 26.4429 50.3977 26.6281 50.3795 26.8494ZM51.5915 26.8243C51.5414 27.0916 51.5158 27.3647 51.4358 27.621C51.3246 27.977 51.0605 28.1409 50.696 28.1347C50.3564 28.129 50.0783 27.9378 49.9778 27.6011C49.8226 27.0815 49.8207 26.5533 49.9831 26.0348C50.0946 25.6788 50.357 25.5016 50.7127 25.5012C51.0716 25.5009 51.3341 25.6723 51.4426 26.031C51.519 26.2835 51.5425 26.5521 51.5915 26.8243Z" fill="#FAFCFF"/>
<path d="M54.4212 26.8666C54.4415 27.0402 54.453 27.2549 54.4949 27.4635C54.5302 27.638 54.6331 27.7139 54.7661 27.7069C54.9194 27.6988 54.9902 27.5984 55.0254 27.4631C55.0362 27.4218 55.0504 27.3798 55.0517 27.3379C55.0609 27.043 55.0761 26.7479 55.0699 26.4532C55.0672 26.3281 55.0376 26.1936 54.9816 26.083C54.946 26.0129 54.8449 25.9541 54.7628 25.9349C54.6579 25.9104 54.5711 25.9793 54.5266 26.0804C54.502 26.1364 54.4791 26.1965 54.4727 26.2566C54.4523 26.4456 54.44 26.6356 54.4212 26.8666ZM55.6346 26.821C55.5832 27.092 55.5565 27.3698 55.4745 27.6302C55.3647 27.9785 55.1015 28.1395 54.7429 28.1348C54.4023 28.1303 54.1226 27.9405 54.0215 27.6055C53.8631 27.0811 53.8623 26.5482 54.0289 26.0257C54.1403 25.6766 54.401 25.5028 54.7507 25.5012C55.1111 25.4998 55.3736 25.6691 55.4831 26.027C55.5604 26.2794 55.5846 26.5478 55.6346 26.821Z" fill="#FAFCFF"/>
<path d="M44.9203 26.0466H43.8047V25.5369H45.4894C45.5058 25.7266 45.5086 25.8883 45.3669 26.0616C44.9368 26.5869 44.7055 27.2039 44.6365 27.8802C44.6293 27.9511 44.6238 28.0222 44.6169 28.0999H44.1486C44.1737 27.3327 44.4597 26.6689 44.9203 26.0466Z" fill="#FAFCFF"/>
<path d="M49.1302 28.1001H48.6453V26.2834C48.4311 26.4229 48.2311 26.5531 48.0049 26.7003V26.2015C48.1963 26.0611 48.3727 25.9331 48.5473 25.8026C48.5735 25.7831 48.5942 25.7547 48.6132 25.7274C48.6638 25.654 48.6979 25.5368 48.7647 25.5143C48.8717 25.4783 48.9998 25.5046 49.1302 25.5046V28.1001Z" fill="#FAFCFF"/>
<path d="M42.2803 26.2297H41.8008V26.7218H42.2803V26.2297Z" fill="#FAFCFF"/>
<path d="M42.2788 27.6025H41.7979V28.0979H42.2788V27.6025Z" fill="black"/>
<path d="M14.7573 0H8.60254V5.69634H14.7573V0Z" fill="#FAFCFF"/>
<path d="M39.3745 5.71069H33.2197V11.407H39.3745V5.71069Z" fill="#FAFCFF"/>
<path d="M20.8716 5.71069H14.7168V11.407H20.8716V5.71069Z" fill="#FAFCFF"/>
<path d="M27.0649 0H20.9102V5.69634H27.0649V0Z" fill="#FAFCFF"/>
<path d="M33.2192 0H27.0645V5.69634H33.2192V0Z" fill="#FAFCFF"/>
</g>
<defs>
<clipPath id="clip0_4057_2526">
<rect width="70" height="34.2798" fill="white"/>
</clipPath>
</defs>
</svg>
