<svg width="18" height="19" viewBox="0 0 18 19" fill="none" xmlns="http://www.w3.org/2000/svg">
<path opacity="0.4" d="M16.3125 5.5474C16.3125 5.3974 16.2525 5.25493 16.1475 5.14993L13.3575 2.3599C13.14 2.1424 12.78 2.1424 12.5625 2.3599C12.345 2.5774 12.345 2.9374 12.5625 3.1549L14.4 4.99241H2.25C1.9425 4.99241 1.6875 5.24741 1.6875 5.55491C1.6875 5.86241 1.9425 6.11741 2.25 6.11741H14.3925L12.5625 7.94741C12.345 8.16491 12.345 8.52491 12.5625 8.74241C12.675 8.85491 12.8175 8.90743 12.96 8.90743C13.1025 8.90743 13.245 8.85491 13.3575 8.74241L16.14 5.95994C16.1925 5.90744 16.2375 5.83993 16.2675 5.76493C16.2675 5.75743 16.2675 5.74991 16.275 5.74241C16.2975 5.67491 16.3125 5.6149 16.3125 5.5474Z" fill="#52A43E"/>
<path d="M15.75 12.8899H3.6075L5.4375 11.0599C5.655 10.8424 5.655 10.4824 5.4375 10.2649C5.22 10.0474 4.86 10.0474 4.6425 10.2649L1.85999 13.0474C1.80749 13.0999 1.7625 13.1674 1.7325 13.2424C1.7325 13.2499 1.73249 13.2574 1.72499 13.2649C1.70249 13.3249 1.6875 13.3924 1.6875 13.4599C1.6875 13.6099 1.74748 13.7524 1.85248 13.8574L4.6425 16.6474C4.755 16.7599 4.89748 16.8124 5.03998 16.8124C5.18248 16.8124 5.325 16.7599 5.4375 16.6474C5.655 16.4299 5.655 16.0699 5.4375 15.8524L3.59999 14.0149H15.75C16.0575 14.0149 16.3125 13.7599 16.3125 13.4524C16.3125 13.1449 16.0575 12.8899 15.75 12.8899Z" fill="#52A43E"/>
</svg>
