<svg width="26" height="26" viewBox="0 0 26 26" fill="none" xmlns="http://www.w3.org/2000/svg">
<path d="M24.8142 9.1683V7.89461C24.8142 7.89461 22.267 7.6309 19.1926 8.81675C16.1182 10.0026 13.8784 9.69526 13.5709 9.38768C13.2635 9.08045 11.8582 7.7188 11.6384 7.54305C11.4189 7.3676 10.9796 6.66484 10.4965 7.10395C10.4121 7.18083 10.3223 7.22516 10.2314 7.25741L10.7215 6.24991C10.8008 6.0873 10.9657 5.98402 11.1465 5.98402H13.7905C14.0452 5.98402 14.0278 5.77749 14.0278 5.52262C14.0278 5.2677 14.0451 5.06152 13.7905 5.06152H11.1465C10.6126 5.06152 10.1257 5.36621 9.89224 5.84635L9.28561 7.09333C9.02723 6.89595 8.03608 6.21294 6.60964 6.13783V9.21187C6.60964 9.21187 7.66893 9.11702 8.31162 9.00748L7.56747 10.2604C6.53946 9.68358 5.33625 9.39205 4.07225 9.48655C3.10456 9.55836 2.20513 9.84948 1.41868 10.3062L1.70996 11.18C2.35285 10.8452 3.07247 10.6321 3.84135 10.5749C5.09823 10.4812 6.14778 10.6768 7.02909 11.1668L6.18054 12.5951C5.62829 12.3431 5.01653 12.1988 4.36978 12.1988C1.95635 12.1987 0 14.155 0 16.5685C0 18.9818 1.95635 20.9385 4.36988 20.9385C6.78321 20.9385 8.73976 18.9818 8.73976 16.5685C8.73976 15.1797 8.08991 13.9449 7.08007 13.1447L7.88902 11.7827C8.70639 12.5291 9.34289 13.6196 9.83785 15.075C9.85451 15.1244 10.4282 15.6163 10.4307 15.6683L10.5036 15.5094C10.5785 16.9171 11.6823 16.942 11.6823 16.942C11.6823 16.942 14.5369 16.942 15.8106 16.942C17.3919 10.925 23.7602 9.47553 24.8142 9.1683ZM6.98318 16.5685C6.98318 18.0117 5.81293 19.1818 4.36988 19.1818C2.92663 19.1818 1.75652 18.0117 1.75652 16.5685C1.75652 15.1256 2.92663 13.9551 4.36988 13.9551C4.68848 13.9551 4.99261 14.0152 5.275 14.1195L4.35393 15.6697C3.86415 15.6785 3.46932 16.0766 3.46932 16.5684C3.46932 17.0657 3.87253 17.4689 4.36988 17.4689C4.86723 17.4689 5.27023 17.0657 5.27023 16.5684C5.27023 16.4666 5.24951 16.3699 5.21823 16.2783L6.16967 14.6773C6.66991 15.1533 6.98318 15.8235 6.98318 16.5685ZM8.43913 10.8569L9.11589 9.71755C9.42002 10.4775 9.76574 11.6838 10.0352 12.8037C9.63955 12.0471 9.0932 11.3872 8.43913 10.8569Z" fill="#707070"/>
<path d="M21.6301 12.1987C19.2167 12.1987 17.2602 14.1551 17.2602 16.5685C17.2602 18.9818 19.2167 20.9385 21.6301 20.9385C24.0435 20.9385 26 18.9818 26 16.5685C26 14.155 24.0435 12.1987 21.6301 12.1987ZM21.6301 19.1818C20.1868 19.1818 19.0168 18.0117 19.0168 16.5685C19.0168 15.1256 20.1868 13.9551 21.6301 13.9551C23.0732 13.9551 24.2433 15.1256 24.2433 16.5685C24.2433 18.0117 23.0732 19.1818 21.6301 19.1818Z" fill="#707070"/>
<path d="M21.6301 15.6685C21.1328 15.6685 20.7298 16.0713 20.7298 16.5686C20.7298 17.0659 21.1328 17.4691 21.6301 17.4691C22.1274 17.4691 22.5305 17.0659 22.5305 16.5686C22.5304 16.0713 22.1274 15.6685 21.6301 15.6685Z" fill="#707070"/>
</svg>
