<svg width="24" height="24" viewBox="0 0 24 24" fill="none" xmlns="http://www.w3.org/2000/svg">
<path fill-rule="evenodd" clip-rule="evenodd" d="M5.29303 11.7068C5.10556 11.5193 5.00024 11.265 5.00024 10.9998C5.00024 10.7346 5.10556 10.4803 5.29303 10.2928L11.293 4.29279C11.4806 4.10532 11.7349 4 12 4C12.2652 4 12.5195 4.10532 12.707 4.29279L18.707 10.2928C18.8892 10.4814 18.99 10.734 18.9877 10.9962C18.9854 11.2584 18.8803 11.5092 18.6948 11.6946C18.5094 11.88 18.2586 11.9852 17.9964 11.9875C17.7342 11.9897 17.4816 11.8889 17.293 11.7068L13 7.41379V18.9998C13 19.265 12.8947 19.5194 12.7071 19.7069C12.5196 19.8944 12.2652 19.9998 12 19.9998C11.7348 19.9998 11.4805 19.8944 11.2929 19.7069C11.1054 19.5194 11 19.265 11 18.9998V7.41379L6.70703 11.7068C6.5195 11.8943 6.26519 11.9996 6.00003 11.9996C5.73487 11.9996 5.48056 11.8943 5.29303 11.7068Z" fill="#707070"/>
</svg>
