<svg width="287" height="319" viewBox="0 0 287 319" fill="none" xmlns="http://www.w3.org/2000/svg">
<g opacity="0.1">
<path d="M280.608 20.4968C280.608 20.4968 293.139 31.6352 297.316 34.4199" stroke="#C6EB5F" stroke-width="6.96151" stroke-miterlimit="10"/>
<path d="M127.455 220.99L112.14 237.698" stroke="#C6EB5F" stroke-width="6.96151" stroke-miterlimit="10"/>
<path d="M49.4874 72.0134C49.4874 72.0134 38.349 84.5442 32.7798 88.7211" stroke="#C6EB5F" stroke-width="6.96151" stroke-miterlimit="10"/>
<path d="M26.3111 18.2232C13.6189 18.6339 13.8945 37.5525 26.3111 37.9939C31.9151 38.193 35.9556 33.6694 36.4262 28.3744C36.9636 22.3374 31.8887 18.3902 26.3111 18.2232C24.3354 18.1633 24.3396 21.2277 26.3111 21.2862C30.2959 21.406 33.2643 23.7158 33.3798 27.8426C33.4842 31.5795 30.6272 34.5451 26.9975 34.9085C18.1703 35.7912 17.0982 21.5842 26.3111 21.2862C28.2798 21.2222 28.2868 18.1591 26.3111 18.2232Z" fill="black"/>
<path d="M173.865 260.683C167.344 251.268 160.826 241.853 154.305 232.437C153.669 231.518 152.269 231.381 151.662 232.437C146.374 241.645 141.084 250.852 135.796 260.058C135.211 261.077 135.958 262.343 137.119 262.362C148.927 262.57 160.734 262.778 172.542 262.986C174.518 263.021 174.515 259.958 172.542 259.923C160.734 259.715 148.926 259.506 137.119 259.299C137.559 260.068 138 260.836 138.442 261.603C143.73 252.396 149.019 243.189 154.307 233.983C153.426 233.983 152.544 233.983 151.663 233.983C158.183 243.398 164.702 252.812 171.222 262.228C172.336 263.841 174.992 262.312 173.865 260.683Z" fill="black"/>
<path d="M306.027 101.417C308.504 90.2372 310.981 79.0556 313.458 67.8755C313.716 66.7143 312.743 65.723 311.574 65.9917C301.227 68.3683 290.878 70.745 280.53 73.1216C279.347 73.3931 279.125 74.8648 279.855 75.6807C287.726 84.4842 295.598 93.2878 303.468 102.093C304.787 103.569 306.946 101.394 305.635 99.9263C297.764 91.1227 289.892 82.3192 282.021 73.5143C281.796 74.3678 281.57 75.2212 281.346 76.0733C291.694 73.6967 302.043 71.32 312.39 68.9433C311.762 68.3154 311.134 67.6875 310.507 67.0596C308.03 78.2398 305.553 89.4199 303.076 100.602C302.648 102.528 305.601 103.346 306.027 101.417Z" fill="black"/>
<path d="M252.291 172.807V107.543H263.366V172.807H252.291ZM225.196 145.712V134.637H290.46V145.712H225.196Z" fill="black"/>
<path d="M160.403 294.163L159.819 337.103H153.051L152.468 294.163H160.403ZM156.435 354.372C154.996 354.372 153.761 353.857 152.731 352.826C151.7 351.795 151.185 350.561 151.185 349.121C151.185 347.682 151.7 346.447 152.731 345.417C153.761 344.386 154.996 343.871 156.435 343.871C157.874 343.871 159.109 344.386 160.14 345.417C161.171 346.447 161.686 347.682 161.686 349.121C161.686 350.074 161.443 350.95 160.957 351.747C160.49 352.544 159.858 353.186 159.061 353.672C158.283 354.139 157.408 354.372 156.435 354.372Z" fill="black"/>
<path d="M185.929 151.22C178.866 151.281 171.803 151.344 164.739 151.405C165.232 152.051 165.724 152.697 166.217 153.345C168.581 144.973 170.852 136.523 173.73 128.313C174.072 127.335 173.188 126.409 172.252 126.373C166.724 126.164 161.193 125.954 155.664 125.745C155.034 125.722 154.303 126.226 154.189 126.87C152.024 138.961 149.86 151.052 147.696 163.141C147.521 164.12 148.11 165.062 149.174 165.081C155.822 165.185 162.469 165.289 169.117 165.395C168.624 164.749 168.133 164.103 167.64 163.456C165.301 174.452 162.963 185.447 160.625 196.442C160.276 198.085 162.565 199.213 163.424 197.623C171.367 182.924 179.31 168.226 187.252 153.527C188.19 151.79 185.546 150.243 184.608 151.982C176.665 166.68 168.721 181.379 160.78 196.077C161.713 196.471 162.645 196.864 163.578 197.258C165.917 186.263 168.255 175.267 170.593 164.272C170.8 163.294 170.154 162.349 169.115 162.332C162.467 162.228 155.82 162.123 149.172 162.017C149.665 162.663 150.156 163.31 150.649 163.957C152.347 154.478 154.044 144.999 155.74 135.521C156.114 133.429 156.489 131.337 156.863 129.244C157.328 126.64 155.172 128.792 156.894 128.857C162.013 129.051 167.133 129.245 172.254 129.439C171.761 128.793 171.269 128.147 170.776 127.499C167.899 135.711 165.628 144.161 163.265 152.532C162.996 153.485 163.75 154.48 164.742 154.471C171.805 154.409 178.869 154.347 185.932 154.286C187.903 154.265 187.905 151.203 185.929 151.22Z" fill="black"/>
<path d="M18.361 109.022C15 123.42 11.2366 137.718 8.02453 152.153C6.67539 158.218 5.35549 164.318 4.58276 170.488C4.26531 173.025 3.85041 175.754 6.5654 176.891C19.3342 182.232 34.0495 184.429 47.4601 187.6C65.613 191.892 83.9287 195.214 102.122 199.281C102.98 199.473 103.72 199.029 104.006 198.212C111.292 177.376 114.923 155.504 119.832 134.043C120.023 133.208 119.586 132.416 118.763 132.16C86.4474 122.075 53.195 115.542 20.2434 107.954C18.3206 107.512 17.5047 110.465 19.4289 110.907C52.3805 118.497 85.6329 125.028 117.948 135.113C117.592 134.485 117.235 133.857 116.879 133.229C111.97 154.69 108.337 176.563 101.053 197.397C101.681 197.041 102.309 196.684 102.936 196.328C72.3002 189.479 41.2296 184.285 11.1015 175.226C6.48325 173.837 7.21978 173.128 7.97302 168.152C8.97269 161.547 10.5028 155.009 11.9828 148.498C14.922 135.569 18.2997 122.748 21.3127 109.838C21.7624 107.914 18.8093 107.098 18.361 109.022Z" fill="black"/>
<path d="M16.4869 127.913C48.6645 135.379 80.6331 143.71 112.811 151.176C114.732 151.621 115.549 148.668 113.625 148.223C81.4476 140.757 49.479 132.425 17.3014 124.96C15.3801 124.514 14.5628 127.467 16.4869 127.913Z" fill="black"/>
<path d="M11.9731 140.761C44.6393 148.338 77.0966 156.784 109.761 164.362C111.683 164.808 112.5 161.855 110.576 161.409C77.9111 153.831 45.4524 145.386 12.7876 137.808C10.8648 137.361 10.0489 140.314 11.9731 140.761Z" fill="black"/>
<path d="M30.4239 152.61C24.7544 151.46 19.5486 154.009 18.2774 159.912C17.0633 165.546 20.5872 170.707 25.8474 172.478C31.4945 174.38 37.1389 171.297 38.6134 165.611C40.1672 159.616 36.1295 154.105 30.4239 152.61C28.5108 152.108 27.7005 155.063 29.6094 155.563C38.5897 157.917 37.2225 171.668 27.365 169.71C18.2287 167.896 19.7184 153.556 29.6094 155.563C31.5363 155.955 32.3578 153.002 30.4239 152.61Z" fill="black"/>
<path d="M40.2703 156.457C28.1656 153.621 25.9087 170.945 37.2114 173.557C49.1198 176.312 51.7192 159.066 40.2703 156.457Z" fill="#C6EB5F"/>
<path d="M40.6782 154.981C35.0088 153.831 29.8043 156.382 28.5332 162.284C27.3205 167.917 30.8416 173.077 36.1017 174.848C41.7489 176.748 47.3933 173.668 48.8677 167.981C50.4216 161.987 46.3839 156.476 40.6782 154.981C38.7652 154.48 37.9549 157.434 39.8637 157.934C48.8455 160.288 47.4768 174.039 37.6193 172.081C28.4844 170.267 29.9742 155.928 39.8637 157.934C41.7921 158.325 42.6135 155.374 40.6782 154.981Z" fill="black"/>
<path d="M61.1047 165.997C73.3889 168.837 85.6732 171.677 97.9561 174.517C99.8789 174.962 100.695 172.009 98.7706 171.564C86.4863 168.724 74.2034 165.882 61.9192 163.044C59.9964 162.599 59.1805 165.552 61.1047 165.997Z" fill="black"/>
<path d="M59.7499 171.857C72.0342 174.697 84.3171 177.539 96.6014 180.379C98.5242 180.823 99.3401 177.87 97.4159 177.426C85.1316 174.586 72.8487 171.744 60.5644 168.904C58.6416 168.458 57.8258 171.411 59.7499 171.857Z" fill="black"/>
<path d="M58.3938 177.717C70.6781 180.557 82.961 183.398 95.2453 186.238C97.1681 186.682 97.9839 183.729 96.0598 183.285C83.7755 180.445 71.4926 177.604 59.2083 174.764C57.2869 174.318 56.471 177.273 58.3938 177.717Z" fill="black"/>
<path d="M33.9938 264.133C31.2385 256.519 27.7661 249.23 25.8294 241.333C23.6824 232.578 26.6327 218.001 38.775 220.313C45.7532 221.643 49.5431 231.655 51.8028 237.34C54.2672 243.541 55.8948 250.019 58.0417 256.328C58.6738 258.187 61.6338 257.389 60.9948 255.513C56.9822 243.721 53.0879 218.258 37.1279 217.032C28.7017 216.384 22.8986 224.732 21.9462 232.056C20.4857 243.279 27.3595 254.78 31.0394 264.946C31.7063 266.79 34.6663 265.995 33.9938 264.133Z" fill="black"/>
<path d="M63.4689 346.198C63.4689 346.198 113.581 348.642 113.411 349.845L122.89 335.18L80.2893 243.395C59.2934 249.263 31.5476 260.822 11.0111 267.994L1.53369 282.66L32.7004 334.741" fill="#C6EB5F"/>
<path d="M63.4689 347.73C71.1335 348.106 78.7981 348.525 86.4586 348.98C92.0626 349.311 97.6666 349.672 103.265 350.104C105.218 350.254 107.17 350.427 109.121 350.622C110.373 350.747 112.695 351.632 112.089 350.62C112.698 351.637 114.114 351.579 114.733 350.62C117.682 346.059 120.63 341.496 123.577 336.935C124.791 335.057 124.083 334.128 123.22 332.27C118.736 322.613 114.255 312.954 109.771 303.296C100.384 283.071 90.9989 262.847 81.6106 242.622C81.3266 242.011 80.494 241.743 79.8814 241.919C60.3404 247.485 41.4552 255.144 22.4363 262.231C17.0244 264.249 11.2617 264.787 8.06498 269.734C5.44745 273.786 2.82853 277.836 0.210997 281.888C-0.0799941 282.339 -0.0605019 282.981 0.210997 283.433C10.599 300.794 20.9883 318.154 31.3777 335.515C32.3899 337.207 35.0395 335.667 34.0217 333.968C25.1694 319.175 16.3158 304.38 7.46211 289.587C6.03639 287.204 4.61068 284.823 3.18496 282.439C2.48602 281.271 2.35375 284.21 3.48987 282.453C4.98242 280.143 6.47497 277.833 7.96752 275.524C9.21084 273.599 10.4542 271.674 11.6975 269.751C12.8517 267.965 17.1094 267.444 19.1769 266.689C28.4761 263.298 37.7099 259.729 46.9854 256.274C55.5258 253.091 64.1066 250.021 72.7862 247.24C74.1033 246.818 79.7003 245.756 79.0571 244.371C79.3565 245.015 79.6572 245.661 79.9565 246.307C83.0238 252.915 86.091 259.525 89.1583 266.132C98.0927 285.384 107.028 304.635 115.963 323.885C117.774 327.789 119.587 331.693 121.398 335.597C121.9 336.678 121.971 333.776 121.27 334.861C120.159 336.579 119.048 338.3 117.937 340.018C115.987 343.036 114.036 346.055 112.085 349.072C112.967 349.072 113.848 349.072 114.729 349.072C113.806 347.531 110.616 347.717 109.117 347.557C103.397 346.944 97.6402 346.616 91.9011 346.25C82.4279 345.644 72.9477 345.13 63.4661 344.667C61.4946 344.571 61.503 347.634 63.4689 347.73Z" fill="black"/>
<path d="M1.53516 282.66L26.6579 380.144L113.411 349.845L70.8106 258.06C49.816 263.931 22.0702 275.489 1.53516 282.66Z" fill="white"/>
<path d="M0.059317 283.068C8.43402 315.562 16.8073 348.057 25.182 380.55C25.3797 381.319 26.2875 381.893 27.0658 381.621C55.9839 371.521 84.9021 361.422 113.82 351.322C114.813 350.975 115.169 350.008 114.735 349.072C100.535 318.477 86.3362 287.883 72.1347 257.289C71.8506 256.677 71.018 256.41 70.4054 256.585C46.8212 263.306 24.2353 273.055 1.12861 281.186C-0.721764 281.836 0.0746333 284.796 1.9431 284.139C13.8724 279.941 25.661 275.356 37.5109 270.94C44.0032 268.52 50.5205 266.176 57.0797 263.945C58.9147 263.321 70.1743 260.31 69.5826 259.036C73.6411 267.78 77.6997 276.523 81.7569 285.265C91.8678 307.049 101.977 328.833 112.09 350.619C112.394 349.868 112.699 349.118 113.004 348.369C84.0862 358.469 55.1681 368.568 26.2499 378.668C26.8779 379.025 27.5058 379.381 28.1337 379.739C19.759 347.244 11.3857 314.749 3.011 282.255C2.51952 280.342 -0.434951 281.154 0.059317 283.068Z" fill="black"/>
<path d="M72.2598 259.194C74.3385 254.994 77.0995 251.352 80.0859 247.765C81.339 246.259 79.1851 244.08 77.9195 245.599C74.7701 249.381 71.8073 253.217 69.6144 257.649C68.7429 259.413 71.3841 260.965 72.2598 259.194Z" fill="black"/>
<path d="M27.4068 277.789C24.6514 270.174 21.179 262.886 19.2424 254.989C17.094 246.232 20.0443 231.656 32.1866 233.968C39.1662 235.297 42.9561 245.309 45.2158 250.995C47.6801 257.197 49.3091 263.675 51.4561 269.984C52.0882 271.842 55.0482 271.045 54.4091 269.169C50.3951 257.376 46.5009 231.913 30.5409 230.687C22.1147 230.04 16.3116 238.388 15.3592 245.713C13.9001 256.936 20.7739 268.435 24.4524 278.603C25.1207 280.445 28.0807 279.65 27.4068 277.789Z" fill="black"/>
<path d="M180.872 84.1153C178.756 81.3223 176.159 79.0055 173.656 76.5885C169.866 79.6474 166.22 82.2663 163.839 84.2991C141.247 103.596 163.926 104.128 185.749 100.893C185.389 95.0045 184.326 88.6765 180.872 84.1153Z" fill="#C6EB5F"/>
<path d="M185.819 31.6352C194.88 28.813 203.706 26.0187 213.162 24.3215C221.087 22.8972 229.008 21.7067 237.025 21.5717C235.462 14.1785 233.654 7.1697 232.698 6.45545C224.952 0.678781 192.552 9.61179 182.384 15.4066C183.746 20.2225 184.851 25.8753 185.819 31.6352Z" fill="#C6EB5F"/>
<path d="M225.035 72.2292C223.06 78.5377 224.412 85.1484 225.699 91.5279C246.438 85.4436 247.364 81.5604 243.806 60.8959C236.575 61.7688 227.353 64.825 225.035 72.2292Z" fill="#C6EB5F"/>
<path d="M180.907 15.8145C183.25 24.4872 184.623 33.3631 185.936 42.239C186.618 46.8531 188.033 51.9963 187.394 56.6424C186.75 61.3122 183.231 65.3763 180.158 68.6816C172.194 77.2527 159.342 82.6242 153.845 93.3435C145.761 109.109 185.524 102.516 190.803 101.625C202.321 99.6813 213.629 96.5583 224.854 93.3686C231.315 91.5321 239.445 89.6094 243.991 84.2197C247.845 79.6502 247.098 73.0159 246.387 67.5372C244.833 55.5662 242.438 43.6439 240.513 31.7271C239.25 23.9108 237.718 15.9593 235.296 8.41164C233.902 4.07044 230.182 3.43138 225.97 3.10558C211.744 2.00148 194.011 7.31172 181.61 14.0853C179.877 15.032 181.422 17.6774 183.155 16.7293C194.572 10.4931 209.03 6.9901 221.938 6.17421C224.627 6.00435 227.332 6.11991 229.942 6.80771C232.517 7.48437 232.788 10.5906 233.393 12.7876C235.301 19.7325 236.644 26.8791 237.792 33.9855C239.748 46.086 242.394 58.2547 243.668 70.4485C244.395 77.4114 243.168 82.5351 236.687 85.9309C227.062 90.9738 215.127 92.9606 204.694 95.6018C193.88 98.3391 182.699 100.265 171.551 100.798C167.278 101.001 162.781 100.997 158.686 99.6228C152.642 97.5956 158.826 91.2244 161.177 88.8102C170.44 79.2994 183.653 73.5143 189.308 60.804C191.76 55.2919 190.036 49.3286 189.213 43.6522C187.817 34.0342 186.397 24.3939 183.859 14.9986C183.346 13.0954 180.392 13.9043 180.907 15.8145Z" fill="black"/>
<path d="M187.729 32.2491C194.68 29.2891 202.109 28.249 209.498 26.9681C218.228 25.4561 226.931 23.9134 235.74 22.9235C237.68 22.7049 237.702 19.6404 235.74 19.8604C226.664 20.8796 217.674 22.4181 208.683 24.015C200.997 25.3795 193.411 26.5268 186.184 29.6051C184.371 30.3765 185.933 33.0149 187.729 32.2491Z" fill="black"/>
<path d="M173.553 76.9797C179.84 82.7744 183.541 91.1171 183.959 99.6324C184.055 101.598 187.119 101.607 187.022 99.6324C186.567 90.3319 182.601 81.1552 175.719 74.8133C174.27 73.478 172.098 75.6389 173.553 76.9797Z" fill="black"/>
<path d="M243.162 59.1804C236.628 59.4826 229.869 62.1836 226.075 67.8002C220.998 75.313 222.364 83.6404 223.883 92.0917C224.233 94.0339 227.183 93.2083 226.836 91.2772C225.693 84.9102 224.33 78.3469 227 72.1623C229.728 65.844 236.644 62.5456 243.164 62.2435C245.13 62.153 245.138 59.0899 243.162 59.1804Z" fill="black"/>
<path d="M205.404 7.47042C206.965 13.0313 207.654 18.755 208.635 24.4342C208.97 26.3779 211.922 25.5509 211.588 23.6197C210.608 17.9405 209.918 12.2168 208.358 6.65593C207.824 4.75683 204.87 5.56436 205.404 7.47042Z" fill="black"/>
<path d="M196.222 9.95973C197.691 15.0375 198.298 20.2753 199.195 25.4728C199.53 27.4164 202.481 26.5894 202.148 24.6583C201.253 19.4622 200.644 14.2244 199.175 9.14523C198.628 7.25031 195.672 8.05784 196.222 9.95973Z" fill="black"/>
<path d="M187.75 14.0323C188.598 18.7299 189.614 23.3955 190.464 28.0931C190.814 30.0354 193.766 29.2097 193.417 27.2786C192.567 22.581 191.551 17.9154 190.703 13.2178C190.354 11.2769 187.402 12.1025 187.75 14.0323Z" fill="black"/>
<path d="M214.844 6.43307C215.767 11.6166 216.689 16.7988 217.611 21.9823C217.956 23.9246 220.908 23.0989 220.564 21.1678C219.642 15.9843 218.72 10.8021 217.797 5.61857C217.452 3.67631 214.5 4.50056 214.844 6.43307Z" fill="black"/>
<path d="M224.639 6.18663C226.09 11.0764 226.81 16.0748 227.106 21.1581C227.222 23.1212 230.285 23.1323 230.169 21.1581C229.856 15.8088 229.118 10.5181 227.592 5.37213C227.032 3.48277 224.075 4.28753 224.639 6.18663Z" fill="black"/>
<path d="M99.2706 21.3323C98.3698 21.608 97.4899 21.9115 96.635 22.2428" stroke="#C6EB5F" stroke-width="2.78461" stroke-linecap="round" stroke-linejoin="round"/>
<path d="M91.6603 24.6361C80.9828 30.8931 75.6029 42.2307 78.808 55.2974C83.9108 76.0901 97.6431 81.8598 116.372 76.1959C133.051 70.9065 142.834 59.0455 136.412 39.971C130.858 23.7646 118.206 17.9754 104.674 20.0861" stroke="#C6EB5F" stroke-width="2.78461" stroke-linecap="round" stroke-linejoin="round" stroke-dasharray="5.53 5.53"/>
<path d="M101.962 20.6111C101.065 20.8171 100.169 21.058 99.2706 21.3309" stroke="#C6EB5F" stroke-width="2.78461" stroke-linecap="round" stroke-linejoin="round"/>
<path d="M97.4453 15.3621C76.1626 22.3834 67.2449 41.4538 74.2913 62.4567C80.7391 81.6774 97.8018 87.4611 116.354 82.6924C136.846 77.4267 148.75 61.1257 143.152 40.1924C137.475 18.9695 117.916 9.54084 97.4453 15.3621C95.549 15.9009 96.3552 18.8567 98.2598 18.3151C116.78 13.0494 132.843 20.6626 139.553 38.9491C146.676 58.3661 135.536 73.1426 117.34 79.22C100.721 84.7698 84.9299 80.0735 77.8974 63.377C69.687 43.8806 78.2427 24.9174 98.2584 18.3137C100.127 17.6997 99.3263 14.7411 97.4453 15.3621Z" fill="black"/>
<path d="M89.3471 50.2903L88.8172 48.0581L94.9658 30.1388L96.5852 29.7543L97.4061 33.212L96.3119 33.4717L91.6665 47.0118L91.7081 47.1868L104.97 44.0384L105.541 46.4456L89.3471 50.2903ZM100.986 52.3817L99.7341 47.1076L99.4873 46.0682L95.6661 29.9725L98.2484 29.3594L103.569 51.7686L100.986 52.3817ZM118.115 48.6388C116.466 49.0302 114.955 48.915 113.583 48.2931C112.208 47.6639 111.011 46.5649 109.991 44.9962C108.97 43.4201 108.17 41.4139 107.591 38.9775C107.016 36.5556 106.832 34.4149 107.037 32.5551C107.249 30.6864 107.827 29.1621 108.772 27.9822C109.723 26.7933 111.015 26.0048 112.649 25.6169C114.283 25.229 115.788 25.3532 117.165 25.9897C118.547 26.6172 119.748 27.7189 120.77 29.295C121.797 30.862 122.598 32.8565 123.173 35.2783C123.751 37.7147 123.938 39.8664 123.734 41.7334C123.528 43.5931 122.953 45.1129 122.008 46.2928C121.061 47.4654 119.763 48.2474 118.115 48.6388ZM117.543 46.2316C119.177 45.8437 120.26 44.7545 120.79 42.9641C121.32 41.1737 121.239 38.8196 120.547 35.9017C120.086 33.9614 119.486 32.3585 118.746 31.0931C118.014 29.826 117.176 28.9268 116.233 28.3955C115.297 27.8624 114.29 27.7241 113.21 27.9804C111.591 28.3648 110.515 29.4641 109.982 31.2781C109.448 33.0848 109.526 35.4434 110.217 38.354C110.678 40.2944 111.274 41.8945 112.004 43.1543C112.735 44.4141 113.567 45.3069 114.501 45.8326C115.442 46.3567 116.456 46.4896 117.543 46.2316Z" fill="black"/>
<path d="M104.173 65.2697L103.893 64.088C103.699 63.271 103.689 62.4834 103.863 61.7254C104.043 60.9583 104.41 60.2934 104.962 59.7308C105.52 59.1591 106.265 58.7624 107.199 58.5408C108.147 58.3156 108.992 58.3348 109.732 58.5981C110.471 58.8542 111.086 59.2862 111.577 59.8939C112.067 60.4944 112.408 61.2032 112.602 62.0202L112.883 63.2019C113.077 64.0189 113.087 64.8101 112.915 65.5754C112.748 66.3318 112.389 66.9949 111.838 67.5648C111.293 68.1257 110.554 68.517 109.62 68.7387C108.672 68.9638 107.825 68.9492 107.078 68.6948C106.33 68.4332 105.708 68.003 105.212 67.4042C104.713 66.7982 104.367 66.0867 104.173 65.2697ZM106.125 63.558L106.405 64.7397C106.566 65.4182 106.871 65.9892 107.321 66.4528C107.768 66.9091 108.386 67.0437 109.173 66.8567C109.939 66.6748 110.416 66.2804 110.603 65.6734C110.796 65.0574 110.812 64.4102 110.651 63.7318L110.37 62.5501C110.209 61.8717 109.912 61.3026 109.479 60.8428C109.045 60.3758 108.434 60.2357 107.646 60.4228C106.88 60.6046 106.393 61.0053 106.186 61.6247C105.984 62.2352 105.964 62.8796 106.125 63.558ZM89.9677 55.0954L89.6872 53.9136C89.4932 53.0966 89.4835 52.3091 89.6579 51.551C89.838 50.7839 90.2042 50.1191 90.7564 49.5564C91.3142 48.9848 92.06 48.5881 92.9937 48.3664C93.942 48.1413 94.7865 48.1604 95.5271 48.4238C96.266 48.6799 96.881 49.1119 97.372 49.7196C97.8614 50.3201 98.203 51.0288 98.397 51.8458L98.6775 53.0276C98.8715 53.8446 98.8821 54.6358 98.7093 55.4011C98.5421 56.1575 98.1833 56.8206 97.6328 57.3905C97.0878 57.9514 96.3485 58.3427 95.4148 58.5644C94.4665 58.7895 93.6192 58.7749 92.873 58.5205C92.1251 58.2589 91.5028 57.8287 91.0062 57.2299C90.5078 56.6239 90.1617 55.9124 89.9677 55.0954ZM91.9193 53.3837L92.1999 54.5654C92.3609 55.2438 92.666 55.8148 93.1151 56.2784C93.5625 56.7348 94.1801 56.8694 94.968 56.6824C95.7339 56.5005 96.2105 56.1061 96.3977 55.4991C96.5905 54.8831 96.6064 54.2359 96.4454 53.5575L96.1648 52.3758C96.0037 51.6974 95.7068 51.1283 95.274 50.6685C94.8395 50.2014 94.2283 50.0614 93.4405 50.2485C92.6746 50.4303 92.1879 50.831 91.9805 51.4504C91.7786 52.0609 91.7583 52.7053 91.9193 53.3837ZM94.8414 71.9237L104.928 45.8569L107.422 45.2646L97.3362 71.3314L94.8414 71.9237ZM123.333 65.4335C122.209 65.7004 121.159 65.667 120.184 65.3335C119.214 64.9987 118.377 64.4068 117.673 63.5579C116.975 62.7077 116.473 61.6395 116.167 60.3535C115.86 59.0567 115.826 57.8689 116.066 56.79C116.312 55.7099 116.793 54.8024 117.509 54.0673C118.23 53.3309 119.153 52.8294 120.277 52.5625C121.401 52.2957 122.448 52.3297 123.418 52.6645C124.393 52.998 125.231 53.5926 125.93 54.4482C126.635 55.3026 127.142 56.3781 127.45 57.675C127.755 58.961 127.784 60.1413 127.537 61.2161C127.295 62.2895 126.814 63.1944 126.092 63.9307C125.377 64.6658 124.457 65.1667 123.333 65.4335ZM122.925 63.7152C123.778 63.5126 124.429 63.1269 124.876 62.5584C125.323 61.9899 125.595 61.3176 125.69 60.5415C125.786 59.7653 125.735 58.9612 125.537 58.1291C125.339 57.297 125.023 56.553 124.588 55.8972C124.152 55.2414 123.606 54.7574 122.95 54.4451C122.294 54.1329 121.539 54.0781 120.685 54.2808C119.831 54.4835 119.181 54.8718 118.735 55.4458C118.289 56.0197 118.019 56.6974 117.925 57.4789C117.831 58.2604 117.883 59.0673 118.08 59.8994C118.278 60.7315 118.594 61.4728 119.028 62.1232C119.462 62.7736 120.006 63.2522 120.662 63.559C121.317 63.8659 122.071 63.9179 122.925 63.7152ZM134.42 49.376L134.805 50.997L128.094 52.5903L127.709 50.9692L134.42 49.376ZM132.675 62.9416L129.312 48.7737C129.142 48.0605 129.169 47.4263 129.391 46.8713C129.613 46.3162 129.963 45.8563 130.442 45.4916C130.92 45.1268 131.457 44.8739 132.051 44.7328C132.521 44.6212 132.914 44.5679 133.229 44.573C133.544 44.5781 133.782 44.5958 133.943 44.626L133.785 46.4103C133.68 46.4009 133.535 46.3925 133.351 46.3849C133.172 46.376 132.944 46.4043 132.669 46.4698C132.037 46.6198 131.618 46.8876 131.413 47.2732C131.213 47.6574 131.186 48.1575 131.332 48.7735L134.588 62.4874L132.675 62.9416ZM142.645 47.4233L143.03 49.0444L136.319 50.6376L135.934 49.0166L142.645 47.4233ZM140.9 60.9889L137.536 46.8211C137.367 46.1078 137.393 45.4737 137.615 44.9186C137.838 44.3636 138.188 43.9037 138.666 43.539C139.145 43.1742 139.681 42.9213 140.276 42.7802C140.746 42.6686 141.138 42.6153 141.454 42.6204C141.769 42.6255 142.007 42.6431 142.168 42.6733L142.01 44.4576C141.905 44.4483 141.76 44.4399 141.575 44.4323C141.396 44.4234 141.169 44.4517 140.894 44.5171C140.261 44.6672 139.843 44.935 139.637 45.3205C139.437 45.7048 139.411 46.2049 139.557 46.8209L142.813 60.5348L140.9 60.9889Z" fill="black"/>
</g>
</svg>
