<svg width="20" height="20" viewBox="0 0 20 20" fill="none" xmlns="http://www.w3.org/2000/svg">
<path d="M12.1244 1.66663H7.87435C6.37435 1.66663 6.04102 2.41663 5.84936 3.34163L5.16602 6.60829H14.8327L14.1493 3.34163C13.9577 2.41663 13.6244 1.66663 12.1244 1.66663Z" stroke="#292D32" stroke-width="1.25" stroke-linecap="round" stroke-linejoin="round"/>
<path d="M16.0335 11.9333C16.1001 12.6417 15.5335 13.25 14.8085 13.25H13.6751C13.0251 13.25 12.9335 12.975 12.8168 12.625L12.6918 12.2666C12.5251 11.775 12.4168 11.4416 11.5418 11.4416H8.45013C7.58346 11.4416 7.45012 11.8166 7.30012 12.2666L7.17513 12.625C7.05846 12.9667 6.96679 13.25 6.31679 13.25H5.18346C4.45846 13.25 3.89179 12.6417 3.95846 11.9333L4.30013 8.25001C4.38346 7.34168 4.55846 6.59998 6.14179 6.59998H13.8501C15.4335 6.59998 15.6085 7.34168 15.6918 8.25001L16.0335 11.9333Z" stroke="#292D32" stroke-width="1.25" stroke-linecap="round" stroke-linejoin="round"/>
<path d="M5.16595 4.79163H4.55762" stroke="#292D32" stroke-width="1.25" stroke-linecap="round" stroke-linejoin="round"/>
<path d="M15.4413 4.79163H14.833" stroke="#292D32" stroke-width="1.25" stroke-linecap="round" stroke-linejoin="round"/>
<path d="M6.37402 9.02499H8.18237" stroke="#292D32" stroke-width="1.25" stroke-linecap="round" stroke-linejoin="round"/>
<path d="M11.8164 9.02499H13.6248" stroke="#292D32" stroke-width="1.25" stroke-linecap="round" stroke-linejoin="round"/>
<path d="M10 14.1667V15" stroke="#292D32" stroke-width="1.25" stroke-linecap="round" stroke-linejoin="round"/>
<path d="M10 17.5V18.3333" stroke="#292D32" stroke-width="1.25" stroke-linecap="round" stroke-linejoin="round"/>
<path d="M2.50033 15L1.66699 18.3333" stroke="#292D32" stroke-width="1.25" stroke-linecap="round" stroke-linejoin="round"/>
<path d="M17.5 15L18.3333 18.3333" stroke="#292D32" stroke-width="1.25" stroke-linecap="round" stroke-linejoin="round"/>
</svg>
