<svg width="20" height="20" viewBox="0 0 20 20" fill="none" xmlns="http://www.w3.org/2000/svg">
<path d="M14.1749 10.6083C14.6673 10.6083 15.0665 10.2091 15.0665 9.71663C15.0665 9.22418 14.6673 8.82501 14.1749 8.82501C13.6824 8.82501 13.2832 9.22418 13.2832 9.71663C13.2832 10.2091 13.6824 10.6083 14.1749 10.6083Z" stroke="#292D32" stroke-width="1.25" stroke-linecap="round" stroke-linejoin="round"/>
<path d="M16.667 5.00002V6.49167C16.4587 6.46667 16.217 6.45001 15.9587 6.45001H12.392C10.6087 6.45001 10.017 7.04171 10.017 8.82504V13.0834H5.00033C2.33366 13.0834 1.66699 12.4167 1.66699 9.75003V5.00002C1.66699 2.33335 2.33366 1.66669 5.00033 1.66669H13.3337C16.0003 1.66669 16.667 2.33335 16.667 5.00002Z" stroke="#292D32" stroke-width="1.25" stroke-linecap="round" stroke-linejoin="round"/>
<path d="M7.5 13.0834V16.6667" stroke="#292D32" stroke-width="1.25" stroke-linecap="round" stroke-linejoin="round"/>
<path d="M1.66699 9.91669H10.0003" stroke="#292D32" stroke-width="1.25" stroke-linecap="round" stroke-linejoin="round"/>
<path d="M4.95898 16.6667H10.0006" stroke="#292D32" stroke-width="1.25" stroke-linecap="round" stroke-linejoin="round"/>
<path d="M14.1739 10.6082C14.6664 10.6082 15.0655 10.209 15.0655 9.71657C15.0655 9.22412 14.6664 8.82495 14.1739 8.82495C13.6814 8.82495 13.2822 9.22412 13.2822 9.71657C13.2822 10.209 13.6814 10.6082 14.1739 10.6082Z" stroke="#292D32" stroke-width="1.25" stroke-miterlimit="10" stroke-linecap="round" stroke-linejoin="round"/>
<path d="M16.6656 6.49161C16.4573 6.46661 16.2156 6.44995 15.9573 6.44995H12.3906C10.6073 6.44995 10.0156 7.04165 10.0156 8.82498V15.9583C10.0156 17.7416 10.6073 18.3333 12.3906 18.3333H15.9573C17.7406 18.3333 18.3323 17.7416 18.3323 15.9583V8.82498C18.3323 7.29998 17.899 6.64994 16.6656 6.49161ZM14.174 8.82498C14.6656 8.82498 15.0656 9.22494 15.0656 9.7166C15.0656 10.2083 14.6656 10.6083 14.174 10.6083C13.6823 10.6083 13.2823 10.2083 13.2823 9.7166C13.2823 9.22494 13.6823 8.82498 14.174 8.82498ZM14.174 15.9583C13.1906 15.9583 12.3906 15.1583 12.3906 14.175C12.3906 13.7666 12.5323 13.3833 12.7656 13.0833C13.0906 12.6666 13.599 12.3916 14.174 12.3916C14.624 12.3916 15.0323 12.5583 15.3406 12.825C15.7156 13.1583 15.9573 13.6416 15.9573 14.175C15.9573 15.1583 15.1573 15.9583 14.174 15.9583Z" stroke="#292D32" stroke-width="1.25" stroke-miterlimit="10" stroke-linecap="round" stroke-linejoin="round"/>
<path d="M15.9573 14.1749C15.9573 15.1583 15.1573 15.9583 14.174 15.9583C13.1906 15.9583 12.3906 15.1583 12.3906 14.1749C12.3906 13.7666 12.5323 13.3833 12.7656 13.0833C13.0906 12.6666 13.599 12.3916 14.174 12.3916C14.624 12.3916 15.0323 12.5583 15.3406 12.825C15.7156 13.1583 15.9573 13.6416 15.9573 14.1749Z" stroke="#292D32" stroke-width="1.25" stroke-miterlimit="10" stroke-linecap="round" stroke-linejoin="round"/>
<path d="M14.1739 10.6082C14.6664 10.6082 15.0655 10.209 15.0655 9.71657C15.0655 9.22412 14.6664 8.82495 14.1739 8.82495C13.6814 8.82495 13.2822 9.22412 13.2822 9.71657C13.2822 10.209 13.6814 10.6082 14.1739 10.6082Z" stroke="#292D32" stroke-width="1.25" stroke-miterlimit="10" stroke-linecap="round" stroke-linejoin="round"/>
</svg>
