<svg width="18" height="19" viewBox="0 0 18 19" fill="none" xmlns="http://www.w3.org/2000/svg">
<path opacity="0.58" d="M18 0.5H0V18.5H18V0.5Z" fill="white"/>
<path opacity="0.4" d="M9.00001 4.99998L4.83001 7.99998L2.39251 6.34998C1.95751 6.05748 1.95002 5.42748 2.37752 5.11998L5.25001 3.04998C5.50501 2.86998 5.85002 2.86248 6.10502 3.03498L9.00001 4.99998Z" fill="#707070"/>
<path opacity="0.4" d="M15.6075 6.3501L13.17 8.0001L9 5.0001L11.895 3.0426C12.1575 2.8701 12.495 2.8701 12.75 3.0576L15.6225 5.1276C16.05 5.4276 16.0425 6.0576 15.6075 6.3501Z" fill="#707070"/>
<path opacity="0.4" d="M9.00006 11L5.67006 13.25L3.75006 11.87L2.37006 10.88C1.95006 10.5725 1.95756 9.9425 2.38506 9.65L4.82256 8L9.00006 11Z" fill="#707070"/>
<path opacity="0.4" d="M15.6075 9.65C16.0425 9.9425 16.05 10.5725 15.6225 10.88L14.25 11.87L12.33 13.25L9 11L13.17 8L15.6075 9.65Z" fill="#292D32"/>
<path d="M14.25 11.87V14.0975C14.25 14.39 14.0775 14.6525 13.815 14.78L9.31501 16.8575C9.11251 16.9475 8.88749 16.9475 8.68499 16.8575L4.18499 14.78C3.92249 14.66 3.75 14.39 3.75 14.0975V11.87L5.67 13.25L9 11L12.33 13.25L14.25 11.87Z" fill="#292D32"/>
</svg>
