<svg width="130" height="130" viewBox="0 0 130 130" fill="none" xmlns="http://www.w3.org/2000/svg">
<path d="M23.5559 89.5726C23.5559 89.0734 23.5273 88.5794 23.5221 88.0906L23.5949 88.1634C22.4145 88.1764 21.2315 88.205 20.0511 88.2076L16.5073 88.2232L16.6399 88.0906V91.0858L16.5203 90.9662C17.1027 90.9662 17.6851 90.9662 18.2727 90.9818L20.0199 91L23.5949 91.0754L23.5559 89.5726ZM20.0823 91.1586L18.2987 91.1898C17.7033 91.1898 17.1053 91.1898 16.5073 91.2054H16.3799V91.0858V88.0906V87.9554H16.5151L20.0589 87.9736C21.2393 87.9736 22.4223 88.0022 23.6027 88.0178H23.6599V88.0906C23.6599 88.5976 23.6365 89.1046 23.6261 89.6038L23.5871 91.0858L20.0823 91.1586Z" fill="#EBEBEB"/>
<path d="M19.6039 93.34C19.5909 92.8408 19.5727 92.3494 19.5675 91.858L19.6403 91.9308C18.4599 91.9464 17.2795 91.975 16.0965 91.975L12.5527 91.9932L12.6879 91.858L12.6723 94.8532L12.5527 94.7336C13.1377 94.7336 13.7201 94.7336 14.3051 94.7492L16.0653 94.7804L19.6403 94.8532L19.6039 93.34ZM16.1199 94.9364L14.3363 94.965C13.7409 94.978 13.1429 94.965 12.5449 94.9806H12.4253V94.8584V91.8632V91.7306H12.5605L16.1043 91.7462C17.2873 91.7462 18.4677 91.7774 19.6481 91.7904H19.7235V91.8606C19.7235 92.3806 19.7001 92.8746 19.6897 93.3738L19.6507 94.8558L16.1199 94.9364Z" fill="#EBEBEB"/>
<path d="M27.5105 93.34C27.5105 92.8408 27.4793 92.3494 27.4741 91.858L27.5495 91.9308C26.3665 91.9464 25.1861 91.975 24.0057 91.975L20.4619 91.9932L20.5945 91.858L20.5789 94.8532L20.4619 94.7336C21.0443 94.7336 21.6267 94.7336 22.2117 94.7492L23.9745 94.7804L27.5495 94.8532L27.5105 93.34ZM24.0343 94.9286L22.2533 94.9572C21.6579 94.9702 21.0573 94.9572 20.4619 94.9728H20.3423V94.8506L20.3267 91.8554V91.7228H20.4619L24.0057 91.7384C25.1861 91.7384 26.3665 91.7696 27.5495 91.7826H27.6223V91.8528C27.6223 92.3728 27.5989 92.8668 27.5859 93.366L27.5495 94.848L24.0343 94.9286Z" fill="#EBEBEB"/>
<path d="M117.47 93.34C117.457 92.8408 117.439 92.3494 117.434 91.858L117.507 91.9308C116.326 91.9464 115.143 91.975 113.963 91.975L110.419 91.9932L110.552 91.858L110.539 94.8532L110.419 94.7336C111.004 94.7336 111.587 94.7336 112.172 94.7492L113.932 94.7804L117.507 94.8532L117.47 93.34ZM113.994 94.9286L112.211 94.9572C111.615 94.9702 111.017 94.9572 110.419 94.9728H110.3V94.8506L110.287 91.8554V91.7228H110.422L113.966 91.7384C115.146 91.7384 116.329 91.7696 117.509 91.7826H117.585V91.8528C117.585 92.3728 117.561 92.8668 117.551 93.366L117.512 94.848L113.994 94.9286Z" fill="#EBEBEB"/>
<path d="M113.516 14.2999C113.503 13.8007 113.485 13.3093 113.479 12.8179L113.552 12.8907C112.372 12.9037 111.191 12.9323 110.008 12.9349L106.465 12.9505L106.6 12.8179L106.584 15.8131L106.465 15.6935C107.05 15.6935 107.632 15.6935 108.217 15.7091L109.98 15.7377L113.552 15.8131L113.516 14.2999ZM110.04 15.8885L108.259 15.9171C107.661 15.9301 107.063 15.9171 106.465 15.9327H106.34V15.8131V12.8283V12.6931H106.472L110.016 12.7087C111.199 12.7087 112.38 12.7399 113.56 12.7529H113.62V12.8257C113.62 13.3327 113.596 13.8397 113.583 14.3389L113.544 15.8209L110.04 15.8885Z" fill="#EBEBEB"/>
<path d="M117.47 18.0856C117.457 17.589 117.439 17.095 117.434 16.6062L117.507 16.679C116.326 16.679 115.143 16.7206 113.963 16.7206L110.419 16.7388L110.552 16.6062L110.539 19.5988L110.419 19.4818C111.004 19.4818 111.587 19.4818 112.172 19.4818L113.932 19.513L117.507 19.5858L117.47 18.0856ZM113.994 19.6742L112.211 19.7054C111.615 19.7054 111.017 19.7054 110.419 19.7054H110.3V19.5832L110.287 16.5906V16.4554H110.422L113.966 16.4736C115.146 16.4736 116.329 16.5022 117.509 16.5152H117.585V16.588C117.585 17.095 117.561 17.5994 117.551 18.1012L117.52 19.5988L113.994 19.6742Z" fill="#EBEBEB"/>
<path d="M19.6039 14.313C19.5909 13.8138 19.5727 13.3224 19.5675 12.831L19.6403 12.9038C18.4599 12.9194 17.2795 12.948 16.0965 12.948L12.5527 12.9662L12.6879 12.831L12.6723 15.8262L12.5527 15.7066C13.1377 15.7066 13.7201 15.7066 14.3051 15.7222L16.0653 15.7508L19.6403 15.8262L19.6039 14.313ZM16.1199 15.9016L14.3363 15.9302C13.7409 15.9302 13.1429 15.9302 12.5449 15.9458H12.4253V15.8262V12.831V12.6984H12.5605L16.1043 12.714C17.2873 12.714 18.4677 12.7452 19.6481 12.7582H19.7235V12.831C19.7235 13.351 19.7001 13.845 19.6897 14.3442L19.6507 15.8262L16.1199 15.9016Z" fill="#EBEBEB"/>
<path d="M30.7683 31.5484C30.7683 32.0476 30.7995 32.5391 30.8047 33.0305L30.7319 32.9577C31.9123 32.9447 33.0927 32.916 34.2757 32.9134L37.8195 32.8978L37.6843 33.0305L37.6999 30.0352L37.8195 30.1549C37.2345 30.1549 36.6521 30.1548 36.0671 30.1392L34.3069 30.1106L30.7319 30.0352L30.7683 31.5484ZM34.2445 29.9599L36.0281 29.9313C36.6235 29.9183 37.2215 29.9312 37.8195 29.9156H37.9365V30.0352L37.9599 33.0201V33.1552H37.8273L34.2835 33.1396C33.1005 33.1396 31.9201 33.1085 30.7397 33.0955H30.6643V33.0201C30.6643 32.5001 30.6851 32.0061 30.6981 31.5069L30.7371 30.0249L34.2445 29.9599Z" fill="#EBEBEB"/>
<path d="M34.7231 27.7732C34.7231 28.2698 34.7543 28.7638 34.7595 29.2526L34.6841 29.1798C35.8671 29.1798 37.0475 29.1382 38.2279 29.1382L41.7717 29.12L41.6391 29.2526L41.6547 26.26L41.7717 26.377C41.1893 26.377 40.6069 26.377 40.0219 26.377L38.2591 26.3458L34.6841 26.26L34.7231 27.7732ZM38.1993 26.1846L39.9803 26.1534C40.5757 26.1534 41.1763 26.1534 41.7717 26.1534H41.8913V26.26L41.9069 29.2526V29.38H41.7717H38.2201C37.0397 29.38 35.8593 29.3514 34.6763 29.3384H34.6035V29.2656C34.6035 28.7456 34.6269 28.2542 34.6399 27.7524L34.6763 26.273L38.1993 26.1846Z" fill="#EBEBEB"/>
<path d="M20.8806 55.4371C20.8806 55.9363 20.9118 56.4277 20.917 56.9191L20.8442 56.8463C22.0246 56.8307 23.205 56.8021 24.388 56.8021L27.9318 56.7839L27.7966 56.9191L27.82 53.9239L27.9396 54.0435C27.3546 54.0435 26.7722 54.0435 26.1872 54.0279L24.427 53.9993L20.852 53.9239L20.8806 55.4371ZM24.3568 53.8485L26.1404 53.8199C26.7358 53.8069 27.3338 53.8199 27.9318 53.8043H28.0514V53.9239V56.9191V57.0517H27.9162L24.3724 57.0361C23.1894 57.0361 22.009 57.0049 20.8286 56.9919H20.7532V56.9191C20.7532 56.3991 20.7766 55.9051 20.787 55.4059L20.826 53.9239L24.3568 53.8485Z" fill="#EBEBEB"/>
<path d="M13.0519 63.4687C13.0805 63.5649 13.0897 63.6659 13.079 63.7658C13.0683 63.8657 13.0379 63.9624 12.9895 64.0504C12.9411 64.1385 12.8758 64.216 12.7972 64.2786C12.7187 64.3412 12.6285 64.3876 12.5319 64.4151L12.8101 65.3407C13.0032 65.2824 13.2115 65.3032 13.3892 65.3985C13.5669 65.4939 13.6995 65.6559 13.7578 65.849C13.8161 66.042 13.7952 66.2503 13.6999 66.4281C13.6046 66.6058 13.4426 66.7384 13.2495 66.7967L13.5277 67.7249C13.7208 67.6666 13.9291 67.6874 14.1068 67.7827C14.2845 67.8781 14.4171 68.0401 14.4754 68.2332C14.5337 68.4262 14.5128 68.6345 14.4175 68.8123C14.3222 68.99 14.1602 69.1226 13.9671 69.1809L14.2453 70.1091C14.4384 70.0511 14.6465 70.0723 14.824 70.1678C15.0015 70.2634 15.1338 70.4256 15.1917 70.6186C15.2496 70.8117 15.2285 71.0199 15.1329 71.1974C15.0373 71.3749 14.8752 71.5071 14.6821 71.5651L14.9603 72.4907C15.1525 72.4366 15.3582 72.4601 15.5332 72.5561C15.7082 72.6522 15.8385 72.8131 15.8961 73.0042C15.9537 73.1954 15.9339 73.4015 15.8411 73.5782C15.7483 73.755 15.5898 73.8882 15.3997 73.9493L15.6883 74.8801C15.8814 74.8221 16.0895 74.8433 16.267 74.9388C16.4445 75.0344 16.5768 75.1966 16.6347 75.3897C16.6926 75.5827 16.6715 75.7909 16.5759 75.9684C16.4803 76.1459 16.3182 76.2781 16.1251 76.3361L16.3695 77.1447L17.2249 76.8847C17.1962 76.789 17.1866 76.6887 17.1967 76.5894C17.2068 76.4901 17.2364 76.3938 17.2837 76.3059C17.3792 76.1284 17.5414 75.9962 17.7345 75.9383C17.9276 75.8803 18.1357 75.9015 18.3132 75.997C18.4907 76.0926 18.623 76.2548 18.6809 76.4479L19.6065 76.1671C19.5778 76.0715 19.5682 75.9711 19.5783 75.8718C19.5884 75.7725 19.618 75.6762 19.6653 75.5883C19.7126 75.5004 19.7768 75.4227 19.8541 75.3596C19.9315 75.2966 20.0205 75.2493 20.1161 75.2207C20.2117 75.192 20.312 75.1824 20.4113 75.1925C20.5106 75.2026 20.6069 75.2321 20.6948 75.2794C20.7827 75.3268 20.8604 75.3909 20.9235 75.4683C20.9866 75.5456 21.0338 75.6346 21.0625 75.7302L21.9881 75.4521C21.934 75.2599 21.9575 75.0542 22.0535 74.8791C22.1496 74.7041 22.3105 74.5738 22.5017 74.5162C22.6928 74.4586 22.8989 74.4784 23.0757 74.5712C23.2524 74.6641 23.3856 74.8226 23.4467 75.0127L24.3723 74.7345C24.3436 74.6389 24.334 74.5385 24.3441 74.4392C24.3542 74.3399 24.3838 74.2436 24.4311 74.1557C24.4784 74.0678 24.5426 73.9901 24.6199 73.927C24.6973 73.864 24.7863 73.8167 24.8819 73.788C24.9775 73.7594 25.0778 73.7498 25.1771 73.7599C25.2764 73.77 25.3727 73.7995 25.4606 73.8468C25.5485 73.8942 25.6262 73.9583 25.6893 74.0357C25.7524 74.113 25.7996 74.2021 25.8283 74.2977L26.7565 74.0169C26.7278 73.9212 26.7182 73.8209 26.7283 73.7216C26.7384 73.6223 26.768 73.526 26.8153 73.4381C26.9108 73.2606 27.073 73.1284 27.2661 73.0705C27.4592 73.0125 27.6673 73.0337 27.8448 73.1293C28.0223 73.2248 28.1546 73.387 28.2125 73.5801L29.0679 73.3201L28.8235 72.5115C28.7279 72.5401 28.6276 72.5497 28.5283 72.5396C28.429 72.5295 28.3326 72.5 28.2447 72.4527C28.1569 72.4053 28.0792 72.3412 28.0161 72.2638C27.953 72.1865 27.9058 72.0975 27.8771 72.0019C27.8484 71.9062 27.8388 71.8059 27.8489 71.7066C27.859 71.6073 27.8886 71.511 27.9359 71.4231C27.9832 71.3352 28.0474 71.2575 28.1247 71.1944C28.2021 71.1314 28.2911 71.0841 28.3867 71.0555L28.1085 70.1299C27.9163 70.1839 27.7106 70.1604 27.5356 70.0644C27.3606 69.9684 27.2302 69.8074 27.1727 69.6163C27.1151 69.4251 27.1348 69.219 27.2277 69.0423C27.3205 68.8655 27.479 68.7323 27.6691 68.6713L27.3909 67.7457C27.2953 67.7743 27.195 67.7839 27.0957 67.7738C26.9964 67.7637 26.9 67.7342 26.8121 67.6869C26.7243 67.6395 26.6466 67.5754 26.5835 67.498C26.5204 67.4207 26.4732 67.3317 26.4445 67.2361C26.4158 67.1405 26.4062 67.0401 26.4163 66.9408C26.4264 66.8415 26.456 66.7452 26.5033 66.6573C26.5506 66.5694 26.6148 66.4917 26.6921 66.4286C26.7695 66.3656 26.8585 66.3183 26.9541 66.2897L26.6759 65.3641C26.5803 65.3929 26.4799 65.4026 26.3806 65.3927C26.2812 65.3828 26.1848 65.3534 26.0968 65.3062C26.0088 65.259 25.9309 65.1949 25.8677 65.1176C25.8044 65.0403 25.757 64.9514 25.7282 64.8558C25.6993 64.7602 25.6896 64.6598 25.6995 64.5604C25.7095 64.4611 25.7389 64.3646 25.7861 64.2766C25.8333 64.1886 25.8973 64.1108 25.9746 64.0475C26.0519 63.9843 26.1409 63.9369 26.2365 63.9081L25.9583 62.9799C25.7652 63.0381 25.5569 63.0173 25.3792 62.922C25.2014 62.8267 25.0689 62.6646 25.0106 62.4716C24.9523 62.2785 24.9731 62.0702 25.0685 61.8924C25.1638 61.7147 25.3258 61.5821 25.5189 61.5239L25.2407 60.5983C25.0476 60.6562 24.8394 60.635 24.6619 60.5395C24.4845 60.4439 24.3522 60.2817 24.2943 60.0887C24.2364 59.8956 24.2575 59.6874 24.3531 59.5099C24.4486 59.3324 24.6108 59.2002 24.8039 59.1423L24.5439 58.3051L23.6885 58.5651C23.7391 58.7556 23.7137 58.9583 23.6175 59.1304C23.5214 59.3025 23.3621 59.4305 23.1733 59.4872C22.9845 59.5439 22.781 59.525 22.6059 59.4344C22.4308 59.3439 22.2978 59.1887 22.2351 59.0019L21.3199 59.2801C21.3705 59.4706 21.3451 59.6733 21.2489 59.8454C21.1528 60.0175 20.9935 60.1455 20.8047 60.2022C20.6159 60.2589 20.4124 60.24 20.2373 60.1494C20.0622 60.0589 19.9293 59.9037 19.8665 59.7169L18.9357 59.9977C18.9644 60.0929 18.974 60.1929 18.964 60.2919C18.9541 60.3909 18.9247 60.4869 18.8777 60.5746C18.8306 60.6622 18.7667 60.7397 18.6897 60.8027C18.6126 60.8656 18.5239 60.9128 18.4287 60.9415C18.3334 60.9701 18.2334 60.9798 18.1345 60.9698C18.0355 60.9599 17.9394 60.9305 17.8518 60.8834C17.7641 60.8363 17.6866 60.7725 17.6237 60.6954C17.5607 60.6184 17.5136 60.5297 17.4849 60.4345L16.5541 60.7153C16.6047 60.9058 16.5793 61.1085 16.4831 61.2806C16.387 61.4527 16.2277 61.5807 16.0389 61.6374C15.8501 61.6941 15.6466 61.6752 15.4715 61.5846C15.2964 61.4941 15.1635 61.3389 15.1007 61.1521L14.1699 61.4303C14.2278 61.6226 14.2069 61.8302 14.1119 62.0072C14.0168 62.1842 13.8553 62.3161 13.6629 62.3741C13.4705 62.432 13.263 62.4111 13.086 62.316C12.909 62.2209 12.777 62.0594 12.7191 61.8671L11.8611 62.1271L12.1211 62.9643C12.3114 62.9113 12.5148 62.9342 12.6884 63.0283C12.8621 63.1224 12.9924 63.2803 13.0519 63.4687Z" fill="#EBEBEB"/>
<path d="M17.9153 73.8689L25.9648 71.4478L22.997 61.5806L14.9475 64.0017L17.9153 73.8689Z" fill="#DBDBDB"/>
<path d="M94.9393 30.7808L91.4153 45.6652L114.887 51.2222L118.411 36.3379L94.9393 30.7808Z" fill="#EBEBEB"/>
<path d="M118.404 36.3323C117.242 37.0135 116.064 37.6531 114.904 38.3213C113.745 38.9895 112.564 39.6213 111.389 40.2453C110.164 40.9057 108.938 41.5592 107.713 42.2057L107.601 42.2707L104.343 43.9763L104.182 44.0543L104.078 43.9139C103.36 42.9173 102.645 41.9206 101.933 40.9239C101.907 40.8927 101.883 40.8563 101.857 40.8199C101.048 39.6915 100.245 38.5553 99.4472 37.4113C98.6854 36.3245 97.9262 35.2247 97.1722 34.1223C96.4182 33.0199 95.6668 31.9071 94.9336 30.7761C95.7578 31.7927 96.556 32.8431 97.3646 33.8753C98.1732 34.9075 98.9688 35.9553 99.7592 37.0265C100.643 38.1965 101.523 39.3804 102.398 40.5781L104.364 43.2587C105.349 42.7387 106.337 42.2421 107.32 41.7455C108.654 41.0799 109.98 40.4039 111.28 39.7487C112.46 39.1637 113.643 38.5813 114.829 38.0119C116.014 37.4425 117.213 36.8705 118.404 36.3323Z" fill="white"/>
<path d="M102.354 40.9266C102.341 40.9266 102.333 40.9396 102.32 40.9448L101.876 41.1684C101.168 41.5272 100.453 41.86 99.7306 42.1772C98.8492 42.5698 97.9548 42.9364 97.0578 43.2978C96.1608 43.6592 95.2586 43.992 94.346 44.3118C93.4334 44.6316 92.526 44.9384 91.5796 45.1984C92.4402 44.7434 93.3164 44.3352 94.1978 43.9452C95.0792 43.5552 95.9788 43.186 96.8732 42.8246C97.7676 42.4632 98.675 42.12 99.5798 41.808C100.308 41.548 101.044 41.3062 101.787 41.0878L102.307 40.937L102.354 40.9266Z" fill="white"/>
<path d="M114.938 50.726C114.218 50.076 113.532 49.3896 112.858 48.6954C112.185 48.0012 111.535 47.2862 110.887 46.5712C110.24 45.8562 109.611 45.1204 109 44.3716C108.498 43.7658 108.007 43.1496 107.541 42.5152C107.437 42.38 107.341 42.2552 107.242 42.1096C107.242 42.1096 107.229 42.0862 107.219 42.0784L107.25 42.1044L107.648 42.4736C108.215 42.9936 108.758 43.55 109.296 44.1064C109.97 44.8006 110.62 45.513 111.264 46.2332C111.909 46.9534 112.541 47.684 113.152 48.4328C113.763 49.1816 114.374 49.9356 114.938 50.726Z" fill="white"/>
<path d="M102.354 12.8309H81.3721V26.1377H102.354V12.8309Z" fill="#EBEBEB"/>
<path d="M102.354 12.8311C101.506 13.6423 100.643 14.4171 99.7879 15.2153C98.9325 16.0135 98.0667 16.7753 97.1879 17.5553C96.2831 18.3639 95.3679 19.1595 94.4683 19.9525L94.3877 20.0305L91.9697 22.1287L91.8501 22.2275L91.7331 22.1287L89.3307 20.0201L89.2449 19.9447C88.3349 19.1647 87.4249 18.3561 86.5227 17.5449C85.6595 16.7649 84.7963 15.9849 83.9357 15.2049C83.0751 14.4249 82.2197 13.6319 81.3721 12.8207C82.2717 13.5149 83.1583 14.2455 84.0501 14.9579C84.9419 15.6703 85.8259 16.4165 86.7099 17.1601C87.6927 17.973 88.6746 18.7989 89.6557 19.6379C90.3915 20.2593 91.1247 20.8859 91.8579 21.5099C92.5911 20.8859 93.3243 20.2541 94.0575 19.6379C95.0368 18.8059 96.0187 17.9799 97.0033 17.1601C97.8838 16.4269 98.7695 15.6997 99.6605 14.9787C100.568 14.2559 101.452 13.5201 102.354 12.8311Z" fill="white"/>
<path d="M89.6998 19.9368C89.6998 19.9368 89.6842 19.9524 89.6738 19.9576C89.5646 20.0538 89.4528 20.1474 89.3436 20.2384C88.8236 20.683 88.2776 21.1094 87.7316 21.5202C87.0634 22.0402 86.3796 22.5186 85.6906 23.0048C85.0016 23.491 84.3074 23.9538 83.6106 24.4062C82.9138 24.8586 82.1858 25.3058 81.4448 25.7062C82.0818 25.1498 82.7448 24.6298 83.4104 24.1228C84.076 23.6158 84.765 23.1218 85.4488 22.6382C86.1326 22.1546 86.8372 21.6866 87.5444 21.2316C88.1086 20.8702 88.6832 20.514 89.2682 20.1786C89.4034 20.1006 89.5412 20.0252 89.679 19.9498L89.6998 19.9368Z" fill="white"/>
<path d="M102.305 25.7114C101.564 25.3058 100.844 24.8612 100.139 24.4114C99.4343 23.9616 98.7375 23.4858 98.0433 23.01C97.3491 22.5342 96.6731 22.0376 96.0049 21.5254C95.4589 21.1146 94.9207 20.6908 94.3981 20.2462C94.2837 20.1526 94.1745 20.059 94.0627 19.9628L94.0393 19.942C94.0489 19.9487 94.0594 19.954 94.0705 19.9576L94.4787 20.189C95.0663 20.5244 95.6357 20.8806 96.2025 21.242C96.9123 21.697 97.6065 22.1702 98.2955 22.6486C98.9845 23.127 99.6657 23.621 100.334 24.1332C101.002 24.6454 101.66 25.155 102.305 25.7114Z" fill="white"/>
<path d="M21.5253 0H21.3069V20.6284H21.5253V0Z" fill="#C7C7C7"/>
<path d="M30.4538 29.341L29.7258 30.94H13.1014L12.376 29.341L19.4558 24.4426H23.3766L30.4538 29.341Z" fill="#EBEBEB"/>
<path d="M23.868 19.7236L23.3766 24.4426H19.4558L18.9644 19.7236H23.868Z" fill="#DBDBDB"/>
<path d="M30.4538 29.3436L29.7258 30.94H13.1014L12.376 29.3436H30.4538Z" fill="#DBDBDB"/>
<path d="M40.9318 0H40.7134V15.4726H40.9318V0Z" fill="#C7C7C7"/>
<path d="M49.8601 24.1851L49.1321 25.7841H32.5077L31.7849 24.1851L38.8621 19.2867H42.7829L49.8601 24.1851Z" fill="#EBEBEB"/>
<path d="M43.2742 14.5679L42.7828 19.2869H38.862L38.3706 14.5679H43.2742Z" fill="#DBDBDB"/>
<path d="M49.8603 24.1879L49.1323 25.7843H32.5079L31.7825 24.1879H49.8603Z" fill="#DBDBDB"/>
<path d="M20.8468 81.2604C21.0277 82.5185 20.9623 83.7998 20.6544 85.033C20.5101 85.604 20.317 86.1616 20.0772 86.6996C19.7782 87.3886 19.4636 88.062 19.539 88.8186C19.6118 88.8654 19.3622 88.8576 19.3544 88.7848C17.3368 87.6356 14.7498 87.425 13.1976 85.5478C12.4966 84.6336 12.0539 83.548 11.9158 82.4044C11.6849 81.147 11.7097 79.856 11.9886 78.6084C12.2486 77.584 12.8544 76.5986 13.8086 76.0968C14.7628 75.595 16.12 75.6236 17.16 75.946C19.4064 76.648 20.54 79.079 20.8468 81.2604Z" fill="#FFC727"/>
<path d="M21.8817 96.1999C21.6061 95.2812 21.3287 94.3643 21.0497 93.4491C20.4959 91.6551 19.9186 89.8689 19.2842 88.1035C18.9029 87.0479 18.4999 86.001 18.0752 84.9627C18.1223 84.309 18.2031 83.6581 18.317 83.0127C18.486 82.2327 18.7304 81.4761 18.9592 80.7091C18.9592 80.6623 18.8968 80.6389 18.876 80.6831C18.4236 81.7361 17.836 83.0855 17.8178 84.3361C17.3256 83.1609 16.7969 82.0039 16.2319 80.8651C16.1678 79.9008 16.1974 78.9325 16.3203 77.9739C16.3211 77.9695 16.3211 77.9649 16.3202 77.9605C16.3193 77.956 16.3175 77.9518 16.3149 77.9481C16.3124 77.9444 16.3092 77.9412 16.3054 77.9387C16.3016 77.9362 16.2974 77.9345 16.293 77.9336C16.2885 77.9327 16.2839 77.9328 16.2795 77.9337C16.2751 77.9346 16.2709 77.9364 16.2671 77.9389C16.2634 77.9414 16.2602 77.9447 16.2577 77.9485C16.2552 77.9522 16.2535 77.9565 16.2526 77.9609C16.0813 78.7996 16.0149 79.6564 16.0551 80.5115C15.6209 79.6561 15.1658 78.8111 14.6796 77.9791C14.6354 77.9037 14.5315 77.9791 14.5705 78.0545C15.3279 79.514 16.0351 81.0003 16.692 82.5135C15.7627 81.7111 14.6887 81.0934 13.5278 80.6935C13.4784 80.6753 13.4394 80.7481 13.4914 80.7689C14.7585 81.3126 15.9175 82.0797 16.9131 83.0335C17.3863 84.1394 17.8378 85.2539 18.2677 86.3771C17.0067 85.1395 15.2777 84.3257 13.6084 83.8889C13.5512 83.8889 13.5357 83.9617 13.5903 83.9773C15.5247 84.5597 17.0274 85.6569 18.4964 86.9725C18.668 87.4275 18.8345 87.8825 19.0009 88.3401C19.6214 90.0734 20.2142 91.812 20.7792 93.5557C21.0531 94.3964 21.3201 95.2362 21.5801 96.0751C21.8635 96.9799 22.0844 97.9341 22.451 98.8077C22.4848 98.8909 22.6356 98.8727 22.6174 98.7739C22.4166 97.9038 22.171 97.0447 21.8817 96.1999Z" fill="#263238"/>
<path d="M18.5355 79.495C18.1754 80.0476 17.9288 80.6663 17.8101 81.315C17.8101 81.3306 17.8309 81.341 17.8387 81.315C18.0612 80.7073 18.3217 80.1142 18.6187 79.5392C18.6551 79.4794 18.5693 79.443 18.5355 79.495Z" fill="#263238"/>
<path d="M14.9371 83.6991C14.373 83.3858 13.7561 83.1787 13.1171 83.0881C13.0989 83.0881 13.0885 83.1115 13.1171 83.1167C13.4083 83.2389 13.7125 83.3221 14.0089 83.4365C14.3053 83.5509 14.5913 83.6965 14.8903 83.7927C14.9027 83.7989 14.9171 83.8 14.9303 83.7956C14.9434 83.7912 14.9543 83.7817 14.9605 83.7693C14.9667 83.7569 14.9678 83.7425 14.9634 83.7294C14.959 83.7162 14.9495 83.7053 14.9371 83.6991Z" fill="#263238"/>
<path d="M13.923 78.6422C13.7412 78.5037 13.5461 78.3835 13.3406 78.2834C13.3342 78.2813 13.3273 78.2814 13.3209 78.2835C13.3146 78.2857 13.3091 78.2899 13.3053 78.2954C13.3015 78.301 13.2995 78.3076 13.2998 78.3144C13.3001 78.3211 13.3026 78.3276 13.3068 78.3328C13.4857 78.476 13.6781 78.6014 13.8814 78.7072C13.9178 78.728 13.9594 78.6656 13.923 78.6422Z" fill="#263238"/>
<path d="M27.6486 88.114C26.1952 88.543 24.734 88.9434 23.2806 89.3698C23.1558 89.4062 20.6988 84.6898 21.588 82.277C22.0111 81.1783 22.6741 80.188 23.5288 79.3784C24.3834 78.5687 25.4081 77.9601 26.528 77.597C27.568 77.246 28.8394 76.9496 29.9366 77.1914C30.9116 77.4072 31.6006 78.2028 31.9152 79.1206C32.3468 80.366 32.2038 81.8506 31.9698 83.1246C31.7831 84.3183 31.2905 85.4434 30.5398 86.3902C29.765 87.3002 28.7796 87.776 27.6486 88.114Z" fill="#FFC727"/>
<path opacity="0.1" d="M27.6486 88.114C26.1952 88.543 24.734 88.9434 23.2806 89.3698C23.1558 89.4062 20.6988 84.6898 21.588 82.277C22.0111 81.1783 22.6741 80.188 23.5288 79.3784C24.3834 78.5687 25.4081 77.9601 26.528 77.597C27.568 77.246 28.8394 76.9496 29.9366 77.1914C30.9116 77.4072 31.6006 78.2028 31.9152 79.1206C32.3468 80.366 32.2038 81.8506 31.9698 83.1246C31.7831 84.3183 31.2905 85.4434 30.5398 86.3902C29.765 87.3002 28.7796 87.776 27.6486 88.114Z" fill="black"/>
<path d="M29.7545 83.6393C28.833 84.0894 27.8765 84.4641 26.8945 84.7599C26.2431 84.9368 25.6074 85.1672 24.9939 85.4489C25.6075 84.0813 26.2939 82.7423 26.9933 81.4163C27.9684 81.1726 28.8741 80.7073 29.6401 80.0565C29.6459 80.049 29.649 80.0398 29.6488 80.0303C29.6486 80.0209 29.6452 80.0117 29.6391 80.0045C29.6331 79.9972 29.6247 79.9922 29.6154 79.9903C29.6062 79.9885 29.5965 79.9898 29.5881 79.9941C28.8062 80.4965 27.973 80.9139 27.1025 81.2395C27.2984 80.8825 27.4942 80.5263 27.6901 80.1709C27.7473 80.0721 27.6095 79.9733 27.5445 80.0695C26.7756 81.1777 26.0808 82.3355 25.4645 83.5353C25.3097 82.4847 25.2601 81.4212 25.3163 80.3607C25.3163 80.3552 25.3141 80.3499 25.3102 80.346C25.3063 80.3421 25.301 80.3399 25.2955 80.3399C25.29 80.3399 25.2847 80.3421 25.2808 80.346C25.2769 80.3499 25.2747 80.3552 25.2747 80.3607C25.0931 81.5186 25.1054 82.6987 25.3111 83.8525C24.7911 84.8691 24.3361 85.9117 23.9201 86.9725C23.7537 86.3381 23.5379 85.7141 23.4001 85.0745C23.1792 84.1595 23.1089 83.2146 23.1921 82.2769C23.1921 82.2509 23.1531 82.2483 23.1479 82.2769C22.8921 84.0125 23.103 85.7849 23.7589 87.4119C23.5145 88.0463 23.2831 88.6833 23.0725 89.3229C21.9764 92.5803 21.3274 95.9713 21.1433 99.4031C21.1462 99.4172 21.1539 99.4298 21.165 99.4389C21.1762 99.4479 21.1901 99.4529 21.2044 99.4529C21.2188 99.4529 21.2327 99.4479 21.2438 99.4389C21.2549 99.4298 21.2626 99.4172 21.2655 99.4031C21.6476 96.0167 22.3751 92.6783 23.4365 89.4399C23.8577 88.1737 24.3439 86.9439 24.8743 85.7375C25.7323 85.4775 26.5877 85.1395 27.4301 84.8457C28.2738 84.5941 29.0699 84.204 29.7857 83.6913C29.8143 83.6679 29.7831 83.6237 29.7545 83.6393Z" fill="#263238"/>
<path d="M31.109 82.2717C30.2198 82.5889 29.3774 83.0309 28.4908 83.3507C28.4492 83.3663 28.4726 83.4313 28.5142 83.4235C29.4528 83.2285 30.3862 82.9399 31.1428 82.3237C31.1714 82.3003 31.1402 82.2613 31.109 82.2717Z" fill="#263238"/>
<path d="M23.8525 80.3555C23.8525 80.3087 23.7953 80.2801 23.7797 80.3295C23.5379 81.1485 23.3689 82.0169 23.6055 82.8541C23.6055 82.8624 23.6087 82.8704 23.6146 82.8762C23.6204 82.8821 23.6284 82.8853 23.6367 82.8853C23.6449 82.8853 23.6529 82.8821 23.6587 82.8762C23.6646 82.8704 23.6679 82.8624 23.6679 82.8541C23.7121 82.0065 23.6601 81.1875 23.8525 80.3555Z" fill="#263238"/>
<path d="M27.5236 78.4627C27.2409 78.8701 27.1052 79.3616 27.1388 79.8563C27.1388 79.8875 27.1908 79.9057 27.1986 79.8693C27.3078 79.3987 27.4872 78.9723 27.6328 78.5173C27.6364 78.5035 27.6352 78.4888 27.6293 78.4758C27.6234 78.4628 27.6131 78.4522 27.6004 78.4458C27.5876 78.4394 27.573 78.4376 27.559 78.4407C27.545 78.4438 27.5325 78.4516 27.5236 78.4627Z" fill="#263238"/>
<path d="M10.3637 90.1887C10.7901 91.5407 11.8041 93.4101 13.4057 93.4231C14.4457 93.4231 15.4857 93.3113 16.5257 93.2957C17.6411 93.2801 18.7591 93.2827 19.8719 93.3477C19.9629 93.3477 19.7367 90.0067 17.0561 88.3791C16.3073 87.9215 15.3869 87.7785 14.5367 87.5991C13.5612 87.3666 12.5595 87.2626 11.5571 87.2897C10.9409 87.3131 10.4287 87.4431 10.2103 88.0697C9.99187 88.6963 10.1609 89.5465 10.3637 90.1887Z" fill="#FFC727"/>
<path d="M11.5179 88.4962C12.1705 88.6652 12.8179 88.8576 13.4809 89.0656C13.3109 88.8819 13.1303 88.7083 12.9401 88.5456C12.6538 88.3223 12.3562 88.1141 12.0483 87.9216C12.0249 87.9034 12.0483 87.8566 12.0717 87.8696C12.7061 88.1315 13.2539 88.5667 13.6525 89.1254C14.4663 89.3854 15.2749 89.6792 16.0523 89.999C16.5884 90.2187 17.1021 90.4895 17.5863 90.8076C17.4319 90.4688 17.2466 90.145 17.0325 89.8404C16.6763 89.3802 16.1953 89.1228 15.7325 88.8004C15.7229 88.7945 15.716 88.785 15.7133 88.7741C15.7106 88.7631 15.7124 88.7515 15.7182 88.7419C15.7241 88.7322 15.7336 88.7253 15.7445 88.7226C15.7555 88.7199 15.7671 88.7217 15.7767 88.7276C16.2615 88.9409 16.6967 89.2525 17.0548 89.6428C17.4128 90.033 17.6859 90.4934 17.8567 90.9948C18.4146 91.3956 18.9249 91.8588 19.3777 92.3754C21.1509 94.3904 22.5471 97.071 22.5523 99.8062C22.5523 99.8712 22.4483 99.8894 22.4353 99.8218C21.9806 97.141 20.8132 94.6318 19.0553 92.5574C18.9279 92.4092 18.7953 92.2688 18.6653 92.131C18.1792 92.0647 17.6895 92.0282 17.1989 92.0218C16.6295 92.0218 16.0627 92.1076 15.4933 92.1518C14.5599 92.2298 13.5251 92.2402 12.6801 91.7696C12.6437 91.7488 12.6671 91.6838 12.7087 91.6994C14.5911 92.3832 16.5645 91.5148 18.4521 91.923C17.6468 91.1542 16.7027 90.5454 15.6701 90.129L15.4959 90.0588C14.2895 90.2044 13.0129 90.519 11.8377 90.1264C11.8313 90.1237 11.8261 90.1187 11.8231 90.1124C11.82 90.1061 11.8194 90.0989 11.8214 90.0922C11.8233 90.0854 11.8276 90.0796 11.8335 90.0759C11.8394 90.0721 11.8464 90.0707 11.8533 90.0718C12.9895 90.3552 14.0789 89.999 15.1995 89.9418C13.9801 89.466 12.7347 89.0864 11.5101 88.6158C11.4087 88.5638 11.4061 88.4676 11.5179 88.4962Z" fill="#263238"/>
<path d="M10.9851 89.6999C11.5682 89.7752 12.1549 89.8195 12.7427 89.8325C12.7557 89.8325 12.7609 89.8533 12.7427 89.8559C12.1507 89.9661 11.5405 89.9277 10.9669 89.7441C10.9435 89.7233 10.9565 89.6817 10.9851 89.6999Z" fill="#263238"/>
<path d="M14.9553 88.5274C15.2807 88.6724 15.5761 88.877 15.8263 89.1306C15.8575 89.1592 15.8263 89.2138 15.7821 89.1878C15.6339 89.0812 15.4831 88.9798 15.3297 88.881C15.1834 88.8028 15.0419 88.716 14.9059 88.621C14.8935 88.6144 14.8842 88.6032 14.88 88.5898C14.8759 88.5764 14.8773 88.5619 14.8838 88.5495C14.8904 88.537 14.9016 88.5277 14.915 88.5236C14.9284 88.5195 14.9429 88.5208 14.9553 88.5274Z" fill="#263238"/>
<path d="M24.4218 92.8798C24.401 92.924 24.466 92.9656 24.4894 92.9188C24.4938 92.9261 24.4999 92.9323 24.5071 92.9368C24.5143 92.9413 24.5225 92.9441 24.531 92.9448C25.6102 93.2025 26.7043 93.3935 27.807 93.5168C28.6936 93.5948 29.7154 93.6442 30.4902 93.1294C31.5302 92.4326 32.2348 90.571 31.6654 89.3854C30.992 87.9788 28.9666 88.7432 27.95 89.2424C26.3861 90.0069 25.1383 91.2934 24.4218 92.8798Z" fill="#FFC727"/>
<path opacity="0.1" d="M24.4218 92.8798C24.401 92.924 24.466 92.9656 24.4894 92.9188C24.4938 92.9261 24.4999 92.9323 24.5071 92.9368C24.5143 92.9413 24.5225 92.9441 24.531 92.9448C25.6102 93.2025 26.7043 93.3935 27.807 93.5168C28.6936 93.5948 29.7154 93.6442 30.4902 93.1294C31.5302 92.4326 32.2348 90.571 31.6654 89.3854C30.992 87.9788 28.9666 88.7432 27.95 89.2424C26.3861 90.0069 25.1383 91.2934 24.4218 92.8798Z" fill="black"/>
<path d="M23.6341 93.5298C24.2264 92.9586 24.8835 92.4586 25.5919 92.04C26.1004 91.2327 26.7759 90.5438 27.5731 90.0198C27.6121 89.9938 27.6459 90.0536 27.6095 90.0822C26.976 90.5905 26.4138 91.1817 25.9377 91.8398C26.7276 91.4087 27.5479 91.0359 28.3921 90.7244C28.6926 90.1644 29.151 89.7051 29.7103 89.4036C29.7103 89.4036 29.7337 89.4036 29.7103 89.4218C29.2493 89.7715 28.8473 90.1929 28.5195 90.6698C29.0187 90.4826 29.5231 90.311 30.0249 90.1498C30.0717 90.1342 30.0873 90.2018 30.0457 90.22C29.1487 90.5684 28.2257 90.9376 27.3469 91.364C28.4295 91.5368 29.5326 91.5368 30.6151 91.364C30.6437 91.364 30.6567 91.403 30.6151 91.4108C29.4855 91.745 28.2859 91.763 27.1467 91.4628C26.5806 91.7381 26.0311 92.0463 25.5009 92.3858C25.9475 92.3476 26.3973 92.3837 26.8321 92.4924C27.5991 92.6713 28.3846 92.7585 29.1721 92.7524C29.2033 92.7524 29.2111 92.7992 29.1721 92.8044C27.8175 93.0384 26.5357 92.4222 25.1915 92.5834C23.7019 93.5879 22.513 94.9781 21.7517 96.6056C21.1875 97.7548 20.8807 98.9742 20.4231 100.165C20.4184 100.174 20.4108 100.181 20.4015 100.185C20.3922 100.189 20.3818 100.19 20.3721 100.187C20.3623 100.184 20.3538 100.178 20.348 100.17C20.3421 100.162 20.3393 100.152 20.3399 100.142C20.7611 97.786 21.9259 95.2016 23.6341 93.5298Z" fill="#263238"/>
<path d="M27.7238 90.3136C27.8131 90.1537 27.9302 90.0111 28.0696 89.8924C28.1834 89.7688 28.3192 89.6674 28.47 89.5934C28.47 89.5934 28.4908 89.6064 28.47 89.6168C28.3582 89.7416 28.21 89.8352 28.0852 89.9548C27.9604 90.0744 27.8642 90.2148 27.742 90.3396C27.739 90.3393 27.7361 90.3384 27.7335 90.3369C27.7309 90.3353 27.7286 90.3333 27.7269 90.3308C27.7252 90.3283 27.724 90.3255 27.7235 90.3225C27.7229 90.3196 27.7231 90.3165 27.7238 90.3136Z" fill="#263238"/>
<path d="M29.9573 91.0416C30.1601 90.9922 30.3732 90.9948 30.576 90.9532C30.7793 90.904 30.9798 90.8441 31.1767 90.7738C31.1825 90.7714 31.1891 90.7714 31.1949 90.7738C31.2008 90.7762 31.2054 90.7809 31.2078 90.7868C31.2103 90.7926 31.2102 90.7992 31.2078 90.8051C31.2054 90.8109 31.2007 90.8156 31.1949 90.818C30.8244 91.0455 30.3899 91.1459 29.9573 91.104C29.9261 91.0988 29.9287 91.0494 29.9573 91.0416Z" fill="#263238"/>
<path d="M18.0493 97.2426L18.2287 99.2628L18.8319 106.083H24.1749L24.9289 99.2628L25.1525 97.2426H18.0493Z" fill="#455A64"/>
<path d="M18.0493 97.2426L18.2287 99.2628H24.9289L25.1525 97.2426H18.0493Z" fill="#263238"/>
<path d="M17.5214 98.3293H25.6802V96.6913H17.5214V98.3293Z" fill="#455A64"/>
<path d="M118.406 56.095H39.5823V106.083H118.406V56.095Z" fill="#FFC727"/>
<g opacity="0.1">
<path d="M118.406 56.095H39.5823V106.083H118.406V56.095Z" fill="black"/>
</g>
<path d="M39.5823 56.095H118.404V66.8382L86.2497 87.7526C84.0917 89.1563 81.5726 89.9035 78.9983 89.9035C76.4239 89.9035 73.9049 89.1563 71.7469 87.7526L39.5823 66.8382V56.095Z" fill="#FFC727"/>
<path opacity="0.2" d="M39.5823 56.095H118.404V66.8382L86.2497 87.7526C84.0917 89.1563 81.5726 89.9035 78.9983 89.9035C76.4239 89.9035 73.9049 89.1563 71.7469 87.7526L39.5823 66.8382V56.095Z" fill="black"/>
<g opacity="0.1">
<path d="M108.768 99.5021C111.977 101.704 115.222 103.847 118.404 106.083C115.024 104.166 111.693 102.154 108.342 100.188C104.991 98.2229 101.66 96.2001 98.3528 94.1513C94.9139 92.0557 91.4758 89.9323 88.0386 87.7813L87.5993 88.0699C86.7712 88.6432 85.9022 89.155 84.9992 89.6013C82.1689 90.9374 78.9728 91.2879 75.92 90.5971C74.9148 90.3604 73.9352 90.026 72.995 89.5987C72.0918 89.153 71.2228 88.6412 70.395 88.0673L69.9634 87.7839C66.5262 89.928 63.083 92.0548 59.6336 94.1643C56.3195 96.1871 52.995 98.1951 49.66 100.188C46.2982 102.154 42.9728 104.166 39.5876 106.083C42.77 103.847 46.0148 101.704 49.2232 99.5021C52.4542 97.3493 55.6972 95.2025 58.9524 93.0619C62.1435 90.9819 65.3389 88.9114 68.5386 86.8505L67.9926 86.4839L63.2086 83.2859L60.8192 81.6843L58.4402 80.0645C52.091 75.7537 45.7834 71.3831 39.5876 66.8383C46.254 70.6577 52.8086 74.6383 59.3242 78.7047L61.7682 80.2205L64.2018 81.7571L69.0665 84.8329C69.5033 85.1059 69.9349 85.3841 70.3665 85.6623L71.487 86.3851C71.604 86.4631 71.7211 86.5385 71.8354 86.6087C72.4782 87.0374 73.1507 87.4197 73.8478 87.7527C74.6567 88.1121 75.4988 88.3917 76.362 88.5873C77.2291 88.7633 78.1111 88.8556 78.9958 88.8629C80.7733 88.8715 82.5314 88.4945 84.149 87.7579C84.8466 87.423 85.5199 87.0398 86.164 86.6113C86.2784 86.5411 86.3928 86.4657 86.5098 86.3903L87.6174 85.6753C88.0542 85.3945 88.491 85.1137 88.933 84.8381C92.1778 82.7945 95.4044 80.7197 98.6726 78.7099C105.188 74.6539 111.743 70.6499 118.407 66.8383C112.211 71.3805 105.903 75.7537 99.554 80.0645C96.3924 82.2355 93.1866 84.3467 90.0042 86.4839C89.8223 86.6061 89.6402 86.7283 89.4556 86.8479C92.6658 88.9071 95.8655 90.9871 99.0548 93.0879C102.294 95.1939 105.537 97.3493 108.768 99.5021Z" fill="black"/>
</g>
<path d="M104.411 106.083H25.5891V39.4056L64.9947 14.3806L104.411 39.4056V106.083Z" fill="#FFC727"/>
<path opacity="0.1" d="M100.318 105.96H29.6816V41.5688L64.9948 19.1438L100.318 41.5688V105.96Z" fill="black"/>
<path d="M101.785 41.1788H28.2178V105.921H101.785V41.1788Z" fill="#EBEBEB"/>
<path d="M39.4601 58.5624L76.8169 58.5624V56.4668L39.4601 56.4668V58.5624Z" fill="#DBDBDB"/>
<path d="M79.7681 51.5061H91.2549V49.4105H79.7681V51.5061Z" fill="#DBDBDB"/>
<path d="M39.4627 63.8534L74.8123 63.8534V61.7578L39.4627 61.7578V63.8534Z" fill="#DBDBDB"/>
<path d="M39.4603 74.4354H91.2549V72.3398H39.4603V74.4354Z" fill="#DBDBDB"/>
<path d="M39.4603 79.7239H91.2549V77.6283H39.4603V79.7239Z" fill="#DBDBDB"/>
<path d="M39.4603 85.0148H91.2549V82.9192H39.4603V85.0148Z" fill="#DBDBDB"/>
<path d="M39.4603 90.3032H91.2549V88.2076H39.4603V90.3032Z" fill="#DBDBDB"/>
<path d="M104.411 56.095V106.08H25.5891V56.095C28.9691 58.0138 32.2997 60.0262 35.6511 61.9918C39.0025 63.9574 42.3253 65.9906 45.6403 68.0264C49.3323 70.2797 53.0217 72.5608 56.7085 74.8696C56.7449 74.8462 56.7917 74.8228 56.8255 74.7994C56.7917 74.8228 56.7683 74.8566 56.7319 74.88C59.4914 76.5994 62.2491 78.3241 65.0051 80.054C67.7533 78.325 70.5093 76.5856 73.2679 74.88C73.2315 74.8566 73.2081 74.8228 73.1743 74.7994C73.2106 74.8236 73.2499 74.8428 73.2913 74.8566C76.9729 72.5599 80.6623 70.2797 84.3595 68.016C87.6754 65.9897 91.0016 63.9816 94.3383 61.9918C97.7001 60.0262 101.026 58.0138 104.411 56.095Z" fill="#FFC727"/>
<g opacity="0.1">
<path d="M104.411 56.095C101.228 58.3336 97.9834 60.476 94.775 62.6782C91.5432 64.831 88.301 66.9864 85.0458 69.1158C81.6468 71.3414 78.2416 73.547 74.8304 75.7328C74.7238 75.8056 74.6302 75.8758 74.5236 75.946C71.5042 77.8752 68.4778 79.8044 65.4444 81.7336L64.9998 82.0066L64.5604 81.7336C61.5323 79.8044 58.5102 77.8717 55.4942 75.9356C55.3876 75.8758 55.281 75.8056 55.1744 75.7328C51.7528 73.5436 48.3434 71.3344 44.946 69.1054C41.7038 66.9864 38.4616 64.831 35.2298 62.6782C32.0214 60.476 28.7766 58.3336 25.5942 56.095C28.9742 58.0138 32.3048 60.0262 35.6562 61.9918C39.0076 63.9574 42.3304 65.9906 45.6454 68.0264C49.3374 70.2797 53.0268 72.5608 56.7136 74.8696C56.7136 74.8696 56.7136 74.8696 56.737 74.8696C59.4965 76.589 62.2542 78.3137 65.0102 80.0436C67.7584 78.3146 70.5144 76.5752 73.273 74.8696C73.286 74.8462 73.286 74.8462 73.2964 74.8462C76.978 72.5495 80.6674 70.2693 84.3646 68.0056C87.6805 65.9793 91.0068 63.9712 94.3434 61.9814C97.7 60.0262 101.025 58.0138 104.411 56.095Z" fill="black"/>
<path d="M56.8257 74.7993C56.7919 74.8227 56.7684 74.8565 56.732 74.8799C56.3187 75.2361 55.9027 75.5923 55.4893 75.9355C53.5133 77.6047 51.4879 79.2011 49.4287 80.7533C46.9197 82.6799 44.3509 84.4999 41.7691 86.3199C39.1873 88.1399 36.5691 89.8819 33.9093 91.5875C31.2495 93.2931 28.5585 94.9675 25.7791 96.4885C28.1685 94.3929 30.6541 92.4403 33.1631 90.5345C35.6721 88.6287 38.2539 86.7879 40.8201 84.9653C43.3863 83.1427 46.0201 81.3903 48.6929 79.6873C50.8119 78.3249 52.9646 76.9885 55.1668 75.7327C55.6868 75.4363 56.1835 75.1529 56.7061 74.8695C56.7451 74.8461 56.7919 74.8227 56.8257 74.7993Z" fill="black"/>
<path d="M104.221 96.4963C101.442 94.9675 98.7427 93.2983 96.0907 91.5953C93.4387 89.8923 90.8231 88.1139 88.2179 86.3199C85.6127 84.5259 83.0699 82.6799 80.5609 80.7533C78.5121 79.1933 76.4867 77.6151 74.5237 75.9459C74.0973 75.5923 73.6813 75.2361 73.2679 74.8799C73.2315 74.8565 73.2081 74.8227 73.1743 74.7993C73.2106 74.8235 73.2499 74.8428 73.2913 74.8565C73.8113 75.1529 74.3313 75.4363 74.8305 75.7327C77.0327 76.9885 79.1751 78.3327 81.3045 79.6873C83.9799 81.3799 86.5799 83.1661 89.1643 84.9653C91.7487 86.7645 94.3149 88.6235 96.8239 90.5423C99.3329 92.4611 101.832 94.4007 104.221 96.4963Z" fill="black"/>
</g>
<path d="M104.411 106.08H25.5891V95.342L57.7433 74.4276C59.9016 73.0245 62.4205 72.2777 64.9947 72.2777C67.5689 72.2777 70.0879 73.0245 72.2461 74.4276L104.411 95.342V106.08Z" fill="#FFC727"/>
<path d="M9.97607 106.098L23.7327 106.036L37.4867 106.012L64.9999 105.968L92.5131 106.012L106.27 106.036L120.024 106.098L106.27 106.163L92.5131 106.184L64.9999 106.228L37.4867 106.184L23.7327 106.161L9.97607 106.098Z" fill="#263238"/>
<path d="M90.173 69.0014C90.173 69.1593 90.1103 69.3107 89.9986 69.4224C89.887 69.534 89.7355 69.5968 89.5776 69.5968V70.356C89.6558 70.356 89.7332 70.3714 89.8055 70.4013C89.8777 70.4312 89.9434 70.4751 89.9986 70.5304C90.0539 70.5856 90.0978 70.6513 90.1277 70.7235C90.1576 70.7958 90.173 70.8732 90.173 70.9514C90.173 71.0296 90.1576 71.107 90.1277 71.1792C90.0978 71.2515 90.0539 71.3171 89.9986 71.3724C89.9434 71.4277 89.8777 71.4715 89.8055 71.5014C89.7332 71.5314 89.6558 71.5468 89.5776 71.5468V72.306C89.7355 72.306 89.887 72.3687 89.9986 72.4804C90.1103 72.592 90.173 72.7435 90.173 72.9014C90.173 73.0593 90.1103 73.2107 89.9986 73.3224C89.887 73.434 89.7355 73.4968 89.5776 73.4968V74.256C89.6558 74.256 89.7332 74.2714 89.8055 74.3013C89.8777 74.3312 89.9434 74.3751 89.9986 74.4304C90.0539 74.4856 90.0978 74.5513 90.1277 74.6235C90.1576 74.6958 90.173 74.7732 90.173 74.8514C90.173 74.9296 90.1576 75.007 90.1277 75.0792C90.0978 75.1515 90.0539 75.2171 89.9986 75.2724C89.9434 75.3277 89.8777 75.3715 89.8055 75.4014C89.7332 75.4314 89.6558 75.4468 89.5776 75.4468V76.2034C89.7291 76.2134 89.8711 76.2806 89.9748 76.3914C90.0785 76.5022 90.1362 76.6483 90.1362 76.8001C90.1362 76.9518 90.0785 77.0979 89.9748 77.2087C89.8711 77.3196 89.7291 77.3868 89.5776 77.3968V78.1534C89.7355 78.1534 89.887 78.2161 89.9986 78.3278C90.1103 78.4394 90.173 78.5909 90.173 78.7488C90.173 78.9067 90.1103 79.0581 89.9986 79.1698C89.887 79.2814 89.7355 79.3442 89.5776 79.3442V80.0072H90.277C90.277 79.8493 90.3398 79.6978 90.4514 79.5862C90.5631 79.4745 90.7145 79.4118 90.8724 79.4118C91.0303 79.4118 91.1818 79.4745 91.2934 79.5862C91.4051 79.6978 91.4678 79.8493 91.4678 80.0072H92.2244C92.219 79.9255 92.2305 79.8436 92.258 79.7665C92.2856 79.6894 92.3286 79.6188 92.3846 79.5591C92.4405 79.4993 92.5081 79.4517 92.5832 79.4191C92.6583 79.3866 92.7393 79.3698 92.8211 79.3698C92.903 79.3698 92.984 79.3866 93.0591 79.4191C93.1341 79.4517 93.2018 79.4993 93.2577 79.5591C93.3136 79.6188 93.3567 79.6894 93.3843 79.7665C93.4118 79.8436 93.4232 79.9255 93.4178 80.0072H94.1744C94.169 79.9255 94.1805 79.8436 94.208 79.7665C94.2356 79.6894 94.2786 79.6188 94.3346 79.5591C94.3905 79.4993 94.4581 79.4517 94.5332 79.4191C94.6083 79.3866 94.6893 79.3698 94.7711 79.3698C94.853 79.3698 94.934 79.3866 95.0091 79.4191C95.0841 79.4517 95.1518 79.4993 95.2077 79.5591C95.2636 79.6188 95.3067 79.6894 95.3343 79.7665C95.3618 79.8436 95.3732 79.9255 95.3678 80.0072H96.1244C96.119 79.9255 96.1305 79.8436 96.158 79.7665C96.1856 79.6894 96.2286 79.6188 96.2846 79.5591C96.3405 79.4993 96.4081 79.4517 96.4832 79.4191C96.5583 79.3866 96.6393 79.3698 96.7211 79.3698C96.803 79.3698 96.884 79.3866 96.9591 79.4191C97.0341 79.4517 97.1018 79.4993 97.1577 79.5591C97.2136 79.6188 97.2567 79.6894 97.2843 79.7665C97.3118 79.8436 97.3232 79.9255 97.3178 80.0072H98.077C98.077 79.8493 98.1398 79.6978 98.2514 79.5862C98.3631 79.4745 98.5145 79.4118 98.6724 79.4118C98.8303 79.4118 98.9818 79.4745 99.0934 79.5862C99.2051 79.6978 99.2678 79.8493 99.2678 80.0072H99.9672V79.3442C99.8093 79.3442 99.6579 79.2814 99.5462 79.1698C99.4346 79.0581 99.3718 78.9067 99.3718 78.7488C99.3718 78.5909 99.4346 78.4394 99.5462 78.3278C99.6579 78.2161 99.8093 78.1534 99.9672 78.1534V77.3968C99.8856 77.4022 99.8037 77.3907 99.7266 77.3632C99.6495 77.3356 99.5789 77.2926 99.5191 77.2366C99.4594 77.1807 99.4118 77.1131 99.3792 77.038C99.3466 76.9629 99.3298 76.8819 99.3298 76.8001C99.3298 76.7182 99.3466 76.6372 99.3792 76.5621C99.4118 76.4871 99.4594 76.4194 99.5191 76.3635C99.5789 76.3076 99.6495 76.2645 99.7266 76.2369C99.8037 76.2094 99.8856 76.198 99.9672 76.2034V75.4468C99.889 75.4468 99.8116 75.4314 99.7394 75.4014C99.6671 75.3715 99.6015 75.3277 99.5462 75.2724C99.4909 75.2171 99.4471 75.1515 99.4172 75.0792C99.3872 75.007 99.3718 74.9296 99.3718 74.8514C99.3718 74.7732 99.3872 74.6958 99.4172 74.6235C99.4471 74.5513 99.4909 74.4856 99.5462 74.4304C99.6015 74.3751 99.6671 74.3312 99.7394 74.3013C99.8116 74.2714 99.889 74.256 99.9672 74.256V73.4968C99.8093 73.4968 99.6579 73.434 99.5462 73.3224C99.4346 73.2107 99.3718 73.0593 99.3718 72.9014C99.3718 72.7435 99.4346 72.592 99.5462 72.4804C99.6579 72.3687 99.8093 72.306 99.9672 72.306V71.5468C99.889 71.5468 99.8116 71.5314 99.7394 71.5014C99.6671 71.4715 99.6015 71.4277 99.5462 71.3724C99.4909 71.3171 99.4471 71.2515 99.4172 71.1792C99.3872 71.107 99.3718 71.0296 99.3718 70.9514C99.3718 70.8732 99.3872 70.7958 99.4172 70.7235C99.4471 70.6513 99.4909 70.5856 99.5462 70.5304C99.6015 70.4751 99.6671 70.4312 99.7394 70.4013C99.8116 70.3714 99.889 70.356 99.9672 70.356V69.5968C99.8093 69.5968 99.6579 69.534 99.5462 69.4224C99.4346 69.3107 99.3718 69.1593 99.3718 69.0014C99.3718 68.8435 99.4346 68.692 99.5462 68.5804C99.6579 68.4687 99.8093 68.406 99.9672 68.406V67.7222H99.2652C99.2553 67.8729 99.1883 68.0143 99.078 68.1175C98.9677 68.2208 98.8222 68.2782 98.6711 68.2782C98.52 68.2782 98.3746 68.2208 98.2643 68.1175C98.154 68.0143 98.087 67.8729 98.077 67.7222H97.3152C97.3053 67.8729 97.2383 68.0143 97.128 68.1175C97.0177 68.2208 96.8722 68.2782 96.7211 68.2782C96.57 68.2782 96.4246 68.2208 96.3143 68.1175C96.204 68.0143 96.137 67.8729 96.127 67.7222H95.3652C95.3553 67.8729 95.2883 68.0143 95.178 68.1175C95.0677 68.2208 94.9222 68.2782 94.7711 68.2782C94.62 68.2782 94.4746 68.2208 94.3643 68.1175C94.254 68.0143 94.187 67.8729 94.177 67.7222H93.4152C93.4053 67.8729 93.3383 68.0143 93.228 68.1175C93.1177 68.2208 92.9722 68.2782 92.8211 68.2782C92.67 68.2782 92.5246 68.2208 92.4143 68.1175C92.304 68.0143 92.237 67.8729 92.227 67.7222H91.4652C91.4553 67.8729 91.3883 68.0143 91.278 68.1175C91.1677 68.2208 91.0222 68.2782 90.8711 68.2782C90.72 68.2782 90.5746 68.2208 90.4643 68.1175C90.354 68.0143 90.287 67.8729 90.277 67.7222H89.5776V68.406C89.7353 68.4067 89.8864 68.4696 89.9979 68.5811C90.1094 68.6926 90.1724 68.8437 90.173 69.0014Z" fill="white"/>
<path d="M91.4782 77.8986H98.064V69.8256H91.4782V77.8986Z" fill="#FFC727"/>
</svg>
