<svg width="20" height="20" viewBox="0 0 20 20" fill="none" xmlns="http://www.w3.org/2000/svg">
<path opacity="0.4" d="M18.3333 8.96716C18.3333 8.57549 18.0167 8.25049 17.6167 8.25049H2.38332C1.98332 8.25049 1.66666 8.56716 1.66666 8.96716C1.66666 13.8755 5.09166 17.3005 9.99999 17.3005C14.9083 17.3005 18.3333 13.8672 18.3333 8.96716Z" fill="#022B23"/>
<path d="M10.4417 2.88383L12.8167 5.2505C13.0583 5.49217 13.0583 5.89217 12.8167 6.13383C12.575 6.3755 12.175 6.3755 11.9333 6.13383L10.625 4.83383V12.8088C10.625 13.1505 10.3417 13.4338 10 13.4338C9.65833 13.4338 9.375 13.1505 9.375 12.8088V4.83383L8.075 6.14217C7.83333 6.38383 7.43333 6.38383 7.19167 6.14217C7.06667 6.01717 7 5.85883 7 5.7005C7 5.54217 7.05833 5.38383 7.18333 5.25883L9.55833 2.89217C9.8 2.64217 10.2 2.64217 10.4417 2.88383Z" fill="#022B23"/>
</svg>
