<svg width="18" height="19" viewBox="0 0 18 19" fill="none" xmlns="http://www.w3.org/2000/svg">
<path d="M4.8374 17C4.5299 17 4.2749 16.745 4.2749 16.4375V2.5625C4.2749 2.255 4.5299 2 4.8374 2C5.1449 2 5.3999 2.255 5.3999 2.5625V16.4375C5.3999 16.745 5.1449 17 4.8374 17Z" fill="#707070"/>
<path opacity="0.4" d="M11.3999 5.86991L5.32494 3.24491C5.23494 3.19991 5.13744 3.21491 5.05494 3.26741C4.97994 3.31991 4.93494 3.40241 4.93494 3.49991V13.2499C4.93494 13.3474 4.98744 13.4374 5.06994 13.4899C5.11494 13.5199 5.16744 13.5349 5.21994 13.5349C5.26494 13.5349 5.30244 13.5274 5.34744 13.5049L11.5724 10.4299C11.5724 10.4299 11.5724 10.4299 11.5799 10.4299C12.8249 9.78491 13.4924 8.95241 13.4549 8.07491C13.4099 7.18991 12.6824 6.40991 11.3999 5.86991Z" fill="#707070"/>
</svg>
