<svg width="401" height="267" viewBox="0 0 401 267" fill="none" xmlns="http://www.w3.org/2000/svg">
<path d="M357.422 33.1083C357.738 30.8441 354.539 28.9804 352.141 28.7882C350.993 28.6921 349.802 28.8683 348.718 28.4892C346.369 27.6721 345.429 24.6337 343.138 23.6832C341.424 22.9569 339.448 23.6031 337.798 24.4414C336.148 25.2798 334.493 26.3318 332.634 26.4493C331.032 26.5507 329.265 25.9527 327.828 26.743C326.76 27.3304 326.226 28.5426 325.254 29.2581C324.282 29.9737 323.065 30.1072 321.885 30.1713C320.705 30.2353 319.487 30.246 318.414 30.7373C317.34 31.2286 316.454 32.3393 316.678 33.5248L357.422 33.1083Z" fill="#F5F5F5"/>
<path d="M100.2 73.4302H55.0662V216.467H100.2V73.4302Z" fill="#F5F5F5"/>
<path d="M100.2 73.4302H77.6331V216.072H100.2V73.4302Z" fill="#EBEBEB"/>
<path d="M76.1591 59.3916H60.2192V73.4358H76.1591V59.3916Z" fill="#F5F5F5"/>
<path d="M76.1537 59.3916H72.3569V73.4358H76.1537V59.3916Z" fill="#EBEBEB"/>
<path d="M51.3066 73.4303V72.6133H101.519V73.4303" fill="#E0E0E0"/>
<path d="M67.7915 79.5552H63.9734V87.6079H67.7915V79.5552Z" fill="#FAFAFA"/>
<path d="M77.633 90.7799C77.633 90.86 72.5814 90.9294 66.3496 90.9294C60.1178 90.9294 55.0662 90.86 55.0662 90.7799C55.0662 90.6998 60.1178 90.625 66.3496 90.625C72.5814 90.625 77.633 90.6891 77.633 90.7799Z" fill="#E0E0E0"/>
<path d="M90.5559 79.5552H86.7378V87.6079H90.5559V79.5552Z" fill="#E0E0E0"/>
<path d="M100.392 90.7799C100.392 90.86 95.3404 90.9294 89.1086 90.9294C82.8768 90.9294 77.8252 90.86 77.8252 90.7799C77.8252 90.6998 82.8768 90.625 89.1086 90.625C95.3404 90.625 100.392 90.6891 100.392 90.7799Z" fill="#E0E0E0"/>
<path d="M90.5559 95.5488H86.7378V103.607H90.5559V95.5488Z" fill="#E0E0E0"/>
<path d="M100.392 106.768C100.392 106.848 95.3404 106.918 89.1086 106.918C82.8768 106.918 77.8252 106.848 77.8252 106.768C77.8252 106.688 82.8768 106.613 89.1086 106.613C95.3404 106.613 100.392 106.683 100.392 106.768Z" fill="#E0E0E0"/>
<path d="M90.5559 112.022H86.7378V120.075H90.5559V112.022Z" fill="#E0E0E0"/>
<path d="M100.392 123.242C100.392 123.327 95.3404 123.397 89.1086 123.397C82.8768 123.397 77.8252 123.327 77.8252 123.242C77.8252 123.156 82.8768 123.087 89.1086 123.087C95.3404 123.087 100.392 123.156 100.392 123.242Z" fill="#E0E0E0"/>
<path d="M90.5559 128.502H86.7378V136.555H90.5559V128.502Z" fill="#E0E0E0"/>
<path d="M100.392 139.716C100.392 139.801 95.3404 139.871 89.1086 139.871C82.8768 139.871 77.8252 139.801 77.8252 139.716C77.8252 139.63 82.8768 139.561 89.1086 139.561C95.3404 139.561 100.392 139.63 100.392 139.716Z" fill="#E0E0E0"/>
<path d="M90.5559 144.506H86.7378V152.559H90.5559V144.506Z" fill="#E0E0E0"/>
<path d="M100.392 155.72C100.392 155.805 95.3404 155.875 89.1086 155.875C82.8768 155.875 77.8252 155.805 77.8252 155.72C77.8252 155.634 82.8768 155.565 89.1086 155.565C95.3404 155.565 100.392 155.634 100.392 155.72Z" fill="#E0E0E0"/>
<path d="M90.5559 160.574H86.7378V168.626H90.5559V160.574Z" fill="#E0E0E0"/>
<path d="M90.5559 176.85H86.7378V184.903H90.5559V176.85Z" fill="#E0E0E0"/>
<path d="M100.392 171.788C100.392 171.873 95.3404 171.943 89.1086 171.943C82.8768 171.943 77.8252 171.873 77.8252 171.788C77.8252 171.702 82.8768 171.638 89.1086 171.638C95.3404 171.638 100.392 171.708 100.392 171.788Z" fill="#E0E0E0"/>
<path d="M67.7915 95.7944H63.9734V103.847H67.7915V95.7944Z" fill="#FAFAFA"/>
<path d="M77.633 107.008C77.633 107.094 72.5814 107.163 66.3496 107.163C60.1178 107.163 55.0662 107.094 55.0662 107.008C55.0662 106.923 60.1178 106.854 66.3496 106.854C72.5814 106.854 77.633 106.923 77.633 107.008Z" fill="#E0E0E0"/>
<path d="M67.7915 112.028H63.9734V120.081H67.7915V112.028Z" fill="#FAFAFA"/>
<path d="M77.633 123.247C77.633 123.333 72.5814 123.402 66.3496 123.402C60.1178 123.402 55.0662 123.333 55.0662 123.247C55.0662 123.162 60.1178 123.092 66.3496 123.092C72.5814 123.092 77.633 123.162 77.633 123.247Z" fill="#E0E0E0"/>
<path d="M67.7915 128.267H63.9734V136.32H67.7915V128.267Z" fill="#FAFAFA"/>
<path d="M77.633 139.486C77.633 139.566 72.5814 139.635 66.3496 139.635C60.1178 139.635 55.0662 139.566 55.0662 139.486C55.0662 139.406 60.1178 139.331 66.3496 139.331C72.5814 139.331 77.633 139.4 77.633 139.486Z" fill="#E0E0E0"/>
<path d="M67.7915 144.506H63.9734V152.559H67.7915V144.506Z" fill="#FAFAFA"/>
<path d="M77.633 155.72C77.633 155.805 72.5814 155.875 66.3496 155.875C60.1178 155.875 55.0662 155.805 55.0662 155.72C55.0662 155.634 60.1178 155.565 66.3496 155.565C72.5814 155.565 77.633 155.634 77.633 155.72Z" fill="#E0E0E0"/>
<path d="M67.7915 160.739H63.9734V168.792H67.7915V160.739Z" fill="#FAFAFA"/>
<path d="M77.633 171.948C77.633 172.033 72.5814 172.103 66.3496 172.103C60.1178 172.103 55.0662 172.033 55.0662 171.948C55.0662 171.862 60.1178 171.793 66.3496 171.793C72.5814 171.793 77.633 171.873 77.633 171.948Z" fill="#E0E0E0"/>
<path d="M67.7915 176.978H63.9734V185.031H67.7915V176.978Z" fill="#FAFAFA"/>
<path d="M278.289 40.8081H213.231V246.985H278.289V40.8081Z" fill="#F5F5F5"/>
<path d="M278.284 40.8081H245.758V246.419H278.284V40.8081Z" fill="#EBEBEB"/>
<path d="M243.632 20.5698H220.66V40.8138H243.632V20.5698Z" fill="#F5F5F5"/>
<path d="M243.632 20.5698H238.159V40.8138H243.632V20.5698Z" fill="#EBEBEB"/>
<path d="M207.812 40.8081V39.6279H280.19V40.8081" fill="#E0E0E0"/>
<path d="M231.58 49.6406H226.074V61.2498H231.58V49.6406Z" fill="#FAFAFA"/>
<path d="M245.757 65.8049C245.757 65.9277 238.479 66.0292 229.497 66.0292C220.515 66.0292 213.231 65.9277 213.231 65.8049C213.231 65.6821 220.51 65.5859 229.497 65.5859C238.484 65.5859 245.757 65.6821 245.757 65.8049Z" fill="#E0E0E0"/>
<path d="M264.389 49.6406H258.883V61.2498H264.389V49.6406Z" fill="#E0E0E0"/>
<path d="M278.572 65.8049C278.572 65.9277 271.288 66.0292 262.306 66.0292C253.324 66.0292 246.041 65.9277 246.041 65.8049C246.041 65.6821 253.324 65.5859 262.306 65.5859C271.288 65.5859 278.572 65.6821 278.572 65.8049Z" fill="#E0E0E0"/>
<path d="M264.389 72.6934H258.883V84.3025H264.389V72.6934Z" fill="#E0E0E0"/>
<path d="M278.572 88.863C278.572 88.9858 271.288 89.0819 262.306 89.0819C253.324 89.0819 246.041 88.9858 246.041 88.863C246.041 88.7401 253.324 88.6387 262.306 88.6387C271.288 88.6387 278.572 88.7401 278.572 88.863Z" fill="#E0E0E0"/>
<path d="M264.389 96.4404H258.883V108.05H264.389V96.4404Z" fill="#E0E0E0"/>
<path d="M278.572 112.61C278.572 112.733 271.288 112.834 262.306 112.834C253.324 112.834 246.041 112.733 246.041 112.61C246.041 112.487 253.324 112.386 262.306 112.386C271.288 112.386 278.572 112.487 278.572 112.61Z" fill="#E0E0E0"/>
<path d="M264.389 120.193H258.883V131.802H264.389V120.193Z" fill="#E0E0E0"/>
<path d="M278.572 136.357C278.572 136.479 271.288 136.581 262.306 136.581C253.324 136.581 246.041 136.479 246.041 136.357C246.041 136.234 253.324 136.138 262.306 136.138C271.288 136.138 278.572 136.234 278.572 136.357Z" fill="#E0E0E0"/>
<path d="M264.389 143.261H258.883V154.87H264.389V143.261Z" fill="#E0E0E0"/>
<path d="M278.572 159.431C278.572 159.549 271.288 159.65 262.306 159.65C253.324 159.65 246.041 159.549 246.041 159.431C246.041 159.314 253.324 159.207 262.306 159.207C271.288 159.207 278.572 159.308 278.572 159.431Z" fill="#E0E0E0"/>
<path d="M264.389 166.421H258.883V178.03H264.389V166.421Z" fill="#E0E0E0"/>
<path d="M264.389 189.891H258.883V201.5H264.389V189.891Z" fill="#E0E0E0"/>
<path d="M278.572 182.591C278.572 182.713 271.288 182.815 262.306 182.815C253.324 182.815 246.041 182.713 246.041 182.591C246.041 182.468 253.324 182.372 262.306 182.372C271.288 182.372 278.572 182.468 278.572 182.591Z" fill="#E0E0E0"/>
<path d="M231.58 73.0459H226.074V84.6551H231.58V73.0459Z" fill="#FAFAFA"/>
<path d="M245.757 89.2155C245.757 89.333 238.479 89.4344 229.497 89.4344C220.515 89.4344 213.231 89.333 213.231 89.2155C213.231 89.098 220.51 88.9912 229.497 88.9912C238.484 88.9912 245.757 89.0927 245.757 89.2155Z" fill="#E0E0E0"/>
<path d="M231.58 96.4512H226.074V108.06H231.58V96.4512Z" fill="#FAFAFA"/>
<path d="M245.757 112.621C245.757 112.738 238.479 112.84 229.497 112.84C220.515 112.84 213.231 112.738 213.231 112.621C213.231 112.503 220.51 112.396 229.497 112.396C238.484 112.396 245.757 112.498 245.757 112.621Z" fill="#E0E0E0"/>
<path d="M231.58 119.856H226.074V131.466H231.58V119.856Z" fill="#FAFAFA"/>
<path d="M245.757 136.026C245.757 136.144 238.479 136.245 229.497 136.245C220.515 136.245 213.231 136.144 213.231 136.026C213.231 135.909 220.51 135.802 229.497 135.802C238.484 135.802 245.757 135.903 245.757 136.026Z" fill="#E0E0E0"/>
<path d="M231.58 143.261H226.074V154.87H231.58V143.261Z" fill="#FAFAFA"/>
<path d="M245.757 159.431C245.757 159.549 238.479 159.65 229.497 159.65C220.515 159.65 213.231 159.549 213.231 159.431C213.231 159.314 220.51 159.207 229.497 159.207C238.484 159.207 245.757 159.308 245.757 159.431Z" fill="#E0E0E0"/>
<path d="M231.58 166.667H226.074V178.276H231.58V166.667Z" fill="#FAFAFA"/>
<path d="M245.757 182.837C245.757 182.959 238.479 183.056 229.497 183.056C220.515 183.056 213.231 182.959 213.231 182.837C213.231 182.714 220.51 182.612 229.497 182.612C238.484 182.612 245.757 182.714 245.757 182.837Z" fill="#E0E0E0"/>
<path d="M231.58 190.072H226.074V201.681H231.58V190.072Z" fill="#FAFAFA"/>
<path d="M301.246 134.338H265.703V246.98H301.246V134.338Z" fill="#F5F5F5"/>
<path d="M301.245 134.338H283.474V246.671H301.245V134.338Z" fill="#EBEBEB"/>
<path d="M282.31 123.279H269.761V134.338H282.31V123.279Z" fill="#F5F5F5"/>
<path d="M282.31 123.279H279.32V134.338H282.31V123.279Z" fill="#EBEBEB"/>
<path d="M262.739 134.339V133.692H302.287V134.339" fill="#E0E0E0"/>
<path d="M275.726 139.161H272.719V145.505H275.726V139.161Z" fill="#FAFAFA"/>
<path d="M283.474 147.998C283.474 148.062 279.496 148.115 274.588 148.115C269.681 148.115 265.703 148.062 265.703 147.998C265.703 147.934 269.681 147.875 274.588 147.875C279.496 147.875 283.474 147.918 283.474 147.998Z" fill="#E0E0E0"/>
<path d="M293.652 139.161H290.646V145.505H293.652V139.161Z" fill="#E0E0E0"/>
<path d="M301.4 147.998C301.4 148.062 297.422 148.115 292.515 148.115C287.607 148.115 283.629 148.062 283.629 147.998C283.629 147.934 287.607 147.875 292.515 147.875C297.422 147.875 301.4 147.918 301.4 147.998Z" fill="#E0E0E0"/>
<path d="M293.652 151.757H290.646V158.101H293.652V151.757Z" fill="#E0E0E0"/>
<path d="M301.4 160.59C301.4 160.659 297.422 160.712 292.515 160.712C287.607 160.712 283.629 160.659 283.629 160.59C283.629 160.52 287.607 160.467 292.515 160.467C297.422 160.467 301.4 160.526 301.4 160.59Z" fill="#E0E0E0"/>
<path d="M293.652 164.734H290.646V171.078H293.652V164.734Z" fill="#E0E0E0"/>
<path d="M301.4 173.55C301.4 173.614 297.422 173.673 292.515 173.673C287.607 173.673 283.629 173.614 283.629 173.55C283.629 173.486 287.607 173.427 292.515 173.427C297.422 173.427 301.4 173.497 301.4 173.55Z" fill="#E0E0E0"/>
<path d="M293.652 177.705H290.646V184.049H293.652V177.705Z" fill="#E0E0E0"/>
<path d="M301.4 186.542C301.4 186.606 297.422 186.66 292.515 186.66C287.607 186.66 283.629 186.606 283.629 186.542C283.629 186.478 287.607 186.419 292.515 186.419C297.422 186.419 301.4 186.473 301.4 186.542Z" fill="#E0E0E0"/>
<path d="M293.652 190.312H290.646V196.656H293.652V190.312Z" fill="#E0E0E0"/>
<path d="M301.4 199.145C301.4 199.214 297.422 199.268 292.515 199.268C287.607 199.268 283.629 199.214 283.629 199.145C283.629 199.075 287.607 199.022 292.515 199.022C297.422 199.022 301.4 199.075 301.4 199.145Z" fill="#E0E0E0"/>
<path d="M293.652 202.968H290.646V209.312H293.652V202.968Z" fill="#E0E0E0"/>
<path d="M293.652 215.784H290.646V222.128H293.652V215.784Z" fill="#E0E0E0"/>
<path d="M301.4 211.801C301.4 211.865 297.422 211.918 292.515 211.918C287.607 211.918 283.629 211.865 283.629 211.801C283.629 211.736 287.607 211.678 292.515 211.678C297.422 211.678 301.4 211.731 301.4 211.801Z" fill="#E0E0E0"/>
<path d="M275.726 151.95H272.719V158.294H275.726V151.95Z" fill="#FAFAFA"/>
<path d="M283.474 160.782C283.474 160.851 279.496 160.905 274.588 160.905C269.681 160.905 265.703 160.851 265.703 160.782C265.703 160.713 269.681 160.659 274.588 160.659C279.496 160.659 283.474 160.734 283.474 160.782Z" fill="#E0E0E0"/>
<path d="M275.726 164.739H272.719V171.083H275.726V164.739Z" fill="#FAFAFA"/>
<path d="M283.474 173.55C283.474 173.614 279.496 173.668 274.588 173.668C269.681 173.668 265.703 173.614 265.703 173.55C265.703 173.486 269.681 173.427 274.588 173.427C279.496 173.427 283.474 173.502 283.474 173.55Z" fill="#E0E0E0"/>
<path d="M275.726 177.523H272.719V183.867H275.726V177.523Z" fill="#FAFAFA"/>
<path d="M283.474 186.366C283.474 186.435 279.496 186.489 274.588 186.489C269.681 186.489 265.703 186.435 265.703 186.366C265.703 186.297 269.681 186.249 274.588 186.249C279.496 186.249 283.474 186.291 283.474 186.366Z" fill="#E0E0E0"/>
<path d="M275.726 190.312H272.719V196.656H275.726V190.312Z" fill="#FAFAFA"/>
<path d="M283.474 199.145C283.474 199.214 279.496 199.268 274.588 199.268C269.681 199.268 265.703 199.214 265.703 199.145C265.703 199.075 269.681 199.022 274.588 199.022C279.496 199.022 283.474 199.075 283.474 199.145Z" fill="#E0E0E0"/>
<path d="M275.726 203.096H272.719V209.44H275.726V203.096Z" fill="#FAFAFA"/>
<path d="M283.474 211.934C283.474 211.998 279.496 212.051 274.588 212.051C269.681 212.051 265.703 211.998 265.703 211.934C265.703 211.87 269.681 211.811 274.588 211.811C279.496 211.811 283.474 211.864 283.474 211.934Z" fill="#E0E0E0"/>
<path d="M275.726 215.886H272.719V222.23H275.726V215.886Z" fill="#FAFAFA"/>
<path d="M122.996 174.362H84.73V246.986H122.996V174.362Z" fill="#E0E0E0"/>
<path d="M122.996 174.362H105.054V246.986H122.996V174.362Z" fill="#EBEBEB"/>
<path d="M96.1948 181.191H92.7559V189.549H96.1948V181.191Z" fill="#F5F5F5"/>
<path d="M96.1948 213.91H92.7559V222.267H96.1948V213.91Z" fill="#F5F5F5"/>
<path d="M105.054 192.833C105.054 192.908 100.504 192.961 94.9077 192.961C89.3114 192.961 84.7617 192.908 84.7617 192.833C84.7617 192.758 89.3114 192.705 94.9077 192.705C100.504 192.705 105.054 192.774 105.054 192.833Z" fill="#F5F5F5"/>
<path d="M96.1948 197.676H92.7559V206.033H96.1948V197.676Z" fill="#F5F5F5"/>
<path d="M105.054 209.328C105.054 209.397 100.504 209.456 94.9077 209.456C89.3114 209.456 84.7617 209.397 84.7617 209.328C84.7617 209.258 89.3114 209.194 94.9077 209.194C100.504 209.194 105.054 209.242 105.054 209.328Z" fill="#F5F5F5"/>
<path d="M112.306 181.191H108.867V189.549H112.306V181.191Z" fill="#E0E0E0"/>
<path d="M119.771 181.191H116.332V189.549H119.771V181.191Z" fill="#E0E0E0"/>
<path d="M112.306 197.057H108.867V205.414H112.306V197.057Z" fill="#E0E0E0"/>
<path d="M119.771 197.057H116.332V205.414H119.771V197.057Z" fill="#E0E0E0"/>
<path d="M112.306 212.917H108.867V221.274H112.306V212.917Z" fill="#E0E0E0"/>
<path d="M119.771 212.917H116.332V221.274H119.771V212.917Z" fill="#E0E0E0"/>
<path d="M125.875 172.605H81.8569V174.426H125.875V172.605Z" fill="#E0E0E0"/>
<path d="M123.263 174.618C123.263 174.687 114.719 174.746 104.162 174.746C93.6048 174.746 85.0608 174.687 85.0608 174.618C85.0608 174.548 93.6048 174.484 104.162 174.484C114.719 174.484 123.263 174.522 123.263 174.618Z" fill="#EBEBEB"/>
<path d="M85.1677 246.932H23.5441L23.2717 149.536H84.9007L85.1677 246.932Z" fill="#EBEBEB"/>
<path d="M84.9007 149.536H54.0889V246.932H84.9007V149.536Z" fill="#E0E0E0"/>
<path d="M52.0706 130.36H30.3101V149.536H52.0706V130.36Z" fill="#EBEBEB"/>
<path d="M52.0704 130.36H46.8853V149.536H52.0704V130.36Z" fill="#E0E0E0"/>
<path d="M86.7057 148.415H18.1401V149.531H86.7057V148.415Z" fill="#E0E0E0"/>
<path d="M40.6537 157.898H35.4365V168.899H40.6537V157.898Z" fill="white"/>
<path d="M54.0889 173.214C54.0889 173.331 47.1896 173.422 38.683 173.422C30.1763 173.422 23.2717 173.331 23.2717 173.214C23.2717 173.096 30.171 173.016 38.683 173.016C47.1949 173.016 54.0889 173.096 54.0889 173.214Z" fill="#E0E0E0"/>
<path d="M71.7377 157.898H66.5205V168.899H71.7377V157.898Z" fill="#F5F5F5"/>
<path d="M85.1678 173.214C85.1678 173.331 78.2685 173.422 69.7619 173.422C61.2552 173.422 54.356 173.331 54.356 173.214C54.356 173.096 61.2499 173.005 69.7619 173.005C78.2738 173.005 85.1678 173.096 85.1678 173.214Z" fill="#EBEBEB"/>
<path d="M71.7377 179.734H66.5205V190.734H71.7377V179.734Z" fill="#F5F5F5"/>
<path d="M85.1678 195.054C85.1678 195.167 78.2685 195.263 69.7619 195.263C61.2552 195.263 54.356 195.167 54.356 195.054C54.356 194.942 61.2499 194.841 69.7619 194.841C78.2738 194.841 85.1678 194.937 85.1678 195.054Z" fill="#EBEBEB"/>
<path d="M71.7377 202.231H66.5205V213.231H71.7377V202.231Z" fill="#F5F5F5"/>
<path d="M85.1678 217.551C85.1678 217.664 78.2685 217.76 69.7619 217.76C61.2552 217.76 54.356 217.664 54.356 217.551C54.356 217.439 61.2499 217.338 69.7619 217.338C78.2738 217.338 85.1678 217.434 85.1678 217.551Z" fill="#EBEBEB"/>
<path d="M71.7377 224.729H66.5205V235.729H71.7377V224.729Z" fill="#F5F5F5"/>
<path d="M85.1678 240.044C85.1678 240.161 78.2685 240.257 69.7619 240.257C61.2552 240.257 54.356 240.161 54.356 240.044C54.356 239.926 61.2499 239.835 69.7619 239.835C78.2738 239.835 85.1678 239.932 85.1678 240.044Z" fill="#EBEBEB"/>
<path d="M40.6537 180.07H35.4365V191.071H40.6537V180.07Z" fill="white"/>
<path d="M54.0889 195.385C54.0889 195.503 47.1896 195.593 38.683 195.593C30.1763 195.593 23.2717 195.503 23.2717 195.385C23.2717 195.268 30.171 195.177 38.683 195.177C47.1949 195.177 54.0889 195.268 54.0889 195.385Z" fill="#E0E0E0"/>
<path d="M40.6537 202.242H35.4365V213.242H40.6537V202.242Z" fill="white"/>
<path d="M54.0889 217.557C54.0889 217.674 47.1896 217.765 38.683 217.765C30.1763 217.765 23.2717 217.674 23.2717 217.557C23.2717 217.439 30.171 217.338 38.683 217.338C47.1949 217.338 54.0889 217.439 54.0889 217.557Z" fill="#E0E0E0"/>
<path d="M40.6537 224.414H35.4365V235.414H40.6537V224.414Z" fill="white"/>
<path d="M54.0889 239.729C54.0889 239.846 47.1896 239.937 38.683 239.937C30.1763 239.937 23.2717 239.846 23.2717 239.729C23.2717 239.611 30.171 239.521 38.683 239.521C47.1949 239.521 54.0889 239.611 54.0889 239.729Z" fill="#E0E0E0"/>
<path d="M377.298 96.1198C377.741 92.8837 373.175 90.2458 369.742 89.9467C368.108 89.8132 366.404 90.0642 364.856 89.5249C361.497 88.3554 360.156 84.014 356.878 82.631C354.427 81.595 351.602 82.5188 349.231 83.699C346.86 84.8791 344.505 86.3956 341.851 86.5665C339.544 86.716 337.045 85.8563 335.016 86.9884C333.51 87.8268 332.719 89.5623 331.331 90.5875C329.943 91.6128 328.207 91.7997 326.525 91.8905C324.843 91.9813 323.097 91.9973 321.564 92.7022C320.032 93.4071 318.761 95.0251 319.081 96.6805L377.298 96.1198Z" fill="#F5F5F5"/>
<path d="M390.952 211.341H341.376V246.98H390.952V211.341Z" fill="#EBEBEB"/>
<path d="M354.672 211.341C354.747 211.341 354.672 218.865 354.672 218.865H351.004V211.341H354.672Z" fill="#F5F5F5"/>
<path d="M366.164 246.98H390.952V211.341H366.164V246.98Z" fill="#E0E0E0"/>
<path d="M349.525 240.006H342.887V244.7H349.525V240.006Z" fill="white"/>
<path d="M354.069 240.006H350.753V244.7H354.069V240.006Z" fill="white"/>
<path d="M386.242 188.134H353.962V211.341H386.242V188.134Z" fill="#EBEBEB"/>
<path d="M362.624 188.134C362.666 188.134 362.624 193.036 362.624 193.036H360.231V188.134H362.624Z" fill="#F5F5F5"/>
<path d="M370.105 211.341H386.242V188.134H370.105V211.341Z" fill="#E0E0E0"/>
<path d="M359.27 206.797H354.95V209.857H359.27V206.797Z" fill="white"/>
<path d="M362.228 206.797H360.066V209.857H362.228V206.797Z" fill="white"/>
<path d="M56.2889 33.9093C56.5399 32.0777 53.9553 30.5665 52.0169 30.4116C51.0877 30.3369 50.1265 30.4757 49.2454 30.1713C47.3444 29.5092 46.5754 27.0528 44.7278 26.2678C43.3394 25.6804 41.7427 26.2037 40.3971 26.8819C39.0514 27.5601 37.7271 28.4091 36.2212 28.4839C34.9129 28.5693 33.4924 28.0834 32.3497 28.7242C31.4953 29.1995 31.0467 30.182 30.2617 30.7587C29.4434 31.2661 28.4957 31.5258 27.533 31.5063C26.576 31.4792 25.6227 31.6351 24.7242 31.9656C23.8537 32.3607 23.1222 33.2792 23.3144 34.2191L56.2889 33.9093Z" fill="#EBEBEB"/>
<path d="M386.301 71.1128C386.547 69.3239 384.026 67.8554 382.131 67.7006C381.228 67.6311 380.288 67.7646 379.429 67.4709C377.576 66.8195 376.833 64.4218 375.023 63.6582C373.672 63.0921 372.113 63.5994 370.799 64.2563C369.486 64.9131 368.188 65.7515 366.725 65.8583C365.449 65.9437 364.055 65.4684 362.949 66.0932C362.116 66.5578 361.684 67.5137 360.915 68.0797C360.113 68.5713 359.186 68.8215 358.245 68.8006C357.312 68.776 356.382 68.9282 355.505 69.2492C354.656 69.6336 353.957 70.5308 354.133 71.4439L386.301 71.1128Z" fill="#EBEBEB"/>
<path d="M113.059 45.2566C113.518 41.9084 108.787 39.153 105.246 38.8486C103.548 38.7151 101.791 38.9714 100.189 38.4161C96.7128 37.2039 95.3245 32.713 91.9336 31.2818C89.397 30.2138 86.4814 31.1644 84.025 32.4032C81.5686 33.6421 79.1389 35.1961 76.3941 35.3723C74.0018 35.5271 71.4119 34.6407 69.3186 35.8048C67.7647 36.6752 66.9477 38.4748 65.5112 39.5428C64.0748 40.6108 62.2805 40.7977 60.5343 40.8938C58.7882 40.99 56.9886 41.006 55.4026 41.7322C53.8166 42.4585 52.5083 44.1352 52.8341 45.8494L113.059 45.2566Z" fill="#F5F5F5"/>
<path d="M390.771 246.98C390.771 247.06 309.229 247.119 208.677 247.119C108.124 247.119 26.5825 247.06 26.5825 246.98C26.5825 246.9 108.108 246.841 208.703 246.841C309.298 246.841 390.771 246.905 390.771 246.98Z" fill="#263238"/>
<path d="M172.242 224.622C172.809 224.754 173.344 225 173.813 225.344C174.283 225.688 174.679 226.123 174.976 226.624C175.568 227.629 175.921 228.756 176.007 229.919C176.242 232.156 175.473 234.634 174.533 236.669C172.343 235.467 171.329 232.765 170.864 231.361C170.17 229.139 170.261 224.702 172.242 224.622Z" fill="#022B23"/>
<path d="M177.459 239.803C177.197 239.207 177.097 238.551 177.17 237.903C177.242 237.255 177.484 236.638 177.871 236.113C178.268 235.597 178.764 235.166 179.329 234.843C179.895 234.52 180.519 234.313 181.165 234.234C181.458 234.165 181.762 234.161 182.057 234.223C182.351 234.285 182.628 234.411 182.869 234.592C183.062 234.796 183.197 235.048 183.262 235.322C183.327 235.596 183.318 235.881 183.237 236.151C183.061 236.686 182.748 237.167 182.329 237.545C180.957 238.89 179.382 239.948 177.459 239.803Z" fill="#022B23"/>
<path d="M176.578 247.007C176.55 246.856 176.537 246.702 176.541 246.548C176.541 246.217 176.514 245.795 176.498 245.288C176.407 243.892 176.542 242.491 176.898 241.138C177.279 239.781 178.016 238.551 179.034 237.577C179.344 237.288 179.686 237.037 180.054 236.829C180.154 236.77 180.257 236.718 180.364 236.674C180.433 236.642 180.471 236.626 180.476 236.631C179.987 236.928 179.529 237.274 179.109 237.662C178.14 238.645 177.434 239.858 177.059 241.186C176.707 242.524 176.56 243.906 176.621 245.288C176.621 245.822 176.621 246.249 176.621 246.548C176.621 246.702 176.607 246.856 176.578 247.007Z" fill="#263238"/>
<path d="M172.482 228.018C172.511 228.078 172.532 228.14 172.546 228.205C172.589 228.349 172.637 228.536 172.701 228.739C172.835 229.225 173.022 229.924 173.235 230.795C173.678 232.53 174.255 234.933 174.837 237.609C175.419 240.284 175.878 242.708 176.193 244.476C176.348 245.357 176.471 246.078 176.546 246.564C176.583 246.799 176.61 246.991 176.631 247.135C176.636 247.203 176.636 247.271 176.631 247.338C176.606 247.275 176.588 247.208 176.578 247.141C176.546 246.996 176.509 246.81 176.46 246.575C176.364 246.067 176.226 245.357 176.06 244.497C175.718 242.74 175.232 240.311 174.661 237.641C174.09 234.971 173.523 232.562 173.112 230.822C172.909 229.962 172.744 229.262 172.626 228.755L172.498 228.221C172.485 228.154 172.48 228.086 172.482 228.018Z" fill="#263238"/>
<path d="M174.576 241.827C174.062 240.553 173.253 239.42 172.215 238.521C171.177 237.623 169.939 236.984 168.605 236.658C167.927 236.498 167.084 236.482 166.678 237.053C166.272 237.624 166.571 238.415 166.955 238.997C167.785 240.196 168.95 241.123 170.305 241.661C171.66 242.199 173.144 242.323 174.57 242.019" fill="#022B23"/>
<path d="M169.359 238.666C169.503 238.677 169.647 238.704 169.786 238.746C169.952 238.784 170.116 238.83 170.277 238.885C170.469 238.954 170.688 239.008 170.918 239.115C171.173 239.215 171.423 239.329 171.665 239.456C171.947 239.597 172.219 239.754 172.482 239.926C173.089 240.322 173.648 240.786 174.149 241.309C174.642 241.84 175.072 242.426 175.43 243.055C175.583 243.33 175.721 243.614 175.841 243.905C175.951 244.156 176.047 244.412 176.13 244.674C176.198 244.889 176.255 245.109 176.301 245.33C176.346 245.495 176.378 245.663 176.397 245.832C176.427 245.974 176.443 246.119 176.445 246.265C176.407 246.265 176.338 245.651 176.018 244.711C175.932 244.455 175.832 244.203 175.718 243.958C175.595 243.674 175.454 243.397 175.297 243.13C174.94 242.515 174.516 241.942 174.031 241.421C173.547 240.91 173.01 240.451 172.429 240.054C172.171 239.88 171.903 239.72 171.628 239.574C171.377 239.43 171.126 239.323 170.902 239.221C169.957 238.826 169.348 238.698 169.359 238.666Z" fill="#263238"/>
<path d="M342.295 241.368C342.497 240.588 341.985 239.803 341.408 239.232C340.831 238.66 340.143 238.164 339.843 237.406C339.358 236.188 340.009 234.613 339.181 233.598C338.695 233 337.825 232.797 337.392 232.162C337.192 231.808 337.06 231.421 337.003 231.019C336.541 228.997 335.545 227.136 334.119 225.631C334.026 227.433 334.417 229.227 335.251 230.827C335.643 231.441 335.93 232.116 336.1 232.824C336.282 233.983 335.636 235.173 335.919 236.311C336.244 237.608 337.702 238.479 337.772 239.814C337.83 240.946 336.842 241.95 336.917 243.071C336.978 243.551 337.15 244.01 337.419 244.412C337.808 245.159 338.399 245.782 339.125 246.21C339.852 246.638 340.683 246.853 341.526 246.831L343.913 246.916L342.295 241.368Z" fill="#022B23"/>
<g opacity="0.3">
<path d="M342.295 241.368C342.497 240.588 341.985 239.803 341.408 239.232C340.831 238.66 340.143 238.164 339.843 237.406C339.358 236.188 340.009 234.613 339.181 233.598C338.695 233 337.825 232.797 337.392 232.162C337.192 231.808 337.06 231.421 337.003 231.019C336.541 228.997 335.545 227.136 334.119 225.631C334.026 227.433 334.417 229.227 335.251 230.827C335.643 231.441 335.93 232.116 336.1 232.824C336.282 233.983 335.636 235.173 335.919 236.311C336.244 237.608 337.702 238.479 337.772 239.814C337.83 240.946 336.842 241.95 336.917 243.071C336.978 243.551 337.15 244.01 337.419 244.412C337.808 245.159 338.399 245.782 339.125 246.21C339.852 246.638 340.683 246.853 341.526 246.831L343.913 246.916L342.295 241.368Z" fill="black"/>
</g>
<path d="M344.393 246.97C344.61 247.008 344.833 247.008 345.05 246.97C345.314 246.931 345.573 246.867 345.824 246.777C346.17 246.654 346.493 246.473 346.78 246.243C346.955 246.102 347.091 245.918 347.175 245.709C347.246 245.479 347.283 245.24 347.287 244.999C347.291 244.74 347.311 244.482 347.346 244.225C347.389 243.954 347.487 243.694 347.634 243.461C348.02 242.969 348.323 242.417 348.531 241.827C348.648 241.134 348.626 240.424 348.467 239.739C348.295 238.999 348.315 238.227 348.526 237.497C348.782 236.754 349.3 236.076 349.562 235.238C349.824 234.399 349.701 233.476 349.76 232.568C349.775 232.11 349.881 231.66 350.069 231.243C350.262 230.822 350.529 230.426 350.737 229.983C351.101 229.052 351.308 228.067 351.351 227.068C351.41 226.566 351.468 226.058 351.522 225.546C351.557 225.029 351.646 224.517 351.789 224.018C351.947 223.515 352.138 223.023 352.36 222.545C352.471 222.293 352.564 222.035 352.638 221.77C352.681 221.493 352.697 221.236 352.713 220.953C352.739 220.402 352.718 219.85 352.649 219.303C352.585 218.769 352.483 218.203 352.424 217.653V217.557V217.45L352.328 217.498C351.823 217.75 351.382 218.116 351.041 218.566C350.712 219.011 350.447 219.5 350.256 220.019C349.913 221.035 349.665 222.081 349.514 223.143C349.361 224.155 349.028 225.131 348.531 226.026C348.27 226.448 347.955 226.838 347.677 227.249C347.381 227.653 347.178 228.119 347.084 228.611C346.945 229.62 347.501 230.506 347.383 231.398C347.332 231.838 347.184 232.261 346.951 232.637C346.732 233.016 346.481 233.369 346.235 233.705C345.989 234.051 345.776 234.419 345.6 234.805C345.43 235.183 345.33 235.588 345.306 236.001C345.247 236.802 345.36 237.566 345.306 238.287C345.241 238.972 345.041 239.638 344.719 240.247C344.43 240.834 344.11 241.363 343.843 241.849C343.709 242.097 343.588 242.352 343.48 242.612C343.384 242.855 343.314 243.108 343.272 243.365C343.205 243.817 343.205 244.275 343.272 244.727C343.337 245.357 343.573 245.957 343.955 246.462C344.015 246.535 344.079 246.605 344.147 246.671C344.196 246.72 344.25 246.765 344.308 246.804L344.441 246.9C344.273 246.763 344.119 246.609 343.982 246.441C343.611 245.937 343.385 245.34 343.33 244.716C343.278 244.27 343.289 243.819 343.362 243.376C343.409 243.124 343.481 242.877 343.576 242.639C343.684 242.384 343.805 242.134 343.939 241.891C344.206 241.357 344.532 240.855 344.825 240.263C345.157 239.645 345.364 238.968 345.434 238.271C345.498 237.534 345.386 236.765 345.434 235.98C345.46 235.581 345.558 235.19 345.723 234.827C345.898 234.451 346.109 234.094 346.353 233.759C346.593 233.406 346.849 233.054 347.074 232.664C347.317 232.273 347.472 231.834 347.528 231.377C347.645 230.421 347.095 229.529 347.234 228.595C347.328 228.123 347.525 227.679 347.811 227.292C348.078 226.886 348.398 226.501 348.665 226.064C349.175 225.156 349.516 224.162 349.669 223.132C349.823 222.08 350.069 221.043 350.406 220.035C350.595 219.529 350.854 219.053 351.175 218.62C351.498 218.183 351.918 217.829 352.403 217.584L352.296 217.52V217.616C352.355 218.176 352.456 218.721 352.52 219.266C352.584 219.797 352.604 220.333 352.579 220.868C352.573 221.134 352.549 221.4 352.51 221.663C352.441 221.919 352.351 222.169 352.243 222.411C352.018 222.895 351.826 223.392 351.666 223.901C351.523 224.406 351.433 224.925 351.399 225.45C351.34 225.984 351.282 226.475 351.228 226.977C351.187 227.959 350.985 228.928 350.63 229.844C350.432 230.277 350.165 230.677 349.963 231.115C349.769 231.548 349.662 232.014 349.648 232.488C349.594 233.406 349.712 234.309 349.466 235.12C349.22 235.932 348.697 236.61 348.435 237.379C348.221 238.127 348.203 238.918 348.382 239.675C348.54 240.347 348.567 241.044 348.462 241.726C348.255 242.303 347.958 242.844 347.581 243.328C347.431 243.571 347.331 243.841 347.287 244.124C347.254 244.382 347.237 244.642 347.234 244.903C347.234 245.138 347.2 245.372 347.132 245.597C347.052 245.792 346.926 245.965 346.764 246.099C346.484 246.328 346.168 246.508 345.829 246.633C345.582 246.726 345.326 246.794 345.066 246.836C344.906 246.869 344.743 246.885 344.58 246.884L344.393 246.97Z" fill="#263238"/>
<path d="M351.906 218.876C351.905 218.901 351.905 218.926 351.906 218.951L351.853 219.164C351.805 219.351 351.752 219.634 351.661 219.992C351.57 220.35 351.351 220.74 351.164 221.236C350.946 221.788 350.757 222.352 350.598 222.924C350.417 223.564 350.256 224.269 350.064 225.022C349.921 225.832 349.664 226.618 349.3 227.356C349.108 227.74 348.884 228.136 348.713 228.563C348.54 229.002 348.423 229.461 348.366 229.93C348.24 230.9 348.061 231.862 347.832 232.813C347.357 234.768 346.897 236.631 346.486 238.324C346.075 240.017 345.675 241.528 345.354 242.821C345.034 244.113 344.783 245.122 344.607 245.854C344.521 246.201 344.457 246.478 344.409 246.676L344.361 246.895C344.359 246.92 344.359 246.945 344.361 246.97C344.361 246.97 344.361 246.943 344.388 246.895L344.452 246.687C344.505 246.484 344.58 246.211 344.676 245.864C344.863 245.138 345.135 244.113 345.472 242.847C345.808 241.582 346.193 240.044 346.63 238.362C347.068 236.68 347.512 234.805 347.992 232.851C348.221 231.894 348.399 230.926 348.526 229.951C348.583 229.494 348.694 229.046 348.857 228.616C349.028 228.2 349.242 227.81 349.439 227.415C349.801 226.667 350.056 225.873 350.198 225.054C350.363 224.296 350.518 223.591 350.689 222.956C350.86 222.32 351.052 221.754 351.223 221.263C351.394 220.772 351.607 220.371 351.693 220.003C351.778 219.634 351.821 219.362 351.858 219.17L351.906 218.94C351.906 218.903 351.906 218.876 351.906 218.876Z" fill="#263238"/>
<path d="M344.815 246.975C346.374 246.051 346.817 243.237 346.171 241.55C345.525 239.862 344.382 238.314 344.206 236.509C344.073 235.12 344.526 233.7 344.206 232.343C343.773 230.517 341.99 229.102 342.006 227.222C342.006 226.154 342.62 225.172 342.572 224.12C342.513 222.828 341.504 221.802 340.906 220.665C339.966 218.919 339.907 216.863 339.582 214.908C339.256 212.954 338.514 210.861 336.783 209.899C336.532 211.56 336.095 212.698 336.249 214.94C336.303 215.752 337.237 217.295 337.365 219.063C337.44 220.131 337.494 221.199 337.558 222.235C337.571 223.269 337.74 224.295 338.06 225.279C338.343 226.016 338.797 226.688 339.005 227.447C339.4 228.883 338.882 230.437 339.202 231.89C339.469 233.118 340.324 234.175 340.495 235.425C340.74 237.176 339.608 238.997 340.185 240.668C340.473 241.502 341.157 242.169 341.349 243.023C341.504 243.691 341.349 244.39 341.472 245.058C341.691 246.126 343.747 246.97 344.841 246.906" fill="#022B23"/>
<path d="M337.21 211.549C337.21 211.549 337.21 211.581 337.21 211.64L337.248 211.912C337.28 212.153 337.323 212.505 337.403 212.98C337.483 213.456 337.723 213.952 337.937 214.582C338.15 215.213 338.332 215.917 338.508 216.718C338.684 217.519 338.834 218.401 338.989 219.351C339.113 220.377 339.382 221.381 339.79 222.331C340.003 222.833 340.249 223.329 340.436 223.858C340.614 224.405 340.723 224.972 340.762 225.545C340.85 226.761 341.003 227.972 341.221 229.171C341.696 231.628 342.15 233.977 342.566 236.113C342.983 238.249 343.394 240.145 343.725 241.758C344.056 243.37 344.329 244.652 344.521 245.56C344.612 245.998 344.686 246.345 344.74 246.59L344.804 246.857L344.831 246.948C344.833 246.918 344.833 246.888 344.831 246.857L344.783 246.585C344.735 246.339 344.67 245.987 344.59 245.544C344.409 244.636 344.152 243.338 343.843 241.736C343.533 240.134 343.111 238.164 342.689 236.028C342.267 233.892 341.83 231.558 341.354 229.086C341.139 227.89 340.986 226.683 340.895 225.471C340.854 224.886 340.741 224.308 340.559 223.751C340.366 223.217 340.121 222.71 339.902 222.219C339.499 221.278 339.227 220.286 339.095 219.271C338.935 218.32 338.78 217.434 338.594 216.633C338.432 215.911 338.234 215.199 338.001 214.497C337.803 213.878 337.558 213.365 337.467 212.895C337.376 212.425 337.328 212.089 337.28 211.854C337.28 211.742 337.243 211.656 337.232 211.587C337.225 211.574 337.218 211.561 337.21 211.549Z" fill="#263238"/>
<path d="M299.339 176.503H62.2053V200.202H299.339V176.503Z" fill="#022B23"/>
<g opacity="0.4">
<path d="M299.339 176.503H62.2053V200.202H299.339V176.503Z" fill="black"/>
</g>
<path d="M247.963 203.192H177.966V225.14H247.963V203.192Z" fill="#455A64"/>
<path d="M129.052 193.265V222.277H152.953L162.533 208.393H337.05V193.265H129.052Z" fill="#263238"/>
<path d="M127.562 101.396C127.535 100.929 127.327 100.492 126.982 100.177C126.636 99.8625 126.181 99.6961 125.714 99.7137C116.268 100.103 71.4222 102.159 62.2 106.592C55.1405 109.988 47.4082 122.665 41.9561 131.204C38.0472 137.323 29.4124 150.908 27.6662 157.856C26.1871 163.73 25.2953 175.947 25.3967 182.008L27.8638 214.08H68.5066L72.5756 203.486C73.8741 200.111 76.1649 197.209 79.1458 195.162C82.1267 193.116 85.6579 192.02 89.2738 192.021H129.66V138.797L127.562 101.396Z" fill="#022B23"/>
<path d="M57.3833 110.143C51.787 115.483 46.1693 124.561 41.956 131.204C38.3355 136.869 30.6673 148.932 28.1628 156.205C28.1148 156.339 28.0774 156.467 28.0347 156.601C29.2735 156.259 31.1799 155.559 31.7727 154.384C32.6644 152.606 33.8072 146.513 47.9368 123.514C52.2302 116.503 56.4168 112.401 57.3833 110.143Z" fill="#455A64"/>
<path d="M106.682 107.766C96.2905 108.359 73.761 109.902 66.5627 112.348C57.1857 115.552 46.6605 140.378 46.1639 141.467L39.0724 159.623C39.0327 159.742 39.0217 159.868 39.0403 159.992C39.059 160.116 39.1068 160.233 39.1798 160.335C39.2528 160.437 39.3489 160.519 39.4602 160.577C39.5715 160.634 39.6948 160.664 39.82 160.664H58.1522C58.8465 160.664 59.5354 160.541 60.1868 160.301L108.402 142.327C109.466 141.929 110.384 141.216 111.032 140.283C111.68 139.35 112.027 138.24 112.027 137.104V112.823C112.028 112.134 111.888 111.453 111.615 110.82C111.343 110.187 110.945 109.617 110.444 109.143C109.944 108.67 109.352 108.304 108.705 108.067C108.058 107.83 107.37 107.728 106.682 107.766Z" fill="#263238"/>
<path d="M41.1177 158.881C41.1177 158.881 47.9102 143.646 50.1957 138.653C53.6453 131.113 61.7034 115.691 67.1448 114.03C72.1484 112.529 86.5344 110.703 106.784 109.544H106.976C107.846 109.547 108.679 109.894 109.293 110.51C109.908 111.125 110.253 111.959 110.255 112.829V137.66C110.253 138.271 110.065 138.868 109.716 139.371C109.367 139.874 108.873 140.258 108.3 140.474L72.6771 144.869C71.2491 145.045 69.8766 145.53 68.6548 146.289C67.4329 147.049 66.3911 148.066 65.6016 149.269L59.4285 158.683C59.0662 158.817 58.6829 158.886 58.2965 158.886L41.1177 158.881Z" fill="#455A64"/>
<path d="M71.3848 145.141L59.2737 158.63L65.9754 113.843L67.6521 113.267L64.352 146.444C64.3365 146.611 64.3639 146.778 64.4318 146.931C64.4997 147.084 64.6057 147.217 64.7397 147.317C64.8737 147.418 65.0311 147.482 65.197 147.504C65.3629 147.526 65.5316 147.505 65.687 147.443L71.3848 145.141Z" fill="#263238"/>
<path d="M24.601 185.122C24.5583 184.54 24.7559 184.054 25.0549 184.054L31.5484 183.456C32.0824 183.402 32.579 184.412 32.6431 185.592L32.9368 190.574C32.9848 191.375 32.7445 192.053 32.4028 192.112L25.7812 193.255C25.4821 193.308 25.1938 192.865 25.151 192.277L24.601 185.122Z" fill="#EBEBEB"/>
<path d="M71.385 208.399H24.5959V227.158H71.385V208.399Z" fill="#263238"/>
<path d="M102.618 246.752C116.746 246.209 127.759 234.316 127.216 220.188C126.674 206.06 114.781 195.047 100.653 195.59C86.5246 196.132 75.5115 208.025 76.0543 222.153C76.597 236.281 88.49 247.294 102.618 246.752Z" fill="#263238"/>
<path d="M76.0574 220.729C76.0603 220.752 76.0603 220.775 76.0574 220.798C75.9679 227.582 78.5747 234.123 83.3052 238.986C88.0358 243.849 94.5032 246.636 101.287 246.733C108.07 246.831 114.615 244.232 119.484 239.507C124.352 234.782 127.146 228.318 127.252 221.535C127.252 221.535 127.252 221.492 127.252 221.471L76.0574 220.729Z" fill="#263238"/>
<path d="M83.6775 220.905C83.625 224.46 84.628 227.951 86.5596 230.935C88.4911 233.92 91.2644 236.265 94.5288 237.674C97.7932 239.082 101.402 239.491 104.899 238.849C108.395 238.206 111.623 236.541 114.173 234.064C116.724 231.587 118.482 228.409 119.226 224.932C119.97 221.456 119.667 217.837 118.354 214.533C117.041 211.229 114.778 208.388 111.85 206.371C108.923 204.353 105.463 203.249 101.908 203.198C97.1428 203.129 92.5453 204.956 89.1265 208.277C85.7078 211.597 83.7478 216.14 83.6775 220.905Z" fill="#FAFAFA"/>
<path d="M101.908 203.198C97.1428 203.129 92.5453 204.956 89.1265 208.277C85.7078 211.597 83.7478 216.14 83.6775 220.905L119.621 221.439C119.691 216.671 117.864 212.071 114.542 208.65C111.221 205.229 106.676 203.268 101.908 203.198Z" fill="#E0E0E0"/>
<path d="M90.705 221.007C90.6735 223.172 91.2848 225.297 92.4615 227.115C93.6383 228.933 95.3276 230.36 97.3158 231.218C99.304 232.075 101.502 232.324 103.631 231.932C105.761 231.54 107.726 230.526 109.279 229.017C110.832 227.508 111.903 225.573 112.356 223.455C112.809 221.338 112.623 219.134 111.824 217.122C111.024 215.11 109.645 213.38 107.862 212.151C106.079 210.923 103.972 210.251 101.807 210.22C98.9044 210.178 96.1043 211.292 94.0224 213.314C91.9405 215.337 90.7472 218.104 90.705 221.007Z" fill="#263238"/>
<path d="M51.9953 124.027H49.9073C47.5539 124.027 45.646 125.935 45.646 128.288V145.232C45.646 147.585 47.5539 149.493 49.9073 149.493H51.9953C54.3487 149.493 56.2566 147.585 56.2566 145.232V128.288C56.2566 125.935 54.3487 124.027 51.9953 124.027Z" fill="#263238"/>
<path d="M41.2564 165.235H40.7224V138.306C40.7238 137.022 41.2346 135.791 42.1426 134.883C43.0506 133.975 44.2817 133.464 45.5658 133.462H46.8474V133.996H45.5658C44.4233 133.998 43.328 134.452 42.5202 135.26C41.7123 136.068 41.2578 137.163 41.2564 138.306V165.235Z" fill="#263238"/>
<path d="M44.8931 165.267L43.4085 140.089C43.3877 139.659 43.4539 139.229 43.6032 138.824C43.7525 138.42 43.9818 138.05 44.2775 137.736C44.5731 137.423 44.929 137.172 45.3238 136.999C45.7186 136.826 46.1442 136.735 46.5752 136.73V137.264C46.2158 137.265 45.8602 137.338 45.5302 137.481C45.2003 137.623 44.9029 137.831 44.6564 138.093C44.4099 138.354 44.2194 138.664 44.0966 139.001C43.9739 139.339 43.9214 139.699 43.9425 140.057L45.4271 165.241L44.8931 165.267Z" fill="#263238"/>
<path d="M46.575 162.811H39.3767V171.147H46.575V162.811Z" fill="#263238"/>
<path d="M43.9158 146.989H40.9895V147.523H43.9158V146.989Z" fill="#263238"/>
<path d="M68.3518 108.487L68.9872 108.402L70.8616 108.183L78.124 107.345L105.198 104.263C106.64 104.109 108.108 103.916 109.63 103.783C110.407 103.724 111.189 103.774 111.953 103.932C112.729 104.114 113.478 104.398 114.18 104.776C115.627 105.582 116.801 106.802 117.549 108.279C117.936 109.034 118.198 109.848 118.323 110.687C118.391 111.112 118.428 111.54 118.436 111.969V113.256C118.436 120.15 118.436 127.551 118.436 135.396C118.436 151.085 118.436 168.536 118.436 187.194V187.332H90.3098C88.7043 187.28 87.0971 187.356 85.5038 187.562C82.2173 188.035 79.1167 189.377 76.522 191.448C73.9273 193.52 71.9327 196.247 70.7441 199.347C70.5134 199.917 70.319 200.5 70.162 201.094C69.9884 201.681 69.8511 202.278 69.7508 202.883L69.612 203.79L69.5479 204.244L69.5212 204.698L69.4785 205.611V206.071V206.124C69.596 206.006 69.313 206.306 69.3343 206.273H33.6685V206.124C33.6685 198.077 33.6685 190.318 33.6685 182.906C33.6685 179.2 33.6685 175.581 33.6685 172.049V166.827C33.6685 165.967 33.6685 165.118 33.6685 164.269C33.6859 163.425 33.7465 162.582 33.85 161.743C34.2572 158.512 35.2834 155.39 36.8725 152.548C38.3427 149.782 39.7667 147.112 41.1445 144.538L48.7166 130.349L54.8629 118.831C55.3115 117.994 55.7422 117.184 56.1552 116.401C56.3688 116.017 56.5557 115.627 56.78 115.264C57.0011 114.909 57.2418 114.567 57.5009 114.239C58.4269 113.084 59.5172 112.071 60.7369 111.232C62.4168 110.092 64.2949 109.275 66.2745 108.824C66.9541 108.661 67.6449 108.548 68.3411 108.487L67.8071 108.567C67.46 108.621 66.9473 108.712 66.2745 108.867C64.3065 109.332 62.4417 110.157 60.7743 111.302C59.5649 112.141 58.4853 113.154 57.5703 114.308C57.3118 114.63 57.0745 114.969 56.8601 115.323C56.6411 115.675 56.4542 116.07 56.2406 116.46L54.9537 118.895L48.8608 130.424C46.5752 134.728 44.0548 139.475 41.3314 144.623L37.0594 152.633C35.4851 155.454 34.4714 158.553 34.0743 161.759C33.9725 162.59 33.9137 163.426 33.8981 164.264C33.8981 165.102 33.8981 165.962 33.8981 166.816V172.039C33.8981 175.567 33.8981 179.185 33.8981 182.895C33.8981 190.307 33.8981 198.066 33.8981 206.113L33.7646 205.985H69.2916C69.329 205.958 69.0353 206.241 69.1581 206.113V206.055V205.595L69.2062 204.666V204.207L69.2756 203.748L69.4144 202.824C69.5159 202.211 69.655 201.604 69.8309 201.008C69.9907 200.405 70.1887 199.813 70.4237 199.235C71.6312 196.09 73.6558 193.323 76.2887 191.22C78.9216 189.118 82.0676 187.756 85.4024 187.274C86.9958 187.071 88.6028 186.994 90.2084 187.044H118.206L118.067 187.178C118.067 168.541 118.067 151.09 118.067 135.38C118.067 127.535 118.067 120.134 118.067 113.24C118.102 112.393 118.066 111.545 117.96 110.703C117.839 109.883 117.585 109.087 117.207 108.349C116.483 106.904 115.338 105.713 113.923 104.931C113.242 104.558 112.512 104.279 111.755 104.103C111.01 103.946 110.246 103.894 109.486 103.948C107.975 104.077 106.495 104.269 105.059 104.424L77.9905 107.419L70.7227 108.215L68.8484 108.413L68.3518 108.487Z" fill="#263238"/>
<path d="M109.913 167.505C109.913 167.505 110.062 167.505 110.329 167.441C110.722 167.371 111.096 167.222 111.429 167.003C111.955 166.659 112.348 166.147 112.545 165.551C112.666 165.179 112.715 164.787 112.69 164.397C112.678 163.965 112.567 163.541 112.364 163.158C112.132 162.721 111.786 162.354 111.363 162.095C110.941 161.837 110.456 161.697 109.961 161.69H106.437H98.3624C97.6902 161.691 97.0417 161.939 96.5405 162.387C96.0393 162.835 95.7204 163.452 95.6444 164.119C95.5605 164.754 95.6782 165.398 95.9808 165.962C96.2809 166.495 96.7509 166.912 97.3158 167.147C97.8743 167.341 98.4678 167.414 99.0566 167.361H100.765H103.836L108.284 167.404H109.496C109.636 167.401 109.775 167.411 109.913 167.436C109.775 167.452 109.636 167.461 109.496 167.462H108.284L103.836 167.505H100.765H99.0566C98.7576 167.505 98.4692 167.505 98.1542 167.505C97.8337 167.481 97.5187 167.409 97.2197 167.291C96.602 167.035 96.0872 166.58 95.7565 165.999C95.4249 165.387 95.2941 164.687 95.3827 163.997C95.4652 163.264 95.8145 162.586 96.3639 162.094C96.9134 161.602 97.6247 161.329 98.3624 161.327H106.437H109.961C110.731 161.342 111.465 161.656 112.008 162.204C112.55 162.751 112.858 163.488 112.866 164.258C112.883 164.666 112.823 165.074 112.69 165.46C112.47 166.08 112.046 166.607 111.488 166.955C111.14 167.172 110.748 167.309 110.34 167.356C110.204 167.423 110.061 167.473 109.913 167.505Z" fill="#263238"/>
<path d="M108.936 160.798C107.414 160.932 105.886 160.977 104.36 160.932C102.831 160.977 101.301 160.932 99.7778 160.798C101.301 160.661 102.831 160.614 104.36 160.659C105.886 160.614 107.415 160.661 108.936 160.798Z" fill="white"/>
<path d="M73.5154 227.313L69.2434 227.003C70.3595 211.704 71.9935 202.551 74.2416 199.022C78.5564 192.24 82.8444 191.012 87.5916 190.205C92.0132 189.452 96.4721 189.629 100.787 189.805L101.855 189.848C110.762 190.195 129.42 189.885 129.623 189.885L129.692 194.157C129.505 194.157 110.73 194.472 101.705 194.12L100.637 194.077C96.5415 193.917 92.3122 193.74 88.3286 194.424C84.0833 195.145 81.2584 195.973 77.8515 201.323C76.8209 202.92 74.8878 208.468 73.5154 227.313Z" fill="#263238"/>
<path d="M342.283 53.0366H131.898V193.116H342.283V53.0366Z" fill="#022B23"/>
<path d="M339.763 190.344C339.763 189.442 339.72 138.066 339.65 56.2033L339.763 56.3101L134.173 56.3422L134.311 56.2033C134.311 103.884 134.311 149.269 134.311 190.344L134.183 190.216L339.773 190.344L134.183 190.472H134.034V190.344C134.034 149.269 134.034 103.884 134.034 56.2033V56.0698H134.189L339.779 56.0965H339.891V56.2087C339.805 138.066 339.763 189.447 339.763 190.344Z" fill="#263238"/>
<path d="M173.55 155.928L174.618 152.19C176.706 153.089 179.024 153.309 181.245 152.82C183.632 152.286 184.983 151.154 184.668 149.782C184.022 146.775 175.056 150.385 173.758 144.393C172.93 140.527 175.777 137.302 180.988 136.186C183.514 135.652 185.971 135.705 187.834 136.399L186.9 140.068C185.17 139.417 183.286 139.293 181.485 139.71C178.959 140.244 177.688 141.537 177.977 142.882C178.617 145.974 187.615 142.348 188.86 148.131C189.693 152.03 186.793 155.266 181.554 156.387C178.5 157.049 175.403 156.756 173.55 155.928Z" fill="white"/>
<path d="M209.05 130.483L209.322 150.091L204.97 151.026L204.858 143.043L196.341 144.869L196.458 152.879L192.074 153.792L191.802 134.178L196.181 133.238L196.287 140.944L204.805 139.118L204.698 131.412L209.05 130.483Z" fill="white"/>
<path d="M213.503 129.527L217.872 128.587L218.144 148.195L213.765 149.135L213.503 129.527Z" fill="white"/>
<path d="M238.537 130.296C239.563 135.075 236.684 138.84 231.061 140.02L226.869 140.917L226.95 146.316L222.571 147.256L222.314 127.626L229.919 126.024C234.618 124.993 237.747 126.601 238.537 130.296ZM234.212 131.615C233.822 129.789 232.348 129.207 230.143 129.682L226.731 130.413L226.816 137.222L230.495 136.432C233.358 135.802 234.746 134.098 234.212 131.599V131.615Z" fill="white"/>
<path d="M257.922 126.115C258.947 130.921 256.069 134.659 250.446 135.839L246.259 136.741L246.35 142.14L241.971 143.08L241.693 123.472L249.298 121.837C254.013 120.828 257.142 122.436 257.922 126.115ZM253.596 127.439C253.206 125.608 251.727 125.025 249.527 125.501L246.115 126.232L246.2 133.046L249.88 132.256C252.763 131.636 254.141 129.933 253.607 127.439H253.596Z" fill="white"/>
<path d="M261.126 119.306L265.505 118.366L265.782 137.98L261.403 138.92L261.126 119.306Z" fill="white"/>
<path d="M287.163 113.742L287.441 133.351L283.863 134.12L274.331 123.835L274.492 136.117L270.22 137.041L269.942 117.427L273.541 116.652L283.084 126.943L282.891 114.661L287.163 113.742Z" fill="white"/>
<path d="M304.481 119.525L308.46 118.671L308.561 126.739C306.798 128.706 304.445 130.05 301.854 130.568C296.156 131.791 291.847 129.26 290.806 124.4C289.428 117.992 293.086 112.118 300.204 110.581C303.803 109.806 306.681 110.394 308.748 112.183L306.174 115.387C304.572 114.153 302.906 113.897 300.834 114.345C296.429 115.29 294.287 119.066 295.174 123.204C295.777 126.024 298.068 127.53 301.641 126.761C302.719 126.54 303.735 126.083 304.615 125.42L304.481 119.525Z" fill="white"/>
<path d="M161.727 128.181L163.714 168.247L319.743 135.791L316.982 94.0264L161.727 128.181Z" fill="#C6EB5F"/>
<g opacity="0.3">
<path d="M192.833 91.1112V126.104L281.754 106.549L281.722 71.9619L192.833 91.1112Z" fill="black"/>
</g>
<path d="M205.873 99.8155L206.07 107.516L215.8 105.305L215.837 107.099L206.124 109.31L206.348 117.63L204.394 118.073L203.886 98.4644L216.745 95.5435L216.788 97.3377L205.873 99.8155Z" fill="white"/>
<path d="M231.361 105.353L236.321 110.816L234.185 111.302L229.454 106.095C229.166 106.191 228.819 106.266 228.493 106.341L223.153 107.553L223.324 113.769L221.343 114.217L220.835 94.614L227.585 93.0761C231.857 92.1095 234.73 93.514 235.488 96.8621C236.364 100.718 234.789 103.697 231.361 105.353ZM233.55 97.4976C232.989 95.0359 230.949 94.1174 227.842 94.8276L222.859 95.9597L223.084 105.769L228.151 104.621C232.381 103.655 234.388 101.198 233.55 97.4976Z" fill="white"/>
<path d="M242.201 91.5596L242.377 98.539L252.101 96.3282L252.165 98.0904L242.436 100.296L242.628 107.58L253.906 105.016L253.949 106.811L240.711 109.817L240.204 90.2139L253.062 87.2876L253.105 89.0818L242.201 91.5596Z" fill="white"/>
<path d="M260.122 87.4907L260.298 94.4647L270.028 92.2539L270.086 94.0161L260.362 96.2269L260.549 103.511L271.832 100.947L271.87 102.742L258.637 105.732L258.103 86.1236L270.967 83.2026L271.01 84.9969L260.122 87.4907Z" fill="white"/>
<path d="M192.833 91.1112V126.104L281.754 106.549L281.722 71.9619L192.833 91.1112Z" fill="#FFEEBE"/>
<path d="M291.948 91.1109L323.438 83.7363L322.194 80.3828L291.948 91.1109Z" fill="#FAFAFA"/>
<path d="M150.946 114.676L172.84 109.55L171.974 107.222L150.946 114.676Z" fill="#FAFAFA"/>
<path d="M225.903 167.43L257.393 160.05L256.154 156.702L225.903 167.43Z" fill="#FAFAFA"/>
<path d="M267.646 74.338C267.646 74.4127 250.835 78.4337 230.068 83.3145C209.301 88.1953 192.443 92.0988 192.421 92.024C192.4 91.9493 209.226 87.9283 230.004 83.0475C250.782 78.1667 267.63 74.2632 267.646 74.338Z" fill="#FAFAFA"/>
<path d="M192.597 122.59C192.597 122.665 185.388 124.192 176.46 125.986C167.531 127.781 160.285 129.19 160.269 129.116C160.253 129.041 167.478 127.514 176.407 125.714C185.335 123.915 192.581 122.516 192.597 122.59Z" fill="#FAFAFA"/>
<path d="M192.881 119.424C192.856 119.331 192.845 119.236 192.849 119.141C192.849 118.922 192.849 118.655 192.822 118.334C192.822 117.592 192.822 116.588 192.779 115.365C192.779 112.818 192.736 109.374 192.715 105.566C192.694 101.759 192.64 98.3092 192.614 95.7674C192.614 94.5445 192.582 93.5406 192.571 92.7983V91.9867C192.557 91.8946 192.557 91.801 192.571 91.709C192.595 91.7995 192.608 91.8929 192.608 91.9867C192.608 92.2056 192.64 92.4673 192.662 92.793C192.704 93.4925 192.747 94.5071 192.79 95.762C192.881 98.2665 192.95 101.732 192.977 105.561C193.003 109.39 192.977 112.855 192.977 115.36C192.977 116.588 192.945 117.592 192.934 118.334C192.934 118.655 192.934 118.922 192.907 119.141C192.906 119.235 192.898 119.33 192.881 119.424Z" fill="#FAFAFA"/>
<path d="M101.994 119.371C101.994 119.371 101.93 119.435 101.796 119.536L101.209 119.958C100.675 120.326 99.9431 120.839 99.014 121.475C97.1503 122.735 94.5551 124.454 91.6608 126.307C88.7665 128.16 86.1232 129.8 84.1848 130.969C83.2236 131.551 82.4386 132.037 81.8939 132.336L81.2638 132.689C81.192 132.735 81.1149 132.773 81.0342 132.801C81.0342 132.801 81.0983 132.737 81.2318 132.646L81.8352 132.24L84.0833 130.804L91.5006 126.072L98.8911 121.309L101.139 119.873L101.759 119.488C101.833 119.441 101.911 119.401 101.994 119.371Z" fill="#FAFAFA"/>
<path d="M92.8677 121.784C92.8677 121.784 92.8036 121.848 92.6701 121.949L92.0827 122.371C91.5487 122.734 90.8171 123.252 89.8826 123.882C88.019 125.148 85.4237 126.862 82.5348 128.688C79.6459 130.515 76.9972 132.186 75.0588 133.355C74.0976 133.938 73.3126 134.423 72.7679 134.717L72.1378 135.075C72.0673 135.122 71.9898 135.158 71.9082 135.182C71.9681 135.123 72.0343 135.071 72.1058 135.027L72.7092 134.626L74.952 133.185L82.3746 128.459L89.7652 123.695L92.0133 122.254L92.6274 121.874C92.7032 121.834 92.784 121.803 92.8677 121.784Z" fill="#FAFAFA"/>
<path d="M47.9103 137.329C47.8285 137.183 47.7725 137.024 47.7448 136.859C47.6594 136.555 47.5419 136.106 47.4084 135.551C47.0573 134.099 46.8781 132.612 46.8744 131.118C46.8668 129.61 47.2144 128.121 47.889 126.772C48.1 126.368 48.3543 125.988 48.6473 125.64C48.7461 125.506 48.865 125.389 48.9997 125.292C48.6588 125.799 48.3451 126.323 48.0599 126.862C47.4513 128.204 47.1398 129.661 47.1467 131.134C47.1629 132.61 47.3221 134.08 47.622 135.524C47.7555 136.119 47.8518 136.722 47.9103 137.329Z" fill="#FAFAFA"/>
<path d="M26.1656 175.189C26.1463 174.999 26.1463 174.808 26.1656 174.618C26.1656 174.233 26.1656 173.678 26.1976 173.016C26.2404 171.644 26.3418 169.748 26.5074 167.676C26.6729 165.604 26.8705 163.703 27.0414 162.336C27.1268 161.652 27.2016 161.102 27.2603 160.734C27.2804 160.536 27.3216 160.341 27.3831 160.152C27.41 160.35 27.41 160.551 27.3831 160.75L27.2443 162.352C27.1268 163.783 26.9666 165.636 26.7904 167.692C26.6142 169.748 26.5074 171.595 26.4059 173.032C26.3578 173.673 26.3151 174.212 26.2831 174.634C26.2668 174.823 26.2274 175.01 26.1656 175.189Z" fill="#FAFAFA"/>
<path d="M84.6867 185.554C84.6867 185.613 83.6561 185.757 82.0594 186.275C81.1248 186.579 80.213 186.948 79.3307 187.38C77.1688 188.454 75.213 189.9 73.5528 191.652C72.8749 192.363 72.2485 193.122 71.6785 193.922C70.7119 195.294 70.258 196.24 70.21 196.213C70.2893 195.98 70.3894 195.755 70.509 195.54C70.6285 195.279 70.764 195.026 70.9148 194.782C71.0857 194.493 71.2726 194.157 71.5183 193.81C72.0711 192.984 72.689 192.204 73.3659 191.476C74.2049 190.587 75.1178 189.771 76.0946 189.036C77.0805 188.32 78.1277 187.693 79.2239 187.162C80.1193 186.732 81.0479 186.374 82.0007 186.094C82.4012 185.96 82.7803 185.885 83.1061 185.805C83.3861 185.737 83.6695 185.684 83.9551 185.645C84.1955 185.591 84.4405 185.561 84.6867 185.554Z" fill="#FAFAFA"/>
<path d="M137.275 153.316C137.268 153.24 137.268 153.163 137.275 153.087C137.275 152.923 137.275 152.699 137.275 152.414C137.275 151.805 137.275 150.935 137.238 149.824C137.206 147.56 137.163 144.308 137.104 140.297C136.96 132.239 136.763 121.138 136.544 108.872C136.325 96.6056 136.138 85.4823 136.063 77.4403C136.026 73.4193 136.015 70.1619 136.02 67.9137C136.02 66.7977 136.02 65.9273 136.02 65.3238V64.651C136.02 64.4961 136.02 64.4214 136.02 64.4214C136.028 64.4978 136.028 64.5746 136.02 64.651C136.02 64.8112 136.02 65.0355 136.02 65.3238C136.02 65.9273 136.02 66.7977 136.058 67.9137C136.09 70.1779 136.132 73.4246 136.191 77.435C136.335 85.493 136.533 96.5949 136.752 108.866C136.971 121.138 137.163 132.25 137.233 140.292C137.27 144.318 137.286 147.571 137.281 149.819C137.281 150.935 137.281 151.805 137.281 152.414C137.281 152.697 137.281 152.921 137.281 153.087C137.283 153.163 137.282 153.24 137.275 153.316Z" fill="#FAFAFA"/>
<path d="M291.777 246.722C305.904 246.157 316.899 234.247 316.334 220.12C315.769 205.992 303.859 194.998 289.731 195.563C275.604 196.128 264.61 208.038 265.175 222.165C265.74 236.293 277.65 247.287 291.777 246.722Z" fill="#263238"/>
<path d="M265.147 220.729C265.147 220.729 265.147 220.777 265.147 220.798C265.049 227.586 267.652 234.135 272.383 239.004C277.113 243.873 283.585 246.663 290.373 246.761C297.161 246.859 303.71 244.256 308.579 239.525C313.448 234.794 316.238 228.323 316.336 221.535V221.471L265.147 220.729Z" fill="#263238"/>
<path d="M272.767 220.905C272.716 224.459 273.719 227.947 275.65 230.931C277.582 233.914 280.354 236.257 283.618 237.665C286.881 239.072 290.488 239.48 293.983 238.838C297.479 238.195 300.705 236.531 303.254 234.055C305.803 231.579 307.561 228.402 308.305 224.927C309.049 221.452 308.746 217.834 307.434 214.532C306.122 211.229 303.861 208.389 300.935 206.372C298.009 204.354 294.551 203.25 290.998 203.198C286.232 203.129 281.635 204.956 278.216 208.277C274.797 211.597 272.837 216.14 272.767 220.905Z" fill="#FAFAFA"/>
<path d="M290.998 203.198C288.638 203.163 286.294 203.594 284.101 204.465C281.908 205.336 279.907 206.631 278.214 208.275C276.521 209.92 275.169 211.881 274.234 214.048C273.3 216.215 272.801 218.545 272.767 220.905L308.705 221.439C308.741 219.078 308.312 216.734 307.441 214.539C306.57 212.345 305.276 210.343 303.631 208.649C301.987 206.955 300.025 205.602 297.857 204.666C295.689 203.731 293.358 203.232 290.998 203.198Z" fill="#E0E0E0"/>
<path d="M279.816 221.007C279.784 223.172 280.396 225.297 281.572 227.115C282.749 228.933 284.438 230.36 286.427 231.218C288.415 232.075 290.613 232.324 292.742 231.932C294.872 231.54 296.837 230.526 298.39 229.017C299.943 227.508 301.014 225.573 301.467 223.455C301.919 221.338 301.734 219.134 300.934 217.122C300.135 215.11 298.756 213.38 296.973 212.151C295.19 210.923 293.083 210.251 290.918 210.22C288.015 210.178 285.215 211.292 283.133 213.314C281.051 215.337 279.858 218.104 279.816 221.007Z" fill="#263238"/>
<path d="M257.089 228.178C257.089 228.178 253.191 191.866 290.816 191.866C325.526 191.866 324.757 223.095 324.426 227.927H318.985C318.985 227.927 321.756 197.147 290.816 197.147C259.876 197.147 262.568 228.552 262.568 228.552C262.568 228.552 260.282 228.44 257.089 228.178Z" fill="#455A64"/>
<path d="M277.242 195.625C277.149 195.673 277.05 195.709 276.948 195.732C276.751 195.801 276.457 195.871 276.094 195.999C275.05 196.331 274.028 196.729 273.034 197.19C269.744 198.699 266.83 200.918 264.502 203.688C262.173 206.458 260.487 209.71 259.566 213.21C259.284 214.263 259.069 215.333 258.92 216.414C258.862 216.798 258.84 217.097 258.808 217.3C258.799 217.405 258.781 217.508 258.755 217.61C258.742 217.507 258.742 217.403 258.755 217.3C258.755 217.092 258.755 216.766 258.819 216.403C258.925 215.305 259.114 214.216 259.385 213.146C260.26 209.593 261.939 206.288 264.292 203.485C266.646 200.683 269.611 198.458 272.959 196.982C273.966 196.532 275.005 196.157 276.067 195.86C276.441 195.753 276.74 195.695 276.937 195.647C277.038 195.628 277.14 195.621 277.242 195.625Z" fill="#FAFAFA"/>
<path d="M369.662 232.578L374.211 239.424L376.257 245.875C376.29 245.986 376.347 246.088 376.422 246.176C376.498 246.264 376.591 246.335 376.695 246.385C376.799 246.435 376.913 246.463 377.029 246.467C377.144 246.471 377.26 246.451 377.367 246.409C377.497 246.365 377.614 246.289 377.708 246.188C377.801 246.088 377.867 245.965 377.901 245.832C378.318 244.145 379.818 237.929 379.461 237.443C379.103 236.957 375.135 229.908 375.135 229.908L369.662 232.578Z" fill="#455A64"/>
<g opacity="0.6">
<path d="M377.367 246.404L379.14 236.973L379.327 237.267C379.489 237.52 379.555 237.823 379.514 238.121C379.401 238.917 379.038 241.112 377.912 245.811C377.879 245.946 377.813 246.072 377.72 246.175C377.627 246.279 377.509 246.357 377.378 246.404H377.367Z" fill="white"/>
</g>
<g opacity="0.6">
<path d="M376.293 235.633C376.253 235.75 376.254 235.877 376.297 235.993C376.34 236.109 376.422 236.206 376.528 236.268C376.644 236.319 376.774 236.323 376.892 236.28C377.01 236.237 377.107 236.151 377.164 236.039C377.213 235.915 377.214 235.777 377.166 235.653C377.119 235.528 377.027 235.426 376.908 235.366C376.782 235.325 376.646 235.335 376.528 235.394C376.41 235.453 376.32 235.556 376.277 235.681" fill="white"/>
</g>
<path d="M377.03 242.367C376.727 242.252 376.404 242.2 376.08 242.212C375.761 242.271 375.457 242.391 375.183 242.564C375.183 242.564 375.22 242.441 375.37 242.313C375.569 242.154 375.81 242.056 376.064 242.03C376.317 242 376.574 242.047 376.801 242.164C376.972 242.255 377.047 242.351 377.03 242.367Z" fill="#263238"/>
<path d="M377.127 243.611C376.856 243.621 376.587 243.652 376.32 243.702C376.068 243.797 375.824 243.911 375.589 244.043C375.546 244.017 375.786 243.659 376.272 243.509C376.412 243.456 376.563 243.438 376.712 243.455C376.861 243.473 377.003 243.526 377.127 243.611Z" fill="#263238"/>
<path d="M377.201 240.589C376.782 240.576 376.363 240.596 375.947 240.647C375.543 240.753 375.148 240.89 374.766 241.059C375.065 240.73 375.473 240.522 375.914 240.471C376.344 240.359 376.799 240.401 377.201 240.589Z" fill="#263238"/>
<path d="M375.989 238.394C375.989 238.447 375.509 238.527 375.002 238.826C374.494 239.125 374.168 239.494 374.126 239.462C374.288 239.115 374.565 238.836 374.911 238.671C375.226 238.453 375.608 238.354 375.989 238.394Z" fill="#263238"/>
<path d="M374.702 236.349C374.329 236.441 373.969 236.585 373.634 236.776C373.342 237.012 373.082 237.284 372.86 237.587C372.86 237.587 372.86 237.449 372.962 237.251C373.101 237.001 373.297 236.787 373.533 236.626C373.769 236.465 374.04 236.361 374.323 236.322C374.569 236.3 374.702 236.327 374.702 236.349Z" fill="#263238"/>
<path d="M373.426 236.38C373.354 236.306 373.296 236.219 373.255 236.124C373.123 235.869 373.044 235.589 373.026 235.302C372.994 235.095 373.029 234.883 373.127 234.698C373.166 234.64 373.221 234.595 373.286 234.569C373.351 234.543 373.422 234.538 373.49 234.554C373.619 234.596 373.729 234.683 373.8 234.8C373.932 235.043 373.975 235.325 373.921 235.597C373.868 235.869 373.721 236.114 373.506 236.289C373.29 236.458 373.03 236.558 372.757 236.578C372.484 236.598 372.211 236.537 371.974 236.402C371.914 236.369 371.862 236.323 371.822 236.268C371.782 236.212 371.756 236.148 371.744 236.081C371.736 236.011 371.751 235.941 371.787 235.88C371.822 235.82 371.877 235.772 371.942 235.745C372.136 235.674 372.346 235.655 372.55 235.691C372.835 235.723 373.111 235.805 373.367 235.932C373.463 235.972 373.55 236.03 373.624 236.103C373.283 235.958 372.923 235.863 372.556 235.82C372.375 235.795 372.192 235.815 372.022 235.878C371.986 235.892 371.955 235.917 371.935 235.95C371.915 235.983 371.906 236.021 371.909 236.06C371.922 236.103 371.943 236.143 371.971 236.178C372 236.213 372.035 236.242 372.075 236.263C372.284 236.373 372.521 236.421 372.756 236.401C372.992 236.381 373.217 236.294 373.405 236.151C373.58 235.998 373.701 235.793 373.75 235.565C373.798 235.338 373.77 235.101 373.672 234.89C373.626 234.807 373.552 234.742 373.463 234.709C373.426 234.699 373.386 234.7 373.35 234.714C373.314 234.727 373.282 234.752 373.26 234.784C373.17 234.946 373.136 235.134 373.164 235.318C373.194 235.684 373.282 236.042 373.426 236.38Z" fill="#263238"/>
<path d="M365.336 236.492L364.802 243.365C364.802 243.365 371.621 245.699 371.648 246.98L358.298 246.948L358.672 236.209L365.336 236.492Z" fill="#455A64"/>
<g opacity="0.6">
<path d="M360.706 242.623C360.576 242.655 360.462 242.735 360.388 242.846C360.314 242.958 360.285 243.094 360.306 243.226C360.337 243.357 360.415 243.471 360.526 243.546C360.637 243.621 360.771 243.652 360.904 243.632C361.042 243.596 361.161 243.509 361.239 243.39C361.317 243.271 361.348 243.127 361.326 242.986C361.284 242.851 361.19 242.738 361.065 242.672C360.94 242.606 360.794 242.592 360.658 242.634" fill="white"/>
</g>
<g opacity="0.6">
<path d="M358.314 246.948L358.351 245.88L371.258 246.361C371.394 246.433 371.51 246.538 371.595 246.665C371.681 246.793 371.734 246.94 371.749 247.093L358.314 246.948Z" fill="white"/>
</g>
<path d="M365.032 243.306C365.032 243.37 364.701 243.386 364.37 243.584C364.038 243.782 363.836 244.049 363.803 244.022C363.771 243.995 363.857 243.616 364.257 243.387C364.658 243.157 365.048 243.248 365.032 243.306Z" fill="#263238"/>
<path d="M366.409 243.942C366.409 244.006 366.137 244.102 365.902 244.369C365.667 244.636 365.598 244.903 365.528 244.903C365.459 244.903 365.437 244.529 365.736 244.204C366.036 243.878 366.409 243.878 366.409 243.942Z" fill="#263238"/>
<path d="M367.141 245.64C367.082 245.64 367.002 245.32 367.184 244.967C367.365 244.615 367.675 244.487 367.718 244.545C367.76 244.604 367.547 244.786 367.402 245.079C367.258 245.373 367.205 245.64 367.141 245.64Z" fill="#263238"/>
<path d="M364.978 241.726C364.946 241.784 364.652 241.683 364.284 241.694C363.915 241.704 363.622 241.806 363.59 241.752C363.558 241.699 363.841 241.469 364.278 241.464C364.716 241.459 365.01 241.678 364.978 241.726Z" fill="#263238"/>
<g opacity="0.3">
<path d="M365.229 237.854L365.138 239.077L358.575 238.757L358.613 237.651L365.229 237.854Z" fill="black"/>
</g>
<path d="M365.058 240.338C364.837 240.389 364.607 240.38 364.391 240.311C364.151 240.256 363.918 240.174 363.697 240.065C363.566 240.002 363.441 239.929 363.323 239.846C363.248 239.803 363.181 239.747 363.125 239.681C363.088 239.631 363.067 239.57 363.067 239.507C363.067 239.445 363.088 239.384 363.125 239.334C363.16 239.29 363.205 239.254 363.256 239.23C363.307 239.206 363.363 239.194 363.419 239.195C363.502 239.199 363.585 239.213 363.665 239.238C363.806 239.279 363.943 239.333 364.076 239.398C364.298 239.51 364.502 239.656 364.679 239.83C364.978 240.129 365.074 240.364 365.048 240.364C365.021 240.364 364.877 240.177 364.572 239.926C364.392 239.784 364.194 239.664 363.985 239.569C363.863 239.511 363.736 239.467 363.606 239.435C363.467 239.392 363.349 239.387 363.307 239.435C363.264 239.483 363.307 239.467 363.307 239.51C363.346 239.559 363.393 239.6 363.446 239.633C363.557 239.71 363.673 239.782 363.793 239.846C363.996 239.958 364.208 240.051 364.428 240.124C364.643 240.181 364.853 240.253 365.058 240.338Z" fill="#263238"/>
<path d="M364.967 240.428C364.849 240.233 364.797 240.004 364.818 239.777C364.818 239.381 364.923 238.992 365.122 238.65C365.16 238.561 365.221 238.483 365.299 238.426C365.377 238.368 365.469 238.333 365.565 238.324C365.624 238.33 365.681 238.351 365.729 238.386C365.776 238.421 365.814 238.468 365.838 238.522C365.866 238.603 365.885 238.687 365.897 238.773C365.919 238.974 365.901 239.178 365.845 239.372C365.788 239.566 365.693 239.748 365.565 239.905C365.288 240.236 365.031 240.305 365.031 240.284C365.031 240.263 365.245 240.134 365.459 239.809C365.578 239.62 365.658 239.41 365.694 239.189C365.712 239.06 365.712 238.929 365.694 238.799C365.694 238.655 365.635 238.543 365.576 238.554C365.517 238.565 365.395 238.65 365.336 238.762C365.265 238.876 365.204 238.995 365.154 239.12C365.071 239.332 365.019 239.555 364.999 239.782C364.946 240.172 365.005 240.418 364.967 240.428Z" fill="#263238"/>
<path d="M370.217 179.958C370.217 179.958 372.668 184.983 373.309 188.566C373.49 189.581 366.292 241.09 366.292 241.09L357.78 240.77L361.769 192.838L360.349 183.226L370.217 179.958Z" fill="#263238"/>
<path d="M349.54 183.071C349.481 186.55 349.659 190.029 350.074 193.484C350.704 198.536 352.146 204.287 352.616 207.502C353.652 214.615 355.692 215.96 355.692 215.96L372.021 236.856L378.429 231.094L364.011 208.062C364.011 208.062 360.177 182.505 360.311 183.194C360.444 183.883 349.54 183.071 349.54 183.071Z" fill="#263238"/>
<path d="M356.033 216.27C356.08 216.347 356.131 216.42 356.188 216.489L356.653 217.087L358.367 219.298C359.814 221.183 361.785 223.767 363.969 226.624C366.153 229.481 368.139 232.076 369.613 233.924C370.345 234.848 370.948 235.59 371.375 236.097L371.867 236.674C371.921 236.745 371.982 236.811 372.048 236.872C372.004 236.793 371.952 236.72 371.893 236.653L371.429 236.049L369.715 233.844L364.113 226.512C361.934 223.645 359.942 221.06 358.468 219.218C357.737 218.289 357.133 217.552 356.712 217.044L356.215 216.462C356.161 216.392 356.1 216.328 356.033 216.27Z" fill="#455A64"/>
<path d="M354.213 186.985C354.203 187.272 354.124 187.553 353.983 187.802C353.411 189.064 352.363 190.047 351.067 190.536C350.808 190.654 350.525 190.714 350.24 190.713C351.098 190.35 351.895 189.858 352.605 189.255C353.255 188.586 353.797 187.82 354.213 186.985Z" fill="#455A64"/>
<path d="M371.835 184.07C371.444 184.248 371.011 184.309 370.587 184.247C370.162 184.184 369.765 184 369.442 183.717C369.48 183.648 369.976 183.878 370.628 183.968C371.279 184.059 371.819 183.995 371.835 184.07Z" fill="#455A64"/>
<path d="M362.645 191.172C362.672 191.284 362.691 191.399 362.703 191.514C362.735 191.759 362.773 192.085 362.826 192.496C362.922 193.377 363.061 194.632 363.237 196.159C363.568 199.299 364.022 203.635 364.546 208.623V208.564L366.911 212.345L375.13 225.572C376.16 227.254 376.999 228.621 377.591 229.599L378.232 230.688C378.314 230.812 378.384 230.945 378.44 231.083C378.346 230.966 378.261 230.843 378.184 230.715L377.479 229.647L374.943 225.668C372.807 222.277 369.886 217.626 366.655 212.489L364.295 208.703V208.671C363.814 203.7 363.387 199.342 363.083 196.197L362.751 192.523C362.719 192.112 362.693 191.786 362.677 191.535C362.651 191.416 362.641 191.294 362.645 191.172Z" fill="#455A64"/>
<path d="M360.161 146.284L365.256 147.918L365.64 158.721C365.64 158.721 368.396 171.414 368.994 173.016C369.695 174.936 370.216 176.917 370.548 178.933C370.548 178.933 369.565 186.099 362.404 186.943C355.243 187.787 348.579 183.675 348.579 183.675C348.579 183.675 346.192 172.995 344.003 163.415C341.92 154.3 343.613 148.863 343.613 148.863L351.457 146.044L360.161 146.284Z" fill="#455A64"/>
<path d="M363.946 152.297L359.265 152.864L359.411 154.067L364.092 153.501L363.946 152.297Z" fill="#FAFAFA"/>
<path d="M365.074 139.374C365.03 139.111 364.888 138.874 364.678 138.71C364.467 138.546 364.203 138.466 363.937 138.487C364.056 138.397 364.15 138.279 364.212 138.143C364.273 138.007 364.3 137.858 364.288 137.709C364.277 137.56 364.229 137.417 364.148 137.292C364.067 137.166 363.956 137.063 363.825 136.992C364.074 136.611 364.174 136.152 364.104 135.702C364.034 135.252 363.799 134.844 363.445 134.557L358.068 141.974C358.482 142.303 358.957 142.544 359.467 142.684C359.976 142.823 360.509 142.858 361.032 142.786C362.081 142.632 363.089 142.269 363.996 141.718C364.245 141.611 364.452 141.423 364.583 141.184C364.684 140.933 364.54 140.57 364.263 140.565C364.522 140.503 364.749 140.347 364.899 140.127C365.05 139.906 365.112 139.638 365.074 139.374Z" fill="#263238"/>
<path d="M351.719 135.321C351.619 135.297 351.513 135.304 351.417 135.341C351.321 135.378 351.238 135.443 351.18 135.529C351.122 135.614 351.092 135.715 351.093 135.818C351.093 135.921 351.126 136.021 351.185 136.106C351.025 136.084 350.861 136.106 350.713 136.17C350.564 136.233 350.435 136.336 350.34 136.467C350.245 136.598 350.186 136.752 350.172 136.913C350.157 137.074 350.186 137.236 350.256 137.382C349.877 137.361 349.502 137.464 349.188 137.676C349.029 137.784 348.904 137.936 348.828 138.113C348.753 138.29 348.729 138.484 348.761 138.674C348.805 138.857 348.919 139.016 349.079 139.115C349.239 139.215 349.431 139.249 349.615 139.208C349.521 139.373 349.476 139.561 349.486 139.75C349.495 139.939 349.559 140.122 349.668 140.276C349.727 140.348 349.8 140.406 349.882 140.447C349.965 140.488 350.056 140.51 350.148 140.513C350.24 140.515 350.332 140.498 350.417 140.462C350.502 140.426 350.578 140.371 350.64 140.303C350.538 140.441 350.485 140.61 350.49 140.782C350.495 140.954 350.557 141.12 350.668 141.252C350.778 141.385 350.929 141.476 351.097 141.512C351.266 141.548 351.441 141.527 351.596 141.451C351.554 141.623 351.567 141.803 351.634 141.966C351.7 142.13 351.817 142.268 351.966 142.362C352.116 142.455 352.291 142.499 352.468 142.487C352.644 142.475 352.812 142.408 352.947 142.295L351.719 135.321Z" fill="#263238"/>
<path d="M352.05 133.9L351.815 147.031C351.798 148.066 352.174 149.07 352.868 149.838C353.562 150.606 354.522 151.082 355.553 151.17C356.109 151.219 356.67 151.153 357.2 150.977C357.73 150.801 358.219 150.518 358.635 150.146C359.051 149.773 359.387 149.32 359.621 148.812C359.855 148.305 359.983 147.755 359.996 147.197C359.996 145.947 360.039 144.922 360.039 144.922C360.039 144.922 363.243 144.709 363.558 141.558C363.745 139.732 363.793 135.566 363.803 132.368C363.807 131.326 363.42 130.321 362.718 129.551C362.015 128.782 361.05 128.304 360.012 128.213L358.106 128.048C357.321 128.023 356.539 128.157 355.807 128.44C355.074 128.723 354.406 129.15 353.842 129.695C353.277 130.241 352.828 130.894 352.52 131.616C352.212 132.339 352.052 133.115 352.05 133.9Z" fill="#FFBE9D"/>
<path d="M360.028 144.922C358.567 144.784 357.177 144.228 356.023 143.32C356.023 143.32 356.835 145.707 360.012 145.702L360.028 144.922Z" fill="#EB996E"/>
<path d="M362.911 135.578C362.853 135.631 362.532 135.348 362.046 135.305C361.56 135.262 361.187 135.476 361.139 135.412C361.091 135.348 361.181 135.279 361.347 135.182C361.568 135.054 361.824 134.998 362.078 135.022C362.332 135.045 362.571 135.148 362.762 135.316C362.901 135.439 362.943 135.551 362.911 135.578Z" fill="#263238"/>
<path d="M357.78 135.786C357.77 135.903 357.715 136.012 357.627 136.09C357.538 136.168 357.422 136.208 357.304 136.202C357.247 136.202 357.19 136.191 357.136 136.168C357.083 136.146 357.035 136.113 356.995 136.072C356.954 136.03 356.923 135.981 356.902 135.928C356.881 135.874 356.871 135.817 356.872 135.759C356.882 135.641 356.936 135.532 357.025 135.454C357.114 135.377 357.229 135.336 357.347 135.342C357.405 135.342 357.462 135.354 357.515 135.376C357.568 135.399 357.617 135.432 357.657 135.473C357.697 135.514 357.729 135.563 357.75 135.617C357.771 135.671 357.781 135.728 357.78 135.786Z" fill="#263238"/>
<path d="M362.479 136.213C362.469 136.33 362.415 136.439 362.326 136.517C362.237 136.595 362.122 136.635 362.004 136.629C361.946 136.628 361.89 136.615 361.837 136.592C361.784 136.568 361.737 136.535 361.697 136.493C361.658 136.452 361.626 136.403 361.606 136.349C361.585 136.295 361.575 136.238 361.577 136.181C361.585 136.062 361.639 135.952 361.728 135.874C361.817 135.796 361.934 135.757 362.052 135.764C362.11 135.764 362.167 135.776 362.22 135.798C362.274 135.821 362.322 135.855 362.362 135.897C362.402 135.939 362.433 135.988 362.453 136.043C362.473 136.097 362.482 136.155 362.479 136.213Z" fill="#263238"/>
<path d="M358.191 135.161C358.132 135.214 357.812 134.931 357.326 134.888C356.84 134.846 356.461 135.059 356.413 134.995C356.365 134.931 356.455 134.862 356.621 134.765C356.842 134.638 357.097 134.582 357.352 134.605C357.606 134.628 357.847 134.728 358.041 134.894C358.18 135.022 358.223 135.134 358.191 135.161Z" fill="#263238"/>
<path d="M359.633 138.915C359.901 138.857 360.175 138.832 360.45 138.84C360.578 138.84 360.695 138.84 360.722 138.744C360.746 138.617 360.729 138.487 360.674 138.37C360.583 138.055 360.487 137.735 360.391 137.393C360.12 136.564 359.918 135.714 359.788 134.851C360.121 135.656 360.391 136.487 360.594 137.334C360.685 137.681 360.776 138.007 360.861 138.317C360.918 138.476 360.918 138.649 360.861 138.808C360.839 138.85 360.808 138.887 360.77 138.915C360.732 138.944 360.689 138.964 360.642 138.974C360.571 138.981 360.5 138.981 360.428 138.974C360.162 138.987 359.895 138.967 359.633 138.915Z" fill="#263238"/>
<path d="M358.175 139.123C358.255 139.123 358.212 139.657 358.629 140.068C359.045 140.48 359.611 140.474 359.611 140.544C359.611 140.613 359.473 140.64 359.238 140.624C358.928 140.599 358.637 140.467 358.415 140.25C358.201 140.044 358.077 139.762 358.068 139.465C358.068 139.241 358.143 139.118 358.175 139.123Z" fill="#263238"/>
<path d="M358.458 133.591C358.394 133.719 357.924 133.591 357.342 133.634C356.76 133.676 356.274 133.767 356.226 133.634C356.178 133.5 356.29 133.457 356.488 133.345C356.748 133.208 357.037 133.135 357.331 133.132C357.626 133.123 357.918 133.184 358.186 133.308C358.383 133.42 358.479 133.532 358.458 133.591Z" fill="#263238"/>
<path d="M362.97 134.178C362.874 134.285 362.549 134.141 362.148 134.098C361.748 134.055 361.4 134.098 361.331 133.986C361.262 133.874 361.363 133.82 361.523 133.73C361.734 133.622 361.971 133.58 362.206 133.607C362.441 133.635 362.662 133.731 362.842 133.885C362.976 134.034 363.013 134.13 362.97 134.178Z" fill="#263238"/>
<path d="M352.904 136.362C352.851 136.336 350.768 135.529 350.667 137.697C350.566 139.865 352.744 139.54 352.755 139.476C352.766 139.411 352.904 136.362 352.904 136.362Z" fill="#FFBE9D"/>
<path d="M352.141 138.616C352.141 138.616 352.098 138.643 352.034 138.669C351.943 138.704 351.842 138.704 351.751 138.669C351.616 138.573 351.51 138.443 351.442 138.291C351.375 138.14 351.349 137.974 351.366 137.81C351.373 137.624 351.419 137.442 351.5 137.276C351.527 137.21 351.568 137.151 351.621 137.104C351.673 137.057 351.736 137.023 351.804 137.003C351.848 136.994 351.894 137.001 351.933 137.022C351.972 137.044 352.002 137.079 352.018 137.121C352.018 137.185 352.018 137.228 352.018 137.228C352.018 137.228 352.066 137.196 352.055 137.105C352.046 137.051 352.017 137.001 351.975 136.966C351.919 136.917 351.846 136.892 351.772 136.896C351.683 136.91 351.598 136.946 351.526 137.001C351.454 137.056 351.397 137.128 351.361 137.212C351.257 137.394 351.2 137.6 351.196 137.81C351.174 138.002 351.21 138.196 351.298 138.368C351.386 138.54 351.523 138.682 351.692 138.776C351.749 138.795 351.81 138.802 351.87 138.795C351.93 138.789 351.987 138.769 352.039 138.739C352.13 138.669 352.146 138.621 352.141 138.616Z" fill="#EB996E"/>
<path d="M351.708 136.17C351.915 136.174 352.117 136.234 352.292 136.345C352.467 136.455 352.608 136.61 352.702 136.795C352.814 137.115 352.814 137.468 352.926 137.788C353.038 138.109 353.332 138.418 353.668 138.365C353.783 138.341 353.89 138.287 353.977 138.208C354.064 138.129 354.129 138.028 354.165 137.916C354.231 137.69 354.253 137.452 354.229 137.217C354.191 136.197 354.069 135.177 354.117 134.162C354.128 133.134 354.44 132.132 355.014 131.279C355.309 130.857 355.714 130.523 356.184 130.312C356.654 130.101 357.172 130.022 357.684 130.083C358.351 130.195 358.933 130.617 359.59 130.755C359.983 130.842 360.389 130.839 360.781 130.747C361.172 130.654 361.537 130.475 361.849 130.221C361.929 130.157 362.287 129.965 362.287 129.965C362.296 129.724 362.237 129.485 362.116 129.276C360.904 127.936 358.549 127.38 356.776 127.674C355.869 127.814 355.003 128.149 354.238 128.658C353.474 129.166 352.829 129.834 352.349 130.617C351.452 132.192 351.473 134.488 351.74 136.181" fill="#263238"/>
<path d="M364.188 131.829C363.997 132.133 363.729 132.382 363.411 132.551C363.094 132.72 362.737 132.802 362.378 132.79C361.658 132.757 360.952 132.588 360.295 132.293C359.254 131.935 358.181 131.68 357.091 131.53C356.984 131.53 356.856 131.53 356.808 131.418C356.76 131.305 356.878 131.156 356.995 131.076C358.004 130.424 360.317 130.173 361.518 130.227C362.12 130.239 362.709 130.406 363.229 130.711C363.749 131.015 364.182 131.448 364.487 131.968" fill="#263238"/>
<path d="M363.873 131.898C363.247 131.11 362.339 130.596 361.342 130.467C359.426 130.306 357.504 130.676 355.785 131.538C354.067 132.399 352.619 133.717 351.601 135.348C351.408 134.427 351.311 133.49 351.313 132.549C351.366 131.903 352.093 128.112 356.119 127.257C356.135 127.247 362.265 125.49 363.873 131.898Z" fill="#455A64"/>
<path d="M352.023 134.531C353.444 132.768 355.232 131.335 357.262 130.333C359.644 129.247 362.157 128.474 364.738 128.032C365.4 127.875 366.089 127.863 366.757 127.994C367.089 128.067 367.393 128.232 367.636 128.47C367.879 128.708 368.05 129.01 368.129 129.34C368.262 130.173 366.698 131.311 365.993 131.743C365.285 132.13 364.555 132.478 363.809 132.784C363.809 132.784 363.964 131.273 361.561 130.745C358.277 130.024 352.023 134.531 352.023 134.531Z" fill="#455A64"/>
<path d="M367.178 128.101C366.951 128.053 366.721 128.017 366.49 127.994C365.851 127.97 365.212 128.013 364.583 128.123C362.499 128.474 360.459 129.052 358.501 129.847C356.529 130.606 354.717 131.729 353.161 133.158C352.696 133.594 352.288 134.085 351.943 134.621C351.708 135.006 351.618 135.241 351.596 135.23C351.575 135.219 351.596 135.166 351.639 135.054C351.697 134.887 351.769 134.724 351.853 134.568C352.166 133.997 352.562 133.475 353.027 133.019C354.565 131.522 356.393 130.355 358.399 129.591C360.375 128.784 362.443 128.225 364.556 127.925C365.201 127.834 365.853 127.822 366.5 127.888C366.684 127.902 366.864 127.945 367.034 128.016C367.13 128.064 367.184 128.091 367.178 128.101Z" fill="#263238"/>
<path d="M359.382 128.94C360.166 128.606 360.999 128.403 361.849 128.336C361.663 128.162 361.457 128.012 361.235 127.888C360.574 127.94 359.925 128.097 359.312 128.352L359.382 128.94Z" fill="#FAFAFA"/>
<path d="M364.236 132.966C364.335 132.828 364.396 132.665 364.411 132.496C364.427 132.326 364.397 132.156 364.325 132.002C364.252 131.848 364.14 131.716 363.999 131.62C363.859 131.523 363.695 131.466 363.526 131.455C363.638 131.41 363.739 131.342 363.824 131.256C363.909 131.17 363.975 131.067 364.018 130.954C364.061 130.842 364.08 130.721 364.075 130.6C364.069 130.48 364.038 130.361 363.985 130.253C363.859 130.043 363.667 129.881 363.439 129.792C363.211 129.703 362.959 129.693 362.725 129.762C362.492 129.839 362.281 129.97 362.109 130.145C361.938 130.319 361.81 130.532 361.737 130.766C361.637 130.618 361.502 130.499 361.343 130.418C361.184 130.338 361.007 130.3 360.829 130.307C360.652 130.315 360.479 130.368 360.327 130.461C360.176 130.555 360.051 130.685 359.964 130.841C359.916 130.707 359.82 130.596 359.694 130.531C359.568 130.466 359.422 130.45 359.286 130.488C359.015 130.577 358.767 130.725 358.559 130.921C358.351 131.118 358.082 131.241 357.796 131.268L357.609 131.348C357.762 131.594 357.999 131.775 358.277 131.857C358.554 131.94 358.852 131.918 359.115 131.796C359.112 131.978 359.169 132.156 359.277 132.303C359.385 132.45 359.537 132.558 359.711 132.61C359.886 132.662 360.072 132.657 360.243 132.594C360.414 132.531 360.56 132.414 360.658 132.261C360.691 132.396 360.758 132.52 360.851 132.623C360.944 132.725 361.062 132.803 361.193 132.848C361.324 132.894 361.464 132.906 361.601 132.884C361.738 132.861 361.867 132.805 361.977 132.72C362.037 132.876 362.132 133.016 362.256 133.129C362.38 133.241 362.528 133.323 362.689 133.367C362.85 133.412 363.019 133.418 363.183 133.386C363.347 133.353 363.501 133.282 363.632 133.18C363.769 133.396 363.857 133.639 363.892 133.892C363.927 134.145 363.908 134.403 363.835 134.648C364.011 134.609 364.173 134.521 364.301 134.394C364.43 134.268 364.52 134.108 364.562 133.932C364.604 133.757 364.595 133.573 364.538 133.402C364.48 133.231 364.375 133.08 364.236 132.966Z" fill="#263238"/>
<path d="M355.206 132.432C354.461 132.762 353.746 133.157 353.07 133.612C352.391 134.076 351.847 134.712 351.495 135.455L352.563 136.475C352.856 136.571 353.097 136.672 353.321 136.475C353.437 136.374 353.526 136.246 353.58 136.103C353.634 135.959 353.651 135.804 353.631 135.652C353.772 135.682 353.92 135.673 354.056 135.625C354.193 135.578 354.314 135.493 354.406 135.381C354.498 135.27 354.558 135.134 354.578 134.991C354.599 134.848 354.579 134.701 354.522 134.568C354.628 134.543 354.726 134.49 354.805 134.415C354.883 134.34 354.941 134.245 354.971 134.141C354.999 134.036 354.999 133.926 354.972 133.822C354.945 133.717 354.891 133.621 354.816 133.543C354.937 133.536 355.053 133.494 355.15 133.421C355.247 133.349 355.32 133.25 355.362 133.137C355.403 133.023 355.411 132.9 355.383 132.783C355.355 132.665 355.294 132.558 355.206 132.475V132.432Z" fill="#263238"/>
<path d="M365.256 147.918C365.256 147.918 368.412 149.814 369.363 151.501C370.313 153.189 375.365 165.503 375.156 167.521C374.948 169.54 370.206 170.784 370.206 170.784L365.256 164.376L367.52 163.025L365.256 158.662V147.918Z" fill="#455A64"/>
<path d="M370.217 170.768C370.217 170.768 358.746 173.064 354.581 168.098L355.788 163.906C355.788 163.906 363.366 165.7 365.737 164.931L370.217 170.768Z" fill="#FFBE9D"/>
<path d="M371.402 160.579C371.445 160.665 370.057 161.247 368.609 162.352C367.162 163.457 366.249 164.654 366.174 164.595C366.305 164.296 366.485 164.021 366.708 163.783C367.212 163.171 367.784 162.617 368.412 162.133C369.043 161.653 369.726 161.243 370.446 160.91C370.744 160.747 371.067 160.635 371.402 160.579Z" fill="#263238"/>
<path d="M367.723 162.87C367.314 162.223 366.969 161.538 366.692 160.825C366.327 160.154 366.012 159.456 365.752 158.737C366.256 159.323 366.659 159.989 366.943 160.707C367.303 161.388 367.566 162.116 367.723 162.87Z" fill="#263238"/>
<path d="M365.64 157.685C365.61 157.082 365.517 156.485 365.363 155.901C365.265 155.304 365.11 154.717 364.898 154.15C365.027 155.35 365.275 156.534 365.64 157.685Z" fill="#263238"/>
<path d="M345.049 149.52C345.268 149.75 348.419 151.838 349.471 155.394C350.523 158.95 351.682 162.662 351.682 162.662L355.788 163.196L353.471 172.669C351.902 172.427 350.405 171.851 349.079 170.979C347.753 170.108 346.63 168.961 345.786 167.617C343.953 164.424 342.471 161.042 341.365 157.53C341.365 157.53 341.712 146.028 345.049 149.52Z" fill="#455A64"/>
<path d="M354.378 163.009C354.378 163.009 352.637 159.111 352.402 159.057C352.167 159.004 348.809 157.824 348.809 157.824C348.706 158.097 348.706 158.399 348.809 158.673L347.596 158.828C347.596 158.828 347.778 159.57 348.189 159.671L347.751 160.061C347.971 160.35 348.252 160.587 348.574 160.755C348.697 160.817 348.833 160.848 348.971 160.848C349.109 160.848 349.246 160.817 349.369 160.755C349.369 160.755 349.22 161.033 349.903 161.471C350.587 161.909 351.778 162.539 351.778 162.539L354.378 163.009Z" fill="#FFBE9D"/>
<path d="M351.783 162.56C351.783 162.56 350.592 161.909 349.909 161.492C349.316 161.118 349.332 160.862 349.375 160.787C349.252 160.843 349.119 160.872 348.985 160.872C348.85 160.872 348.717 160.843 348.595 160.787C348.272 160.616 347.99 160.377 347.767 160.088L348.168 159.666C347.767 159.549 347.591 158.849 347.586 158.817L348.793 158.662C348.696 158.389 348.696 158.091 348.793 157.818C348.825 157.818 352.162 159.004 352.392 159.052C352.621 159.1 354.298 162.849 354.373 163.009L351.783 162.56ZM348.814 158.667L347.602 158.822C347.602 158.908 347.81 159.559 348.189 159.655L347.746 160.045C347.961 160.331 348.239 160.565 348.558 160.729C348.681 160.789 348.816 160.82 348.953 160.82C349.09 160.82 349.225 160.789 349.348 160.729V160.761C349.348 160.761 349.209 161.038 349.882 161.466C350.555 161.893 351.714 162.534 351.756 162.534L354.335 162.987C353.727 161.636 352.547 159.095 352.37 159.057C352.194 159.02 348.963 157.888 348.782 157.824C348.687 158.099 348.698 158.4 348.814 158.667Z" fill="#EB996E"/>
<path d="M348.916 158.684C349.625 159.028 350.361 159.315 351.116 159.543C351.425 159.655 351.73 159.736 351.97 159.853C352.185 159.955 352.361 160.123 352.472 160.334C352.675 160.697 352.75 160.958 352.782 160.948C352.769 160.71 352.703 160.479 352.589 160.27C352.477 160.028 352.29 159.83 352.055 159.704C351.771 159.575 351.478 159.465 351.18 159.372C350.443 159.088 349.686 158.858 348.916 158.684Z" fill="#EB996E"/>
<path d="M348.13 159.666C348.317 159.777 348.524 159.852 348.739 159.885C349.124 159.992 349.668 160.077 350.245 160.232C350.737 160.354 351.199 160.572 351.607 160.873C351.916 161.113 352.05 161.321 352.077 161.305C352.002 161.094 351.869 160.909 351.692 160.771C351.289 160.425 350.809 160.178 350.293 160.05C349.7 159.89 349.15 159.826 348.766 159.757C348.558 159.703 348.345 159.673 348.13 159.666Z" fill="#EB996E"/>
<path d="M351.212 161.45C351.014 161.182 350.728 160.993 350.405 160.916C350.1 160.778 349.758 160.746 349.433 160.825C349.433 160.884 349.861 160.91 350.347 161.086C350.832 161.263 351.18 161.492 351.212 161.45Z" fill="#EB996E"/>
<path d="M355.436 164.205L365.79 158.982L367.685 162.843C367.685 162.843 358.143 172.3 353.673 172.178" fill="#FFBE9D"/>
<path d="M349.145 153.258C349.16 153.519 349.207 153.777 349.284 154.027C349.396 154.491 349.556 155.132 349.748 155.837C349.941 156.542 350.122 157.183 350.282 157.642C350.341 157.894 350.431 158.138 350.549 158.368C350.531 158.109 350.484 157.853 350.411 157.605C350.298 157.14 350.138 156.499 349.946 155.789C349.754 155.079 349.572 154.449 349.412 153.995C349.352 153.74 349.262 153.492 349.145 153.258Z" fill="#263238"/>
<path d="M349.594 166.112C349.626 166.112 349.717 165.636 349.957 164.894C350.093 164.463 350.303 164.058 350.576 163.698C350.904 163.27 351.377 162.976 351.906 162.87C352.459 162.845 353.012 162.908 353.545 163.057L354.902 163.329C355.072 163.352 355.239 163.395 355.398 163.458C355.512 163.508 355.601 163.6 355.649 163.714C355.671 163.763 355.681 163.816 355.681 163.869C355.681 163.922 355.671 163.975 355.649 164.024C355.649 164.024 355.794 163.938 355.735 163.693C355.714 163.623 355.679 163.557 355.632 163.501C355.586 163.445 355.528 163.4 355.462 163.367C355.293 163.288 355.113 163.232 354.928 163.201L353.577 162.892C353.025 162.727 352.449 162.658 351.874 162.689C351.292 162.803 350.775 163.133 350.427 163.612C350.149 163.992 349.943 164.419 349.818 164.873C349.731 165.175 349.661 165.481 349.61 165.791C349.588 165.897 349.583 166.005 349.594 166.112Z" fill="#263238"/>
<path d="M348.168 164.029C348.451 163.529 348.83 163.089 349.284 162.737C349.786 162.437 350.324 162.204 350.886 162.042C350.707 162.014 350.524 162.029 350.352 162.085C349.936 162.172 349.541 162.343 349.193 162.587C348.841 162.832 348.55 163.156 348.344 163.532C348.243 163.68 348.182 163.851 348.168 164.029Z" fill="#263238"/>
<path d="M341.365 157.53C341.365 157.53 341.365 157.599 341.418 157.733C341.472 157.866 341.53 158.069 341.61 158.299C341.787 158.833 342.027 159.516 342.326 160.376C342.625 161.236 342.988 162.304 343.501 163.425C344.013 164.547 344.617 165.753 345.348 166.976C346.032 168.134 346.903 169.17 347.928 170.041C348.763 170.754 349.698 171.339 350.704 171.777C351.386 172.07 352.105 172.27 352.84 172.37C353.039 172.399 353.238 172.419 353.438 172.428C353.577 172.428 353.647 172.428 353.647 172.428C353.647 172.428 353.364 172.396 352.851 172.306C352.133 172.177 351.433 171.96 350.768 171.659C348.572 170.645 346.74 168.98 345.519 166.891C344.793 165.679 344.206 164.456 343.666 163.361C343.127 162.266 342.78 161.225 342.454 160.339C342.128 159.452 341.877 158.763 341.685 158.277L341.461 157.743C341.436 157.669 341.404 157.597 341.365 157.53Z" fill="#263238"/>
<path d="M344.334 149.744C344.334 149.798 345.124 150.086 346.027 150.625C346.929 151.165 347.575 151.725 347.629 151.693C346.755 150.732 345.613 150.057 344.35 149.755L344.334 149.744Z" fill="#263238"/>
<path d="M352.189 174.906C352.359 175.01 352.538 175.099 352.723 175.173C352.899 175.259 353.113 175.355 353.364 175.451C353.615 175.547 353.898 175.675 354.229 175.777C354.984 176.046 355.754 176.27 356.536 176.45C357.496 176.661 358.468 176.815 359.446 176.909C360.426 176.989 361.411 177.007 362.394 176.962C363.195 176.925 363.994 176.841 364.786 176.711C365.122 176.663 365.427 176.594 365.688 176.54C365.95 176.487 366.185 176.428 366.367 176.38C366.561 176.337 366.752 176.28 366.938 176.209C366.74 176.229 366.544 176.263 366.351 176.311C366.169 176.348 365.939 176.396 365.672 176.439C365.405 176.482 365.101 176.546 364.765 176.583C363.975 176.696 363.18 176.768 362.383 176.797C361.409 176.829 360.433 176.804 359.462 176.722C358.491 176.632 357.527 176.485 356.573 176.284C355.795 176.114 355.027 175.904 354.272 175.654C353.94 175.558 353.657 175.446 353.401 175.355C353.145 175.264 352.931 175.179 352.755 175.109C352.571 175.029 352.382 174.961 352.189 174.906Z" fill="#263238"/>
<path d="M360.599 180.284C361.318 180.191 362.023 180.012 362.698 179.75C363.392 179.551 364.059 179.267 364.685 178.906C364.685 178.858 363.766 179.2 362.639 179.573C361.513 179.947 360.589 180.236 360.599 180.284Z" fill="#263238"/>
<g opacity="0.3">
<path d="M368.503 171.051C366.136 171.519 363.705 171.555 361.326 171.158C360.461 170.896 359.557 170.788 358.656 170.837C357.941 171.011 357.25 171.273 356.6 171.617C355.371 172.122 354.036 172.315 352.715 172.178C351.393 172.041 350.127 171.579 349.028 170.832C349.414 171.57 349.971 172.205 350.653 172.683C351.335 173.162 352.122 173.47 352.947 173.582C354.599 173.792 356.276 173.642 357.865 173.144C358.811 172.836 359.79 172.639 360.781 172.557C362.041 172.525 363.275 172.936 364.519 172.957C365.978 173 367.412 172.567 368.604 171.724L368.503 171.051Z" fill="black"/>
</g>
<g opacity="0.3">
<path d="M364.401 179.274C363.871 180.166 363.138 180.92 362.262 181.477C361.387 182.033 360.393 182.376 359.36 182.478C358.915 182.534 358.462 182.498 358.031 182.372C357.815 182.308 357.614 182.201 357.442 182.057C357.269 181.913 357.128 181.734 357.027 181.533C357.506 181.226 358.036 181.007 358.591 180.887L364.343 179.312" fill="black"/>
</g>
<path d="M367.531 162.998C367.391 163.17 367.235 163.329 367.066 163.473C366.756 163.772 366.308 164.2 365.779 164.744C365.25 165.289 364.62 165.962 363.851 166.629C363.082 167.297 362.207 167.986 361.283 168.701C360.414 169.381 359.502 170.006 358.554 170.57C357.777 171.033 356.954 171.415 356.098 171.708C355.521 171.904 354.927 172.048 354.325 172.14C354.106 172.179 353.884 172.191 353.663 172.178C354.465 172.008 355.257 171.791 356.034 171.526C356.866 171.209 357.667 170.816 358.426 170.351C359.351 169.779 360.242 169.155 361.096 168.482C362.02 167.767 362.901 167.088 363.664 166.437C364.428 165.786 365.069 165.139 365.624 164.605C366.18 164.071 366.649 163.666 366.981 163.393C367.147 163.239 367.332 163.107 367.531 162.998Z" fill="#EB996E"/>
</svg>
