<svg width="18" height="19" viewBox="0 0 18 19" fill="none" xmlns="http://www.w3.org/2000/svg">
<path d="M6.7725 4.3775C6.765 4.31 6.7575 4.25 6.7425 4.1825C6.735 4.13 6.7275 4.0775 6.7125 4.0175C6.69 3.9275 6.66 3.83 6.6225 3.74C6.5325 3.4775 6.3975 3.2375 6.225 3.0125C6.1275 2.8925 6.0225 2.7725 5.9025 2.675C5.4225 2.24 4.8 2 4.1475 2C2.685 2 1.5 3.185 1.5 4.6475C1.5 5.3 1.74 5.9225 2.175 6.4025C2.2725 6.5225 2.3925 6.6275 2.5125 6.725C2.7375 6.8975 2.9775 7.0325 3.24 7.1225C3.33 7.16 3.4275 7.19 3.5175 7.2125C3.5775 7.2275 3.63 7.235 3.6825 7.2425C3.75 7.2575 3.81 7.265 3.8775 7.2725C3.9675 7.28 4.0575 7.2875 4.1475 7.2875C5.6025 7.2875 6.7875 6.1025 6.7875 4.6475C6.7875 4.5575 6.78 4.4675 6.7725 4.3775Z" fill="#707070"/>
<path d="M15.825 12.6054C15.75 12.5079 15.6525 12.4104 15.5475 12.3279C15.5325 12.3129 15.51 12.2904 15.4875 12.2754C15.285 12.1179 15.06 11.9904 14.8275 11.9004C14.805 11.8854 14.7825 11.8779 14.76 11.8779C14.6775 11.8479 14.595 11.8179 14.5125 11.7954C14.385 11.7654 14.25 11.7429 14.1225 11.7279C14.0325 11.7204 13.9425 11.7129 13.8525 11.7129C12.3975 11.7129 11.2125 12.8979 11.2125 14.3529C11.2125 14.4429 11.22 14.5329 11.2275 14.6229C11.2425 14.7504 11.265 14.8854 11.295 15.0129C11.3175 15.0954 11.3475 15.1779 11.3775 15.2604C11.3775 15.2829 11.385 15.3054 11.4 15.3279C11.49 15.5604 11.6175 15.7854 11.775 15.9879C11.79 16.0104 11.8125 16.0254 11.8275 16.0479C11.91 16.1529 12.0075 16.2504 12.105 16.3254C12.585 16.7604 13.2 17.0004 13.8525 17.0004C15.315 17.0004 16.5 15.8154 16.5 14.3529C16.5 13.7004 16.26 13.0854 15.825 12.6054Z" fill="#707070"/>
<path d="M4.1475 11.7129C4.0575 11.7129 3.9675 11.7204 3.8775 11.7279C3.75 11.7429 3.615 11.7654 3.4875 11.7954C3.405 11.8179 3.3225 11.8479 3.24 11.8779C3.2175 11.8779 3.195 11.8854 3.1725 11.9004C2.94 11.9904 2.715 12.1179 2.5125 12.2754C2.49 12.2904 2.475 12.3129 2.4525 12.3279C2.3475 12.4104 2.25 12.5079 2.175 12.6054C1.74 13.0854 1.5 13.7004 1.5 14.3529C1.5 15.8154 2.685 17.0004 4.1475 17.0004C4.8 17.0004 5.4225 16.7604 5.9025 16.3254C6.0225 16.2279 6.1275 16.1079 6.225 15.9879C6.3825 15.7854 6.51 15.5604 6.6 15.3279C6.615 15.3054 6.6225 15.2829 6.6225 15.2604C6.6525 15.1779 6.6825 15.0954 6.705 15.0129C6.735 14.8854 6.7575 14.7504 6.7725 14.6229C6.78 14.5329 6.7875 14.4429 6.7875 14.3529C6.7875 12.8979 5.6025 11.7129 4.1475 11.7129Z" fill="#707070"/>
<path d="M13.8525 2C13.2 2 12.585 2.24 12.105 2.675C12.0075 2.75 11.91 2.8475 11.8275 2.9525C11.8125 2.9675 11.79 2.99 11.775 3.0125C11.6175 3.215 11.49 3.44 11.4 3.6725C11.385 3.695 11.3775 3.7175 11.3775 3.74C11.3475 3.8225 11.3175 3.905 11.295 3.9875C11.265 4.115 11.2425 4.25 11.2275 4.3775C11.22 4.4675 11.2125 4.5575 11.2125 4.6475C11.2125 6.1025 12.3975 7.2875 13.8525 7.2875C13.9425 7.2875 14.0325 7.28 14.1225 7.2725C14.25 7.2575 14.385 7.235 14.5125 7.205C14.595 7.1825 14.6775 7.1525 14.76 7.1225C14.7825 7.1225 14.805 7.115 14.8275 7.1C15.06 7.01 15.285 6.8825 15.4875 6.725C15.6075 6.6275 15.7275 6.5225 15.825 6.4025C16.26 5.9225 16.5 5.3 16.5 4.6475C16.5 3.185 15.315 2 13.8525 2Z" fill="#292D32"/>
<path opacity="0.4" d="M11.8275 16.0475C11.8125 16.025 11.79 16.01 11.775 15.9875C11.6175 15.785 11.49 15.56 11.4 15.3275C11.4075 15.35 11.415 15.3725 11.4225 15.395C9.915 16.025 8.115 16.0325 6.5775 15.395C6.585 15.3725 6.5925 15.35 6.6 15.3275C6.51 15.56 6.3825 15.785 6.225 15.9875C6.1275 16.1075 6.0225 16.2275 5.9025 16.325C6.8625 16.7675 7.9275 17 9 17C10.095 17 11.1375 16.775 12.105 16.325C12.0075 16.25 11.91 16.1525 11.8275 16.0475ZM2.625 9.5C2.625 8.6675 2.79 7.835 3.105 7.0775C3.1125 7.0775 3.1275 7.085 3.135 7.085C3.045 7.0475 2.9475 7.0025 2.865 6.9575C2.745 6.89 2.625 6.815 2.5125 6.725C2.3925 6.6275 2.2725 6.5225 2.175 6.4025C1.7325 7.3625 1.5 8.4275 1.5 9.5C1.5 10.595 1.725 11.6375 2.175 12.605C2.25 12.5075 2.3475 12.41 2.4525 12.3275C2.475 12.3125 2.49 12.29 2.5125 12.275C2.715 12.1175 2.94 11.99 3.1725 11.9C3.15 11.9075 3.1275 11.915 3.105 11.9225C2.7825 11.165 2.625 10.3475 2.625 9.5ZM15.825 6.4025C15.7275 6.5225 15.6075 6.6275 15.4875 6.725C15.285 6.8825 15.06 7.01 14.8275 7.1C14.85 7.0925 14.8725 7.085 14.895 7.0775C15.21 7.835 15.375 8.6675 15.375 9.5C15.375 10.3475 15.2175 11.165 14.895 11.9225C14.8725 11.915 14.85 11.9075 14.8275 11.9C15.06 11.99 15.285 12.1175 15.4875 12.275C15.51 12.29 15.5325 12.3125 15.5475 12.3275C15.6525 12.41 15.75 12.5075 15.825 12.605C16.275 11.6375 16.5 10.595 16.5 9.5C16.5 8.4275 16.2675 7.3625 15.825 6.4025ZM9 2C7.9275 2 6.8625 2.2325 5.9025 2.675C6.0225 2.7725 6.1275 2.8925 6.225 3.0125C6.315 3.125 6.39 3.245 6.4575 3.365C6.5025 3.4475 6.5475 3.545 6.585 3.635C6.585 3.6275 6.5775 3.6125 6.5775 3.605C8.1075 2.9675 9.915 2.975 11.4225 3.605C11.415 3.6275 11.4075 3.65 11.4 3.6725C11.49 3.44 11.6175 3.215 11.775 3.0125C11.79 2.99 11.8125 2.9675 11.8275 2.9525C11.91 2.8475 12.0075 2.75 12.105 2.675C11.1375 2.225 10.095 2 9 2Z" fill="#292D32"/>
</svg>
