<svg width="500" height="355" viewBox="0 0 500 355" fill="none" xmlns="http://www.w3.org/2000/svg">
<g clip-path="url(#clip0_1773_2746)">
<path d="M477.72 136.968H404.72V368.308H477.72V136.968Z" fill="#F5F5F5"/>
<path d="M477.72 136.968H441.22V367.668H477.72V136.968Z" fill="#EBEBEB"/>
<path d="M438.84 114.258H413.06V136.968H438.84V114.258Z" fill="#F5F5F5"/>
<path d="M438.83 114.258H432.69V136.968H438.83V114.258Z" fill="#EBEBEB"/>
<path d="M398.64 136.967V135.647H479.85V136.967" fill="#E0E0E0"/>
<path d="M425.31 146.878H419.13V159.908H425.31V146.878Z" fill="#FAFAFA"/>
<path d="M441.22 165.018C441.22 165.158 433.05 165.268 422.97 165.268C412.89 165.268 404.72 165.158 404.72 165.018C404.72 164.878 412.89 164.768 422.97 164.768C433.05 164.768 441.22 164.878 441.22 165.018Z" fill="#E0E0E0"/>
<path d="M462.12 146.878H455.94V159.908H462.12V146.878Z" fill="#E0E0E0"/>
<path d="M478 165.018C478 165.158 469.83 165.268 459.76 165.268C449.69 165.268 441.51 165.158 441.51 165.018C441.51 164.878 449.67 164.768 459.76 164.768C469.85 164.768 478 164.878 478 165.018Z" fill="#E0E0E0"/>
<path d="M462.12 172.737H455.94V185.767H462.12V172.737Z" fill="#E0E0E0"/>
<path d="M478 190.888C478 191.018 469.83 191.138 459.76 191.138C449.69 191.138 441.51 191.018 441.51 190.888C441.51 190.758 449.67 190.638 459.76 190.638C469.85 190.638 478 190.748 478 190.888Z" fill="#E0E0E0"/>
<path d="M462.12 199.388H455.94V212.418H462.12V199.388Z" fill="#E0E0E0"/>
<path d="M478 217.528C478 217.668 469.83 217.778 459.76 217.778C449.69 217.778 441.51 217.668 441.51 217.528C441.51 217.388 449.67 217.288 459.76 217.288C469.85 217.288 478 217.398 478 217.528Z" fill="#E0E0E0"/>
<path d="M462.12 226.038H455.94V239.068H462.12V226.038Z" fill="#E0E0E0"/>
<path d="M478 244.178C478 244.318 469.83 244.428 459.76 244.428C449.69 244.428 441.51 244.318 441.51 244.178C441.51 244.038 449.67 243.928 459.76 243.928C469.85 243.928 478 244.038 478 244.178Z" fill="#E0E0E0"/>
<path d="M462.12 251.918H455.94V264.948H462.12V251.918Z" fill="#E0E0E0"/>
<path d="M478 270.067C478 270.197 469.83 270.307 459.76 270.307C449.69 270.307 441.51 270.197 441.51 270.067C441.51 269.937 449.67 269.817 459.76 269.817C469.85 269.817 478 269.927 478 270.067Z" fill="#E0E0E0"/>
<path d="M462.12 277.907H455.94V290.937H462.12V277.907Z" fill="#E0E0E0"/>
<path d="M462.12 304.237H455.94V317.267H462.12V304.237Z" fill="#E0E0E0"/>
<path d="M478 296.058C478 296.188 469.83 296.298 459.76 296.298C449.69 296.298 441.51 296.188 441.51 296.058C441.51 295.928 449.67 295.808 459.76 295.808C469.85 295.808 478 295.918 478 296.058Z" fill="#E0E0E0"/>
<path d="M425.31 173.138H419.13V186.168H425.31V173.138Z" fill="#FAFAFA"/>
<path d="M441.22 191.277C441.22 191.417 433.05 191.527 422.97 191.527C412.89 191.527 404.72 191.417 404.72 191.277C404.72 191.137 412.89 191.027 422.97 191.027C433.05 191.027 441.22 191.137 441.22 191.277Z" fill="#E0E0E0"/>
<path d="M425.31 199.397H419.13V212.427H425.31V199.397Z" fill="#FAFAFA"/>
<path d="M441.22 217.538C441.22 217.678 433.05 217.788 422.97 217.788C412.89 217.788 404.72 217.678 404.72 217.538C404.72 217.398 412.89 217.288 422.97 217.288C433.05 217.288 441.22 217.408 441.22 217.538Z" fill="#E0E0E0"/>
<path d="M425.31 225.657H419.13V238.687H425.31V225.657Z" fill="#FAFAFA"/>
<path d="M441.22 243.828C441.22 243.968 433.05 244.078 422.97 244.078C412.89 244.078 404.72 243.968 404.72 243.828C404.72 243.688 412.89 243.588 422.97 243.588C433.05 243.588 441.22 243.668 441.22 243.828Z" fill="#E0E0E0"/>
<path d="M425.31 251.918H419.13V264.948H425.31V251.918Z" fill="#FAFAFA"/>
<path d="M441.22 270.068C441.22 270.198 433.05 270.308 422.97 270.308C412.89 270.308 404.72 270.198 404.72 270.068C404.72 269.938 412.89 269.828 423 269.828C433.11 269.828 441.22 269.928 441.22 270.068Z" fill="#E0E0E0"/>
<path d="M425.31 278.188H419.13V291.218H425.31V278.188Z" fill="#FAFAFA"/>
<path d="M441.22 296.328C441.22 296.458 433.05 296.578 422.97 296.578C412.89 296.578 404.72 296.458 404.72 296.328C404.72 296.198 412.89 296.078 422.97 296.078C433.05 296.078 441.22 296.188 441.22 296.328Z" fill="#E0E0E0"/>
<path d="M425.31 304.447H419.13V317.477H425.31V304.447Z" fill="#FAFAFA"/>
<path d="M369.66 139.228H282.2V368.148H369.66V139.228Z" fill="#EBEBEB"/>
<path d="M369.65 139.228H325.92V368.148H369.65V139.228Z" fill="#E0E0E0"/>
<path d="M323.06 112.018H292.18V139.228H323.06V112.018Z" fill="#EBEBEB"/>
<path d="M323.06 112.018H315.7V139.228H323.06V112.018Z" fill="#E0E0E0"/>
<path d="M372.22 137.638H274.91V139.228H372.22V137.638Z" fill="#E0E0E0"/>
<path d="M306.86 151.098H299.46V166.708H306.86V151.098Z" fill="white"/>
<path d="M325.92 172.827C325.92 172.997 316.13 173.127 304.06 173.127C291.99 173.127 282.2 172.997 282.2 172.827C282.2 172.657 291.98 172.527 304.06 172.527C316.14 172.527 325.92 172.667 325.92 172.827Z" fill="#E0E0E0"/>
<path d="M350.97 151.098H343.57V166.708H350.97V151.098Z" fill="#F5F5F5"/>
<path d="M370 172.827C370 172.997 360.21 173.127 348.14 173.127C336.07 173.127 326.27 172.997 326.27 172.827C326.27 172.657 336.06 172.527 348.14 172.527C360.22 172.527 370 172.667 370 172.827Z" fill="#EBEBEB"/>
<path d="M350.97 182.088H343.57V197.698H350.97V182.088Z" fill="#F5F5F5"/>
<path d="M370 203.828C370 203.998 360.21 204.128 348.14 204.128C336.07 204.128 326.27 203.998 326.27 203.828C326.27 203.658 336.06 203.538 348.14 203.538C360.22 203.538 370 203.658 370 203.828Z" fill="#EBEBEB"/>
<path d="M350.97 214.008H343.57V229.618H350.97V214.008Z" fill="#F5F5F5"/>
<path d="M370 235.747C370 235.907 360.21 236.047 348.14 236.047C336.07 236.047 326.27 235.907 326.27 235.747C326.27 235.587 336.06 235.447 348.14 235.447C360.22 235.447 370 235.587 370 235.747Z" fill="#EBEBEB"/>
<path d="M350.97 245.938H343.57V261.548H350.97V245.938Z" fill="#F5F5F5"/>
<path d="M370 267.678C370 267.838 360.21 267.968 348.14 267.968C336.07 267.968 326.27 267.838 326.27 267.678C326.27 267.518 336.06 267.378 348.14 267.378C360.22 267.378 370 267.508 370 267.678Z" fill="#EBEBEB"/>
<path d="M350.97 276.947H343.57V292.557H350.97V276.947Z" fill="#F5F5F5"/>
<path d="M370 298.688C370 298.848 360.21 298.988 348.14 298.988C336.07 298.988 326.27 298.848 326.27 298.688C326.27 298.528 336.06 298.388 348.14 298.388C360.22 298.388 370 298.518 370 298.688Z" fill="#EBEBEB"/>
<path d="M350.97 308.088H343.57V323.698H350.97V308.088Z" fill="#F5F5F5"/>
<path d="M350.97 339.638H343.57V355.248H350.97V339.638Z" fill="#F5F5F5"/>
<path d="M370 329.827C370 329.987 360.21 330.127 348.14 330.127C336.07 330.127 326.27 329.987 326.27 329.827C326.27 329.667 336.06 329.527 348.14 329.527C360.22 329.527 370 329.657 370 329.827Z" fill="#EBEBEB"/>
<path d="M306.86 182.558H299.46V198.168H306.86V182.558Z" fill="white"/>
<path d="M325.92 204.298C325.92 204.458 316.13 204.588 304.06 204.588C291.99 204.588 282.2 204.458 282.2 204.298C282.2 204.138 291.98 203.998 304.06 203.998C316.14 203.998 325.92 204.128 325.92 204.298Z" fill="#E0E0E0"/>
<path d="M306.86 214.018H299.46V229.628H306.86V214.018Z" fill="white"/>
<path d="M325.92 235.758C325.92 235.928 316.13 236.058 304.06 236.058C291.99 236.058 282.2 235.928 282.2 235.758C282.2 235.588 291.98 235.458 304.06 235.458C316.14 235.458 325.92 235.598 325.92 235.758Z" fill="#E0E0E0"/>
<path d="M306.86 245.487H299.46V261.097H306.86V245.487Z" fill="white"/>
<path d="M325.92 267.218C325.92 267.388 316.13 267.518 304.06 267.518C291.99 267.518 282.2 267.388 282.2 267.218C282.2 267.048 291.98 266.928 304.06 266.928C316.14 266.928 325.92 267.058 325.92 267.218Z" fill="#E0E0E0"/>
<path d="M306.86 276.947H299.46V292.557H306.86V276.947Z" fill="white"/>
<path d="M325.92 298.688C325.92 298.848 316.13 298.988 304.06 298.988C291.99 298.988 282.2 298.848 282.2 298.688C282.2 298.528 291.98 298.388 304.06 298.388C316.14 298.388 325.92 298.518 325.92 298.688Z" fill="#E0E0E0"/>
<path d="M306.86 308.418H299.46V324.028H306.86V308.418Z" fill="white"/>
<path d="M325.92 330.148C325.92 330.318 316.13 330.448 304.06 330.448C291.99 330.448 282.2 330.318 282.2 330.148C282.2 329.978 292 329.828 304.06 329.828C316.12 329.828 325.92 329.988 325.92 330.148Z" fill="#E0E0E0"/>
<path d="M306.86 339.878H299.46V355.488H306.86V339.878Z" fill="white"/>
<path d="M291.21 197.598H201.35V368.148H291.21V197.598Z" fill="#E0E0E0"/>
<path d="M291.21 197.598H249.08V368.148H291.21V197.598Z" fill="#EBEBEB"/>
<path d="M228.27 213.647H220.19V233.277H228.27V213.647Z" fill="#F5F5F5"/>
<path d="M228.27 290.478H220.19V310.108H228.27V290.478Z" fill="#F5F5F5"/>
<path d="M249.08 240.978C249.08 241.148 238.39 241.288 225.21 241.288C212.03 241.288 201.35 241.148 201.35 240.978C201.35 240.808 212.03 240.678 225.21 240.678C238.39 240.678 249.08 240.828 249.08 240.978Z" fill="#F5F5F5"/>
<path d="M228.27 252.348H220.19V271.978H228.27V252.348Z" fill="#F5F5F5"/>
<path d="M249.08 279.688C249.08 279.858 238.39 279.988 225.21 279.988C212.03 279.988 201.35 279.858 201.35 279.688C201.35 279.518 212.03 279.378 225.21 279.378C238.39 279.378 249.08 279.518 249.08 279.688Z" fill="#F5F5F5"/>
<path d="M266.1 213.647H258.02V233.277H266.1V213.647Z" fill="#E0E0E0"/>
<path d="M283.63 213.647H275.55V233.277H283.63V213.647Z" fill="#E0E0E0"/>
<path d="M266.1 250.897H258.02V270.527H266.1V250.897Z" fill="#E0E0E0"/>
<path d="M283.63 250.897H275.55V270.527H283.63V250.897Z" fill="#E0E0E0"/>
<path d="M266.1 288.138H258.02V307.768H266.1V288.138Z" fill="#E0E0E0"/>
<path d="M283.63 288.138H275.55V307.768H283.63V288.138Z" fill="#E0E0E0"/>
<path d="M297.96 193.468H194.59V197.738H297.96V193.468Z" fill="#E0E0E0"/>
<path d="M291.84 198.148C291.84 198.318 271.75 198.458 246.98 198.458C222.21 198.458 202.12 198.318 202.12 198.148C202.12 197.978 222.2 197.828 247 197.828C271.8 197.828 291.84 197.978 291.84 198.148Z" fill="#EBEBEB"/>
<path d="M107.49 159.688H41.72V368.137H107.49V159.688Z" fill="#F5F5F5"/>
<path d="M107.5 159.688H74.6101V367.567H107.5V159.688Z" fill="#EBEBEB"/>
<path d="M72.46 139.228H49.23V159.688H72.46V139.228Z" fill="#F5F5F5"/>
<path d="M72.4599 139.228H66.9199V159.688H72.4599V139.228Z" fill="#EBEBEB"/>
<path d="M36.2402 159.688V158.498H109.42V159.688" fill="#E0E0E0"/>
<path d="M60.28 168.618H54.71V180.358H60.28V168.618Z" fill="#FAFAFA"/>
<path d="M74.6102 184.957C74.6102 185.087 67.2502 185.187 58.1702 185.187C49.0902 185.187 41.7202 185.087 41.7202 184.957C41.7202 184.827 49.0802 184.737 58.1702 184.737C67.2602 184.737 74.6102 184.827 74.6102 184.957Z" fill="#E0E0E0"/>
<path d="M93.4499 168.618H87.8799V180.358H93.4499V168.618Z" fill="#E0E0E0"/>
<path d="M107.78 184.957C107.78 185.087 100.42 185.187 91.3399 185.187C82.2599 185.187 74.8999 185.087 74.8999 184.957C74.8999 184.827 82.2599 184.737 91.3399 184.737C100.42 184.737 107.78 184.827 107.78 184.957Z" fill="#E0E0E0"/>
<path d="M93.4499 191.928H87.8799V203.668H93.4499V191.928Z" fill="#E0E0E0"/>
<path d="M107.78 208.268C107.78 208.398 100.42 208.498 91.3399 208.498C82.2599 208.498 74.8999 208.398 74.8999 208.268C74.8999 208.138 82.2599 208.048 91.3399 208.048C100.42 208.048 107.78 208.148 107.78 208.268Z" fill="#E0E0E0"/>
<path d="M93.4499 215.938H87.8799V227.678H93.4499V215.938Z" fill="#E0E0E0"/>
<path d="M107.78 232.278C107.78 232.408 100.42 232.508 91.3399 232.508C82.2599 232.508 74.8999 232.408 74.8999 232.278C74.8999 232.148 82.2599 232.058 91.3399 232.058C100.42 232.058 107.78 232.158 107.78 232.278Z" fill="#E0E0E0"/>
<path d="M93.4499 239.947H87.8799V251.687H93.4499V239.947Z" fill="#E0E0E0"/>
<path d="M107.78 256.287C107.78 256.417 100.42 256.517 91.3399 256.517C82.2599 256.517 74.8999 256.417 74.8999 256.287C74.8999 256.157 82.2599 256.067 91.3399 256.067C100.42 256.067 107.78 256.167 107.78 256.287Z" fill="#E0E0E0"/>
<path d="M93.4499 263.268H87.8799V275.008H93.4499V263.268Z" fill="#E0E0E0"/>
<path d="M107.78 279.618C107.78 279.738 100.42 279.838 91.3399 279.838C82.2599 279.838 74.8999 279.738 74.8999 279.618C74.8999 279.498 82.2599 279.388 91.3399 279.388C100.42 279.388 107.78 279.488 107.78 279.618Z" fill="#E0E0E0"/>
<path d="M93.4499 286.688H87.8799V298.428H93.4499V286.688Z" fill="#E0E0E0"/>
<path d="M93.4499 310.407H87.8799V322.147H93.4499V310.407Z" fill="#E0E0E0"/>
<path d="M107.78 303.038C107.78 303.158 100.42 303.258 91.3399 303.258C82.2599 303.258 74.8999 303.158 74.8999 303.038C74.8999 302.918 82.2599 302.808 91.3399 302.808C100.42 302.808 107.78 302.908 107.78 303.038Z" fill="#E0E0E0"/>
<path d="M60.28 192.277H54.71V204.017H60.28V192.277Z" fill="#FAFAFA"/>
<path d="M74.6102 208.627C74.6102 208.747 67.2502 208.847 58.1702 208.847C49.0902 208.847 41.7202 208.747 41.7202 208.627C41.7202 208.507 49.0802 208.397 58.1702 208.397C67.2602 208.397 74.6102 208.497 74.6102 208.627Z" fill="#E0E0E0"/>
<path d="M60.28 215.938H54.71V227.678H60.28V215.938Z" fill="#FAFAFA"/>
<path d="M74.6102 232.287C74.6102 232.417 67.2502 232.517 58.1702 232.517C49.0902 232.517 41.7202 232.417 41.7202 232.287C41.7202 232.157 49.0802 232.067 58.1702 232.067C67.2602 232.067 74.6102 232.167 74.6102 232.287Z" fill="#E0E0E0"/>
<path d="M60.28 239.607H54.71V251.347H60.28V239.607Z" fill="#FAFAFA"/>
<path d="M74.61 255.948C74.61 256.078 67.25 256.178 58.17 256.178C49.09 256.178 41.72 256.078 41.72 255.948C41.72 255.818 49.08 255.728 58.17 255.728C67.26 255.728 74.61 255.828 74.61 255.948Z" fill="#E0E0E0"/>
<path d="M60.28 263.268H54.71V275.008H60.28V263.268Z" fill="#FAFAFA"/>
<path d="M74.61 279.618C74.61 279.738 67.25 279.838 58.17 279.838C49.09 279.838 41.72 279.738 41.72 279.618C41.72 279.498 49.08 279.388 58.17 279.388C67.26 279.388 74.61 279.488 74.61 279.618Z" fill="#E0E0E0"/>
<path d="M60.28 286.928H54.71V298.668H60.28V286.928Z" fill="#FAFAFA"/>
<path d="M74.61 303.278C74.61 303.408 67.25 303.508 58.17 303.508C49.09 303.508 41.72 303.408 41.72 303.278C41.72 303.148 49.08 303.058 58.17 303.058C67.26 303.058 74.61 303.158 74.61 303.278Z" fill="#E0E0E0"/>
<path d="M60.28 310.598H54.71V322.338H60.28V310.598Z" fill="#FAFAFA"/>
<path d="M215.11 70.0774C215.7 65.8174 209.69 62.3074 205.17 61.9474C203.02 61.7674 200.78 62.0974 198.74 61.3874C194.32 59.8474 192.55 54.1374 188.24 52.3174C185.01 50.9574 181.3 52.1674 178.17 53.7374C175.04 55.3074 171.96 57.2974 168.46 57.5174C165.46 57.7174 162.13 56.5874 159.46 58.0674C157.46 59.1774 156.46 61.4574 154.61 62.8074C152.76 64.1574 150.5 64.4074 148.28 64.5274C146.06 64.6474 143.77 64.6674 141.75 65.5874C139.73 66.5074 138.06 68.6474 138.48 70.8274L215.11 70.0774Z" fill="#F5F5F5"/>
<path d="M389.29 42.5977C389.88 38.3377 383.87 34.8377 379.35 34.4777C377.2 34.2977 374.96 34.6277 372.92 33.9177C368.5 32.3777 366.73 26.6677 362.42 24.8477C359.19 23.4877 355.48 24.6977 352.35 26.2677C349.22 27.8377 346.14 29.8277 342.64 30.0477C339.64 30.2477 336.31 29.1177 333.64 30.5977C331.64 31.7077 330.64 33.9877 328.79 35.3377C326.94 36.6877 324.68 36.9277 322.46 37.0477C320.24 37.1677 317.95 37.1977 315.93 38.1177C313.91 39.0377 312.25 41.1777 312.66 43.3577L389.29 42.5977Z" fill="#F5F5F5"/>
<path d="M458.61 91.3581C458.96 88.8281 455.37 86.7381 452.68 86.5181C451.395 86.5704 450.108 86.4595 448.85 86.1881C446.21 85.2681 445.16 81.8581 442.59 80.7781C440.66 79.9681 438.45 80.6881 436.59 81.6281C434.73 82.5681 432.89 83.7481 430.81 83.8781C429 83.9981 427.03 83.3281 425.44 84.2081C424.26 84.8681 423.64 86.2081 422.56 87.0281C421.421 87.7137 420.11 88.0606 418.78 88.0281C417.456 87.9929 416.136 88.2066 414.89 88.6581C414.262 88.8997 413.73 89.3405 413.376 89.913C413.022 90.4855 412.866 91.1581 412.93 91.8281L458.61 91.3581Z" fill="#EBEBEB"/>
<path d="M96.8705 68.6648C100.021 61.1946 96.52 52.5845 89.0498 49.4336C81.5796 46.2826 72.9695 49.7841 69.8185 57.2543C66.6676 64.7245 70.1691 73.3346 77.6393 76.4855C85.1095 79.6365 93.7196 76.135 96.8705 68.6648Z" fill="#EBEBEB"/>
<path d="M83.3401 77.6575C79.7191 77.648 76.2306 76.2942 73.5512 73.8586C70.8717 71.423 69.1922 68.0791 68.8383 64.4755C68.4844 60.8718 69.4813 57.2651 71.6358 54.3548C73.7902 51.4444 76.9487 49.4379 80.4986 48.7242C84.0486 48.0104 87.7371 48.6404 90.849 50.492C93.9608 52.3435 96.2741 55.2847 97.3405 58.7451C98.4068 62.2055 98.1501 65.9387 96.6202 69.2206C95.0902 72.5025 92.396 75.0993 89.0601 76.5075C87.2507 77.2734 85.3048 77.6646 83.3401 77.6575Z" fill="#EBEBEB"/>
<path d="M81.2501 95.8276C81.0958 93.8115 81.0457 91.7888 81.1001 89.7676C81.0476 87.7663 81.0977 85.7637 81.2501 83.7676C81.4025 85.7637 81.4525 87.7663 81.4001 89.7676C81.4544 91.7888 81.4043 93.8115 81.2501 95.8276Z" fill="#EBEBEB"/>
<path d="M81.2501 95.8275C81.2501 95.8275 81.1701 95.8275 81.1201 94.0375C81.1201 92.8975 81.1201 91.3775 81.1201 89.7575C81.1201 88.1375 81.1201 86.6175 81.1201 85.4775C81.1201 83.6875 81.2201 83.6875 81.2501 83.6875C81.2801 83.6875 81.3301 83.6875 81.3701 85.4775C81.3701 86.6175 81.3701 88.1375 81.3701 89.7575C81.3701 91.3775 81.3701 92.8975 81.3701 94.0375C81.3301 95.8275 81.2801 95.8275 81.2501 95.8275ZM81.2501 83.7275C81.1801 83.9575 81.1101 86.2475 81.1101 89.7275C81.1101 93.2075 81.1801 95.5375 81.2501 95.7275C81.3201 95.5075 81.3901 93.2075 81.3901 89.7275C81.3901 86.2475 81.3201 83.9375 81.2501 83.7075V83.7275Z" fill="#EBEBEB"/>
<path d="M72.79 80.2681C72.86 80.2681 71.48 82.8381 69.71 85.9181C67.94 88.9981 66.43 91.4581 66.35 91.4181C66.27 91.3781 67.66 88.8381 69.44 85.7681C71.22 82.6981 72.72 80.2281 72.79 80.2681Z" fill="#EBEBEB"/>
<path d="M66.3601 91.428C66.3601 91.428 66.2901 91.428 67.2001 89.718C67.7801 88.658 68.5701 87.248 69.4301 85.718C70.2901 84.188 71.1201 82.838 71.7501 81.798C72.0337 81.227 72.3864 80.693 72.8001 80.208C72.8001 80.208 72.8701 80.208 71.9501 81.918C71.3701 82.978 70.5801 84.388 69.7201 85.918C68.1901 88.558 66.5001 91.378 66.3601 91.418V91.428ZM72.7701 80.298C72.6001 80.468 71.3101 82.548 69.4501 85.768C67.5901 88.988 66.4501 91.148 66.3701 91.388C66.5501 91.218 67.8301 89.138 69.6901 85.908C71.5501 82.678 72.7101 80.538 72.7701 80.298Z" fill="#EBEBEB"/>
<path d="M64.1101 74.8281C63.0356 75.9043 61.8897 76.9065 60.6801 77.8281C59.5334 78.7997 58.3241 79.695 57.0601 80.5081C58.1301 79.4518 59.2765 78.4758 60.4901 77.5881C61.6318 76.5859 62.8413 75.6637 64.1101 74.8281Z" fill="#EBEBEB"/>
<path d="M57.06 80.4881C57.06 80.4881 57.06 80.4281 58.06 79.5581C58.71 79.0081 59.58 78.2881 60.53 77.5581C61.6633 76.5763 62.8556 75.6646 64.1 74.8281C63.0278 75.8991 61.8889 76.9011 60.69 77.8281C59.75 78.5781 58.85 79.2681 58.17 79.8281C57.8312 80.0968 57.4579 80.3188 57.06 80.4881ZM64.06 74.8781C62.8084 75.7 61.6063 76.5949 60.46 77.5581C59.2686 78.4589 58.1269 79.4237 57.04 80.4481C58.2993 79.6452 59.5113 78.7704 60.67 77.8281C61.8635 76.9085 63.0052 75.9237 64.09 74.8781H64.06Z" fill="#EBEBEB"/>
<path d="M95.9002 89.828C95.7212 89.3455 95.5905 88.8464 95.5102 88.338C95.3002 87.418 95.0002 86.138 94.6202 84.748C94.2402 83.358 93.8702 82.098 93.6202 81.188C93.4394 80.7072 93.2989 80.2121 93.2002 79.708C93.4622 80.1517 93.6703 80.625 93.8202 81.118C94.1602 82.008 94.5702 83.258 94.9502 84.668C95.2786 85.8636 95.5457 87.0752 95.7502 88.298C95.8562 88.801 95.9065 89.3141 95.9002 89.828Z" fill="#EBEBEB"/>
<path d="M95.8999 89.8275C95.8499 89.8275 95.7899 89.5975 95.4899 88.3175C95.2999 87.4575 94.9899 86.1475 94.6099 84.7275C94.2299 83.3075 93.8299 82.0075 93.6099 81.1775C93.2299 79.9775 93.1599 79.7075 93.2099 79.6975C93.2599 79.6875 93.2099 79.6975 93.4299 80.0675C93.6499 80.4375 93.6899 80.7075 93.8499 81.1175C94.0799 81.7175 94.5299 82.9875 94.9799 84.6575C95.4299 86.3275 95.6699 87.6575 95.7799 88.2975C95.8772 88.8014 95.9207 89.3143 95.9099 89.8275H95.8999ZM93.1799 79.7275C93.1799 79.8375 93.3699 80.4275 93.5999 81.1675C93.8599 81.9975 94.2499 83.2675 94.5999 84.7175C94.9499 86.1675 95.2899 87.4575 95.4799 88.3175C95.6699 89.1775 95.7999 89.6875 95.8499 89.7875C95.8334 89.2799 95.7732 88.7747 95.6699 88.2775C95.5599 87.6375 95.3199 86.2775 94.8699 84.6475C94.4199 83.0175 93.9699 81.7175 93.7399 81.1075C93.5897 80.6335 93.4024 80.1721 93.1799 79.7275Z" fill="#EBEBEB"/>
<path d="M110.79 79.2581C109.277 78.148 107.828 76.9528 106.45 75.6781C105.001 74.4708 103.619 73.1856 102.31 71.8281C103.819 72.9474 105.268 74.1458 106.65 75.4181C108.094 76.627 109.476 77.9087 110.79 79.2581Z" fill="#EBEBEB"/>
<path d="M110.78 79.2781C109.274 78.1552 107.826 76.957 106.44 75.6881C105.31 74.6881 104.25 73.7581 103.44 73.0281C102.22 71.8981 102.25 71.8681 102.27 71.8381C103.776 72.9611 105.225 74.1593 106.61 75.4281C107.74 76.4281 108.8 77.3581 109.61 78.0881C110.83 79.2081 110.8 79.2481 110.78 79.2681V79.2781ZM102.33 71.8281C102.44 72.0181 104 73.4781 106.46 75.6181C108.92 77.7581 110.57 79.1181 110.77 79.2081C110.66 79.0181 109.1 77.5581 106.64 75.4081C104.18 73.2581 102.53 71.9481 102.33 71.8281Z" fill="#EBEBEB"/>
<path d="M116.49 64.7378C115.894 64.7029 115.302 64.6193 114.72 64.4878C113.63 64.3078 112.13 64.0678 110.46 63.8778C108.79 63.6878 107.27 63.5778 106.17 63.5078C105.573 63.5042 104.978 63.4507 104.39 63.3478C104.983 63.2661 105.583 63.246 106.18 63.2878C107.29 63.2878 108.82 63.3778 110.5 63.5678C112.18 63.7578 113.68 64.0378 114.76 64.2678C115.351 64.3672 115.93 64.5247 116.49 64.7378Z" fill="#EBEBEB"/>
<path d="M116.44 64.7677C116.31 64.7677 115.95 64.7077 115.07 64.5577L114.72 64.4977C113.23 64.2477 111.8 64.0477 110.46 63.8977C109.12 63.7477 107.68 63.6177 106.17 63.5177H105.82C104.61 63.4377 104.37 63.4177 104.37 63.3677C104.967 63.2889 105.569 63.2654 106.17 63.2977C106.93 63.2977 108.51 63.3577 110.49 63.5877C112.47 63.8177 114.01 64.1277 114.76 64.2877C115.351 64.3872 115.93 64.5446 116.49 64.7577C116.49 64.7577 116.49 64.7677 116.44 64.7677ZM104.44 63.3577C104.54 63.3577 105.1 63.4177 105.84 63.4677H106.19C107.71 63.5677 109.19 63.6877 110.48 63.8477C111.77 64.0077 113.26 64.1977 114.74 64.4477L115.09 64.5077C115.8 64.6277 116.33 64.7177 116.47 64.7177C115.916 64.5249 115.347 64.3744 114.77 64.2677C114.03 64.1077 112.48 63.7977 110.5 63.5677C109.069 63.3989 107.631 63.3021 106.19 63.2777C105.599 63.2562 105.007 63.2829 104.42 63.3577H104.44Z" fill="#EBEBEB"/>
<path d="M116.51 50.4573C116.51 50.5473 113.35 51.3873 109.41 52.3473C105.47 53.3073 102.26 54.0173 102.24 53.9373C102.22 53.8573 105.4 53.0073 109.34 52.0473C113.28 51.0873 116.49 50.3773 116.51 50.4573Z" fill="#EBEBEB"/>
<path d="M102.27 53.958C102.27 53.958 102.27 53.888 104.35 53.328C105.69 52.968 107.48 52.518 109.35 52.058C111.22 51.598 113.06 51.168 114.41 50.868C116.53 50.398 116.54 50.448 116.55 50.478C116.55 50.478 116.55 50.558 114.47 51.108C113.13 51.468 111.34 51.918 109.47 52.388C107.6 52.858 105.76 53.268 104.41 53.568C103.705 53.7388 102.99 53.869 102.27 53.958ZM116.48 50.468C116.19 50.468 113.48 51.058 109.34 52.068C105.2 53.078 102.53 53.798 102.27 53.928C102.56 53.928 105.27 53.338 109.41 52.338C113.55 51.338 116.22 50.598 116.48 50.468Z" fill="#EBEBEB"/>
<path d="M99.92 33.8281C99.99 33.8281 98.47 36.2981 96.52 39.2381C95.3918 41.048 94.1737 42.8002 92.87 44.4881C92.8 44.4881 94.32 42.0181 96.27 39.0681C98.22 36.1181 99.85 33.8281 99.92 33.8281Z" fill="#EBEBEB"/>
<path d="M92.8701 44.5081C92.8701 44.3681 94.6001 41.6081 96.2701 39.0781C97.2701 37.6581 98.1101 36.3281 98.8001 35.3381C99.8501 33.8281 99.9001 33.8281 99.9301 33.8281C99.9301 33.8281 100 33.8281 99.0001 35.4581C98.3601 36.4581 97.4901 37.8281 96.5501 39.2481C95.6101 40.6681 94.7001 42.0081 94.0001 42.9981C93.0001 44.3781 92.9101 44.5081 92.8701 44.5081ZM99.9001 33.8281C99.7201 33.9881 98.3201 35.9681 96.2801 39.0581C94.2401 42.1481 93.0001 44.2281 92.8901 44.4681C93.0701 44.2981 94.4701 42.3181 96.5101 39.2281C98.5501 36.1381 99.8301 34.0881 99.9001 33.8281Z" fill="#EBEBEB"/>
<path d="M83.4601 30.3477C83.4991 31.0138 83.4991 31.6816 83.4601 32.3477C83.4601 33.5877 83.4601 35.3477 83.4601 37.1977C83.4601 39.0477 83.4601 40.8077 83.4601 42.0577C83.5056 42.7235 83.5056 43.3918 83.4601 44.0577C83.3399 43.3974 83.273 42.7286 83.2601 42.0577C83.1801 40.8077 83.1201 39.0577 83.1201 37.1877C83.1201 35.3177 83.1701 33.5677 83.2501 32.3277C83.2561 31.6624 83.3265 30.9993 83.4601 30.3477Z" fill="#EBEBEB"/>
<path d="M83.4701 44.1081C83.4701 44.1081 83.4701 44.1081 83.3701 43.5581C83.3701 43.1881 83.2901 42.6781 83.2501 42.0881C83.2501 41.2481 83.1201 39.5081 83.1101 37.2181C83.1001 34.9281 83.1901 33.2181 83.2401 32.3581C83.2401 31.7681 83.3201 31.2581 83.3501 30.8881C83.4101 30.3581 83.4301 30.3281 83.4501 30.3281C83.5359 30.992 83.5359 31.6642 83.4501 32.3281C83.4501 33.4981 83.4501 35.2681 83.4501 37.1781C83.4501 39.0881 83.4501 40.7281 83.4501 41.9581V42.0381C83.4501 43.8781 83.4501 44.0381 83.4501 44.0381L83.4701 44.1081ZM83.4701 30.3781C83.373 31.0409 83.3129 31.7086 83.2901 32.3781C83.2901 33.2181 83.1601 34.9681 83.1601 37.2381C83.1601 39.5081 83.2501 41.2381 83.3001 42.1081C83.3291 42.7776 83.3925 43.4452 83.4901 44.1081C83.4901 43.9381 83.4901 42.8581 83.4901 42.1081V42.0281C83.4901 40.7981 83.4901 39.1081 83.4901 37.2481C83.4901 35.3881 83.4901 33.5681 83.4901 32.3881C83.4701 31.6281 83.4901 30.5481 83.4501 30.3781H83.4701Z" fill="#EBEBEB"/>
<path d="M70.9999 45.8778C70.9199 45.8778 69.3799 43.5178 67.5399 40.5178C65.6999 37.5178 64.2799 35.0478 64.3499 34.9978C64.4199 34.9478 65.9999 37.3578 67.7999 40.3578C69.5999 43.3578 71.0599 45.8278 70.9999 45.8778Z" fill="#EBEBEB"/>
<path d="M71.0001 45.8881C71.0001 45.8881 70.8301 45.768 69.9201 44.348C69.2701 43.348 68.4201 41.978 67.5301 40.528C65.9601 37.958 64.3001 35.138 64.3401 34.998C64.3401 34.998 64.4101 34.998 65.4301 36.538C66.0801 37.538 66.9301 38.908 67.8201 40.358C68.7101 41.808 69.5301 43.1881 70.1301 44.2281C71.0701 45.8581 71.0301 45.888 71.0101 45.898L71.0001 45.8881ZM64.3601 35.028C64.4201 35.268 65.6201 37.368 67.5501 40.508C69.4801 43.648 70.7901 45.688 71.0001 45.828C70.9401 45.598 69.7401 43.498 67.8101 40.348C65.8801 37.198 64.5401 35.198 64.3601 35.028Z" fill="#EBEBEB"/>
<path d="M63.54 52.208C63.0193 52.1786 62.5032 52.0948 62 51.958C61 51.758 59.73 51.438 58.31 51.018C56.89 50.598 55.6 50.158 54.69 49.808C54.1871 49.6503 53.704 49.4356 53.25 49.168C53.7657 49.2634 54.2713 49.4074 54.76 49.598C55.69 49.898 56.97 50.298 58.39 50.718C59.81 51.138 61.11 51.488 62.05 51.718C62.5605 51.8357 63.0592 51.9997 63.54 52.208Z" fill="#EBEBEB"/>
<path d="M63.4898 52.2274H63.1098L61.9998 51.9774C61.3598 51.8374 59.9998 51.5374 58.3098 51.0274C56.6198 50.5174 55.3098 50.0274 54.6998 49.8174L53.6298 49.3774C53.2298 49.2074 53.2398 49.1774 53.2398 49.1574C53.2398 49.1374 53.4598 49.1574 54.7798 49.5774C55.5198 49.8174 56.9098 50.2574 58.4098 50.7074C59.9098 51.1574 61.0098 51.4474 62.0598 51.7074C63.3998 52.0674 63.5898 52.1374 63.5798 52.1874C63.5798 52.1874 63.5498 52.2274 63.4898 52.2274ZM53.2498 49.2274C53.7116 49.4639 54.1894 49.6677 54.6798 49.8374C55.2898 50.0774 56.5798 50.5474 58.2898 51.0474C59.9998 51.5474 61.3398 51.8574 61.9798 51.9974C62.4769 52.1149 62.9814 52.1984 63.4898 52.2474C63.3898 52.1874 62.6198 51.9774 62.0098 51.8074C60.9498 51.5274 59.7198 51.1874 58.3498 50.8074C56.9798 50.4274 55.4598 49.9174 54.7198 49.6774C54.1598 49.4274 53.3798 49.1774 53.2498 49.1774V49.2274Z" fill="#EBEBEB"/>
<path d="M60.2799 63.4875C58.734 63.7851 57.1709 63.9855 55.5999 64.0875C54.035 64.2927 52.4581 64.3929 50.8799 64.3875C52.4294 64.0913 53.9957 63.8909 55.5699 63.7875C57.1314 63.5826 58.7049 63.4824 60.2799 63.4875Z" fill="#EBEBEB"/>
<path d="M51.1499 64.4276C51.0607 64.4451 50.969 64.4451 50.8799 64.4276C52.4289 64.1263 53.9953 63.9225 55.5699 63.8176C57.1359 63.6242 58.712 63.5241 60.2899 63.5176C58.7409 63.8189 57.1744 64.0226 55.5999 64.1276C53.7999 64.2776 51.8599 64.4276 51.1499 64.4276ZM50.9099 64.4276C52.4777 64.4086 54.0433 64.3051 55.5999 64.1176C57.163 64.008 58.7188 63.811 60.2599 63.5276C58.6921 63.5468 57.1265 63.6503 55.5699 63.8376C54.0075 63.9339 52.4518 64.1176 50.9099 64.3876V64.4276Z" fill="#EBEBEB"/>
<path d="M249.58 60.1084L236.1 47.5184L233.15 66.2284L216.56 68.4584L227.47 82.9584L210.11 99.0784L232.87 93.3984L236.22 111.578L250.64 97.7584L270.89 110.328L268.11 91.5284L288.72 87.4584L272.29 77.6384L281.76 60.2084L265.24 65.8584L262.73 45.6084L249.58 60.1084Z" fill="white"/>
<path d="M249.58 60.1084L250.44 59.1084L253 56.2884L262.67 45.5284L262.85 45.3184V45.5884C263.55 51.1584 264.41 57.9984 265.4 65.8284L265.18 65.6884L281.69 60.0184L282.18 59.8484L281.93 60.2984L272.48 77.7384L272.39 77.4384L288.83 87.2584L289.37 87.5684L288.76 87.6984L268.16 91.8284L268.36 91.5484C269.24 97.5484 270.18 103.868 271.14 110.348L271.22 110.898L270.75 110.598L251.53 98.6184L250.53 97.9784H250.85L236.4 111.758L236.05 112.088L235.97 111.618L232.62 93.4484L232.93 93.6484L210.17 99.3084L209.27 99.5384L209.95 98.9084L227.32 82.8284V83.1184L216.41 68.5684L216.21 68.3084H216.54L233.13 66.1184L232.99 66.2484L235.99 47.5484V47.3284L236.15 47.4884L246.15 56.8784L248.72 59.3184L249.59 60.1584C249.59 60.1584 249.29 59.9084 248.72 59.3784C248.15 58.8484 247.26 58.0484 246.13 56.9984L236 47.6084L236.2 47.5384C235.4 52.6584 234.44 58.8584 233.29 66.2584V66.3784H233.16L216.58 68.6284L216.71 68.3184C220.11 72.825 223.753 77.655 227.64 82.8084L227.76 82.9584L227.61 83.0984L210.28 99.2584L210.06 98.8484L232.8 93.1584L233.06 93.0884L233.11 93.3584C234.21 99.2784 235.33 105.335 236.47 111.528L236.04 111.388L250.46 97.5684L250.61 97.4284L250.78 97.5384L251.78 98.1784L271 110.118L270.61 110.368C269.66 103.898 268.72 97.5484 267.84 91.5684V91.3284H268.08L288.69 87.2684L288.62 87.7084L272.18 77.8284L271.99 77.7184L272.09 77.5284L281.59 60.1084L281.83 60.3984L265.3 66.0184L265.1 66.0884V65.8784C264.15 58.0384 263.32 51.1884 262.64 45.6284L262.86 45.6884L253 56.4184L250.45 59.1884L249.58 60.1084Z" fill="#263238"/>
<path d="M252.34 70.198L251.57 81.278C251.541 81.7176 251.353 82.1313 251.039 82.4409C250.726 82.7505 250.31 82.9345 249.87 82.958C249.412 82.9784 248.963 82.8231 248.616 82.5239C248.268 82.2247 248.048 81.8041 248 81.348L246.83 70.188C246.81 69.9893 246.833 69.7886 246.896 69.5991C246.959 69.4097 247.062 69.2356 247.196 69.0884C247.331 68.9412 247.496 68.8241 247.679 68.7447C247.863 68.6654 248.06 68.6256 248.26 68.628L250.97 68.688C251.161 68.6929 251.348 68.7364 251.521 68.8159C251.695 68.8953 251.85 69.009 251.978 69.1501C252.106 69.2913 252.204 69.4569 252.266 69.637C252.329 69.8171 252.354 70.008 252.34 70.198Z" fill="#C6EB5F"/>
<path d="M247 88.128C247.165 88.6383 247.477 89.0882 247.898 89.4208C248.319 89.7534 248.828 89.9537 249.363 89.9964C249.897 90.039 250.433 89.9222 250.901 89.6606C251.369 89.399 251.749 89.0043 251.993 88.5267C252.236 88.049 252.333 87.5098 252.27 86.9773C252.207 86.4447 251.988 85.9428 251.639 85.535C251.291 85.1273 250.83 84.832 250.314 84.6865C249.797 84.5411 249.25 84.5521 248.74 84.718C248.057 84.9402 247.491 85.4239 247.165 86.0632C246.839 86.7025 246.779 87.4451 247 88.128Z" fill="#C6EB5F"/>
<path d="M259.21 160.827L283.21 184.827L304 157.447L316 174.447C316 174.447 295.08 207.577 290.64 210.537C286.2 213.497 281.01 216.277 273.8 210.537C266.59 204.797 248.91 169.997 248.91 169.997L255.91 159.267L259.21 160.827Z" fill="#FFBF9D"/>
<path d="M263.64 153.547C263.389 152.448 263.389 151.307 263.64 150.207C263.746 149.244 263.486 148.277 262.91 147.497C262.46 146.857 262.73 146.047 262.46 144.337C262.19 142.627 259.84 141.987 259.84 141.987C259.84 141.987 259.48 141.167 258.94 139.907C258.4 138.647 255.23 137.377 252.8 136.747C250.37 136.117 249.45 137.557 249.45 137.557L249.54 138.097L250.72 139.637L245.84 141.527L242.59 159.327L240.96 162.827L253.32 168.377L256.1 163.827C256.1 163.827 262.6 157.587 263.1 156.497C263.385 156.068 263.58 155.585 263.673 155.078C263.766 154.571 263.755 154.05 263.64 153.547Z" fill="#AE7461"/>
<path d="M250.19 138.177C250.19 138.177 248.19 135.937 246.51 136.277C244.83 136.617 241.51 138.407 241.44 140.367C241.37 142.327 243.63 142.267 245.07 141.917L245.81 141.577L247.03 142.397L251.91 140.497L250.19 138.177Z" fill="#FFBF9D"/>
<path d="M241.44 141.498C241.44 141.498 238.13 141.218 236.93 141.988C236.498 142.27 236.132 142.644 235.86 143.083C235.587 143.521 235.414 144.014 235.352 144.527C235.29 145.039 235.341 145.559 235.501 146.05C235.662 146.541 235.927 146.991 236.28 147.368L241.84 146.218H250.01C250.01 146.218 250.34 143.438 250.01 142.948C249.68 142.458 245 141.368 241.44 141.498Z" fill="#FFBF9D"/>
<path d="M235.9 147.468C235.383 147.807 234.967 148.28 234.696 148.836C234.425 149.392 234.309 150.011 234.36 150.628C234.452 151.242 234.702 151.823 235.086 152.312C235.47 152.801 235.975 153.182 236.55 153.418L242.41 150.868L255.41 151.108C255.41 151.108 257.41 148.608 254.85 147.468C252.29 146.328 245.85 146.238 243.13 146.228C240.684 146.393 238.261 146.808 235.9 147.468Z" fill="#FFBF9D"/>
<path d="M236.55 153.418C236.13 153.868 235.854 154.432 235.756 155.039C235.658 155.647 235.743 156.269 236 156.828C236.93 158.638 237.75 158.638 237.75 158.638C237.75 158.638 237.75 160.918 238.45 161.638C239.004 162.2 239.61 162.709 240.26 163.158L244.64 159.718C244.64 159.718 250.82 159.138 251.64 158.288C252.213 157.621 252.666 156.86 252.98 156.038C252.98 156.038 255.22 156.388 256.15 155.398C257.08 154.408 257.15 151.688 254.97 151.158L242.41 150.828L236.55 153.418Z" fill="#FFBF9D"/>
<path d="M207.08 165.028L221.56 180.608L240.92 162.828L256.81 163.158C256.81 163.158 232.31 204.458 226.66 207.768C221.01 211.078 216.73 209.568 210.39 205.708C204.05 201.848 183 175.098 183 175.098L207.08 165.028Z" fill="#AE7461"/>
<path d="M252.8 156.357C253.74 155.687 250.33 155.407 246.72 155.607C244.49 155.859 242.276 156.24 240.09 156.747C240.655 156.389 241.277 156.129 241.93 155.977C243.473 155.495 245.067 155.196 246.68 155.087C248.293 154.971 249.913 155.042 251.51 155.297L252.33 155.447C252.571 155.487 252.786 155.62 252.93 155.817C252.969 155.888 252.99 155.967 252.99 156.047C252.99 156.128 252.969 156.207 252.93 156.277C252.87 156.367 252.81 156.367 252.8 156.357Z" fill="#FF9A6C"/>
<path d="M255.4 151.287C254.639 151.406 253.866 151.427 253.1 151.347L247.59 151.087C245.766 151.002 243.938 151.086 242.13 151.337C241.385 151.503 240.63 151.62 239.87 151.687C240.554 151.328 241.295 151.088 242.06 150.977C243.886 150.612 245.75 150.474 247.61 150.567C249.78 150.637 251.72 150.847 253.12 150.977C253.888 151.005 254.652 151.109 255.4 151.287Z" fill="#FF9A6C"/>
<path d="M250.15 146.368C250.15 146.538 247.15 146.368 243.48 146.558C239.81 146.748 236.87 147.338 236.84 147.178C237.445 146.911 238.084 146.733 238.74 146.648C240.293 146.333 241.867 146.129 243.45 146.038C245.032 145.939 246.618 145.939 248.2 146.038C248.863 146.052 249.52 146.163 250.15 146.368Z" fill="#FF9A6C"/>
<path d="M250 142.828C248.153 142.339 246.265 142.021 244.36 141.878C241.2 141.748 238.6 141.948 238.6 141.768C239.141 141.584 239.708 141.486 240.28 141.478C241.645 141.338 243.019 141.298 244.39 141.358C245.773 141.413 247.142 141.655 248.46 142.078C249.017 142.225 249.54 142.479 250 142.828Z" fill="#FF9A6C"/>
<path d="M254.81 139.368C253.779 139.984 252.677 140.475 251.53 140.828C250.447 141.345 249.31 141.738 248.14 141.998C249.102 141.265 250.185 140.707 251.34 140.348C252.434 139.831 253.607 139.5 254.81 139.368Z" fill="#6F4439"/>
<path d="M284.45 197.828C284.441 195.455 284.294 193.084 284.01 190.728C283.544 188.398 282.943 186.098 282.21 183.838C282.641 184.407 282.979 185.042 283.21 185.718C283.836 187.304 284.289 188.954 284.56 190.638C284.833 192.323 284.917 194.034 284.81 195.738C284.803 196.449 284.681 197.155 284.45 197.828Z" fill="#FF9A6C"/>
<path d="M220.88 192.328C220.73 192.328 221.48 189.558 221.68 186.108C221.88 182.658 221.48 179.858 221.68 179.838C222.685 183.983 222.42 188.335 220.92 192.328H220.88Z" fill="#6F4439"/>
<path d="M322.76 108.828C322.85 103.548 323.92 92.6978 325 82.8778C325.56 77.7894 328.015 73.0983 331.877 69.7373C335.738 66.3763 340.723 64.5915 345.84 64.7378H346.89C358.24 65.7378 363.74 75.9178 362.43 87.2378L361.43 131.878L353.33 144.878L334.28 140.568L335.63 121.728C335.63 121.728 322.58 119.718 322.76 108.828Z" fill="#FFBF9D"/>
<path d="M333.45 121.728C338.491 121.968 343.489 120.705 347.81 118.098C347.81 118.098 344.22 125.858 333.34 124.558L333.45 121.728Z" fill="#FF9A6C"/>
<path d="M327.24 92.7373C327.226 93.1439 327.37 93.54 327.643 93.8422C327.915 94.1444 328.294 94.3291 328.7 94.3573C328.898 94.378 329.098 94.3591 329.288 94.3017C329.479 94.2442 329.656 94.1495 329.81 94.0229C329.963 93.8963 330.09 93.7405 330.183 93.5644C330.275 93.3883 330.332 93.1955 330.35 92.9973C330.364 92.5907 330.219 92.1946 329.947 91.8925C329.675 91.5903 329.296 91.4056 328.89 91.3773C328.692 91.3553 328.491 91.3732 328.3 91.43C328.109 91.4869 327.931 91.5816 327.777 91.7084C327.623 91.8352 327.496 91.9916 327.404 92.1684C327.312 92.3451 327.256 92.5386 327.24 92.7373Z" fill="#263238"/>
<path d="M327 87.6782C327.19 87.8782 328.4 87.0382 330.08 87.0982C331.76 87.1582 332.96 88.0282 333.15 87.8282C333.34 87.6282 333.06 87.3582 332.53 86.9582C331.821 86.4289 330.964 86.1351 330.08 86.1182C329.207 86.0912 328.349 86.3435 327.63 86.8382C327.14 87.2182 327 87.5782 327 87.6782Z" fill="#263238"/>
<path d="M342.21 93.0381C342.193 93.4453 342.337 93.8429 342.61 94.1456C342.883 94.4484 343.263 94.6323 343.67 94.6581C343.868 94.6802 344.069 94.6622 344.26 94.6054C344.451 94.5485 344.629 94.4538 344.782 94.327C344.936 94.2002 345.063 94.0438 345.155 93.867C345.248 93.6903 345.304 93.4968 345.32 93.2981C345.334 92.8915 345.189 92.4954 344.917 92.1932C344.645 91.891 344.266 91.7064 343.86 91.6781C343.662 91.656 343.461 91.674 343.27 91.7308C343.079 91.7877 342.901 91.8824 342.747 92.0092C342.593 92.136 342.466 92.2924 342.374 92.4692C342.282 92.6459 342.226 92.8394 342.21 93.0381Z" fill="#263238"/>
<path d="M343.05 87.6876C343.21 87.9176 344.5 87.2077 346.17 87.4477C347.84 87.6877 348.94 88.6777 349.17 88.4477C349.4 88.2177 349.17 87.9877 348.65 87.5177C347.996 86.9236 347.176 86.5433 346.3 86.4276C345.438 86.3033 344.558 86.4574 343.79 86.8676C343.19 87.2376 343 87.5876 343.05 87.6876Z" fill="#263238"/>
<path d="M337.23 101.318C336.352 101.022 335.442 100.831 334.52 100.748C334.09 100.688 333.69 100.598 333.62 100.298C333.602 99.8545 333.717 99.4158 333.95 99.038C334.38 98.038 334.83 96.938 335.31 95.808C337.21 91.208 338.59 87.428 338.41 87.348C338.23 87.268 336.53 90.948 334.64 95.538C334.18 96.678 333.74 97.758 333.33 98.788C333.045 99.2986 332.949 99.8936 333.06 100.468C333.118 100.62 333.209 100.758 333.326 100.87C333.444 100.983 333.585 101.067 333.74 101.118C333.978 101.187 334.223 101.228 334.47 101.238C335.382 101.386 336.31 101.412 337.23 101.318Z" fill="#263238"/>
<path d="M343.77 80.4381C343.92 80.8981 345.61 80.7281 347.57 81.0281C349.53 81.3281 351.11 81.8981 351.38 81.4981C351.51 81.3081 351.24 80.8681 350.61 80.4081C349.767 79.8435 348.808 79.4773 347.803 79.337C346.798 79.1967 345.775 79.2859 344.81 79.5981C344.08 79.8281 343.71 80.2181 343.77 80.4381Z" fill="#263238"/>
<path d="M327.51 81.1878C327.79 81.5778 328.96 81.1878 330.35 81.1878C331.74 81.1878 332.91 81.5178 333.2 81.1278C333.32 80.9378 333.15 80.5478 332.64 80.1278C331.965 79.6696 331.166 79.4289 330.35 79.4378C329.532 79.4279 328.732 79.6725 328.06 80.1378C327.55 80.6078 327.38 80.9978 327.51 81.1878Z" fill="#263238"/>
<path d="M361.3 95.3075C361.49 95.2275 368.88 93.3075 368.42 100.767C367.96 108.227 360.57 106.237 360.57 106.017C360.57 105.797 361.3 95.3075 361.3 95.3075Z" fill="#FFBF9D"/>
<path d="M363 103.328C363 103.328 363.12 103.428 363.34 103.548C363.493 103.627 363.661 103.674 363.833 103.686C364.005 103.698 364.177 103.675 364.34 103.618C364.838 103.341 365.254 102.937 365.546 102.447C365.838 101.957 365.994 101.398 366 100.828C366.059 100.191 365.974 99.5479 365.75 98.948C365.696 98.709 365.584 98.487 365.424 98.302C365.263 98.117 365.059 97.9748 364.83 97.888C364.683 97.8385 364.523 97.8425 364.379 97.8992C364.234 97.9559 364.114 98.0617 364.04 98.198C363.93 98.398 363.97 98.548 363.93 98.558C363.89 98.568 363.78 98.428 363.86 98.118C363.913 97.9362 364.026 97.7777 364.18 97.668C364.396 97.5293 364.658 97.4792 364.91 97.528C365.214 97.6061 365.492 97.7613 365.718 97.9785C365.944 98.1958 366.11 98.4677 366.2 98.768C366.478 99.431 366.588 100.152 366.52 100.868C366.38 102.378 365.52 103.738 364.43 103.978C364.226 104.026 364.013 104.026 363.809 103.979C363.604 103.933 363.413 103.84 363.25 103.708C363 103.508 363 103.338 363 103.328Z" fill="#FF9A6C"/>
<path d="M324.15 70.0575C324.297 69.3169 324.661 68.6367 325.195 68.1027C325.729 67.5688 326.409 67.2051 327.15 67.0575C327.08 66.8275 328.68 66.0575 329.93 65.1875C331.18 64.3175 331.45 62.1875 332.58 63.2575C332.616 62.7006 332.784 62.1604 333.072 61.6819C333.359 61.2034 333.756 60.8006 334.231 60.507C334.706 60.2134 335.244 60.0376 335.8 59.9942C336.356 59.9508 336.915 60.0411 337.43 60.2575C337.43 58.9375 339.34 58.4975 340.62 58.1575C341.9 57.8175 342.39 57.6375 342.99 58.8075C343.435 58.1892 344.014 57.6788 344.683 57.314C345.352 56.9493 346.095 56.7395 346.856 56.7001C347.617 56.6608 348.378 56.7929 349.081 57.0867C349.784 57.3804 350.413 57.8284 350.92 58.3975C352.446 57.9566 354.081 58.0907 355.514 58.7745C356.948 59.4582 358.082 60.6441 358.7 62.1075C359.92 62.2275 361.077 62.7095 362.021 63.4918C362.966 64.274 363.655 65.3207 364 66.4975C365.57 66.6775 365.94 67.8975 366.57 69.3375C367.2 70.7775 368.07 72.3375 367.14 73.6475C367.578 73.9167 367.949 74.2837 368.222 74.7197C368.496 75.1557 368.664 75.649 368.716 76.1611C368.767 76.6732 368.699 77.1903 368.518 77.6719C368.336 78.1535 368.046 78.5866 367.67 78.9375C368.087 79.1618 368.451 79.472 368.74 79.8475C369.12 80.1095 369.445 80.4445 369.695 80.833C369.945 81.2215 370.115 81.6558 370.196 82.1107C370.277 82.5656 370.267 83.032 370.166 83.483C370.066 83.9339 369.876 84.3603 369.61 84.7375C370.182 85.1941 370.594 85.8204 370.788 86.5263C370.982 87.2321 370.946 87.9812 370.687 88.6659C370.428 89.3505 369.959 89.9353 369.347 90.3363C368.734 90.7373 368.011 90.9338 367.28 90.8975C368.48 92.6475 366.92 94.9975 366.01 95.4975C366.01 95.4975 362.96 94.1975 362.44 96.4975C362.459 96.7325 362.418 96.9687 362.322 97.1837C362.225 97.3987 362.075 97.5855 361.885 97.7265C361.696 97.8675 361.475 97.9581 361.241 97.9898C361.007 98.0215 360.769 97.9932 360.55 97.9075C359.722 97.3804 359.071 96.6177 358.68 95.7175C358.035 94.7997 357.535 93.7878 357.2 92.7175C357.048 92.1846 357.07 91.6173 357.263 91.0977C357.455 90.5782 357.808 90.1333 358.27 89.8275C357.647 89.5439 357.11 89.1019 356.711 88.5456C356.313 87.9894 356.068 87.3383 356 86.6575C355.887 85.314 356.006 83.9612 356.35 82.6575L357.58 76.7675C356.223 76.6764 354.918 76.2166 353.804 75.4376C352.69 74.6586 351.81 73.5901 351.26 72.3475C350.753 72.6765 350.183 72.8944 349.586 72.9867C348.989 73.0791 348.379 73.0437 347.797 72.8831C347.215 72.7224 346.674 72.4401 346.209 72.0547C345.744 71.6693 345.366 71.1897 345.1 70.6475C344.568 71.9494 343.562 73.0014 342.285 73.5915C341.009 74.1815 339.556 74.2659 338.22 73.8275C338.47 75.3775 335.65 76.7375 334.12 77.1075C332.93 77.2263 331.733 76.9562 330.71 76.3375C330.71 76.3375 328.05 77.8075 326.64 77.1975C325.23 76.5875 323.4 74.7375 324.37 73.2875C324.041 72.2435 323.966 71.1364 324.15 70.0575Z" fill="#263238"/>
<path d="M338.38 60.1173C338.632 59.912 338.92 59.756 339.23 59.6573C339.592 59.5548 339.979 59.5868 340.32 59.7473C340.538 59.8499 340.73 60.0003 340.883 60.1872C341.035 60.3741 341.143 60.5929 341.2 60.8273L341.29 61.2473L341.52 60.8773C341.774 60.4916 342.122 60.1765 342.532 59.9614C342.941 59.7464 343.398 59.6383 343.86 59.6473C344.417 59.6761 344.951 59.8802 345.386 60.2303C345.82 60.5805 346.133 61.0589 346.28 61.5973L346.4 62.0873L346.73 61.6973C347.05 61.3176 347.452 61.0152 347.906 60.8127C348.36 60.6101 348.853 60.5125 349.35 60.5273C349.879 60.5485 350.395 60.7025 350.849 60.9751C351.303 61.2477 351.682 61.6302 351.95 62.0873C352.184 62.457 352.334 62.8734 352.39 63.3073V63.6073L352.69 63.5473C353.39 63.4074 354.117 63.5056 354.754 63.8264C355.392 64.1471 355.905 64.6719 356.21 65.3173C356.449 65.8952 356.516 66.5296 356.404 67.1449C356.293 67.7601 356.006 68.3303 355.58 68.7873L355.28 69.0873L355.69 69.1673C356.591 69.361 357.38 69.8993 357.89 70.6673C358.282 71.2589 358.481 71.9577 358.46 72.6673C358.419 73.2883 358.27 73.8974 358.02 74.4673C358.145 74.3507 358.246 74.2116 358.32 74.0573C358.541 73.6275 358.677 73.1588 358.72 72.6773C358.786 71.9041 358.604 71.13 358.2 70.4673C357.932 70.0331 357.581 69.6559 357.168 69.3574C356.754 69.0588 356.286 68.8447 355.79 68.7273L355.9 69.1073C356.459 68.5554 356.824 67.8365 356.938 67.0592C357.053 66.2818 356.912 65.4883 356.536 64.7983C356.16 64.1084 355.569 63.5595 354.854 63.2346C354.138 62.9097 353.337 62.8264 352.57 62.9973L352.91 63.2373C352.787 62.36 352.36 61.5536 351.704 60.958C351.049 60.3625 350.205 60.0155 349.32 59.9773C348.747 59.9688 348.18 60.0893 347.661 60.3299C347.142 60.5706 346.683 60.9252 346.32 61.3673L346.78 61.4673C346.601 60.8278 346.221 60.2625 345.698 59.854C345.174 59.4455 344.534 59.2154 343.87 59.1973C343.335 59.1943 342.81 59.3311 342.345 59.5943C341.88 59.8574 341.492 60.2377 341.22 60.6973L341.54 60.7473C341.469 60.4613 341.332 60.1961 341.139 59.9736C340.946 59.7511 340.703 59.5775 340.43 59.4673C340.027 59.3125 339.582 59.3125 339.18 59.4673C338.931 59.5566 338.706 59.7001 338.52 59.8873C338.4 60.0173 338.37 60.1073 338.38 60.1173Z" fill="#455A64"/>
<path d="M323.07 102.828C323.363 102.642 323.695 102.523 324.039 102.481C324.384 102.438 324.734 102.473 325.064 102.582C325.394 102.691 325.696 102.872 325.948 103.111C326.199 103.351 326.395 103.643 326.52 103.968C326.84 103.525 327.279 103.181 327.786 102.975C328.293 102.769 328.847 102.709 329.386 102.803C329.925 102.897 330.426 103.14 330.834 103.505C331.241 103.87 331.538 104.342 331.69 104.868C331.844 104.492 332.091 104.162 332.407 103.908C332.724 103.654 333.101 103.485 333.501 103.417C333.901 103.349 334.312 103.384 334.695 103.519C335.078 103.654 335.42 103.884 335.69 104.188C335.899 103.863 336.203 103.61 336.561 103.465C336.919 103.32 337.314 103.289 337.69 103.378C337.65 103.014 337.72 102.646 337.889 102.322C338.058 101.997 338.32 101.73 338.642 101.555C338.963 101.379 339.329 101.303 339.693 101.335C340.058 101.368 340.405 101.508 340.69 101.738C340.915 101.376 341.214 101.067 341.568 100.83C341.922 100.594 342.323 100.435 342.743 100.365C343.163 100.295 343.593 100.315 344.004 100.424C344.416 100.533 344.8 100.729 345.13 100.998C345.239 100.648 345.461 100.344 345.76 100.133C346.059 99.9215 346.419 99.8144 346.786 99.828C347.152 99.8417 347.503 99.9753 347.786 100.208C348.068 100.441 348.267 100.761 348.35 101.118C348.714 100.665 349.214 100.342 349.776 100.196C350.338 100.05 350.932 100.089 351.47 100.308C351.484 100.042 351.557 99.7823 351.683 99.5478C351.809 99.3133 351.985 99.1095 352.199 98.951C352.413 98.7924 352.66 98.683 352.921 98.6306C353.182 98.5782 353.451 98.584 353.71 98.6476C353.45 97.7276 354.81 97.3176 355.5 96.6476C355.81 96.3576 356.01 95.9476 356.34 95.6476C356.67 95.3476 357.26 95.3176 357.48 95.6476C357.388 95.2743 357.438 94.8801 357.622 94.5423C357.806 94.2045 358.109 93.9478 358.473 93.8224C358.836 93.6971 359.234 93.7122 359.586 93.8649C359.939 94.0176 360.222 94.2968 360.38 94.6476C360.529 95.0726 360.613 95.5176 360.63 95.9676C360.84 97.3976 361.63 99.0976 360.63 100.108C360.45 100.288 360.21 100.428 360.13 100.678C360 101.088 360.41 101.488 360.44 101.918C360.47 102.348 360.01 102.808 359.8 103.278C359.615 104.006 359.615 104.769 359.8 105.498C359.85 106.248 359.43 107.198 358.68 107.118C358.944 107.672 359.006 108.302 358.854 108.898C358.702 109.493 358.347 110.017 357.85 110.378C357.979 110.697 358.043 111.039 358.037 111.383C358.032 111.727 357.957 112.067 357.817 112.382C357.677 112.696 357.474 112.979 357.222 113.214C356.97 113.449 356.674 113.63 356.35 113.748C356.573 113.977 356.706 114.279 356.724 114.599C356.743 114.919 356.645 115.234 356.45 115.488C356.035 115.975 355.506 116.353 354.91 116.588C355.029 116.671 355.131 116.776 355.209 116.899C355.288 117.021 355.341 117.158 355.366 117.301C355.391 117.445 355.388 117.591 355.356 117.733C355.324 117.875 355.264 118.009 355.18 118.128C354.811 118.59 354.29 118.906 353.71 119.018C353.459 119.056 353.23 119.18 353.06 119.368C352.79 119.758 353.15 120.278 353.06 120.748C352.94 121.458 351.94 121.668 351.64 122.318C351.34 122.968 351.72 123.728 351.25 124.168C350.95 124.448 350.47 124.398 350.08 124.538C349.38 124.778 349.08 125.538 348.62 126.158C347.673 127.218 346.392 127.924 344.99 128.158C344.3 128.338 343.61 128.488 342.91 128.618C341.51 128.878 340.1 129.048 338.68 129.218C337.98 129.308 337.12 129.318 336.75 128.718C336.488 128.99 336.167 129.199 335.811 129.326C335.456 129.454 335.075 129.497 334.7 129.452C334.325 129.408 333.965 129.277 333.649 129.069C333.333 128.862 333.07 128.584 332.88 128.258C331.575 128.439 330.247 128.186 329.1 127.538L327.86 126.998C326.63 126.458 325.26 125.768 324.86 124.478C324.467 124.396 324.097 124.227 323.776 123.985C323.456 123.743 323.193 123.434 323.007 123.078C322.82 122.722 322.715 122.33 322.698 121.929C322.681 121.527 322.754 121.128 322.91 120.758C322.35 120.918 321.81 120.348 321.72 119.758C321.695 119.173 321.769 118.588 321.94 118.028C322.37 115.688 321.12 113.308 321.45 110.948C321.67 109.298 322.66 107.668 322.18 106.068C322.049 105.749 321.971 105.411 321.95 105.068C321.95 104.728 322.29 104.378 322.62 104.478C322.543 104.241 322.525 103.99 322.567 103.745C322.61 103.5 322.711 103.269 322.863 103.072C323.014 102.875 323.212 102.718 323.438 102.614C323.664 102.511 323.912 102.464 324.16 102.478" fill="#263238"/>
<path d="M342.78 102.998C342.51 102.998 342.45 104.798 340.86 105.998C339.27 107.198 337.32 106.998 337.3 107.248C337.3 107.358 337.73 107.608 338.55 107.658C339.63 107.714 340.694 107.38 341.55 106.718C342.36 106.089 342.896 105.172 343.05 104.158C343.1 103.448 342.91 102.998 342.78 102.998Z" fill="white"/>
<path d="M352.8 115.468C353.189 114.214 353.424 112.918 353.5 111.608C353.48 110.294 353.299 108.987 352.96 107.718C353.185 108.043 353.342 108.41 353.42 108.798C353.693 109.709 353.821 110.657 353.8 111.608C353.779 112.561 353.611 113.506 353.3 114.408C353.197 114.788 353.028 115.147 352.8 115.468Z" fill="#455A64"/>
<path d="M354.52 112.828C354.671 112.562 354.808 112.288 354.93 112.008C355.148 111.293 355.212 110.54 355.12 109.798C354.98 108.028 354.49 106.658 354.58 106.638C355.086 107.61 355.37 108.682 355.41 109.778C355.508 110.556 355.412 111.346 355.13 112.078C354.87 112.638 354.53 112.828 354.52 112.828Z" fill="#455A64"/>
<path d="M356.35 111.318C356.784 110.283 357.05 109.186 357.14 108.068C357.143 106.945 356.97 105.828 356.63 104.758C356.848 105.02 357.005 105.328 357.09 105.658C357.352 106.437 357.47 107.257 357.44 108.078C357.404 108.899 357.214 109.707 356.88 110.458C356.767 110.779 356.586 111.072 356.35 111.318Z" fill="#455A64"/>
<path d="M325.94 122.487C325.546 122.372 325.196 122.138 324.94 121.817C324.29 121.05 323.843 120.132 323.64 119.147C323.393 118.168 323.308 117.154 323.39 116.147C323.401 115.737 323.482 115.331 323.63 114.947C323.54 116.318 323.641 117.694 323.93 119.037C324.127 119.982 324.526 120.872 325.1 121.647C325.361 121.945 325.642 122.226 325.94 122.487Z" fill="#455A64"/>
<path d="M327.54 122.088C327.216 121.962 326.928 121.759 326.7 121.498C326.098 120.914 325.628 120.209 325.321 119.43C325.014 118.65 324.877 117.814 324.92 116.978C324.912 116.632 324.983 116.29 325.13 115.978C325.155 116.31 325.155 116.645 325.13 116.978C325.142 117.779 325.298 118.571 325.59 119.318C325.889 120.051 326.311 120.728 326.84 121.318C327.26 121.828 327.57 122.048 327.54 122.088Z" fill="#455A64"/>
<path d="M324.75 76.2674C326.561 73.7273 329.153 71.8486 332.13 70.9173C341.13 68.2373 353.86 67.2173 367.25 80.4173L369.2 81.3074C369.425 78.6957 369.331 76.0663 368.92 73.4774C368.46 71.2573 364.41 58.2973 349.92 56.9373C349.93 56.9373 327.81 53.3274 324.75 76.2674Z" fill="#455A64"/>
<g opacity="0.3">
<path d="M324.75 76.2674C326.561 73.7273 329.153 71.8486 332.13 70.9173C341.13 68.2373 353.86 67.2173 367.25 80.4173L369.2 81.3074C369.425 78.6957 369.331 76.0663 368.92 73.4774C368.46 71.2573 364.41 58.2973 349.92 56.9373C349.93 56.9373 327.81 53.3274 324.75 76.2674Z" fill="black"/>
</g>
<path d="M367.25 80.4174C361.75 74.4174 354.68 70.9374 347.25 68.1774C339.82 65.4174 328.08 63.5874 320.16 63.1774C317.784 62.8966 315.376 63.132 313.1 63.8674C310.89 64.7374 308.95 66.7374 308.85 69.1174C308.72 72.1174 314.64 75.4274 317.36 76.6574C320.08 77.8874 325.61 80.0474 325.61 80.0474C325.61 80.0474 327.1 73.2874 332.44 71.3674C343.53 67.3574 367.66 80.6474 367.25 80.4174Z" fill="#455A64"/>
<path d="M324.08 71.8882C324.431 70.9911 325.076 70.2396 325.91 69.7565C326.744 69.2734 327.716 69.0871 328.67 69.2282C328.46 68.9481 328.347 68.6078 328.347 68.2582C328.347 67.9085 328.46 67.5682 328.67 67.2882C329.128 66.757 329.758 66.4032 330.45 66.2882C331.656 66.0473 332.907 66.2253 333.998 66.7926C335.089 67.36 335.954 68.2827 336.45 69.4082C337.08 68.7946 337.855 68.3514 338.704 68.1205C339.552 67.8896 340.446 67.8784 341.3 68.0882C342.153 68.2287 342.937 68.6418 343.536 69.2655C344.134 69.8893 344.514 70.6901 344.62 71.5482C344.622 72.1839 344.439 72.8066 344.093 73.3396C343.746 73.8726 343.252 74.2927 342.67 74.5482C341.44 75.2682 339.52 74.7582 338.27 74.0682C338.021 74.7517 337.611 75.3651 337.074 75.8562C336.537 76.3473 335.89 76.7016 335.187 76.8891C334.485 77.0766 333.747 77.0917 333.037 76.9331C332.327 76.7745 331.666 76.4469 331.11 75.9782C330.486 76.7045 329.629 77.1915 328.686 77.3558C327.742 77.5202 326.771 77.3517 325.939 76.8792C325.106 76.4067 324.463 75.6596 324.12 74.7656C323.778 73.8716 323.756 72.8863 324.06 71.9782L324.08 71.8882Z" fill="#263238"/>
<path d="M303.21 248.397C300.768 257.481 299.686 266.877 300 276.277C300.2 282.277 313.29 447.537 313.29 447.537L340.37 448.687L339.26 293.827L341.46 294.407C341.46 294.407 353.46 360.947 354.2 371.677C354.88 381.307 364.39 451.537 364.39 451.537L389.06 450.857L385.14 360.347L379.69 271.507L377.32 245.607L303.21 248.397Z" fill="#263238"/>
<path d="M344.2 278.228C343.828 278.481 343.425 278.682 343 278.828C341.919 279.318 340.774 279.654 339.6 279.828C338.768 279.946 337.922 279.915 337.1 279.738C336.139 279.533 335.255 279.062 334.55 278.378C333.824 277.574 333.317 276.596 333.08 275.538C332.81 274.478 332.67 273.368 332.5 272.248C331.82 267.758 331.41 263.658 331.19 260.688C331.09 259.198 331.02 257.998 331 257.168C330.946 256.737 330.946 256.3 331 255.868C331.117 256.285 331.184 256.715 331.2 257.148C331.3 258.148 331.43 259.268 331.58 260.648C331.9 263.648 332.37 267.648 333.04 272.168C333.39 274.388 333.59 276.638 334.91 278.008C335.527 278.571 336.262 278.99 337.061 279.234C337.86 279.478 338.704 279.541 339.53 279.418C340.681 279.27 341.812 278.991 342.9 278.588C343.317 278.416 343.754 278.295 344.2 278.228Z" fill="#455A64"/>
<path d="M336.94 256.917C336.94 256.917 337.12 256.777 337.5 256.777C338.048 256.781 338.579 256.975 339 257.327C339.326 257.58 339.591 257.905 339.773 258.276C339.955 258.647 340.049 259.054 340.05 259.467C339.991 259.979 339.787 260.464 339.462 260.863C339.136 261.263 338.702 261.56 338.213 261.72C337.723 261.88 337.197 261.896 336.699 261.767C336.2 261.637 335.749 261.366 335.4 260.987C335.156 260.653 334.992 260.268 334.921 259.86C334.85 259.453 334.873 259.034 334.99 258.637C335.123 258.107 335.433 257.637 335.87 257.307C336.18 257.087 336.4 257.067 336.4 257.087C335.902 257.515 335.552 258.089 335.4 258.727C335.33 259.062 335.333 259.407 335.408 259.74C335.484 260.074 335.632 260.386 335.84 260.657C336.128 260.936 336.487 261.131 336.878 261.221C337.269 261.31 337.677 261.291 338.058 261.166C338.439 261.04 338.779 260.813 339.04 260.508C339.301 260.203 339.474 259.833 339.54 259.437C339.546 259.098 339.479 258.761 339.343 258.45C339.206 258.14 339.004 257.862 338.75 257.637C338.243 257.203 337.606 256.949 336.94 256.917Z" fill="#455A64"/>
<path d="M379.38 269.888C379.08 269.969 378.77 270.002 378.46 269.988C377.609 270.025 376.756 269.999 375.91 269.908C370.271 269.34 365.004 266.838 361 262.828C360.391 262.236 359.829 261.597 359.32 260.918C359.114 260.683 358.943 260.42 358.81 260.138C358.89 260.068 359.72 261.138 361.28 262.538C363.312 264.398 365.611 265.945 368.1 267.128C370.597 268.293 373.252 269.085 375.98 269.478C378.06 269.828 379.38 269.828 379.38 269.888Z" fill="#455A64"/>
<path d="M314 256.438C313.619 257.406 313.107 258.318 312.48 259.148C311.046 261.216 309.367 263.103 307.48 264.768C305.612 266.44 303.547 267.878 301.33 269.048C300.438 269.577 299.48 269.984 298.48 270.258C298.48 270.178 299.48 269.668 301.13 268.698C303.265 267.444 305.275 265.988 307.13 264.348C308.964 262.695 310.638 260.874 312.13 258.908C313.29 257.398 313.92 256.398 314 256.438Z" fill="#455A64"/>
<path d="M178.86 77.2777C180.122 77.3908 181.382 77.0316 182.394 76.2697C183.407 75.5078 184.101 74.3974 184.343 73.1532C184.584 71.9091 184.356 70.6196 183.701 69.5343C183.047 68.449 182.013 67.6449 180.8 67.2777C181.556 66.4622 182.037 65.4303 182.176 64.3271C182.315 63.224 182.105 62.1049 181.576 61.1272C181.046 60.1495 180.223 59.3624 179.223 58.8764C178.223 58.3904 177.096 58.23 176 58.4177C175.929 57.319 175.575 56.2574 174.971 55.3364C174.368 54.4155 173.536 53.6667 172.557 53.163C171.578 52.6594 170.485 52.4181 169.385 52.4628C168.285 52.5074 167.215 52.8364 166.28 53.4177C165.021 52.4333 163.468 51.8984 161.87 51.8984C160.272 51.8984 158.719 52.4333 157.46 53.4177C156.383 53.2413 155.277 53.4159 154.307 53.9158C153.336 54.4157 152.552 55.2143 152.07 56.1938C151.588 57.1733 151.434 58.2819 151.63 59.3557C151.826 60.4296 152.363 61.4119 153.16 62.1577" fill="#263238"/>
<path d="M179.62 77.9774C179.063 72.5516 176.485 67.534 172.397 63.9227C168.31 60.3114 163.013 58.371 157.56 58.4874H156.43C144.33 59.4874 138.43 70.2774 139.7 82.3474L140.79 125.557L161.6 148.037L170.38 133.667L170.29 119.327C170.29 119.327 181.89 117.267 181.79 105.617C181.74 100.017 180.69 88.4374 179.62 77.9774Z" fill="#AE7461"/>
<path d="M170.38 119.337C164.963 119.458 159.625 118.021 155 115.197C155 115.197 158.59 123.727 170.19 122.427L170.38 119.337Z" fill="#6F4439"/>
<path d="M176.79 88.6275C176.804 89.0622 176.647 89.4851 176.354 89.8063C176.061 90.1275 175.654 90.3217 175.22 90.3475C175.008 90.3681 174.794 90.3462 174.591 90.2831C174.388 90.22 174.199 90.117 174.036 89.9801C173.873 89.8432 173.739 89.6752 173.642 89.4858C173.545 89.2965 173.486 89.0897 173.47 88.8775C173.458 88.4509 173.61 88.0361 173.895 87.7181C174.179 87.4001 174.575 87.2031 175 87.1675C175.214 87.1397 175.432 87.1559 175.64 87.2152C175.848 87.2745 176.042 87.3755 176.209 87.5122C176.377 87.6488 176.515 87.8182 176.614 88.01C176.714 88.2017 176.774 88.4119 176.79 88.6275Z" fill="#263238"/>
<path d="M177.23 83.7276C177.03 83.9476 175.75 83.0376 173.96 83.0876C172.17 83.1376 170.88 84.0876 170.68 83.8376C170.48 83.5876 170.79 83.3476 171.35 82.9176C172.112 82.3633 173.027 82.0593 173.97 82.0476C174.901 82.0215 175.816 82.2949 176.58 82.8276C177.14 83.2376 177.33 83.6276 177.23 83.7276Z" fill="#263238"/>
<path d="M160.5 89.3177C160.511 89.7507 160.354 90.171 160.061 90.4901C159.768 90.8091 159.362 91.0019 158.93 91.0277C158.719 91.0483 158.506 91.0267 158.303 90.9643C158.101 90.9018 157.912 90.7997 157.749 90.6638C157.587 90.528 157.452 90.3611 157.355 90.1729C157.257 89.9847 157.197 89.779 157.18 89.5677C157.163 89.1303 157.318 88.7037 157.611 88.3787C157.905 88.0537 158.313 87.856 158.75 87.8277C158.963 87.8071 159.179 87.8297 159.383 87.894C159.588 87.9583 159.777 88.0631 159.94 88.2021C160.104 88.3411 160.237 88.5114 160.333 88.7031C160.43 88.8947 160.486 89.1037 160.5 89.3177Z" fill="#263238"/>
<path d="M159.65 84.4373C159.45 84.6573 158.17 83.7573 156.38 83.7973C154.59 83.8373 153.3 84.7973 153.1 84.5473C152.9 84.2973 153.2 84.0573 153.77 83.6273C154.533 83.0753 155.448 82.7716 156.39 82.7573C157.321 82.7333 158.235 83.0065 159 83.5373C159.55 83.9473 159.75 84.3373 159.65 84.4373Z" fill="#263238"/>
<path d="M166.43 97.5678C167.37 97.2583 168.343 97.0636 169.33 96.9878C169.78 96.9278 170.21 96.8278 170.28 96.5178C170.31 96.0447 170.195 95.5737 169.95 95.1678C169.5 94.0678 169.02 92.9178 168.52 91.7178C166.52 86.7978 165.09 82.7178 165.29 82.7178C165.49 82.7178 167.29 86.5578 169.29 91.4778C169.77 92.6878 170.23 93.8378 170.66 94.9478C170.965 95.4916 171.064 96.1268 170.94 96.7378C170.876 96.8997 170.776 97.0451 170.648 97.1629C170.52 97.2807 170.367 97.3678 170.2 97.4178C169.95 97.4945 169.691 97.5382 169.43 97.5478C168.435 97.6809 167.427 97.6876 166.43 97.5678Z" fill="#263238"/>
<path d="M160.06 78.3376C159.84 78.7976 158.29 78.3376 156.4 78.3376C154.51 78.3376 152.93 78.6576 152.75 78.1976C152.67 77.9676 152.99 77.5576 153.67 77.1976C154.537 76.7363 155.508 76.5088 156.49 76.5376C157.459 76.5539 158.407 76.8228 159.24 77.3176C159.88 77.6876 160.16 78.1176 160.06 78.3376Z" fill="#263238"/>
<path d="M177.32 77.3877C176.95 77.7977 175.46 77.3877 173.68 77.3877C171.9 77.3877 170.41 77.7377 170.06 77.3177C169.9 77.1077 170.13 76.6977 170.78 76.3177C171.676 75.8222 172.686 75.5705 173.71 75.5877C174.733 75.5786 175.741 75.8408 176.63 76.3477C177.26 76.7677 177.48 77.1877 177.32 77.3877Z" fill="#263238"/>
<path d="M141.81 93.6582C141.79 93.2285 141.683 92.8073 141.495 92.4204C141.307 92.0335 141.042 91.6891 140.716 91.4082C140.39 91.1273 140.011 90.9159 139.6 90.787C139.19 90.658 138.758 90.6142 138.33 90.6582C136.17 90.9082 133.78 92.1982 134.02 96.6582C134.44 104.658 142.34 102.548 142.34 102.318C142.34 102.088 142 96.9882 141.81 93.6582Z" fill="#AE7461"/>
<path d="M140.45 99.4679C140.45 99.4679 140.32 99.5779 140.09 99.6979C139.777 99.8438 139.42 99.8688 139.09 99.7679C138.24 99.5079 137.46 98.2079 137.34 96.7679C137.285 96.0887 137.381 95.4058 137.62 94.7679C137.682 94.5136 137.806 94.2786 137.98 94.0833C138.155 93.888 138.374 93.7385 138.62 93.6479C138.776 93.595 138.946 93.5991 139.1 93.6594C139.254 93.7198 139.381 93.8326 139.46 93.9779C139.58 94.1979 139.54 94.3579 139.58 94.3679C139.62 94.3779 139.74 94.2279 139.66 93.8979C139.606 93.7029 139.486 93.5329 139.32 93.4179C139.091 93.2652 138.811 93.2078 138.54 93.2579C138.219 93.3445 137.925 93.5095 137.684 93.7383C137.443 93.967 137.263 94.2521 137.16 94.5679C136.858 95.2738 136.735 96.043 136.8 96.8079C136.94 98.4179 137.8 99.8679 139.01 100.138C139.226 100.189 139.45 100.19 139.667 100.141C139.883 100.093 140.086 99.9958 140.26 99.8579C140.45 99.6579 140.48 99.4779 140.45 99.4679Z" fill="#6F4439"/>
<path d="M172.64 61.5578C172.569 61.3587 172.472 61.1702 172.35 60.9978C171.895 60.3514 171.298 59.8185 170.605 59.4405C169.911 59.0624 169.139 58.8493 168.35 58.8178C167.44 58.3762 166.497 58.0051 165.53 57.7078C164.927 56.6945 164.076 55.8514 163.057 55.2581C162.038 54.6648 160.885 54.3409 159.706 54.3169C158.528 54.2929 157.362 54.5695 156.32 55.1208C155.278 55.6721 154.393 56.4799 153.75 57.4678C153.43 57.4678 153.1 57.5778 152.75 57.6478C151.867 57.0255 150.853 56.6136 149.787 56.4433C148.72 56.2731 147.629 56.3492 146.596 56.6658C145.563 56.9823 144.617 57.531 143.829 58.2697C143.041 59.0084 142.432 59.9177 142.05 60.9278C141.069 60.6905 140.04 60.7473 139.091 61.091C138.142 61.4347 137.315 62.0502 136.714 62.8606C136.112 63.6711 135.763 64.6407 135.709 65.6485C135.655 66.6563 135.899 67.6577 136.41 68.5278C135.68 68.9132 135.06 69.4762 134.605 70.1648C134.151 70.8535 133.877 71.6455 133.81 72.4678C133.811 72.8493 133.889 73.2268 134.039 73.5775C134.189 73.9283 134.408 74.2452 134.684 74.5094C134.959 74.7735 135.285 74.9795 135.642 75.1149C135.998 75.2504 136.379 75.3126 136.76 75.2978C136.72 79.3924 136.917 83.4859 137.35 87.5578C137.55 90.3478 141.14 91.9278 141.42 93.8178C142.87 103.448 145.91 98.0378 146.7 78.0178L147.3 77.4978C147.71 77.1078 147.8 76.6278 148.15 76.1978C148.5 75.7678 149.38 75.8178 150.05 75.8778C151.216 75.9394 152.368 75.5999 153.314 74.9158C154.26 74.2317 154.943 73.2443 155.25 72.1178C155.615 72.5026 156.11 72.7374 156.639 72.7762C157.168 72.815 157.693 72.6551 158.11 72.3278C158.923 71.6402 159.637 70.8426 160.23 69.9578C160.531 69.5201 160.934 69.1622 161.405 68.9148C161.875 68.6674 162.398 68.5381 162.93 68.5378C163.496 68.7135 164.079 68.8275 164.67 68.8778C165.72 68.7578 166.2 67.5278 166.34 66.4878C166.351 65.5945 166.611 64.7221 167.09 63.9678C167.713 63.6417 168.391 63.4316 169.09 63.3478C169.49 63.3478 169.89 63.4578 170.28 63.5078C170.466 63.5229 170.653 63.5229 170.84 63.5078C171.09 63.5808 171.335 63.6745 171.57 63.7878C175.12 65.4078 178.35 72.6378 178.35 72.6378C178.53 68.0278 175.93 64.2378 172.64 61.5578Z" fill="#263238"/>
<path d="M135.41 68.9678C135.41 68.9678 135.41 68.9678 135.48 68.8478C135.55 68.7278 135.61 68.6678 135.73 68.5378C136.075 68.1547 136.489 67.8393 136.95 67.6078C137.677 67.2364 138.483 67.0443 139.3 67.0478C140.387 67.017 141.449 67.3712 142.3 68.0478L142.08 68.1178C142.304 67.263 142.706 66.465 143.259 65.7758C143.812 65.0866 144.504 64.5216 145.29 64.1178C146.168 63.6271 147.132 63.3081 148.13 63.1778C149.182 63.0573 150.246 63.1113 151.28 63.3378C153.207 63.7908 155.032 64.6015 156.66 65.7278L156.43 65.8078C157.074 64.1287 158.327 62.754 159.94 61.9578C161.207 61.3465 162.633 61.1438 164.02 61.3778C164.921 61.5394 165.782 61.8794 166.55 62.3778C166.751 62.5071 166.944 62.6473 167.13 62.7978C167.257 62.9045 167.317 62.9645 167.31 62.9778C167.31 62.9778 167.03 62.7778 166.49 62.4678C165.717 62.0311 164.869 61.7428 163.99 61.6178C162.647 61.4179 161.276 61.6343 160.06 62.2378C158.524 63.0166 157.334 64.3392 156.72 65.9478L156.66 66.1378L156.49 66.0278C154.887 64.9344 153.098 64.1446 151.21 63.6978C150.225 63.4855 149.212 63.4315 148.21 63.5378C147.253 63.6636 146.327 63.9654 145.48 64.4278C144.72 64.8115 144.051 65.3523 143.517 66.0143C142.982 66.6764 142.595 67.4445 142.38 68.2678V68.4778L142.22 68.3378C141.426 67.6911 140.434 67.338 139.41 67.3378C138.623 67.316 137.842 67.4805 137.13 67.8178C136.49 68.0906 135.907 68.4806 135.41 68.9678Z" fill="#455A64"/>
<path d="M167.18 63.4577C167.146 63.5647 167.102 63.6684 167.05 63.7677C166.932 64.0696 166.838 64.3807 166.77 64.6977C166.67 65.1077 166.58 65.6177 166.46 66.2177C166.36 66.9298 166.108 67.612 165.72 68.2177C165.449 68.5612 165.054 68.784 164.62 68.8377C164.166 68.8675 163.71 68.8473 163.26 68.7777C162.806 68.7055 162.342 68.7502 161.91 68.9077C161.473 69.1367 161.086 69.4493 160.77 69.8277C160.43 70.2177 160.11 70.6477 159.77 71.0877C159.453 71.5756 159.061 72.0108 158.61 72.3777C158.093 72.7317 157.494 72.9485 156.87 73.0077C156.539 73.0669 156.201 73.0669 155.87 73.0077C155.518 72.9419 155.206 72.7409 155 72.4477H155.29C155.197 72.9216 155.028 73.3775 154.79 73.7977C154.539 74.2281 154.222 74.6162 153.85 74.9477C153.059 75.6068 152.1 76.0326 151.08 76.1777C150.66 76.2441 150.235 76.2709 149.81 76.2577C149.428 76.1767 149.032 76.1767 148.65 76.2577C148.298 76.3874 148.001 76.6346 147.81 76.9577C147.571 77.2812 147.307 77.5855 147.02 77.8677C145.966 78.9922 144.535 79.6898 143 79.8277C141.6 79.7997 140.258 79.2589 139.23 78.3077C138.339 77.5139 137.711 76.4674 137.43 75.3077L137.56 75.3877C137.118 75.4863 136.66 75.4872 136.218 75.3905C135.776 75.2938 135.36 75.1017 135 74.8277C134.452 74.4066 134.073 73.8038 133.93 73.1277C133.835 72.7131 133.835 72.2823 133.93 71.8677C133.951 71.7586 133.981 71.6515 134.02 71.5477C134.016 71.5145 134.016 71.4809 134.02 71.4477C133.89 71.99 133.89 72.5554 134.02 73.0977C134.183 73.735 134.561 74.2965 135.09 74.6877C135.438 74.9392 135.836 75.1131 136.257 75.1977C136.678 75.2822 137.112 75.2754 137.53 75.1777H137.64V75.2877C137.941 76.3894 138.556 77.3798 139.41 78.1377C140.409 78.998 141.682 79.4732 143 79.4777C144.476 79.328 145.844 78.6368 146.84 77.5377C147.117 77.2654 147.371 76.9711 147.6 76.6577C147.835 76.2849 148.186 76.0002 148.6 75.8477C148.813 75.7774 149.036 75.7469 149.26 75.7577H149.87C150.275 75.7694 150.679 75.746 151.08 75.6877C152.038 75.553 152.939 75.151 153.68 74.5277C154.356 73.9393 154.819 73.1453 155 72.2677L155.09 71.8977L155.29 72.2177C155.483 72.4209 155.726 72.5702 155.994 72.6509C156.262 72.7316 156.547 72.7408 156.82 72.6777C157.388 72.6254 157.934 72.433 158.41 72.1177C158.84 71.7667 159.215 71.3519 159.52 70.8877C159.87 70.4577 160.2 70.0177 160.52 69.6277C160.855 69.2076 161.278 68.8662 161.76 68.6277C162.234 68.4575 162.744 68.4127 163.24 68.4977C163.669 68.5724 164.105 68.5992 164.54 68.5777C164.733 68.5598 164.921 68.5038 165.093 68.4128C165.265 68.3218 165.417 68.1978 165.54 68.0477C165.912 67.4779 166.164 66.8382 166.28 66.1677C166.41 65.5777 166.52 65.0577 166.63 64.6477C166.713 64.3306 166.827 64.0225 166.97 63.7277C167.1 63.5477 167.17 63.4477 167.18 63.4577Z" fill="#455A64"/>
<path d="M160.92 100.828C160.542 101.785 160.513 102.845 160.839 103.822C161.164 104.798 161.823 105.629 162.7 106.168C163.03 106.353 163.394 106.469 163.771 106.51C164.147 106.551 164.527 106.517 164.89 106.408C165.328 106.31 165.737 106.11 166.084 105.825C166.432 105.541 166.707 105.178 166.89 104.768C167.268 103.935 167.436 103.022 167.38 102.108C165.6 101.688 162.74 101.238 160.92 100.828Z" fill="#6F4439"/>
<path d="M166.65 105.298C166.53 105.49 166.37 105.654 166.18 105.778C165.678 106.139 165.087 106.357 164.47 106.408C164.009 106.449 163.545 106.398 163.104 106.259C162.663 106.12 162.254 105.895 161.9 105.598C161.46 105.238 161.099 104.792 160.841 104.285C160.583 103.779 160.433 103.225 160.4 102.658C160.362 102.065 160.423 101.471 160.58 100.898V100.758H160.73C162.6 101.118 164.24 101.448 165.4 101.698C166.031 101.803 166.653 101.957 167.26 102.158C166.621 102.122 165.986 102.039 165.36 101.908C164.19 101.708 162.54 101.418 160.67 101.068L160.85 100.958C160.706 101.492 160.652 102.046 160.69 102.598C160.718 103.123 160.853 103.637 161.087 104.108C161.321 104.579 161.649 104.998 162.05 105.338C162.601 105.801 163.284 106.08 164.001 106.133C164.719 106.187 165.436 106.014 166.05 105.638C166.47 105.448 166.63 105.278 166.65 105.298Z" fill="#263238"/>
<path d="M125.14 249.768V272.918L134.28 346.828C134.28 346.828 131.38 381.488 129.6 401.058C128.06 418.058 130.6 447.638 130.6 447.638H157.67L167.36 348.948L173.36 287.408L184.26 250.948L125.14 249.768Z" fill="#263238"/>
<path d="M194.71 251.348L195.95 263.938L194.45 355.348L173.03 428.778L167.84 446.588L140.19 441.378L161.5 251.378L194.71 251.348Z" fill="#263238"/>
<path d="M193.87 357.268C193.87 357.268 193.87 357.408 193.77 357.698C193.67 357.988 193.57 358.418 193.42 358.968C193.1 360.098 192.63 361.748 192.03 363.888C190.79 368.188 189.03 374.448 186.72 382.348C182.13 398.158 175.66 420.488 168.07 446.648L168 446.828H167.78L140.13 441.628L139.87 441.578L139.92 441.328C141.33 433.878 142.81 426.088 144.31 418.158C148.78 394.638 152.99 372.458 156.67 353.088V353.168C152.09 324.418 148.44 301.498 146.34 288.328L141.73 279.928C141.21 278.978 140.82 278.258 140.55 277.748C140.28 277.238 140.16 277.008 140.16 277.008C140.16 277.008 140.32 277.248 140.6 277.728L141.82 279.868L146.53 288.228C148.68 301.378 152.42 324.288 157.11 353.018V353.098C153.44 372.478 149.25 394.668 144.8 418.178C143.3 426.118 141.8 433.908 140.41 441.358L140.2 441.058L167.85 446.278L167.57 446.448L186.4 382.188C188.73 374.318 190.57 368.068 191.84 363.768C192.48 361.638 192.97 359.998 193.31 358.878L193.7 357.618C193.82 357.408 193.87 357.268 193.87 357.268Z" fill="#455A64"/>
<path d="M189.74 258.828C189.36 259.639 188.853 260.385 188.24 261.038C186.833 262.688 185.172 264.103 183.32 265.228C181.464 266.36 179.438 267.184 177.32 267.668C176.454 267.909 175.558 268.02 174.66 267.998C174.61 267.818 178.77 267.418 183.02 264.788C185.545 263.149 187.81 261.14 189.74 258.828Z" fill="#455A64"/>
<path d="M111.3 186.258C111.3 186.258 108.08 206.958 110.24 215.148C112.4 223.338 129.93 244.038 129.93 244.038L153.85 229.038L138.09 189.898L111.3 186.258Z" fill="#AE7461"/>
<path d="M133.44 134.887C133.44 134.887 147.17 135.087 147.37 152.207C147.57 169.327 143.88 192.207 143.88 192.207L108.82 186.027C108.82 186.027 113.17 154.157 116.88 144.977C120.59 135.797 127.75 133.327 133.44 134.887Z" fill="#455A64"/>
<path d="M140 122.558L139.56 125.358C139.56 125.358 120.82 137.738 119.76 140.928C118.12 145.928 121.7 187.738 123.28 199.598C124.86 211.458 125.18 237.598 125.18 237.598C124.03 240.678 122.73 243.458 122.3 247.748C121.87 252.038 125.18 255.898 125.18 255.898C145.29 262.458 169.85 257.428 196.42 251.368L196.17 243.838L187.49 162.008C187.49 162.008 190.02 140.738 179.64 134.578C178.5 133.908 169.45 128.768 169.45 128.768L140 122.558Z" fill="#455A64"/>
<path opacity="0.3" d="M170.09 158.038C170.386 166.787 172.487 175.38 176.26 183.278C180.141 191.46 185.474 198.87 192 205.148L189.19 180.668L170.09 158.038Z" fill="black"/>
<path d="M185.82 137.378C182.54 134.718 176.43 133.268 172.94 135.658C170.999 136.886 169.514 138.716 168.71 140.867C165.71 149.567 167.52 158.927 169.9 165.867C172.28 172.807 183.79 186.188 183.79 186.188L212.21 168.928C212.21 168.928 193.21 145.868 191.21 143.488C190.17 142.238 187.65 138.828 185.82 137.378Z" fill="#455A64"/>
<path d="M185.82 137.378C186.036 137.521 186.24 137.681 186.43 137.858C186.979 138.359 187.5 138.889 187.99 139.448C189.31 140.898 191.05 143.158 193.39 145.918L212.39 168.778L212.57 168.988L212.34 169.128L185.48 185.458L183.92 186.458L183.73 186.568L183.59 186.408C180.41 182.648 177.45 178.868 174.8 175.068C173.485 173.211 172.276 171.281 171.18 169.288C170.642 168.323 170.174 167.32 169.78 166.288C169.4 165.288 169.09 164.288 168.78 163.208C166.41 155.048 166.35 147.038 168.51 140.948C169.015 139.572 169.803 138.318 170.823 137.266C171.842 136.213 173.071 135.386 174.43 134.838C175.573 134.474 176.774 134.332 177.97 134.418C178.966 134.472 179.952 134.64 180.91 134.918C182.237 135.286 183.504 135.845 184.67 136.578C185.081 136.825 185.463 137.117 185.81 137.448C185.81 137.448 185.42 137.138 184.62 136.668C183.444 135.981 182.179 135.459 180.86 135.118C179.91 134.855 178.934 134.7 177.95 134.658C176.789 134.597 175.626 134.75 174.52 135.108C173.278 135.601 172.156 136.355 171.23 137.318C170.149 138.354 169.336 139.638 168.86 141.058C166.77 147.058 166.86 154.988 169.24 163.058C169.54 164.058 169.85 165.058 170.24 166.058C170.634 167.087 171.095 168.089 171.62 169.058C172.717 171.03 173.922 172.939 175.23 174.778C177.87 178.558 180.83 182.328 183.99 186.068L183.66 186.008L185.22 185.068L212.1 168.778L212.04 169.128C204.32 159.708 197.8 151.758 193.19 146.128C190.87 143.348 189.19 141.048 187.89 139.578C187.26 138.838 186.74 138.288 186.38 137.938C186.02 137.588 185.81 137.388 185.82 137.378Z" fill="#263238"/>
<path d="M119.35 150.408C119.403 150.566 119.43 150.732 119.43 150.898C119.43 151.288 119.51 151.758 119.57 152.328C119.66 153.648 119.79 155.428 119.95 157.588C120.23 162.098 120.62 168.198 121.05 174.938C121.48 181.678 121.96 187.838 122.36 192.268C122.56 194.418 122.72 196.188 122.85 197.508C122.9 198.078 122.94 198.508 122.97 198.938C122.992 199.104 122.992 199.272 122.97 199.438C122.908 199.282 122.87 199.116 122.86 198.948C122.8 198.568 122.72 198.098 122.63 197.538C122.45 196.298 122.22 194.538 121.98 192.298C121.49 187.878 120.98 181.748 120.52 174.968C120.06 168.188 119.77 162.048 119.52 157.608C119.43 155.448 119.36 153.668 119.3 152.338C119.3 151.768 119.3 151.338 119.3 150.908C119.301 150.74 119.318 150.573 119.35 150.408Z" fill="#263238"/>
<path d="M182.22 249.768C182.052 249.849 181.873 249.906 181.69 249.938L180.16 250.308C179.49 250.478 178.67 250.648 177.71 250.828C176.75 251.008 175.71 251.218 174.45 251.408C172.04 251.818 169.14 252.158 165.91 252.468C162.68 252.778 159.12 252.938 155.37 252.988C151.62 253.038 148.06 252.888 144.83 252.668C141.6 252.448 138.69 252.118 136.26 251.728C135.05 251.558 133.96 251.358 133 251.168C132.04 250.978 131.22 250.838 130.56 250.668L129.02 250.298C128.837 250.266 128.659 250.212 128.49 250.138C128.675 250.13 128.86 250.151 129.04 250.198L130.6 250.468C131.27 250.608 132.09 250.738 133.05 250.888C134.01 251.038 135.05 251.218 136.32 251.358C138.74 251.708 141.64 251.958 144.86 252.198C148.08 252.438 151.64 252.498 155.37 252.468C159.1 252.438 162.65 252.238 165.87 251.998C169.09 251.758 171.98 251.408 174.4 250.998C175.61 250.838 176.7 250.658 177.66 250.498C178.62 250.338 179.44 250.208 180.12 250.068L181.67 249.798C181.852 249.771 182.036 249.761 182.22 249.768Z" fill="#263238"/>
<path d="M322.21 140.128H310.21C307.41 141.128 289.16 169.018 289.16 169.018L308.22 190.158L317.42 170.648L322.21 140.128Z" fill="#C6EB5F"/>
<path d="M310.24 140.128L335 132.548C335 132.548 334.88 138.548 343.52 138.708C353.46 138.928 361.8 130.188 361.8 130.188C361.8 130.188 382.47 136.628 386.8 140.128C391.13 143.628 377 216.757 377 216.757L375.72 238.538C377.001 240.766 377.732 243.269 377.85 245.837C377.85 249.617 377.99 252.137 377.99 252.137C351.49 260.137 325.19 267.057 300.99 259.317C300.99 259.317 301.59 246.467 302.99 242.967C304.39 239.467 304.13 239.148 304.13 239.148L306.44 198.938L306.86 168.688L310.24 140.128Z" fill="#C6EB5F"/>
<path d="M395.94 172.647C395.94 172.647 398.66 215.377 398.64 221.647C398.64 226.307 388.49 275.057 388.49 275.057L373.43 269.987L378.72 222.607L373.43 172.607L395.94 172.647Z" fill="#FFBF9D"/>
<path d="M387 140.098C391.338 143.446 394.309 148.259 395.36 153.638C397.17 162.728 401.18 185.378 401.18 185.378L368.85 186.658C368.85 186.658 370.79 170.928 370.79 169.928C370.79 168.928 376.26 147.278 376.6 146.788C376.94 146.298 387 140.098 387 140.098Z" fill="#C6EB5F"/>
<path d="M306.85 151.277C306.99 151.277 307.06 160.577 307.01 172.047C306.96 183.517 306.8 192.827 306.66 192.827C306.52 192.827 306.44 183.527 306.49 172.047C306.54 160.567 306.7 151.277 306.85 151.277Z" fill="#263238"/>
<path d="M401.18 185.378C400.982 185.419 400.781 185.442 400.58 185.448L398.85 185.568L392.44 185.928L371.06 186.928H370.81V186.678C370.76 186.018 370.71 185.308 370.65 184.598C370.135 176.999 370.296 169.369 371.13 161.798C371.45 158.888 371.81 156.558 372.13 154.948C372.27 154.138 372.39 153.518 372.48 153.098C372.512 152.88 372.565 152.665 372.64 152.458C372.647 152.68 372.627 152.901 372.58 153.118C372.52 153.598 372.43 154.208 372.33 154.978C372.11 156.588 371.81 158.978 371.53 161.828C370.816 169.384 370.709 176.985 371.21 184.558C371.27 185.268 371.32 185.978 371.37 186.628L371.1 186.398L392.48 185.558L398.9 185.368H400.64C400.82 185.35 401.001 185.354 401.18 185.378Z" fill="#263238"/>
<path d="M382.18 140.608C380.599 141.697 379.086 142.883 377.65 144.158C376.335 145.562 375.106 147.045 373.97 148.598C375.539 144.949 378.492 142.072 382.18 140.598V140.608Z" fill="#263238"/>
<path d="M373.15 273.377C373.15 273.377 367.15 277.927 365.81 279.717C364.47 281.507 361.23 287.907 358.81 289.777C358.852 290.094 358.976 290.393 359.169 290.647C359.363 290.901 359.618 291.1 359.912 291.225C360.205 291.35 360.526 291.397 360.843 291.36C361.16 291.324 361.462 291.206 361.72 291.017C364.192 289.635 366.353 287.76 368.07 285.507C369.07 283.947 370.16 284.857 370.22 286.227C370.28 287.597 369.1 296.827 369.1 296.827C369.1 296.827 366.22 307.067 366.99 308.217C367.154 308.447 367.368 308.636 367.616 308.771C367.864 308.906 368.139 308.983 368.421 308.996C368.703 309.01 368.984 308.959 369.243 308.849C369.503 308.738 369.734 308.57 369.92 308.357C370.31 307.817 373.56 299.257 373.56 299.257L374.39 294.597C374.39 294.597 372.72 309.347 373.65 310.507C373.79 310.717 373.977 310.891 374.197 311.015C374.416 311.139 374.662 311.21 374.914 311.222C375.166 311.234 375.418 311.186 375.648 311.083C375.878 310.979 376.081 310.823 376.24 310.627C376.89 310.037 377.56 303.517 377.56 303.517L379.08 294.817L378.8 311.407C378.8 311.407 378.98 312.977 380.21 313.037C381.44 313.097 382.27 311.277 382.27 311.277L384.05 294.177C384.05 294.177 383.48 303.687 384.12 304.177C384.97 304.847 385.75 304.627 386.03 303.897C386.6 302.417 387.44 293.897 387.44 293.897L388.22 277.617L389.06 269.777L373.83 268.777L373.15 273.377Z" fill="#FFBF9D"/>
<path d="M367.6 245.588C367.433 245.7 367.251 245.787 367.06 245.848L365.45 246.498C364.06 247.058 362.02 247.798 359.45 248.628C356.88 249.458 353.83 250.358 350.38 251.228C346.93 252.098 343.11 252.868 339.06 253.508C335.01 254.148 331.12 254.508 327.57 254.808C324.02 255.108 320.83 255.138 318.14 255.118C315.45 255.098 313.29 255.028 311.79 254.918L310.06 254.788C309.861 254.783 309.664 254.759 309.47 254.718C309.669 254.692 309.871 254.692 310.07 254.718H311.8C313.29 254.718 315.46 254.778 318.14 254.718C320.82 254.658 324.01 254.558 327.54 254.298C331.07 254.038 334.94 253.588 338.98 252.968C343.02 252.348 346.82 251.538 350.27 250.728C353.72 249.918 356.79 249.048 359.34 248.248C361.89 247.448 363.96 246.778 365.34 246.248L366.98 245.698C367.182 245.642 367.39 245.605 367.6 245.588Z" fill="#263238"/>
<path d="M370.35 177.337C370.35 177.337 370.35 177.337 370.2 177.437C370.048 177.522 369.891 177.595 369.73 177.657C369.092 177.916 368.417 178.071 367.73 178.117C365.257 178.176 362.816 177.557 360.67 176.327C359.28 175.637 357.81 174.797 356.15 174.107C355.299 173.751 354.414 173.48 353.51 173.297C353.037 173.216 352.559 173.169 352.08 173.157C351.84 173.157 351.59 173.157 351.35 173.157L350.6 173.217C348.498 173.461 346.462 174.102 344.6 175.107C342.6 176.107 340.68 177.317 338.6 178.487C336.623 179.693 334.499 180.637 332.28 181.297C330.174 181.886 327.951 181.917 325.83 181.387C323.949 180.875 322.127 180.171 320.39 179.287C318.75 178.507 317.25 177.737 315.81 177.217C313.576 176.265 311.13 175.92 308.72 176.217C307.85 176.39 307.004 176.665 306.2 177.037C306.385 176.897 306.582 176.773 306.79 176.667C307.393 176.372 308.032 176.153 308.69 176.017C311.154 175.605 313.685 175.885 316 176.827C317.48 177.337 319 178.087 320.65 178.827C322.367 179.668 324.162 180.338 326.01 180.827C328.056 181.317 330.194 181.275 332.22 180.707C334.392 180.049 336.471 179.118 338.41 177.937C340.41 176.767 342.41 175.537 344.41 174.547C346.324 173.526 348.414 172.878 350.57 172.637L351.35 172.587C351.603 172.572 351.857 172.572 352.11 172.587C352.613 172.6 353.115 172.654 353.61 172.747C354.539 172.943 355.447 173.231 356.32 173.607C358.01 174.337 359.47 175.197 360.84 175.897C362.927 177.133 365.304 177.795 367.73 177.817C368.622 177.793 369.506 177.631 370.35 177.337Z" fill="white"/>
<path d="M371.7 182.658C371.549 182.84 371.378 183.004 371.19 183.148C370.639 183.553 370.024 183.861 369.37 184.058C366.896 184.606 364.308 184.277 362.05 183.128C360.6 182.478 359.13 181.588 357.5 180.748C355.826 179.777 353.971 179.158 352.05 178.928C349.917 178.823 347.8 179.344 345.96 180.428C343.958 181.596 342.025 182.878 340.17 184.268C338.283 185.682 336.174 186.774 333.93 187.498C331.779 188.059 329.521 188.059 327.37 187.498C323.28 186.498 319.99 184.628 317.03 183.688C314.73 182.808 312.266 182.442 309.81 182.618C308.912 182.731 308.028 182.932 307.17 183.218C307.371 183.093 307.585 182.992 307.81 182.918C308.454 182.672 309.126 182.504 309.81 182.418C312.301 182.156 314.82 182.471 317.17 183.338C320.17 184.258 323.51 186.098 327.51 187.028C329.579 187.568 331.751 187.568 333.82 187.028C336.007 186.312 338.061 185.241 339.9 183.858C341.773 182.459 343.727 181.17 345.75 179.998C347.675 178.879 349.886 178.347 352.11 178.468C354.093 178.72 356.004 179.369 357.73 180.378C359.36 181.248 360.83 182.158 362.23 182.808C364.41 183.961 366.917 184.338 369.34 183.878C370.197 183.626 370.998 183.212 371.7 182.658Z" fill="white"/>
</g>
<defs>
<clipPath id="clip0_1773_2746">
<rect width="500" height="354" fill="white" transform="translate(0 0.828125)"/>
</clipPath>
</defs>
</svg>
