<svg width="19" height="19" viewBox="0 0 19 19" fill="none" xmlns="http://www.w3.org/2000/svg">
<path opacity="0.4" d="M17 6.3575V10.925L15.7775 9.875C15.1925 9.3725 14.2475 9.3725 13.6625 9.875L10.5425 12.5525C9.9575 13.055 9.0125 13.055 8.4275 12.5525L8.1725 12.3425C7.64 11.8775 6.7925 11.8325 6.1925 12.2375L2.5025 14.7125L2.42 14.7725C2.1425 14.1725 2 13.46 2 12.6425V6.3575C2 3.6275 3.6275 2 6.3575 2H12.6425C15.3725 2 17 3.6275 17 6.3575Z" fill="#1E1E1E"/>
<path d="M7.24997 8.28484C8.23579 8.28484 9.03497 7.48567 9.03497 6.49984C9.03497 5.51402 8.23579 4.71484 7.24997 4.71484C6.26414 4.71484 5.46497 5.51402 5.46497 6.49984C5.46497 7.48567 6.26414 8.28484 7.24997 8.28484Z" fill="#1E1E1E"/>
<path d="M17 10.9249V12.6424C17 15.3724 15.3725 16.9999 12.6425 16.9999H6.35748C4.44498 16.9999 3.06498 16.1974 2.41998 14.7724L2.50248 14.7124L6.19248 12.2374C6.79248 11.8324 7.63998 11.8774 8.17248 12.3424L8.42748 12.5524C9.01248 13.0549 9.95748 13.0549 10.5425 12.5524L13.6625 9.87492C14.2475 9.37242 15.1925 9.37242 15.7775 9.87492L17 10.9249Z" fill="#1E1E1E"/>
</svg>
