<svg width="725" height="709" viewBox="0 0 725 709" fill="none" xmlns="http://www.w3.org/2000/svg">
<path d="M330.644 110.095H154.815V494.457H330.644V110.095Z" fill="white"/>
<path d="M341.419 505.233H144.039V99.3188H341.419V505.233ZM165.591 483.681H319.867V120.871H165.591V483.681Z" fill="#EBEBEB"/>
<path d="M330.644 296.214H154.815V307.098H330.644V296.214Z" fill="#EBEBEB"/>
<path d="M330.644 215.071H154.815V225.955H330.644V215.071Z" fill="#EBEBEB"/>
<path d="M279.098 130.713V299.429H288.976V130.713H279.098Z" fill="#EBEBEB"/>
<path d="M237.79 130.713V299.429H247.668V130.713H237.79Z" fill="#EBEBEB"/>
<path d="M196.482 130.713V299.429H206.36V130.713H196.482Z" fill="#EBEBEB"/>
<path d="M350.651 97.5408H134.808V136.945H350.651V97.5408Z" fill="#EBEBEB"/>
<path d="M350.651 97.5408H134.808V125.02H350.651V97.5408Z" fill="#DBDBDB"/>
<path d="M364.229 77.8207H121.212V117.225H364.229V77.8207Z" fill="#EBEBEB"/>
<path d="M664.628 110.095H488.799V494.457H664.628V110.095Z" fill="white"/>
<path d="M675.422 505.233H478.041V99.3188H675.422V505.233ZM499.593 483.681H653.87V120.871H499.593V483.681Z" fill="#EBEBEB"/>
<path d="M664.628 296.214H488.799V307.098H664.628V296.214Z" fill="#EBEBEB"/>
<path d="M664.628 215.071H488.799V225.955H664.628V215.071Z" fill="#EBEBEB"/>
<path d="M613.1 130.695V299.411H622.978V130.695H613.1Z" fill="#EBEBEB"/>
<path d="M571.792 130.695V299.411H581.67V130.695H571.792Z" fill="#EBEBEB"/>
<path d="M530.484 130.695V299.411H540.362V130.695H530.484Z" fill="#EBEBEB"/>
<path d="M684.653 97.5408H468.81V136.945H684.653V97.5408Z" fill="#EBEBEB"/>
<path d="M684.653 97.5408H468.81V125.02H684.653V97.5408Z" fill="#DBDBDB"/>
<path d="M698.231 77.8207H455.214V117.225H698.231V77.8207Z" fill="#EBEBEB"/>
<path d="M718.4 649.811L742.394 649.308L754.212 649.11C758.127 649.02 762.043 649.11 765.958 649.002L765.168 649.811L765.096 629.713L765.994 630.611L742.215 630.504C734.295 630.504 726.356 630.288 718.436 630.198L718.921 629.713C718.921 633 718.777 636.305 718.687 639.663L718.4 649.811ZM718.4 649.811L718.148 639.861C718.059 636.52 717.951 633.126 717.915 629.713V629.229H718.4C726.32 629.139 734.259 628.941 742.179 628.923L765.958 628.815H766.856V629.713L766.892 649.811V650.619H766.102C762.097 650.619 758.074 650.619 754.086 650.511L742.125 650.314L718.4 649.811Z" fill="#EBEBEB"/>
<path d="M105.479 649.811L129.456 649.308L141.273 649.11C145.206 649.02 149.122 649.11 153.037 649.002L152.229 649.811L152.139 629.713L153.037 630.611L129.312 630.504C121.374 630.504 113.453 630.288 105.533 630.198L106.018 629.713C106.018 633 105.856 636.305 105.784 639.663L105.479 649.811ZM105.479 649.811L105.21 639.861C105.21 636.52 105.012 633.126 104.976 629.713V629.229H105.479C113.399 629.139 121.32 628.941 129.258 628.923L153.037 628.815H153.935V629.713L153.827 649.811V650.619H153.037C149.032 650.619 145.009 650.619 141.004 650.511L129.042 650.314L105.479 649.811Z" fill="#EBEBEB"/>
<path d="M105.479 107.509L129.456 107.006L141.273 106.79C145.206 106.79 149.122 106.79 153.037 106.7L152.229 107.491L152.139 87.4113L153.037 88.2913L129.312 88.1836C121.374 88.1836 113.453 87.986 105.533 87.8962L106.018 87.4113C106.018 90.698 105.856 94.0026 105.784 97.3432L105.479 107.509ZM105.479 107.509L105.21 97.5587C105.21 94.2002 105.012 90.8057 104.976 87.4113V86.9264H105.479C113.399 86.9264 121.32 86.639 129.258 86.639L153.037 86.5312H153.935V87.4472L153.827 107.526V108.335H153.037C149.032 108.335 145.009 108.335 141.004 108.335L129.042 108.119L105.479 107.509Z" fill="#EBEBEB"/>
<path d="M79.0239 132.904L103 132.419L114.818 132.204C118.751 132.204 122.649 132.204 126.582 132.204L125.72 132.904V112.825L126.618 113.705L102.731 113.525C94.7928 113.525 86.8724 113.328 78.952 113.238L79.437 112.753C79.437 116.04 79.2753 119.344 79.2035 122.685L79.0239 132.904ZM79.0239 132.904L78.7545 122.972C78.7545 119.614 78.5569 116.219 78.521 112.825V112.34H79.0239C86.9442 112.34 94.8646 112.052 102.803 112.052L126.582 111.945H127.48V112.861L127.3 132.904V133.712H126.51C122.487 133.712 118.482 133.712 114.477 133.712L102.516 133.497L79.0239 132.904Z" fill="#EBEBEB"/>
<path d="M461.213 326.549L437.218 327.052L425.401 327.249C421.467 327.249 417.57 327.249 413.637 327.249L414.445 326.459L414.535 346.556L413.637 345.658L437.434 345.766C445.354 345.766 453.274 345.963 461.213 346.053L460.71 346.556C460.71 343.269 460.872 339.947 460.943 336.606L461.213 326.549ZM461.213 326.549L461.464 336.481C461.464 339.839 461.662 343.234 461.698 346.646V347.131H461.213C453.274 347.221 445.354 347.418 437.434 347.418L413.637 347.544H412.739V346.628L412.829 326.531V325.723H413.619C417.642 325.723 421.647 325.723 425.652 325.83L437.613 326.028L461.213 326.549Z" fill="#EBEBEB"/>
<path d="M434.632 301.207L410.656 301.71L398.838 301.908C394.905 301.997 390.989 301.908 387.074 301.997L387.882 301.207V321.304L386.984 320.406L410.763 320.514C418.702 320.514 426.622 320.712 434.542 320.802L434.057 321.304C434.057 318.018 434.219 314.695 434.291 311.355L434.632 301.207ZM434.632 301.207L434.902 311.139C434.902 314.498 435.099 317.892 435.135 321.304V321.789H434.632C426.712 321.879 418.791 322.077 410.853 322.077L387.074 322.202H386.14V321.304L386.248 301.207V300.399H387.038C391.043 300.399 395.066 300.399 399.071 300.507L411.033 300.704L434.632 301.207Z" fill="#EBEBEB"/>
<path d="M387.307 813.031C383.195 814.36 266.473 812.852 262.072 809.96C260.366 808.9 259.612 791.874 259.271 771.274C259.271 771.059 259.271 770.843 259.271 770.628C259.271 766.389 259.145 762.025 259.127 757.589C259.127 756.978 259.127 756.367 259.127 755.793L264.802 695.25L342.874 696.022L335.17 756.008V758.397L334.703 770.807V772.082C334.703 772.082 379.118 792.647 383.626 796.328C388.134 800.01 391.402 811.792 387.307 813.031Z" fill="#AD6359"/>
<path d="M339.246 771.023H255.175C255.175 771.023 272.094 574.72 271.447 571.254C270.603 566.854 239.227 444.007 233.21 420.785C224.23 385.978 217.046 358.949 217.046 358.949H288.294C288.294 358.949 296.591 385.26 307.062 419.51C324.124 475.186 346.897 551.785 349.16 570.374C352.86 600.475 339.246 771.023 339.246 771.023Z" fill="#455A64"/>
<path d="M287.719 559.238C284.953 547.097 280.84 535.19 277.248 523.318C269.969 499.096 262.641 474.874 255.265 450.652C251.589 438.547 247.896 426.442 244.184 414.337C242.292 408.231 240.4 402.13 238.509 396.036C236.713 390.055 234.504 384.146 232.815 378.076C232.133 375.615 231.756 376.962 232.636 380.069C234.432 386.355 236.228 392.641 238.024 398.874C241.616 411.266 245.262 423.646 248.961 436.015C256.241 460.656 263.593 485.267 271.016 509.848C274.716 522.193 278.422 534.525 282.133 546.846C284.014 552.734 285.531 558.732 286.677 564.806C287.644 571.116 287.873 577.517 287.36 583.88C286.552 596.739 285.061 609.58 283.876 622.422C282.69 635.263 281.487 648.14 280.284 661C277.889 686.599 275.542 712.192 273.243 737.779C272.938 741.012 272.669 744.262 272.417 747.513C272.327 748.591 273.98 748.519 274.087 747.513C276.853 722.207 278.973 696.812 281.361 671.47C283.75 646.129 286.085 621.021 288.437 595.805C289.03 589.483 289.713 583.125 289.713 576.767C289.708 570.868 289.039 564.988 287.719 559.238Z" fill="#263238"/>
<path d="M280.733 358.949C276.386 392.731 270.334 506.221 268.987 559.364C260.941 527.18 238.652 439.984 233.677 420.785L217.711 359.433C217.718 359.326 217.718 359.218 217.711 359.11C217.707 359.074 217.707 359.038 217.711 359.002L280.733 358.949Z" fill="#263238"/>
<path d="M299.519 813.031C295.424 814.36 178.702 812.852 174.284 809.96C172.595 808.9 171.823 791.874 171.482 771.274V770.628C171.482 766.389 171.338 762.025 171.338 757.589C171.338 756.978 171.338 756.367 171.338 755.793L176.996 695.25L255.086 696.022L247.381 756.008V758.397L246.914 770.807V772.082C246.914 772.082 291.347 792.647 295.855 796.328C300.363 800.01 303.614 811.792 299.519 813.031Z" fill="#AD6359"/>
<path d="M286.067 358.949C286.067 358.949 284.415 393.073 276.62 420.013C275.991 422.24 275.309 424.449 274.573 426.55C274.573 426.55 275.668 425.688 263.258 433.285C263.258 433.285 268.053 568.847 268.251 576.965C268.951 607.228 246.95 772.28 246.95 772.28L162.897 772.621C162.897 772.621 192.926 585.496 192.819 574.379C192.657 556.544 182.043 479.065 185.329 421.629C186.74 399.798 192.549 378.477 202.409 358.949H286.067Z" fill="#455A64"/>
<path d="M207.887 364.031C197.255 384.47 193.285 407.728 192.423 430.483C191.489 455.25 194.453 479.945 197.057 504.532C199.805 530.377 202.176 556.275 200.2 582.263C198.224 608.251 193.555 634.581 189.783 660.623C186.012 686.665 182.06 712.707 178.828 738.82C178.415 742.125 178.001 745.43 177.624 748.734C177.624 748.914 177.858 748.986 177.876 748.734C182.491 722.998 186.281 697.117 190.214 671.273C194.147 645.429 198.548 619.782 201.206 593.883C203.864 567.985 202.75 542.284 200.146 516.458C197.65 491.583 194.363 466.727 194.273 441.69C194.273 418.342 196.554 394.581 204.798 372.634C205.893 369.725 207.079 366.815 208.39 363.941C208.48 363.618 208.102 363.6 207.887 364.031Z" fill="#263238"/>
<path d="M278.542 424.538C270.18 428.02 262.139 432.227 254.511 437.11C254.447 437.144 254.398 437.201 254.377 437.27C254.355 437.339 254.361 437.414 254.394 437.479C254.428 437.543 254.485 437.591 254.554 437.613C254.623 437.635 254.698 437.629 254.763 437.595C262.863 433.662 271.142 429.873 279.027 425.49C279.134 425.416 279.211 425.306 279.243 425.179C279.275 425.052 279.26 424.918 279.201 424.802C279.142 424.685 279.042 424.595 278.921 424.546C278.8 424.498 278.665 424.495 278.542 424.538Z" fill="#263238"/>
<path d="M279.008 395.623C278.452 398.604 277.733 401.568 277.087 404.603C276.44 407.638 276.027 410.224 275.291 412.99C274.686 415.654 273.334 418.09 271.393 420.012C270.298 421.018 269.095 421.934 267.927 422.85C267.299 423.353 266.616 423.838 265.969 424.341C265.969 423.946 266.113 423.551 266.185 423.137C266.401 422.006 266.58 420.875 266.778 419.743C267.191 417.229 267.604 414.714 267.981 412.182C268.735 407.225 269.436 402.214 270.477 397.311C270.477 397.113 270.208 397.042 270.172 397.311C268.933 402.178 267.568 406.973 266.49 411.895C265.969 414.301 264.084 426.263 263.994 427.017C263.904 427.771 263.832 428.813 263.814 429.621C263.689 430.503 263.689 431.398 263.814 432.279C263.814 432.495 264.12 432.459 264.209 432.279C264.571 431.453 264.825 430.584 264.964 429.693C265.179 428.849 265.377 427.987 265.52 427.125C265.52 426.819 265.628 426.496 265.664 426.173C266.832 425.472 267.927 424.52 269.023 423.73C270.118 422.94 271.393 422.042 272.507 421.108C274.566 419.364 276.055 417.043 276.781 414.445C277.499 411.648 277.968 408.793 278.182 405.914C278.559 402.537 278.829 399.143 279.296 395.784C279.35 395.497 279.044 395.407 279.008 395.623Z" fill="#263238"/>
<path d="M273.369 262.216C274.447 276.189 282.726 309.092 301.225 338.294C308.409 349.555 337.145 364.426 360.673 374.053C369.361 377.767 378.311 380.834 387.451 383.23C388.381 383.45 389.322 383.618 390.271 383.733C401.496 385.08 409.237 368.108 410.476 355.41C410.476 355.069 410.476 354.71 410.476 354.369V353.812C410.763 348.621 409.883 344.383 407.62 342.731C406.818 342.169 405.985 341.653 405.124 341.186C398.358 337.7 391.423 334.553 384.344 331.757C382.279 330.895 380.105 329.961 377.914 329.135C357.242 320.819 333.517 311.893 331.218 309.738C327.626 306.416 305.374 280.661 292.55 258.462C283.139 242.28 271.573 238.994 273.369 262.216Z" fill="#AD6359"/>
<path d="M360.673 374.053C369.361 377.767 378.311 380.834 387.451 383.23C398.812 386.088 410.456 387.666 422.168 387.936C429.352 387.936 450.006 385.799 450.437 380.285C450.868 374.771 444.779 374.897 444.779 374.897C444.779 374.897 453.364 372.688 453.292 367.102C453.292 362.523 446.881 362.002 444.582 361.948C444.529 361.92 444.471 361.905 444.411 361.905C444.352 361.905 444.293 361.92 444.241 361.948H443.756C443.756 361.948 452.412 359.038 451.945 353.471C451.532 348.496 443.935 349.609 442.337 349.879C443.666 349.466 449.862 347.203 447.725 343.233C444.941 337.845 430.609 343.826 422.581 343.395C422.204 343.395 420.21 343.144 417.354 342.802C411.464 338.33 404.136 334.182 400.885 333.409C395.384 332.468 389.817 331.957 384.236 331.883C382.171 331.021 379.998 330.087 377.807 329.261C373.37 334.146 360.062 350.992 360.673 374.053Z" fill="#AD6359"/>
<path d="M386.14 338.761L384.452 362.918V363.007V363.546L383.158 381.865C384.551 382.417 385.979 382.873 387.433 383.23C398.799 386.089 410.45 387.668 422.168 387.936C429.352 387.936 450.006 385.799 450.437 380.285C450.868 374.771 444.779 374.897 444.779 374.897C444.779 374.897 453.364 372.688 453.292 367.102C453.292 362.523 446.881 362.002 444.582 361.948H443.756C443.756 361.948 452.412 359.038 451.945 353.471C451.532 348.496 443.935 349.609 442.337 349.879H442.121H442.283C443.612 349.466 449.808 347.203 447.671 343.234C444.887 337.846 430.555 343.826 422.527 343.395C422.15 343.395 420.156 343.144 417.3 342.802L405.141 341.312L386.14 338.761Z" fill="#AD6359"/>
<path d="M414.876 352.537C418.183 353.515 421.565 354.218 424.987 354.638C431.055 355.259 437.145 353.706 442.175 350.256C442.462 350.094 442.498 349.897 442.409 349.789C442.344 349.758 442.273 349.743 442.202 349.743C442.131 349.743 442.06 349.758 441.996 349.789C436.964 352.107 431.497 353.331 425.957 353.381C422.284 353.282 418.625 352.873 415.02 352.16C414.678 352.16 414.571 352.483 414.876 352.537Z" fill="#263238"/>
<path d="M415.271 364.588C426.694 366.725 433.447 367.462 444.312 362.433C444.654 362.289 444.743 361.984 444.582 361.858C444.529 361.83 444.471 361.815 444.411 361.815C444.352 361.815 444.293 361.83 444.241 361.858C432.926 365.36 427.107 365.45 415.397 364.301C415.163 364.265 415.109 364.588 415.271 364.588Z" fill="#263238"/>
<path d="M443.827 375.041C432.584 377.663 426.209 378.076 414.966 375.454C414.914 375.448 414.862 375.461 414.819 375.49C414.776 375.519 414.745 375.563 414.732 375.613C414.719 375.664 414.724 375.717 414.748 375.764C414.771 375.81 414.81 375.847 414.858 375.867C426.047 379.656 434.021 379.207 443.863 375.4C444.546 375.13 444.528 374.879 443.827 375.041Z" fill="#263238"/>
<path d="M389.229 362.541C389.835 362.475 390.436 362.36 391.025 362.199L391.51 362.056C400.741 359.074 404.082 345.299 404.082 345.299C407.201 346.041 410.381 346.503 413.582 346.682C418.198 346.933 422.886 346.556 425.634 344.742C426.367 344.295 426.983 343.679 427.43 342.946C427.666 342.549 427.841 342.12 427.95 341.671C427.95 341.671 427.95 341.671 427.95 341.545C428.382 338.995 423.137 335.996 416.851 333.589C409.937 330.949 401.747 329.027 398.406 329.207C392.867 329.859 387.385 330.934 382.009 332.422C379.728 333.014 378.219 333.445 378.219 333.445C378.219 333.445 378.291 363.78 389.229 362.541Z" fill="#AD6359"/>
<path d="M426.873 343.341C420.767 348.55 411.428 345.694 404.298 344.581C403.759 344.491 403.507 344.886 403.525 345.317C401.442 351.926 396.575 360.655 389.588 362.828C389.546 362.828 389.504 362.845 389.474 362.875C389.444 362.906 389.427 362.947 389.427 362.99C389.427 363.032 389.444 363.074 389.474 363.104C389.504 363.134 389.546 363.151 389.588 363.151C397.401 361.84 402.879 353.65 404.693 346.269C411.985 347.544 421.467 349.987 426.855 343.395L426.873 343.341Z" fill="#263238"/>
<path d="M281.325 304.799L325.938 299.788C325.938 299.788 298.298 258.875 286.785 249.141C273.818 238.185 271.052 247.201 272.256 263.311C273.459 279.422 281.325 304.799 281.325 304.799Z" fill="#FFEEBE"/>
<path opacity="0.1" d="M281.325 304.799L325.938 299.788C325.938 299.788 298.298 258.875 286.785 249.141C273.818 238.185 271.052 247.201 272.256 263.311C273.459 279.422 281.325 304.799 281.325 304.799Z" fill="black"/>
<path d="M317.371 291.832C311.606 291.832 294.293 294.095 291.419 294.454C289.91 294.634 283.912 295.64 282.439 295.819C282.26 295.819 282.313 296.124 282.439 296.106C285.313 295.783 288.24 295.747 291.132 295.442C294.023 295.137 311.714 293.412 317.371 292.065C317.395 292.056 317.415 292.04 317.429 292.019C317.443 291.998 317.45 291.974 317.45 291.949C317.45 291.924 317.443 291.899 317.429 291.878C317.415 291.857 317.395 291.841 317.371 291.832Z" fill="#263238"/>
<path d="M305.32 302.105L281.415 304.781C281.415 304.781 273.567 279.404 272.435 263.294C271.555 251.602 272.777 243.627 278.506 244.382L305.32 302.105Z" fill="#263238"/>
<path d="M187.952 391.869C188.203 392.21 303.704 404.028 304.943 402.879C306.739 401.262 295.676 266.024 284.72 248.423C282.385 244.651 263.653 239.443 255.337 245.298C228.631 264.012 187.054 390.612 187.952 391.869Z" fill="#FFEEBE"/>
<path opacity="0.1" d="M274.747 289.681L252.817 287.512L252.465 291.069L274.395 293.238L274.747 289.681Z" fill="black"/>
<path d="M352.177 310.87C351.585 311.696 337.809 337.379 337.235 340.288C336.66 343.198 317.479 413.762 318.574 415.864C319.67 417.965 349.771 429.837 351.1 429.837C352.429 429.837 412.164 416.528 415.379 414.283C418.593 412.038 419.761 357.009 418.558 351.423C417.354 345.838 413.744 335.6 413.744 335.6L415.971 332.511C415.971 332.511 409.829 306.577 408.662 307.475C407.494 308.373 353.471 309.056 352.177 310.87Z" fill="#FFEEBE"/>
<path opacity="0.1" d="M351.082 429.855C349.771 429.855 319.706 417.965 318.574 415.864C317.443 413.762 336.75 343.216 337.235 340.306C337.72 337.396 351.603 311.714 352.177 310.87C354.746 316.258 356.847 339.965 357.17 343.036C357.494 346.107 351.674 423.515 351.082 429.855Z" fill="black"/>
<path opacity="0.1" d="M413.744 335.547C409.183 336.265 404.585 336.696 399.987 337.145C395.389 337.594 390.774 337.971 386.176 338.277C381.578 338.582 376.962 338.869 372.347 339.103C367.731 339.336 363.115 339.462 358.499 339.624C358.259 339.578 358.032 339.477 357.839 339.327C357.645 339.177 357.49 338.983 357.386 338.761C357.201 338.433 357.057 338.083 356.955 337.72C356.735 337.039 356.566 336.343 356.452 335.636C356.198 334.254 356.042 332.856 355.985 331.452C356.255 332.835 356.542 334.2 356.919 335.529C357.092 336.197 357.314 336.851 357.584 337.486C357.817 338.061 358.302 338.744 358.517 338.726C363.115 338.33 367.713 337.846 372.311 337.504C376.909 337.163 381.524 336.84 386.14 336.588C390.756 336.337 395.353 336.085 399.969 335.942C404.585 335.798 409.129 335.654 413.744 335.547Z" fill="black"/>
<path d="M398.928 345.928L390.361 346.017L384.811 329.063L393.378 328.991L398.928 345.928Z" fill="white"/>
<g opacity="0.1">
<path d="M351.333 316.868C350.274 324.627 349.035 332.35 347.741 340.055C346.448 347.759 345.065 355.464 343.718 363.169C342.371 370.874 340.845 378.525 339.3 386.194L336.965 397.688C336.103 401.514 335.331 405.339 334.433 409.147C334.936 405.267 335.565 401.406 336.121 397.545L337.917 385.96C339.192 378.238 340.611 370.551 341.94 362.846C343.269 355.141 344.814 347.49 346.359 339.821C347.903 332.152 349.573 324.483 351.333 316.868Z" fill="black"/>
<path d="M321.089 414.678C325.327 412.344 329.71 410.296 334.128 408.374L334.667 408.141L335.08 408.608C337.486 411.338 339.857 414.104 342.156 416.959C344.455 419.815 346.646 422.725 348.711 425.742C346.017 423.245 343.467 420.623 341.007 417.947C338.546 415.271 336.157 412.559 333.823 409.686L334.774 409.919C330.284 411.697 325.741 413.331 321.089 414.678Z" fill="black"/>
</g>
<path d="M244.364 259.127C233.588 288.204 213.383 360.924 228.2 370.209C252.697 385.458 302.554 390.091 317.622 389.965C324.124 389.965 331.793 340.001 325.076 338.187C317.012 336.014 265.251 334.415 264.227 330.284C263.653 327.932 265.377 304.242 262.431 278.093C259.055 247.722 248.045 249.177 244.364 259.127Z" fill="#AD6359"/>
<path d="M302.949 341.905C302.949 341.905 319.419 330.949 330.536 324.286C336.732 320.568 347.921 315.144 353.722 314.498C362.397 313.546 399.305 315.036 399.125 323.998C398.981 332.098 367.426 326.782 367.426 326.782C367.426 326.782 399.754 329.333 397.76 339.067C395.767 348.801 360.924 338.043 360.924 338.043C360.924 338.043 394.06 341.402 390.432 351.118C387.685 358.446 355.59 350.507 355.59 350.507C355.59 350.507 384.039 353.597 381.542 361.283C378.794 369.761 348.693 364.283 348.693 364.283C339.067 382.692 327.393 388.618 317.928 389.948C315.683 390.217 302.949 341.905 302.949 341.905Z" fill="#AD6359"/>
<path d="M356.308 325.184C360.116 325.345 363.977 325.489 367.749 325.992C371.521 326.495 375.292 327.123 379.01 327.968C383.887 328.976 388.631 330.549 393.144 332.655C384.847 329.512 371.359 327.519 367.587 327.016C363.816 326.513 360.062 325.83 356.29 325.327C356.201 325.327 356.219 325.184 356.308 325.184Z" fill="#263238"/>
<path d="M354.261 338.797C359.11 339.211 363.942 339.444 368.773 340.091C373.604 340.737 378.094 341.725 382.854 342.695C383.213 342.695 383.051 342.928 382.692 342.874C377.897 342.102 373.407 341.761 368.611 341.078C363.816 340.396 359.039 339.462 354.243 338.923C354.171 338.905 354.189 338.797 354.261 338.797Z" fill="#263238"/>
<path d="M350.399 350.22C357.85 350.651 365.235 351.855 372.436 353.812C372.795 353.902 372.58 354.099 372.203 354.027C364.893 352.663 359.182 351.549 350.399 350.435C350.22 350.4 350.22 350.22 350.399 350.22Z" fill="#263238"/>
<path d="M345.766 316.473C338.582 318.125 313.779 333.679 311.049 336.103C309.074 335.888 300.561 335.385 299.609 335.529C299.573 335.541 299.541 335.563 299.519 335.594C299.497 335.625 299.485 335.661 299.485 335.699C299.485 335.737 299.497 335.774 299.519 335.805C299.541 335.835 299.573 335.858 299.609 335.87C300.507 336.211 308.966 337.432 310.959 337.666C311.301 337.666 340.001 319.706 346.215 316.743C346.43 316.581 346.017 316.419 345.766 316.473Z" fill="#263238"/>
<path d="M267.371 308.355L223.692 318.718C223.692 318.718 235.887 270.873 243.448 257.816C251.961 243.125 257.618 250.632 261.911 266.239C266.203 281.846 267.371 308.355 267.371 308.355Z" fill="#FFEEBE"/>
<path opacity="0.1" d="M267.371 308.355L223.692 318.718C223.692 318.718 235.887 270.873 243.448 257.816C251.961 243.125 257.618 250.632 261.911 266.239C266.203 281.846 267.371 308.355 267.371 308.355Z" fill="black"/>
<path d="M264.012 300.812C258.283 301.387 241.293 305.518 238.491 306.2C237 306.541 231.145 308.176 229.672 308.517C229.475 308.517 229.672 308.84 229.762 308.804C232.6 308.158 235.491 307.816 238.329 307.206C241.167 306.595 258.624 302.985 264.012 301.045C264.035 301.036 264.055 301.02 264.069 300.999C264.084 300.978 264.091 300.954 264.091 300.929C264.091 300.904 264.084 300.879 264.069 300.858C264.055 300.837 264.035 300.821 264.012 300.812Z" fill="#263238"/>
<path d="M236.174 276.279C236.174 276.081 235.923 276.027 235.869 276.279C234.378 280.194 232.977 284.163 231.648 288.15C231.848 285.958 232.245 283.788 232.834 281.667C232.834 281.667 232.726 281.541 232.69 281.667C231.92 284.095 231.461 286.612 231.325 289.156C230.409 291.922 229.529 294.724 228.667 297.507C226.476 304.691 224.195 311.732 222.417 318.97C222.398 319.057 222.403 319.148 222.429 319.233C222.456 319.318 222.504 319.395 222.569 319.456C222.634 319.518 222.713 319.561 222.8 319.583C222.887 319.605 222.977 319.604 223.063 319.58C224.572 319.167 226.045 318.718 227.535 318.197C227.679 318.197 227.661 317.892 227.535 317.91C226.242 318.054 224.985 318.251 223.71 318.467C226.009 311.66 227.949 304.727 230.05 297.849C232.151 290.97 234.288 283.481 236.174 276.279Z" fill="#263238"/>
<path d="M266.562 289.156C266.562 286.785 266.652 284.415 266.562 281.972C266.562 281.972 266.562 281.972 266.473 281.972C266.389 283.708 266.317 285.45 266.257 287.198C265.808 283.75 265.305 280.302 264.641 276.907C264.874 282.17 265.413 287.414 265.79 292.658C266.167 297.903 266.598 302.949 267.065 308.104C266.095 308.499 265.143 308.858 264.156 309.217C264.118 309.229 264.086 309.256 264.067 309.291C264.049 309.327 264.045 309.368 264.057 309.406C264.069 309.444 264.095 309.476 264.131 309.494C264.166 309.513 264.207 309.517 264.246 309.505C265.359 309.307 266.473 309.092 267.604 308.93C267.733 308.921 267.854 308.865 267.943 308.772C268.033 308.679 268.085 308.556 268.089 308.427C267.82 302.015 267.335 295.532 266.562 289.156Z" fill="#263238"/>
<path d="M275.956 264.012C271.861 264.228 260.725 255.661 257.026 247.237C256.774 246.645 260.995 224.787 261.372 220.297C261.372 219.399 288.492 229.457 288.492 229.457C286.435 234.841 285.042 240.456 284.343 246.178C284.282 246.775 284.282 247.377 284.343 247.974C284.352 248.075 284.352 248.177 284.343 248.279C284.648 251.799 281.972 263.635 275.956 264.012Z" fill="#AD6359"/>
<path d="M263.15 220.585C263.599 227.374 266.239 246.519 281.523 248.207C282.471 248.315 283.426 248.345 284.379 248.297C284.388 248.195 284.388 248.093 284.379 247.992C284.335 247.394 284.335 246.794 284.379 246.196C285.079 240.469 286.472 234.848 288.527 229.457C288.527 229.457 269.184 222.255 263.15 220.585Z" fill="#263238"/>
<path d="M264.317 182.959C259.27 191.939 258.301 220.908 263.814 228.613C271.789 239.766 287.863 244.166 298.118 233.893C308.05 223.925 308.642 186.173 302.213 178.864C292.748 168.106 271.753 169.668 264.317 182.959Z" fill="#AD6359"/>
<path d="M287.36 205.642C287.36 205.642 287.216 205.642 287.216 205.822C287.216 207.761 286.857 210.006 285.061 210.581V210.689C287.18 210.473 287.611 207.492 287.36 205.642Z" fill="#263238"/>
<path d="M285.654 203.541C282.528 203.181 282.062 209.467 284.935 209.791C287.809 210.114 288.276 203.846 285.654 203.541Z" fill="#263238"/>
<path d="M298.549 206.845C298.549 206.845 298.693 206.845 298.675 207.025C298.477 208.965 298.549 211.228 300.255 212C300.255 212 300.255 212.126 300.255 212.108C298.136 211.641 298.028 208.641 298.549 206.845Z" fill="#263238"/>
<path d="M300.435 204.942C303.578 204.942 303.344 211.245 300.435 211.228C297.525 211.21 297.795 204.942 300.435 204.942Z" fill="#263238"/>
<path d="M283.391 200.487C284.235 200.306 285.068 200.078 285.887 199.805C286.803 199.699 287.657 199.288 288.312 198.638C288.477 198.396 288.558 198.106 288.541 197.814C288.525 197.522 288.413 197.243 288.222 197.021C287.775 196.641 287.236 196.386 286.659 196.282C286.081 196.178 285.487 196.228 284.935 196.428C283.759 196.638 282.703 197.279 281.972 198.224C281.802 198.457 281.705 198.734 281.695 199.022C281.684 199.31 281.76 199.594 281.913 199.838C282.066 200.082 282.289 200.274 282.552 200.39C282.816 200.506 283.108 200.54 283.391 200.487Z" fill="#263238"/>
<path d="M303.111 201.96C302.282 201.731 301.466 201.455 300.668 201.134C299.764 200.952 298.944 200.479 298.334 199.787C298.187 199.536 298.127 199.243 298.163 198.954C298.198 198.666 298.328 198.397 298.531 198.189C299.004 197.834 299.563 197.613 300.15 197.546C300.737 197.48 301.332 197.572 301.872 197.811C303.03 198.139 304.027 198.88 304.673 199.895C304.805 200.135 304.865 200.408 304.845 200.681C304.825 200.954 304.726 201.215 304.561 201.434C304.396 201.652 304.171 201.818 303.914 201.911C303.657 202.005 303.378 202.022 303.111 201.96Z" fill="#263238"/>
<path d="M284.109 223.566C284.54 224.051 284.953 224.716 285.654 224.823C286.381 224.869 287.11 224.759 287.791 224.5C287.791 224.5 287.917 224.5 287.791 224.608C287.484 224.969 287.084 225.239 286.635 225.391C286.186 225.543 285.704 225.57 285.241 225.47C284.859 225.337 284.524 225.097 284.276 224.778C284.027 224.46 283.876 224.076 283.84 223.674C283.894 223.512 284.055 223.494 284.109 223.566Z" fill="#263238"/>
<path d="M286.606 217.891C287.038 218.698 287.633 219.407 288.354 219.972C289.074 220.538 289.904 220.948 290.79 221.177C291.569 221.386 292.373 221.489 293.179 221.483H293.628H294.059C294.166 221.469 294.265 221.421 294.343 221.347C294.42 221.273 294.472 221.175 294.49 221.07V220.854V220.674C294.652 219.184 294.688 216.903 294.688 216.903C295.209 217.208 297.903 218.699 297.92 217.891C298.27 211.126 297.927 204.344 296.897 197.65C296.897 197.434 296.538 197.47 296.538 197.65C296.178 203.9 296.933 210.222 296.663 216.454C295.703 215.924 294.676 215.525 293.61 215.268C293.395 215.268 293.61 219.687 293.502 220.351C292.267 220.381 291.039 220.16 289.891 219.704C288.743 219.247 287.699 218.563 286.821 217.693C286.66 217.603 286.498 217.729 286.606 217.891Z" fill="#263238"/>
<path d="M292.353 220.657C291.445 221.661 290.295 222.416 289.012 222.848C288.311 223.068 287.558 223.068 286.857 222.848C285.33 222.327 285.402 220.89 285.779 219.687C285.995 219.059 286.278 218.457 286.623 217.891C288.192 219.396 290.198 220.364 292.353 220.657Z" fill="#263238"/>
<path d="M289.012 222.848C288.311 223.068 287.558 223.068 286.857 222.848C285.33 222.327 285.402 220.89 285.779 219.687C286.599 219.763 287.367 220.119 287.955 220.695C288.544 221.27 288.917 222.03 289.012 222.848Z" fill="#FF9ABB"/>
<path d="M260.761 209.36C266.149 208.695 271.322 192.01 271.322 192.01C271.322 192.01 270.154 199.194 271.537 199.194C272.92 199.194 280.015 190.214 281.757 183.282C285.352 186.557 289.362 189.346 293.682 191.579C299.842 194.525 306.362 195.01 306.254 193.896C306.254 190.466 305.643 181.935 303.47 179.331C300.523 176.029 296.742 173.582 292.523 172.245C288.305 170.909 283.804 170.732 279.494 171.734C268.323 174.14 264.515 180.48 262.126 185.491C259.738 190.502 258.804 209.593 260.761 209.36Z" fill="#263238"/>
<path d="M306.416 186.371C303.793 185.311 288.563 183.497 281.272 185.419C273.98 187.341 260.456 195.333 259.72 195.746C258.983 196.159 259.72 170.71 280.589 169.165C303.524 167.495 306.416 186.371 306.416 186.371Z" fill="#FFEEBE"/>
<path d="M261.12 194.902C261.12 194.902 277.159 179.223 285.205 176.295C293.251 173.368 310.349 173.565 319.903 179.654C327.429 184.395 306.254 191.813 306.254 191.813C306.194 190.938 305.932 190.089 305.49 189.332C305.047 188.575 304.436 187.93 303.704 187.448C298.962 184.719 289.21 184.826 283.499 185.85C276.315 187.125 261.12 194.902 261.12 194.902Z" fill="#FFEEBE"/>
<path opacity="0.2" d="M261.12 194.902C261.12 194.902 277.159 179.223 285.205 176.295C293.251 173.368 310.349 173.565 319.903 179.654C327.429 184.395 306.254 191.813 306.254 191.813C306.194 190.938 305.932 190.089 305.49 189.332C305.047 188.575 304.436 187.93 303.704 187.448C298.962 184.719 289.21 184.826 283.499 185.85C276.315 187.125 261.12 194.902 261.12 194.902Z" fill="black"/>
<path d="M282.08 217.047C280.489 216.667 279.038 215.849 277.889 214.686C276.74 213.523 275.94 212.061 275.58 210.467C275.219 208.872 275.313 207.208 275.85 205.664C276.388 204.12 277.347 202.758 278.619 201.732C279.892 200.705 281.427 200.056 283.049 199.857C284.672 199.659 286.318 199.919 287.8 200.609C289.282 201.298 290.542 202.389 291.435 203.758C292.329 205.127 292.821 206.72 292.856 208.354C292.887 209.509 292.689 210.658 292.273 211.736C291.857 212.813 291.233 213.798 290.434 214.633C289.636 215.468 288.681 216.136 287.623 216.6C286.565 217.064 285.426 217.313 284.271 217.334C283.531 217.334 282.794 217.237 282.08 217.047ZM285.797 201.134C285.209 200.994 284.606 200.928 284.001 200.936C282.07 200.956 280.218 201.712 278.825 203.05C277.432 204.389 276.603 206.208 276.507 208.138C276.411 210.067 277.055 211.96 278.308 213.431C279.561 214.901 281.328 215.838 283.248 216.049C285.168 216.26 287.096 215.73 288.639 214.567C290.181 213.404 291.222 211.696 291.547 209.792C291.873 207.888 291.459 205.932 290.39 204.322C289.321 202.713 287.679 201.573 285.797 201.134Z" fill="#FFEEBE"/>
<path d="M302.051 219.202C298.8 218.447 296.663 214.406 297.13 209.88C297.331 207.699 298.218 205.637 299.662 203.99C300.225 203.226 300.978 202.625 301.847 202.246C302.716 201.867 303.67 201.724 304.612 201.831C305.554 201.939 306.451 202.293 307.212 202.858C307.973 203.423 308.572 204.179 308.948 205.049C309.969 206.976 310.37 209.172 310.097 211.335C309.54 216.131 306.2 219.705 302.626 219.309C302.431 219.291 302.239 219.255 302.051 219.202ZM304.907 203.145C304.758 203.127 304.607 203.127 304.458 203.145C303.706 203.103 302.954 203.244 302.269 203.557C301.583 203.87 300.985 204.345 300.525 204.941C299.259 206.411 298.481 208.237 298.297 210.168C297.831 214.317 299.806 217.98 302.752 218.304C305.697 218.627 308.445 215.52 308.93 211.371C309.187 209.45 308.835 207.496 307.924 205.786C307.641 205.154 307.225 204.591 306.705 204.135C306.184 203.679 305.57 203.342 304.907 203.145Z" fill="#FFEEBE"/>
<path d="M292.425 209.324L291.778 208.354C293.215 207.384 296.448 206.253 298.298 208.767L297.364 209.467C295.693 207.204 292.55 209.234 292.425 209.324Z" fill="#FFEEBE"/>
<path d="M253.38 207.169L252.41 206.522C252.715 206.073 255.463 202.086 258.103 201.96C260.743 201.834 276.063 205.067 276.656 205.211L276.422 206.36C272.004 205.426 260.079 203.038 258.157 203.128C256.235 203.217 254.116 206.073 253.38 207.169Z" fill="#FFEEBE"/>
<path d="M265.323 206.953C265.323 206.953 260.779 196.662 256.235 198.117C251.692 199.572 253.865 213.598 258.337 216.346C258.885 216.736 259.507 217.011 260.164 217.154C260.821 217.297 261.501 217.306 262.162 217.181C262.823 217.055 263.452 216.797 264.01 216.422C264.569 216.047 265.046 215.563 265.413 214.999L265.323 206.953Z" fill="#AD6359"/>
<path d="M256.972 202.122V202.248C260.079 204.277 261.228 207.761 261.839 211.228C261.707 210.853 261.496 210.511 261.22 210.226C260.944 209.94 260.609 209.718 260.24 209.573C259.87 209.428 259.473 209.364 259.077 209.386C258.68 209.409 258.293 209.516 257.942 209.701C257.834 209.701 257.942 209.899 257.942 209.899C258.583 209.832 259.229 209.969 259.787 210.292C260.345 210.614 260.787 211.105 261.049 211.695C261.508 212.647 261.863 213.647 262.108 214.676C262.216 215.017 262.791 214.963 262.737 214.676C263.671 210.132 261.498 203.469 256.972 202.122Z" fill="#263238"/>
<path d="M733.109 688.748C788.947 688.748 821.275 727.524 821.275 773.16C821.275 818.796 791.317 856.692 736.863 856.692C676.607 856.692 647.835 808.775 647.835 772.747C647.835 736.719 676.607 688.748 733.109 688.748Z" fill="#37474F"/>
<path d="M724.524 688.748C777.596 688.748 808.344 727.524 808.344 773.16C808.344 818.796 779.859 856.692 728.098 856.692C670.824 856.692 643.471 808.775 643.471 772.747C643.471 736.719 670.824 688.748 724.524 688.748Z" fill="#263238"/>
<path d="M328.542 826.16C397.401 826.16 420.336 789.971 420.336 746.382C420.336 702.793 388.331 665.705 325.794 665.705C366.617 665.705 390.253 702.757 390.253 746.382C390.253 790.006 368.341 826.16 328.542 826.16Z" fill="#37474F"/>
<path d="M325.794 665.759C366.617 665.759 390.253 702.829 390.253 746.418C390.253 790.007 368.359 826.16 328.542 826.16C284.486 826.16 263.455 780.362 263.455 745.933C263.455 711.503 284.486 665.759 325.794 665.759Z" fill="#263238"/>
<path d="M293.556 745.986C293.556 779.266 285.097 823.215 324.322 826.07H325.705H326.872H328.543C368.342 826.07 390.253 789.881 390.253 746.292C390.253 702.703 366.618 665.615 325.795 665.615H323.604H322.598C321.969 665.615 321.323 665.705 320.694 665.759C285.277 669.71 293.556 713.012 293.556 745.986Z" fill="#263238"/>
<path d="M322.885 697.099C345.568 697.099 358.715 719.693 358.715 746.256C358.715 772.819 346.538 794.874 324.412 794.874C299.914 794.874 288.222 766.964 288.222 745.986C288.222 725.009 299.932 697.099 322.885 697.099Z" fill="#C7C7C7"/>
<path d="M642.788 498.103H620.823L605.773 476.012H631.51L642.788 498.103Z" fill="#FFEEBE"/>
<path d="M605.773 476.012L614.591 488.943L620.823 498.103H642.788L636.844 486.465L631.492 476.012H605.773Z" fill="#FFEEBE"/>
<path opacity="0.1" d="M605.773 476.012L614.591 488.943L636.844 486.465L631.492 476.012H605.773Z" fill="black"/>
<path d="M696.165 662.958L674.775 667.879L655.163 649.703L680.235 643.956L696.165 662.958Z" fill="#FFEEBE"/>
<path d="M655.163 649.703L666.639 660.335L674.757 667.879L696.183 662.958L687.778 652.954L680.235 643.956L655.163 649.703Z" fill="#FFEEBE"/>
<path opacity="0.1" d="M655.163 649.703L666.639 660.335L687.778 652.954L680.235 643.956L655.163 649.703Z" fill="black"/>
<path d="M379.602 728.17L385.745 741.766C385.745 741.766 551.821 754.464 567.59 752.111C580.782 736.573 591.897 719.385 600.654 700.979H525.527C514.342 701.1 503.28 698.642 493.199 693.795L483.501 692.178L466.026 700.907L446.934 728.098L393.863 727.128L379.602 728.17Z" fill="#455A64"/>
<path d="M465.99 700.979C465.99 700.979 508.519 727.129 591.423 718.256C594.494 713.012 597.619 707.247 600.654 700.979H525.527C514.342 701.1 503.28 698.642 493.199 693.795L483.501 692.178L465.99 700.979Z" fill="#37474F"/>
<path d="M816.426 699.524L795.628 710.444C795.628 710.444 735.444 699.524 696.848 707.786C658.252 716.047 647.835 736.665 647.835 736.665H628.348C628.348 736.665 645.087 677.2 673.5 655.54C701.913 633.88 747.531 638.801 772.765 652.397C797.999 665.993 816.426 699.524 816.426 699.524Z" fill="#FFEEBE"/>
<path opacity="0.1" d="M793.455 706.331C789.434 702.123 785.073 698.255 780.416 694.765C775.801 691.181 770.927 687.946 765.832 685.084C755.946 679.607 745.11 676.054 733.9 674.614C711.952 671.92 689 678.313 672.836 695.178C663.748 704.733 657.282 716.442 651.14 728.296C651.14 728.476 651.302 728.619 651.391 728.44C656.595 718.033 663.167 708.369 670.932 699.704C678.414 691.534 687.726 685.256 698.105 681.385C718.813 673.787 741.299 676.697 761.127 685.875C766.814 688.468 772.306 691.469 777.56 694.855C782.948 698.447 788.049 702.452 793.096 706.529C793.129 706.56 793.171 706.58 793.216 706.585C793.261 706.591 793.307 706.582 793.347 706.56C793.387 706.538 793.419 706.504 793.438 706.463C793.458 706.422 793.464 706.376 793.455 706.331Z" fill="black"/>
<path d="M506.274 586.43V579.084L318.431 585.137V601.66C318.431 601.66 264.012 661.736 258.624 724.183L446.989 728.17L466.08 700.979L483.555 692.25L493.253 693.867V689.664L485.818 680.918L485.495 655.019C482.659 651.059 480.641 646.574 479.559 641.825C478.476 637.076 478.351 632.159 479.191 627.361C481.202 613.532 506.274 586.43 506.274 586.43Z" fill="#FFEEBE"/>
<path d="M429.352 719.424C427.394 723.016 398.82 728.17 344.652 729.625C295.891 730.936 259.468 729.858 256.559 726.715C253.649 723.572 260.923 667.986 293.933 637.885C326.944 607.784 373.766 603.456 404.585 621.416C431.687 637.167 451.91 677.2 429.352 719.424Z" fill="#FFEEBE"/>
<path opacity="0.1" d="M438.547 666.801C435.651 653.638 428.972 641.609 419.33 632.192C409.66 622.505 397.584 615.568 384.344 612.095C369.583 608.41 354.123 608.577 339.444 612.58C332.098 614.506 324.994 617.26 318.269 620.787C311.171 624.607 304.48 629.139 298.298 634.311C296.645 635.676 294.975 637.041 293.341 638.442C293.197 638.55 293.341 638.747 293.556 638.64C299.773 633.173 306.504 628.319 313.654 624.146C320.178 620.42 327.1 617.438 334.29 615.256C348.544 610.798 363.681 609.946 378.345 612.777C391.599 615.441 403.882 621.648 413.888 630.737C423.53 639.418 430.621 650.564 434.399 662.976C438.889 678.098 437.416 694.747 432.944 709.672C432.351 711.683 431.723 713.659 431.04 715.634C431.04 715.85 431.292 715.922 431.363 715.724C437.416 700.225 441.924 683.522 438.547 666.801Z" fill="black"/>
<path opacity="0.1" d="M465.99 700.979L483.465 692.25L493.164 693.867V689.664L485.728 680.935L485.405 655.055C482.565 651.097 480.544 646.612 479.462 641.862C478.379 637.112 478.257 632.194 479.101 627.397C481.202 613.549 506.275 586.448 506.275 586.448H499.001C499.001 586.448 459.489 606.832 450.509 623.661C441.529 640.49 438.817 679.948 465.99 700.979Z" fill="black"/>
<path d="M565.093 486.213C564.77 486.95 521.397 494.942 521.397 494.942C521.397 494.942 514.213 490.092 518.649 483.95L562.148 474.557C563.824 475.927 565.015 477.8 565.545 479.899C566.076 481.998 565.917 484.211 565.093 486.213Z" fill="#263238"/>
<path d="M656.132 430.142V481.597C656.132 481.597 628.348 479.173 620.949 478.921C613.549 478.67 580.665 482.926 580.665 482.926L578.114 471.396C578.114 471.396 603.456 462.542 614.232 455.627C625.008 448.713 637.418 435.494 644.081 432.567C647.858 430.84 651.982 430.011 656.132 430.142Z" fill="#FFEEBE"/>
<path d="M580.773 469.941C582.425 471.64 583.67 473.691 584.417 475.94C585.163 478.188 585.391 480.577 585.083 482.927C585.083 482.927 564.375 486.716 564.124 486.716C564.289 484.269 563.685 481.832 562.397 479.746C561.109 477.659 559.201 476.027 556.94 475.078L580.773 469.941Z" fill="#DBDBDB"/>
<path d="M656.402 481.597C663.921 481.597 670.016 470.083 670.016 455.879C670.016 441.675 663.921 430.16 656.402 430.16C648.883 430.16 642.788 441.675 642.788 455.879C642.788 470.083 648.883 481.597 656.402 481.597Z" fill="#DBDBDB"/>
<path d="M645.59 455.879C645.59 468.451 650.816 478.814 657.246 478.814C663.676 478.814 668.902 468.54 668.902 455.879C668.902 443.217 663.676 432.926 657.246 432.926C650.816 432.926 645.59 443.199 645.59 455.879Z" fill="white"/>
<path d="M506.274 579.084C506.274 579.084 506.616 547.708 505.394 546.487C504.173 545.266 317.227 545.912 311.642 546.487C306.056 547.062 306.541 583.61 307.026 585.316C307.511 587.023 501.425 579.497 506.274 579.084Z" fill="#37474F"/>
<path d="M522.869 546.81C522.313 546.325 498.605 546.217 497.312 546.217C496.019 546.217 496.486 579.659 497.312 579.605C498.138 579.551 523.031 579.408 523.839 578.671C524.647 577.935 524.091 547.87 522.869 546.81Z" fill="#455A64"/>
<path d="M391.887 545.014C391.26 545.521 390.834 546.234 390.684 547.026C390.497 547.806 390.365 548.598 390.289 549.396C390.091 550.995 390.037 552.611 389.966 554.228C389.966 557.46 389.966 560.711 389.966 563.962C389.966 567.213 389.966 570.463 390.163 573.696C390.221 575.295 390.408 576.887 390.72 578.456C390.857 579.232 391.111 579.983 391.474 580.683C391.642 581.039 391.893 581.351 392.205 581.592C392.517 581.832 392.883 581.995 393.27 582.066C392.841 582.081 392.414 581.987 392.031 581.793C391.647 581.598 391.32 581.309 391.079 580.952C390.564 580.271 390.158 579.514 389.876 578.707C389.332 577.128 388.953 575.497 388.744 573.84C388.332 570.564 388.134 567.264 388.152 563.962C388.117 560.675 388.278 557.388 388.637 554.12C388.807 552.467 389.095 550.829 389.499 549.217C389.712 548.406 389.988 547.614 390.325 546.846C390.587 546.055 391.148 545.398 391.887 545.014Z" fill="#455A64"/>
<path d="M295.657 546.164H475.239V434.524H295.657V546.164Z" fill="#37474F"/>
<path d="M295.657 546.164H425.4V434.524H295.657V546.164Z" fill="#263238"/>
<path d="M519.026 348.927H463.098L419.312 434.524H475.239L519.026 348.927Z" fill="#37474F"/>
<path d="M469.151 348.927H463.098L419.312 434.524H425.365L469.151 348.927Z" fill="#263238"/>
<path d="M321.232 434.506H310.115V546.2H321.232V434.506Z" fill="#FFEEBE"/>
<path d="M402.932 434.506H391.815V546.2H402.932V434.506Z" fill="#FFEEBE"/>
<path d="M326.477 470.804V458.106C326.477 457.791 326.602 457.49 326.824 457.268C327.047 457.045 327.348 456.92 327.662 456.92H334.703C334.994 456.956 335.263 457.097 335.457 457.317C335.652 457.537 335.759 457.821 335.759 458.115C335.759 458.408 335.652 458.692 335.457 458.912C335.263 459.132 334.994 459.273 334.703 459.309H328.866V463.242H333.877C334.188 463.251 334.484 463.379 334.705 463.6C334.925 463.82 335.053 464.116 335.062 464.428C335.064 464.586 335.036 464.743 334.977 464.89C334.919 465.036 334.832 465.17 334.722 465.284C334.612 465.397 334.481 465.488 334.336 465.551C334.191 465.613 334.035 465.647 333.877 465.649H328.866V470.804C328.861 471.12 328.732 471.421 328.507 471.643C328.282 471.865 327.978 471.989 327.662 471.989C327.507 471.989 327.353 471.958 327.209 471.899C327.065 471.839 326.934 471.752 326.824 471.642C326.714 471.532 326.627 471.401 326.567 471.257C326.508 471.113 326.477 470.959 326.477 470.804Z" fill="white"/>
<path d="M350.974 458.788C352.37 460.26 353.149 462.211 353.149 464.239C353.149 466.267 352.37 468.218 350.974 469.69C350.32 470.408 349.525 470.983 348.638 471.379C347.751 471.774 346.791 471.982 345.82 471.989C344.83 471.984 343.851 471.778 342.943 471.383C342.035 470.988 341.218 470.412 340.54 469.69C339.175 468.203 338.418 466.258 338.418 464.239C338.418 462.221 339.175 460.276 340.54 458.788C341.214 458.062 342.031 457.482 342.939 457.087C343.848 456.691 344.829 456.488 345.82 456.489C346.792 456.493 347.752 456.699 348.64 457.095C349.527 457.491 350.322 458.068 350.974 458.788ZM350.687 464.176C350.69 462.782 350.171 461.436 349.232 460.405C348.796 459.923 348.264 459.538 347.67 459.275C347.076 459.011 346.434 458.875 345.784 458.875C345.134 458.875 344.492 459.011 343.898 459.275C343.304 459.538 342.772 459.923 342.336 460.405C341.384 461.43 340.858 462.778 340.863 464.176C340.854 465.565 341.382 466.903 342.336 467.912C342.766 468.404 343.296 468.798 343.89 469.068C344.485 469.338 345.131 469.478 345.784 469.478C346.437 469.478 347.083 469.338 347.678 469.068C348.272 468.798 348.802 468.404 349.232 467.912C350.163 466.918 350.682 465.609 350.687 464.248V464.176Z" fill="white"/>
<path d="M369.078 458.788C370.474 460.26 371.252 462.211 371.252 464.239C371.252 466.267 370.474 468.218 369.078 469.69C368.424 470.408 367.628 470.983 366.741 471.379C365.854 471.774 364.894 471.982 363.923 471.989C362.933 471.984 361.954 471.778 361.047 471.383C360.139 470.988 359.321 470.412 358.643 469.69C357.279 468.203 356.522 466.258 356.522 464.239C356.522 462.221 357.279 460.276 358.643 458.788C359.317 458.062 360.134 457.482 361.043 457.087C361.951 456.691 362.932 456.488 363.923 456.489C364.895 456.493 365.855 456.699 366.743 457.095C367.63 457.491 368.426 458.068 369.078 458.788ZM368.79 464.176C368.793 462.782 368.274 461.436 367.336 460.405C366.9 459.923 366.367 459.538 365.773 459.275C365.18 459.011 364.537 458.875 363.887 458.875C363.238 458.875 362.595 459.011 362.001 459.275C361.407 459.538 360.875 459.923 360.439 460.405C359.488 461.43 358.961 462.778 358.966 464.176C358.957 465.565 359.485 466.903 360.439 467.912C360.869 468.404 361.399 468.798 361.994 469.068C362.588 469.338 363.234 469.478 363.887 469.478C364.54 469.478 365.186 469.338 365.781 469.068C366.376 468.798 366.906 468.404 367.336 467.912C368.266 466.918 368.786 465.609 368.79 464.248V464.176Z" fill="white"/>
<path d="M374.861 470.804V458.106C374.859 457.949 374.888 457.794 374.947 457.649C375.005 457.504 375.092 457.373 375.203 457.262C375.314 457.152 375.445 457.064 375.59 457.006C375.735 456.947 375.89 456.918 376.047 456.92H378.579C380.514 457.015 382.338 457.85 383.673 459.253C385.009 460.655 385.754 462.518 385.754 464.455C385.754 466.392 385.009 468.254 383.673 469.657C382.338 471.059 380.514 471.894 378.579 471.989H376.047C375.732 471.989 375.431 471.864 375.208 471.642C374.986 471.419 374.861 471.118 374.861 470.804ZM377.25 469.6H378.579C379.891 469.523 381.124 468.947 382.026 467.99C382.927 467.034 383.429 465.769 383.429 464.455C383.429 463.14 382.927 461.875 382.026 460.919C381.124 459.963 379.891 459.387 378.579 459.309H377.25V469.6Z" fill="white"/>
<path d="M353.165 481.49H350.759V489.572C350.776 489.692 350.768 489.814 350.734 489.93C350.7 490.047 350.642 490.154 350.563 490.246C350.483 490.338 350.385 490.412 350.275 490.462C350.165 490.512 350.045 490.539 349.924 490.539C349.802 490.539 349.683 490.512 349.572 490.462C349.462 490.412 349.364 490.338 349.285 490.246C349.206 490.154 349.147 490.047 349.113 489.93C349.079 489.814 349.071 489.692 349.089 489.572V481.49H346.628C346.406 481.485 346.194 481.395 346.036 481.237C345.879 481.08 345.789 480.868 345.784 480.646C345.784 480.422 345.873 480.207 346.031 480.049C346.189 479.89 346.404 479.801 346.628 479.801H353.094C353.314 479.806 353.525 479.897 353.679 480.055C353.833 480.213 353.92 480.425 353.92 480.646C353.921 480.855 353.844 481.057 353.705 481.213C353.566 481.369 353.373 481.467 353.165 481.49Z" fill="white"/>
<path d="M364.013 481.13C365 482.158 365.548 483.531 365.54 484.956C365.558 486.383 365.008 487.759 364.013 488.781C363.559 489.286 363.005 489.692 362.387 489.973C361.769 490.254 361.1 490.405 360.421 490.416C359.723 490.41 359.033 490.263 358.394 489.982C357.755 489.701 357.179 489.292 356.703 488.781C355.721 487.753 355.185 486.378 355.213 484.956C355.2 483.537 355.734 482.167 356.703 481.13C357.178 480.619 357.754 480.212 358.393 479.934C359.033 479.656 359.723 479.513 360.421 479.514C361.1 479.517 361.77 479.663 362.389 479.941C363.007 480.219 363.561 480.625 364.013 481.13ZM363.816 484.956C363.821 483.978 363.455 483.034 362.792 482.316C362.49 481.981 362.121 481.713 361.71 481.527C361.299 481.342 360.854 481.243 360.403 481.238C359.941 481.237 359.483 481.332 359.059 481.517C358.635 481.703 358.255 481.975 357.943 482.316C357.284 483.037 356.919 483.979 356.919 484.956C356.919 485.933 357.284 486.874 357.943 487.596C358.255 487.937 358.635 488.209 359.059 488.394C359.483 488.58 359.941 488.675 360.403 488.674C360.854 488.668 361.299 488.57 361.71 488.385C362.121 488.199 362.49 487.931 362.792 487.596C363.467 486.87 363.834 485.911 363.816 484.92V484.956Z" fill="white"/>
<path d="M326.513 509.651C327.371 505.656 329.549 502.065 332.697 499.459C335.844 496.852 339.777 495.381 343.862 495.283C347.029 495.207 350.108 496.33 352.483 498.426C352.689 498.641 352.849 498.897 352.952 499.176C353.056 499.455 353.102 499.753 353.087 500.05C353.071 500.348 352.996 500.639 352.864 500.906C352.733 501.174 352.548 501.411 352.322 501.605C351.937 502.079 351.385 502.387 350.779 502.463C350.174 502.54 349.562 502.381 349.071 502.018C347.398 500.569 345.249 499.789 343.036 499.827C340.187 499.866 337.442 500.902 335.277 502.754C333.106 504.52 331.625 506.993 331.093 509.741C330.852 510.957 330.888 512.212 331.199 513.412C331.51 514.613 332.087 515.727 332.889 516.673C333.724 517.631 334.761 518.392 335.926 518.902C337.09 519.411 338.353 519.656 339.624 519.619C341.654 519.59 343.644 519.046 345.407 518.038L346.395 512.542H340.648C340.367 512.552 340.088 512.496 339.832 512.378C339.577 512.26 339.353 512.084 339.179 511.864C339.004 511.644 338.883 511.386 338.827 511.111C338.77 510.836 338.778 510.551 338.852 510.28C338.967 509.649 339.296 509.079 339.784 508.663C340.271 508.248 340.887 508.013 341.528 507.999H349.502C349.793 507.97 350.088 508.013 350.359 508.124C350.63 508.235 350.87 508.41 351.058 508.635C351.245 508.86 351.375 509.127 351.436 509.414C351.497 509.701 351.486 509.998 351.406 510.28L349.825 519.26C349.776 519.468 349.71 519.672 349.628 519.87L349.502 520.122C349.287 520.504 348.986 520.83 348.622 521.073C345.774 523.063 342.397 524.157 338.923 524.216C337.07 524.332 335.216 524.014 333.507 523.288C331.798 522.562 330.282 521.449 329.078 520.036C327.874 518.622 327.015 516.948 326.57 515.146C326.125 513.343 326.105 511.462 326.513 509.651Z" fill="white"/>
<path d="M360.996 519.888C359.936 518.447 359.192 516.798 358.814 515.049C358.437 513.3 358.434 511.491 358.805 509.741C359.552 505.805 361.587 502.229 364.588 499.575C367.45 496.9 371.196 495.373 375.113 495.283C376.84 495.253 378.55 495.625 380.109 496.37C381.667 497.115 383.031 498.212 384.093 499.575C385.131 501.03 385.857 502.685 386.225 504.434C386.593 506.184 386.595 507.991 386.23 509.741C385.522 513.677 383.495 517.256 380.483 519.888C377.621 522.563 373.874 524.091 369.958 524.18C368.232 524.22 366.521 523.853 364.963 523.107C363.406 522.361 362.047 521.258 360.996 519.888ZM363.385 509.741C363.132 510.956 363.134 512.211 363.39 513.426C363.647 514.641 364.153 515.789 364.875 516.799C365.579 517.7 366.482 518.425 367.514 518.918C368.545 519.41 369.677 519.656 370.82 519.637C373.396 519.55 375.856 518.543 377.753 516.799C379.818 514.948 381.214 512.467 381.722 509.741C381.981 508.531 381.982 507.281 381.725 506.071C381.468 504.861 380.959 503.718 380.231 502.718C379.532 501.812 378.63 501.082 377.597 500.586C376.565 500.09 375.431 499.842 374.286 499.863C371.704 499.933 369.237 500.949 367.354 502.718C365.315 504.567 363.94 507.034 363.439 509.741H363.385Z" fill="white"/>
<path d="M339.211 484.597H326.477V486.303H339.211V484.597Z" fill="white"/>
<path d="M386.104 484.597H373.37V486.303H386.104V484.597Z" fill="white"/>
<path d="M660.784 498.103C665.31 504.73 683.432 594.853 686.988 599.379C690.544 603.905 697.351 604.228 697.351 604.228L709.42 633.988C709.42 633.988 679.66 643.381 663.137 656.959C641.693 674.524 621.955 732.768 621.955 732.768C618.722 735.031 578.599 751.536 567.59 752.183C567.59 752.183 618.758 696.004 622.925 618.255C624.541 588.118 606.024 545.715 604.803 524.701C603.51 502.215 610.299 498.175 622.278 498.175L660.784 498.103Z" fill="#FFEEBE"/>
<path d="M565.129 758.648L557.119 751.069C602.019 703.547 618.578 628.672 617.267 608.233C616.585 597.745 613.226 586.035 609.652 573.642C605.845 560.406 601.534 545.409 599.702 529.119C597.906 513.997 599.702 504.227 604.857 498.39C610.011 492.553 617.088 492.571 621.793 492.571H664.52V503.616H621.775C617.662 503.616 614.86 503.76 613.082 505.754C611.304 507.747 608.988 512.938 610.676 527.898C612.472 543.254 616.405 557.155 620.266 570.589C624.002 583.574 627.54 595.859 628.277 607.515C629.678 629.282 612.436 708.72 565.129 758.648Z" fill="#DBDBDB"/>
<path d="M687.204 624.038C689.718 633.288 697.638 639.196 704.912 637.221C712.186 635.245 716.011 626.139 713.479 616.89C710.947 607.641 703.044 601.714 695.77 603.689C688.497 605.665 684.671 614.771 687.204 624.038Z" fill="#DBDBDB"/>
<path d="M689.897 623.302C692.16 631.563 699.003 636.88 705.217 635.191C711.431 633.503 714.628 625.439 712.401 617.231C710.174 609.024 703.295 603.653 697.099 605.342C690.903 607.03 687.652 615.04 689.897 623.302Z" fill="white"/>
<path opacity="0.1" d="M655.432 622.53C653.438 613.226 651.283 603.941 649.415 594.602C647.548 585.263 645.823 575.905 644.369 566.512C642.95 557.766 641.423 548.929 640.866 540.075C640.31 530.826 640.866 521.487 645.356 513.135C645.366 513.119 645.372 513.101 645.374 513.082C645.377 513.063 645.375 513.044 645.37 513.025C645.365 513.007 645.357 512.99 645.345 512.975C645.334 512.96 645.319 512.947 645.303 512.938C645.286 512.928 645.268 512.922 645.249 512.92C645.23 512.917 645.211 512.919 645.193 512.924C645.174 512.929 645.157 512.937 645.142 512.949C645.127 512.961 645.114 512.975 645.105 512.992C640.489 519.727 638.981 527.809 638.729 535.837C638.752 544.694 639.533 553.532 641.064 562.256C643.684 581.399 647.281 600.395 651.84 619.171C654.444 629.785 657.803 640.22 661.395 650.529C661.407 650.563 661.431 650.59 661.463 650.605C661.495 650.62 661.532 650.622 661.565 650.61C661.599 650.598 661.626 650.573 661.641 650.541C661.656 650.509 661.658 650.473 661.646 650.439C659.503 641.172 657.432 631.869 655.432 622.53Z" fill="black"/>
</svg>
