<svg width="18" height="18" viewBox="0 0 18 18" fill="none" xmlns="http://www.w3.org/2000/svg">
<path fill-rule="evenodd" clip-rule="evenodd" d="M16.5 9C16.5 13.1421 13.1421 16.5 9 16.5C4.85786 16.5 1.5 13.1421 1.5 9C1.5 4.85786 4.85786 1.5 9 1.5C13.1421 1.5 16.5 4.85786 16.5 9ZM12.0227 6.72725C12.2424 6.94692 12.2424 7.30308 12.0227 7.52272L8.27272 11.2727C8.05305 11.4924 7.69695 11.4924 7.47725 11.2727L5.97725 9.77272C5.75758 9.55305 5.75758 9.19695 5.97725 8.97727C6.19692 8.7576 6.55308 8.7576 6.77275 8.97727L7.875 10.0795L9.5511 8.40337L11.2273 6.72725C11.4469 6.50758 11.803 6.50758 12.0227 6.72725Z" fill="#022B23"/>
</svg>
