<svg width="20" height="20" viewBox="0 0 20 20" fill="none" xmlns="http://www.w3.org/2000/svg">
<path fill-rule="evenodd" clip-rule="evenodd" d="M18.3327 10C18.3327 14.6024 14.6017 18.3334 9.99935 18.3334C5.39697 18.3334 1.66602 14.6024 1.66602 10C1.66602 5.39764 5.39697 1.66669 9.99935 1.66669C14.6017 1.66669 18.3327 5.39764 18.3327 10ZM13.3579 7.47474C13.602 7.71882 13.602 8.11455 13.3579 8.3586L9.19126 12.5253C8.94718 12.7694 8.55151 12.7694 8.30741 12.5253L6.64074 10.8586C6.39666 10.6145 6.39666 10.2189 6.64074 9.97477C6.88481 9.73069 7.28055 9.73069 7.52462 9.97477L8.74935 11.1994L10.6117 9.3371L12.4741 7.47474C12.7182 7.23067 13.1138 7.23067 13.3579 7.47474Z" fill="#707070"/>
</svg>
