<svg width="139" height="90" viewBox="0 0 139 90" fill="none" xmlns="http://www.w3.org/2000/svg">
<g clip-path="url(#clip0_1450_4443)">
<path d="M139 81.3072H0V81.3767H139V81.3072Z" fill="#EBEBEB"/>
<path d="M48.155 83.0808H41.7109V83.1503H48.155V83.0808Z" fill="#EBEBEB"/>
<path d="M127.538 84.5709H111.784V84.6404H127.538V84.5709Z" fill="#EBEBEB"/>
<path d="M27.6302 84.5709H11.876V84.6404H27.6302V84.5709Z" fill="#EBEBEB"/>
<path d="M65.8857 68.9083H12.2067C11.7862 68.9076 11.3831 68.74 11.086 68.4424C10.7889 68.1448 10.6221 67.7415 10.6221 67.3209V-8.1366C10.6257 -8.55471 10.7942 -8.95448 11.0909 -9.2491C11.3876 -9.54371 11.7886 -9.70937 12.2067 -9.71008H65.8857C66.3067 -9.71008 66.7104 -9.54284 67.0081 -9.24515C67.3058 -8.94746 67.4731 -8.5437 67.4731 -8.1227V67.3209C67.4731 67.7419 67.3058 68.1457 67.0081 68.4434C66.7104 68.7411 66.3067 68.9083 65.8857 68.9083ZM12.2067 -9.65448C11.8046 -9.65375 11.4192 -9.4935 11.1352 -9.20892C10.8511 -8.92435 10.6916 -8.53869 10.6916 -8.1366V67.3209C10.6916 67.723 10.8511 68.1087 11.1352 68.3933C11.4192 68.6778 11.8046 68.8381 12.2067 68.8388H65.8857C66.2878 68.8373 66.673 68.677 66.9574 68.3926C67.2417 68.1083 67.4021 67.7231 67.4036 67.3209V-8.1366C67.4021 -8.53872 67.2417 -8.92395 66.9574 -9.20829C66.673 -9.49263 66.2878 -9.65302 65.8857 -9.65448H12.2067Z" fill="#EBEBEB"/>
<path d="M126.02 68.9083H72.3384C71.9178 68.9068 71.5149 68.7391 71.2175 68.4418C70.9202 68.1444 70.7524 67.7415 70.751 67.3209V-8.1366C70.7554 -8.55496 70.9245 -8.95474 71.2216 -9.24927C71.5187 -9.54381 71.92 -9.70937 72.3384 -9.71008H126.02C126.438 -9.70864 126.838 -9.54266 127.134 -9.24812C127.43 -8.95359 127.598 -8.55423 127.602 -8.1366V67.3209C127.602 67.529 127.562 67.7352 127.482 67.9276C127.403 68.1199 127.287 68.2948 127.14 68.4422C126.993 68.5896 126.818 68.7067 126.626 68.7866C126.434 68.8666 126.228 68.908 126.02 68.9083ZM72.3384 -9.65448C71.9362 -9.65302 71.551 -9.49263 71.2667 -9.20829C70.9823 -8.92395 70.8219 -8.53872 70.8205 -8.1366V67.3209C70.8219 67.7231 70.9823 68.1083 71.2667 68.3926C71.551 68.677 71.9362 68.8373 72.3384 68.8388H126.02C126.422 68.8373 126.807 68.677 127.092 68.3926C127.376 68.1083 127.537 67.7231 127.538 67.3209V-8.1366C127.537 -8.53872 127.376 -8.92395 127.092 -9.20829C126.807 -9.49263 126.422 -9.65302 126.02 -9.65448H72.3384Z" fill="#EBEBEB"/>
<path d="M27.4386 11.2539H50.596C50.829 11.2535 51.0598 11.2992 51.2752 11.3882C51.4905 11.4772 51.6862 11.6078 51.851 11.7726C52.0157 11.9373 52.1464 12.133 52.2354 12.3484C52.3244 12.5637 52.37 12.7945 52.3696 13.0275V81.2432H25.6816V13.0248C25.6824 12.5577 25.8673 12.1098 26.1962 11.7783C26.5251 11.4467 26.9716 11.2583 27.4386 11.2539Z" fill="#F5F5F5"/>
<path d="M31.3254 15.3878H27.8838V23.0495H31.3254V15.3878Z" fill="#EBEBEB"/>
<path d="M50.1457 15.3878H46.7041V23.0495H50.1457V15.3878Z" fill="#EBEBEB"/>
<path d="M37.5969 15.3878H34.1553V23.0495H37.5969V15.3878Z" fill="#EBEBEB"/>
<path d="M43.8713 15.3878H40.4297V23.0495H43.8713V15.3878Z" fill="#EBEBEB"/>
<path d="M31.3254 27.4836H27.8838V35.1453H31.3254V27.4836Z" fill="#EBEBEB"/>
<path d="M50.1457 27.4836H46.7041V35.1453H50.1457V27.4836Z" fill="#EBEBEB"/>
<path d="M37.5969 27.4836H34.1553V35.1453H37.5969V27.4836Z" fill="#EBEBEB"/>
<path d="M43.8713 27.4836H40.4297V35.1453H43.8713V27.4836Z" fill="#EBEBEB"/>
<path d="M31.3254 39.5766H27.8838V47.2383H31.3254V39.5766Z" fill="#EBEBEB"/>
<path d="M50.1457 39.5766H46.7041V47.2383H50.1457V39.5766Z" fill="#EBEBEB"/>
<path d="M37.5969 39.5766H34.1553V47.2383H37.5969V39.5766Z" fill="#EBEBEB"/>
<path d="M43.8713 39.5766H40.4297V47.2383H43.8713V39.5766Z" fill="#EBEBEB"/>
<path d="M31.3254 51.6724H27.8838V59.334H31.3254V51.6724Z" fill="#EBEBEB"/>
<path d="M50.1457 51.6724H46.7041V59.334H50.1457V51.6724Z" fill="#EBEBEB"/>
<path d="M37.5969 51.6724H34.1553V59.334H37.5969V51.6724Z" fill="#EBEBEB"/>
<path d="M43.8713 51.6724H40.4297V59.334H43.8713V51.6724Z" fill="#EBEBEB"/>
<path d="M31.3254 63.7654H27.8838V71.4271H31.3254V63.7654Z" fill="#EBEBEB"/>
<path d="M50.1457 63.7654H46.7041V71.4271H50.1457V63.7654Z" fill="#EBEBEB"/>
<path d="M37.5969 63.7654H34.1553V71.4271H37.5969V63.7654Z" fill="#EBEBEB"/>
<path d="M43.8713 63.7654H40.4297V71.4271H43.8713V63.7654Z" fill="#EBEBEB"/>
<path d="M109.515 17.6118H126.095C126.478 17.6126 126.844 17.7648 127.115 18.0352C127.385 18.3056 127.537 18.6722 127.538 19.0546V81.2432H108.078V19.0574C108.078 18.6755 108.229 18.309 108.499 18.0382C108.768 17.7673 109.133 17.614 109.515 17.6118Z" fill="#F5F5F5"/>
<path d="M113.68 21.3731H110.553V28.337H113.68V21.3731Z" fill="#EBEBEB"/>
<path d="M119.384 21.3731H116.257V28.337H119.384V21.3731Z" fill="#EBEBEB"/>
<path d="M125.086 21.3731H121.959V28.337H125.086V21.3731Z" fill="#EBEBEB"/>
<path d="M113.68 32.368H110.553V39.3319H113.68V32.368Z" fill="#EBEBEB"/>
<path d="M119.384 32.368H116.257V39.3319H119.384V32.368Z" fill="#EBEBEB"/>
<path d="M125.086 32.368H121.959V39.3319H125.086V32.368Z" fill="#EBEBEB"/>
<path d="M113.68 43.3657H110.553V50.3296H113.68V43.3657Z" fill="#EBEBEB"/>
<path d="M119.384 43.3657H116.257V50.3296H119.384V43.3657Z" fill="#EBEBEB"/>
<path d="M125.086 43.3657H121.959V50.3296H125.086V43.3657Z" fill="#EBEBEB"/>
<path d="M113.68 54.3578H110.553V61.3218H113.68V54.3578Z" fill="#EBEBEB"/>
<path d="M119.384 54.3578H116.257V61.3218H119.384V54.3578Z" fill="#EBEBEB"/>
<path d="M125.086 54.3578H121.959V61.3218H125.086V54.3578Z" fill="#EBEBEB"/>
<path d="M113.68 65.3555H110.553V72.3194H113.68V65.3555Z" fill="#EBEBEB"/>
<path d="M119.384 65.3555H116.257V72.3194H119.384V65.3555Z" fill="#EBEBEB"/>
<path d="M125.086 65.3555H121.959V72.3194H125.086V65.3555Z" fill="#EBEBEB"/>
<path d="M71.5326 -0.185791H98.4653C99.0124 -0.185791 99.537 0.0315337 99.9239 0.418376C100.311 0.805219 100.528 1.32989 100.528 1.87697V81.2432H69.4727V1.87697C69.4727 1.33037 69.6896 0.806121 70.0758 0.419358C70.4621 0.0325955 70.986 -0.185054 71.5326 -0.185791Z" fill="#F5F5F5"/>
<path d="M76.052 4.62646H72.0488V13.5391H76.052V4.62646Z" fill="#EBEBEB"/>
<path d="M97.9475 4.62646H93.9443V13.5391H97.9475V4.62646Z" fill="#EBEBEB"/>
<path d="M83.3499 4.62646H79.3467V13.5391H83.3499V4.62646Z" fill="#EBEBEB"/>
<path d="M90.6507 4.62646H86.6475V13.5391H90.6507V4.62646Z" fill="#EBEBEB"/>
<path d="M76.052 18.6987H72.0488V27.6114H76.052V18.6987Z" fill="#EBEBEB"/>
<path d="M97.9475 18.6987H93.9443V27.6114H97.9475V18.6987Z" fill="#EBEBEB"/>
<path d="M83.3499 18.6987H79.3467V27.6114H83.3499V18.6987Z" fill="#EBEBEB"/>
<path d="M90.6507 18.6987H86.6475V27.6114H90.6507V18.6987Z" fill="#EBEBEB"/>
<path d="M76.052 32.7712H72.0488V41.6839H76.052V32.7712Z" fill="#EBEBEB"/>
<path d="M97.9475 32.7712H93.9443V41.6839H97.9475V32.7712Z" fill="#EBEBEB"/>
<path d="M83.3499 32.7712H79.3467V41.6839H83.3499V32.7712Z" fill="#EBEBEB"/>
<path d="M90.6507 32.7712H86.6475V41.6839H90.6507V32.7712Z" fill="#EBEBEB"/>
<path d="M76.052 46.8408H72.0488V55.7534H76.052V46.8408Z" fill="#EBEBEB"/>
<path d="M97.9475 46.8408H93.9443V55.7534H97.9475V46.8408Z" fill="#EBEBEB"/>
<path d="M83.3499 46.8408H79.3467V55.7534H83.3499V46.8408Z" fill="#EBEBEB"/>
<path d="M90.6507 46.8408H86.6475V55.7534H90.6507V46.8408Z" fill="#EBEBEB"/>
<path d="M76.052 60.9103H72.0488V69.823H76.052V60.9103Z" fill="#EBEBEB"/>
<path d="M97.9475 60.9103H93.9443V69.823H97.9475V60.9103Z" fill="#EBEBEB"/>
<path d="M83.3499 60.9103H79.3467V69.823H83.3499V60.9103Z" fill="#EBEBEB"/>
<path d="M90.6507 60.9103H86.6475V69.823H90.6507V60.9103Z" fill="#EBEBEB"/>
<path d="M69.4694 28.9792H52.3613V81.246H69.4694V28.9792Z" fill="#E6E6E6"/>
<path d="M108.089 34.5754H100.53V81.2432H108.089V34.5754Z" fill="#E6E6E6"/>
<path d="M25.6655 81.2432H10.6924V59.423L25.6655 54.3578V81.2432Z" fill="#E6E6E6"/>
<path d="M69.5001 93.8617C99.269 93.8617 123.401 91.884 123.401 89.4443C123.401 87.0046 99.269 85.0269 69.5001 85.0269C39.7311 85.0269 15.5986 87.0046 15.5986 89.4443C15.5986 91.884 39.7311 93.8617 69.5001 93.8617Z" fill="#F5F5F5"/>
<path d="M82.7551 71.9998H78.0291C75.5688 71.9998 73.5811 75.5665 73.5811 79.9672C73.5811 84.368 75.5743 87.9319 78.0291 87.9319H82.7551C85.2154 87.9319 87.2031 84.3652 87.2031 79.9672C87.2031 75.5693 85.2154 71.9998 82.7551 71.9998Z" fill="#263238"/>
<mask id="mask0_1450_4443" style="mask-type:luminance" maskUnits="userSpaceOnUse" x="73" y="71" width="15" height="17">
<path d="M82.7551 71.9998H78.0291C75.5688 71.9998 73.5811 75.5665 73.5811 79.9672C73.5811 84.368 75.5743 87.9319 78.0291 87.9319H82.7551C85.2154 87.9319 87.2031 84.3652 87.2031 79.9672C87.2031 75.5693 85.2154 71.9998 82.7551 71.9998Z" fill="white"/>
</mask>
<g mask="url(#mask0_1450_4443)">
<path opacity="0.05" d="M88.3146 71.9998H83.5886C81.1283 71.9998 79.1406 75.5665 79.1406 79.9672C79.1406 84.368 81.1339 87.9319 83.5886 87.9319H88.3146C90.7749 87.9319 92.7626 84.3652 92.7626 79.9672C92.7626 75.5693 90.7749 71.9998 88.3146 71.9998Z" fill="white"/>
</g>
<path d="M121.038 73.7066L38.2803 73.6482V20.7865H121.038V73.7066Z" fill="#FF6644"/>
<path opacity="0.3" d="M121.039 20.7865H64.9492V73.7038H121.039V20.7865Z" fill="#263238"/>
<path opacity="0.2" d="M64.9488 20.7865H38.2803V74.7491H64.9488V20.7865Z" fill="white"/>
<path opacity="0.1" d="M38.4805 23.2441H121.038" stroke="white" stroke-width="0.556" stroke-linecap="round" stroke-linejoin="round"/>
<path opacity="0.1" d="M38.4805 25.532H121.038" stroke="white" stroke-width="0.556" stroke-linecap="round" stroke-linejoin="round"/>
<path opacity="0.1" d="M38.4805 27.8171H121.038" stroke="white" stroke-width="0.556" stroke-linecap="round" stroke-linejoin="round"/>
<path opacity="0.1" d="M38.4805 30.1024H121.038" stroke="white" stroke-width="0.556" stroke-linecap="round" stroke-linejoin="round"/>
<path opacity="0.1" d="M38.4805 32.3903H121.038" stroke="white" stroke-width="0.556" stroke-linecap="round" stroke-linejoin="round"/>
<path opacity="0.1" d="M38.4805 34.6755H121.038" stroke="white" stroke-width="0.556" stroke-linecap="round" stroke-linejoin="round"/>
<path opacity="0.1" d="M38.4805 36.9606H121.038" stroke="white" stroke-width="0.556" stroke-linecap="round" stroke-linejoin="round"/>
<path opacity="0.1" d="M38.4805 39.2457H121.038" stroke="white" stroke-width="0.556" stroke-linecap="round" stroke-linejoin="round"/>
<path opacity="0.1" d="M38.4805 41.5337H121.038" stroke="white" stroke-width="0.556" stroke-linecap="round" stroke-linejoin="round"/>
<path opacity="0.1" d="M38.4805 43.8188H121.038" stroke="white" stroke-width="0.556" stroke-linecap="round" stroke-linejoin="round"/>
<path opacity="0.1" d="M38.4805 46.104H121.038" stroke="white" stroke-width="0.556" stroke-linecap="round" stroke-linejoin="round"/>
<path opacity="0.1" d="M38.4805 48.3919H121.038" stroke="white" stroke-width="0.556" stroke-linecap="round" stroke-linejoin="round"/>
<path opacity="0.1" d="M38.4805 50.6771H121.038" stroke="white" stroke-width="0.556" stroke-linecap="round" stroke-linejoin="round"/>
<path opacity="0.1" d="M38.4805 52.9622H121.038" stroke="white" stroke-width="0.556" stroke-linecap="round" stroke-linejoin="round"/>
<path opacity="0.1" d="M38.4805 55.2474H121.038" stroke="white" stroke-width="0.556" stroke-linecap="round" stroke-linejoin="round"/>
<path opacity="0.1" d="M38.4805 57.5353H121.038" stroke="white" stroke-width="0.556" stroke-linecap="round" stroke-linejoin="round"/>
<path opacity="0.1" d="M38.4805 59.8206H121.038" stroke="white" stroke-width="0.556" stroke-linecap="round" stroke-linejoin="round"/>
<path opacity="0.1" d="M38.4805 62.1057H121.038" stroke="white" stroke-width="0.556" stroke-linecap="round" stroke-linejoin="round"/>
<path opacity="0.1" d="M38.4805 64.3936H121.038" stroke="white" stroke-width="0.556" stroke-linecap="round" stroke-linejoin="round"/>
<path opacity="0.1" d="M38.4805 66.6788H121.038" stroke="white" stroke-width="0.556" stroke-linecap="round" stroke-linejoin="round"/>
<path opacity="0.1" d="M38.4805 68.9639H121.038" stroke="white" stroke-width="0.556" stroke-linecap="round" stroke-linejoin="round"/>
<path opacity="0.1" d="M38.4805 71.2519H121.038" stroke="white" stroke-width="0.556" stroke-linecap="round" stroke-linejoin="round"/>
<path d="M23.0932 73.0394H18.7202C16.4406 73.0394 14.5947 76.3421 14.5947 80.4176C14.5947 84.493 16.4406 87.7929 18.7202 87.7929H23.0932C25.3728 87.7929 27.2187 84.4903 27.2187 80.4176C27.2187 76.3449 25.3728 73.0394 23.0932 73.0394Z" fill="#263238"/>
<path opacity="0.05" d="M28.6565 73.0394H24.2808C22.0012 73.0394 20.1553 76.3421 20.1553 80.4176C20.1553 84.493 22.0012 87.7929 24.2808 87.7929H28.6565C30.9333 87.7929 32.782 84.4903 32.782 80.4176C32.782 76.3449 30.9333 73.0394 28.6565 73.0394Z" fill="white"/>
<path d="M20.6611 58.6307H18.5928C18.1869 58.6446 17.8533 58.2109 17.845 57.6605C17.8394 57.6032 17.8394 57.5454 17.845 57.4881L18.401 51.2415C18.4705 50.5993 18.868 50.1295 19.3462 50.0989H21.434C21.8371 50.0989 22.1707 50.5242 22.179 51.0747C22.179 51.1303 22.179 51.1859 22.179 51.2415L21.623 57.4881C21.5396 58.122 21.1282 58.614 20.6611 58.6307Z" fill="#263238"/>
<path d="M22.7295 37.9975L18.7402 59.5119L62.1722 76.5255L61.8692 34.1249L52.3171 33.8469H26.1517C24.5782 33.833 23.191 35.5233 22.7295 37.9975Z" fill="#FF6644"/>
<path d="M55.0443 41.4586C53.4236 41.3863 51.9696 42.7152 51.4942 44.6973L48.2083 58.4639H41.8838L41.5391 76.6256H62.3418" fill="#FF6644"/>
<path d="M23.3521 57.3074C22.7155 57.3074 22.2012 56.4901 22.2012 55.4837C22.2009 55.3083 22.2176 55.1333 22.2512 54.9611L24.6392 42.3288C24.8394 41.2807 25.451 40.5635 26.1432 40.5662H48.9893C49.2367 40.5662 49.4396 40.8832 49.4396 41.2779C49.4402 41.3479 49.4336 41.4177 49.4202 41.4864C48.9198 44.0885 47.2935 52.7093 46.6707 56.0064C46.5262 56.7792 46.0758 57.3074 45.5587 57.3074H23.3521Z" fill="#263238"/>
<path d="M44.3746 62.9063C44.3742 63.1277 44.3584 63.3488 44.3273 63.568L44.2078 64.3825L44.1383 64.8634L43.6268 68.3774L42.7928 74.0903L42.562 75.6776H10.2334V74.0903L10.2556 68.3774L10.2862 64.9608V63.5707C10.0082 61.7359 10.895 59.9567 12.2461 59.587C12.4046 59.5437 12.5683 59.5222 12.7326 59.5231H41.8837C43.2598 59.512 44.3746 61.0354 44.3746 62.9063Z" fill="#FF6644"/>
<path d="M60.8074 42.2759V55.8173C60.8074 56.6374 60.3876 57.3046 59.8677 57.3074H51.967C51.4471 57.3074 51.0273 56.6402 51.0273 55.8173C51.0272 55.6832 51.0383 55.5493 51.0607 55.417L53.496 41.5726C53.6127 40.9082 54.0019 40.4606 54.4356 40.4856L59.9011 40.7859C60.4071 40.8164 60.8074 41.4753 60.8074 42.2759Z" fill="#263238"/>
<path opacity="0.1" d="M36.6797 40.5662H32.3151L27.3027 57.3074H31.6701L36.6797 40.5662Z" fill="white"/>
<path opacity="0.1" d="M40.077 40.5662H37.992L32.9824 57.3074H35.0646L40.077 40.5662Z" fill="white"/>
<path d="M52.751 68.3774V74.0903H10.2393L10.2615 68.3774H52.751Z" fill="black"/>
<path d="M46.8286 68.3774H42.8977L35.8281 72.5307V74.0903H52.75V68.3774H46.8286Z" fill="white"/>
<path d="M17.5673 72.5307V74.0903H10.2393L10.2615 68.3774H10.5006L17.5673 72.5307Z" fill="white"/>
<path opacity="0.3" d="M62.1912 76.6256L61.8687 34.125L56.0307 33.847C54.574 33.7747 52.8921 35.4677 52.4668 37.4304L48.2356 59.5119H46.5871C44.7356 59.5119 43.4679 60.8602 43.4707 62.2919L43.4957 76.6312H62.1912" fill="#263238"/>
<path d="M44.2661 64.5826C44.2655 64.6354 44.2538 64.6874 44.2318 64.7353C44.2097 64.7832 44.1778 64.8259 44.1382 64.8606C44.0702 64.9238 43.9807 64.9586 43.888 64.9579H10.2861V64.2018H43.8963C43.9603 64.202 44.0232 64.2184 44.0791 64.2495C44.1351 64.2806 44.1822 64.3254 44.216 64.3797C44.2512 64.4414 44.2685 64.5117 44.2661 64.5826Z" fill="white"/>
<path d="M16.2135 64.2046V64.9608H10.2754L10.2782 64.2046H16.2135Z" fill="#263238"/>
<path d="M44.2663 64.5826C44.2658 64.6354 44.2541 64.6874 44.232 64.7353C44.21 64.7832 44.1781 64.8259 44.1385 64.8606C44.0705 64.9238 43.981 64.9586 43.8883 64.9579H35.7373V64.2018H43.8883C43.9523 64.202 44.0152 64.2184 44.0711 64.2495C44.127 64.2806 44.1741 64.3254 44.208 64.3797C44.246 64.4406 44.2663 64.5109 44.2663 64.5826Z" fill="#263238"/>
<path d="M122.523 75.0799V75.2301C122.523 75.5987 122.376 75.9523 122.116 76.2129C121.855 76.4736 121.502 76.6201 121.133 76.6201H10.7113C10.3426 76.6201 9.98909 76.4736 9.72841 76.2129C9.46774 75.9523 9.32129 75.5987 9.32129 75.2301V75.0799C9.32129 74.7113 9.46774 74.3577 9.72841 74.0971C9.98909 73.8364 10.3426 73.6899 10.7113 73.6899H121.133C121.502 73.6899 121.855 73.8364 122.116 74.0971C122.376 74.3577 122.523 74.7113 122.523 75.0799Z" fill="#263238"/>
<path d="M35.1978 74.8325H18.7402V75.6359H35.1978V74.8325Z" fill="black"/>
<path d="M14.3617 75.2328C14.3617 75.3234 14.3349 75.412 14.2846 75.4874C14.2343 75.5627 14.1629 75.6215 14.0792 75.6563C13.9956 75.6911 13.9035 75.7004 13.8146 75.6829C13.7257 75.6654 13.6439 75.622 13.5797 75.5581C13.5154 75.4943 13.4715 75.4128 13.4535 75.324C13.4355 75.2352 13.4442 75.1431 13.4785 75.0592C13.5128 74.9753 13.5711 74.9035 13.6462 74.8528C13.7212 74.802 13.8097 74.7747 13.9003 74.7741C13.9607 74.7738 14.0207 74.7853 14.0766 74.8082C14.1326 74.8311 14.1835 74.8649 14.2264 74.9075C14.2693 74.9501 14.3033 75.0008 14.3266 75.0566C14.3498 75.1125 14.3617 75.1723 14.3617 75.2328Z" fill="white"/>
<path d="M39.1283 75.2329C39.1283 75.3236 39.1014 75.4123 39.051 75.4877C39.0006 75.5631 38.929 75.6219 38.8452 75.6567C38.7614 75.6914 38.6691 75.7005 38.5802 75.6828C38.4912 75.6651 38.4094 75.6214 38.3453 75.5572C38.2811 75.4931 38.2375 75.4113 38.2198 75.3224C38.2021 75.2334 38.2111 75.1412 38.2459 75.0573C38.2806 74.9735 38.3394 74.9019 38.4148 74.8515C38.4902 74.8011 38.5789 74.7742 38.6696 74.7742C38.7299 74.7742 38.7895 74.786 38.8452 74.8091C38.9008 74.8321 38.9514 74.8659 38.994 74.9085C39.0366 74.9511 39.0704 75.0017 39.0934 75.0573C39.1165 75.113 39.1283 75.1726 39.1283 75.2329Z" fill="white"/>
<path d="M52.4279 79.7865C52.4279 75.3635 54.4323 71.7773 56.9065 71.7773H52.1555C49.6841 71.7773 47.6797 75.3635 47.6797 79.7865C47.6797 84.2094 49.6841 87.7929 52.1555 87.7929H56.9065C54.4323 87.8012 52.4279 84.2178 52.4279 79.7865Z" fill="black"/>
<path opacity="0.7" d="M52.4279 79.7865C52.4279 75.3635 54.4323 71.7773 56.9065 71.7773H52.1555C49.6841 71.7773 47.6797 75.3635 47.6797 79.7865C47.6797 84.2094 49.6841 87.7929 52.1555 87.7929H56.9065C54.4323 87.8012 52.4279 84.2178 52.4279 79.7865Z" fill="#263238"/>
<path d="M56.9063 87.804C59.3798 87.804 61.3849 84.2182 61.3849 79.7948C61.3849 75.3715 59.3798 71.7856 56.9063 71.7856C54.4329 71.7856 52.4277 75.3715 52.4277 79.7948C52.4277 84.2182 54.4329 87.804 56.9063 87.804Z" fill="#263238"/>
<path d="M57.2656 86.0387C59.019 86.0387 60.4403 83.2432 60.4403 79.7948C60.4403 76.3464 59.019 73.5509 57.2656 73.5509C55.5122 73.5509 54.0908 76.3464 54.0908 79.7948C54.0908 83.2432 55.5122 86.0387 57.2656 86.0387Z" fill="white"/>
<path d="M56.976 85.1991C58.6542 85.1991 60.0146 82.7795 60.0146 79.7948C60.0146 76.8101 58.6542 74.3905 56.976 74.3905C55.2979 74.3905 53.9375 76.8101 53.9375 79.7948C53.9375 82.7795 55.2979 85.1991 56.976 85.1991Z" fill="#263238"/>
<path d="M56.3093 83.7397C57.5345 83.7397 58.5277 81.9735 58.5277 79.7949C58.5277 77.6162 57.5345 75.85 56.3093 75.85C55.084 75.85 54.0908 77.6162 54.0908 79.7949C54.0908 81.9735 55.084 83.7397 56.3093 83.7397Z" fill="black"/>
<path opacity="0.5" d="M122.523 75.0799V75.2301C122.523 75.5987 122.377 75.9523 122.116 76.2129C121.855 76.4736 121.502 76.6201 121.133 76.6201H64.9492V73.6899H121.133C121.502 73.6899 121.855 73.8364 122.116 74.0971C122.377 74.3577 122.523 74.7113 122.523 75.0799Z" fill="black"/>
<path d="M105.062 79.7865C105.062 75.3635 107.066 71.7773 109.537 71.7773H104.789C102.315 71.7773 100.311 75.3635 100.311 79.7865C100.311 84.2094 102.315 87.7929 104.789 87.7929H109.532C107.066 87.8012 105.062 84.2178 105.062 79.7865Z" fill="black"/>
<path opacity="0.7" d="M105.062 79.7865C105.062 75.3635 107.066 71.7773 109.537 71.7773H104.789C102.315 71.7773 100.311 75.3635 100.311 79.7865C100.311 84.2094 102.315 87.7929 104.789 87.7929H109.532C107.066 87.8012 105.062 84.2178 105.062 79.7865Z" fill="#263238"/>
<path d="M109.537 87.804C112.011 87.804 114.016 84.2182 114.016 79.7948C114.016 75.3715 112.011 71.7856 109.537 71.7856C107.064 71.7856 105.059 75.3715 105.059 79.7948C105.059 84.2182 107.064 87.804 109.537 87.804Z" fill="#263238"/>
<path d="M109.899 86.0387C111.653 86.0387 113.074 83.2432 113.074 79.7948C113.074 76.3464 111.653 73.5509 109.899 73.5509C108.146 73.5509 106.725 76.3464 106.725 79.7948C106.725 83.2432 108.146 86.0387 109.899 86.0387Z" fill="white"/>
<path d="M109.607 85.1991C111.285 85.1991 112.645 82.7795 112.645 79.7948C112.645 76.8101 111.285 74.3905 109.607 74.3905C107.929 74.3905 106.568 76.8101 106.568 79.7948C106.568 82.7795 107.929 85.1991 109.607 85.1991Z" fill="#263238"/>
<path d="M108.94 83.7397C110.165 83.7397 111.159 81.9735 111.159 79.7949C111.159 77.6162 110.165 75.85 108.94 75.85C107.715 75.85 106.722 77.6162 106.722 79.7949C106.722 81.9735 107.715 83.7397 108.94 83.7397Z" fill="black"/>
<path d="M91.4227 40.6079C91.3671 41.6782 91.2698 42.7124 91.1113 43.766C90.9744 44.8543 90.7361 45.9274 90.3997 46.9713C90.2935 47.2754 90.1605 47.5694 90.0021 47.8498C89.8919 48.039 89.7573 48.2128 89.6018 48.3669L89.524 48.4392L89.4795 48.4725L89.4572 48.492L89.3627 48.5559L89.1765 48.6866C88.7043 48.9896 88.2077 49.2527 87.6919 49.4733C86.713 49.9036 85.6956 50.2405 84.6534 50.4797L84.292 49.49C85.176 49.0007 86.0823 48.5003 86.908 47.9805C87.3116 47.7329 87.6996 47.4609 88.07 47.1659L88.1923 47.0631L88.2535 47.0103C88.2535 47.0103 88.2785 46.9686 88.3091 46.9018C88.3903 46.7221 88.4572 46.5361 88.5093 46.3458C88.6349 45.8886 88.7342 45.4245 88.8067 44.9558C88.8929 44.4721 88.9624 43.9801 89.0208 43.4797C89.1348 42.4872 89.2321 41.4697 89.2988 40.48L91.4227 40.6079Z" fill="#CE7A63"/>
<path d="M84.9511 49.5039L83.2441 48.9757L83.5638 51.0412C83.5638 51.0412 84.6758 50.9022 85.2318 50.2795L84.9511 49.5039Z" fill="#CE7A63"/>
<path d="M81.1757 50.3045L81.2702 50.5825C81.3236 50.7361 81.4253 50.8681 81.5602 50.9589C81.695 51.0496 81.8557 51.0941 82.018 51.0857L82.8882 51.0468L82.5657 48.9757L81.6094 49.351C81.4279 49.4232 81.2815 49.5628 81.2007 49.7405C81.1198 49.9182 81.1109 50.1204 81.1757 50.3045Z" fill="#CE7A63"/>
<path d="M93.4407 38.6036C93.4407 39.2485 93.1293 40.5218 92.8625 41.4781C92.6651 42.1647 92.501 42.6874 92.501 42.6874L92.1091 42.5901L88.8787 41.7728C88.8287 40.1048 88.8926 38.2894 90.5467 37.1997C91.5809 36.5158 93.4324 37.4554 93.4407 38.6036Z" fill="#263238"/>
<path opacity="0.3" d="M93.4386 38.7147C93.2273 38.4923 92.7492 38.4534 91.7067 38.7842C90.2138 39.2568 89.7968 40.8915 89.7773 42.0007L92.1098 42.5901L92.3099 42.6429L92.5017 42.6874C92.5017 42.6874 92.5824 42.426 92.6991 42.0285C92.7464 41.8673 92.8048 41.6782 92.8604 41.4725C93.1386 40.5733 93.3322 39.65 93.4386 38.7147Z" fill="black"/>
<path d="M86.8109 90.5006L84.8398 89.8112L86.0797 85.5411L88.048 86.2333L86.8109 90.5006Z" fill="#CE7A63"/>
<path d="M113.146 85.441L111.542 86.6364L108.259 83.3087L109.863 82.1133L113.146 85.441Z" fill="#CE7A63"/>
<path d="M110.886 86.1499L112.618 84.7182C112.647 84.6928 112.685 84.6788 112.723 84.6788C112.762 84.6788 112.8 84.6928 112.829 84.7182L114.158 85.9247C114.188 85.9544 114.211 85.9897 114.228 86.0286C114.244 86.0675 114.252 86.1092 114.252 86.1513C114.252 86.1934 114.244 86.2351 114.228 86.274C114.211 86.3128 114.188 86.3482 114.158 86.3779L114.13 86.4029C113.519 86.8922 113.196 87.0979 112.434 87.7262C111.967 88.1126 110.986 89.0383 110.338 89.5721C109.69 90.1058 109.129 89.497 109.351 89.2162C110.344 87.9597 110.574 87.1312 110.691 86.4529C110.719 86.3325 110.788 86.2255 110.886 86.1499Z" fill="#263238"/>
<path d="M84.7065 89.194L86.8971 90.1086C86.9362 90.1257 86.9687 90.155 86.9897 90.1921C87.0108 90.2291 87.0193 90.272 87.0139 90.3143L86.7665 92.2464C86.7568 92.3238 86.7168 92.3942 86.6553 92.4421C86.5938 92.49 86.5158 92.5116 86.4384 92.5022C86.4097 92.4992 86.3815 92.4917 86.355 92.48C85.5794 92.1658 85.2152 92.0102 84.2534 91.6071L81.301 90.37C80.5004 90.0336 80.6727 89.1551 81.023 89.219C82.6437 89.5137 83.689 89.4164 84.3284 89.1746C84.3896 89.1527 84.4545 89.1431 84.5194 89.1465C84.5843 89.1498 84.6479 89.166 84.7065 89.194Z" fill="#263238"/>
<path opacity="0.2" d="M86.08 85.5439L85.4434 87.7429L87.3616 88.6102L88.051 86.2333L86.08 85.5439Z" fill="black"/>
<path opacity="0.2" d="M109.866 82.1133L108.259 83.3087L109.952 85.024L111.556 83.8286L109.866 82.1133Z" fill="black"/>
<path d="M99.5018 49.0397L91.3842 49.1565C90.2722 42.8709 89.9942 39.8713 89.9942 38.4285C89.9927 38.0686 90.1169 37.7195 90.3453 37.4414C90.5737 37.1633 90.8919 36.9736 91.2452 36.905C91.74 36.8077 92.3572 36.6965 92.9771 36.6103C93.1884 36.5825 93.4024 36.5547 93.6137 36.5325C94.8397 36.4273 96.0715 36.4097 97.3 36.4797C97.4835 36.4797 97.6642 36.4964 97.856 36.5075C98.69 36.5603 99.4517 36.6659 99.9938 36.7493C100.189 36.7807 100.363 36.8883 100.479 37.0483C100.595 37.2083 100.642 37.4078 100.611 37.6028C100.612 37.6167 100.612 37.6306 100.611 37.6445C100.372 38.7565 100.177 39.7434 100.022 40.6219C99.7742 42.0119 99.6185 43.1461 99.5268 44.1358C99.3878 45.7672 99.3794 47.407 99.5018 49.0397Z" fill="#263238"/>
<path opacity="0.1" d="M99.5236 44.1441C99.115 42.9181 99.1372 40.3744 99.5764 39.5515L100.024 40.6274C99.771 42.0257 99.6154 43.1544 99.5236 44.1441Z" fill="black"/>
<path d="M91.384 49.1565C91.384 49.1565 89.994 60.9742 88.7403 68.3385C87.7478 74.1042 85.2402 86.1054 85.2402 86.1054L88.4956 87.2591C88.4956 87.2591 92.2236 74.7491 92.8769 69.406C95.504 61.7026 97.3944 49.0981 97.3944 49.0981L91.384 49.1565Z" fill="#FF6644"/>
<path d="M84.7119 86.9116L88.4788 88.2377L88.982 87.0284L84.8954 85.466L84.7119 86.9116Z" fill="#263238"/>
<path opacity="0.1" d="M95.4985 52.6676L94.2808 55C93.836 56.7569 93.9417 61.0326 94.506 63.7347C95.5179 59.662 96.3269 55.3753 96.8301 52.498L95.4985 52.6676Z" fill="black"/>
<path d="M93.1465 49.1564C93.1465 49.1564 94.6004 62.3836 97.3165 69.7284C98.6787 73.4119 108.784 84.3317 108.784 84.3317L111.064 82.5081C111.064 82.5081 104.656 71.4909 101.853 68.6081C100.711 62.2141 102.148 52.6286 99.4932 49.0424L93.1465 49.1564Z" fill="#FF6644"/>
<path d="M108.976 85.113L111.65 82.9223L110.927 81.7353L108 84.2845L108.976 85.113Z" fill="#263238"/>
<path d="M99.6295 48.5643L100.005 49.2843C100.033 49.3399 99.9686 49.401 99.8741 49.401L91.3562 49.5234C91.2811 49.5234 91.2227 49.4872 91.2144 49.4427L91.1338 48.7172C91.1338 48.6671 91.1922 48.6226 91.27 48.6226L99.4933 48.5031C99.5192 48.5015 99.5451 48.5063 99.5689 48.517C99.5926 48.5276 99.6134 48.5438 99.6295 48.5643Z" fill="#263238"/>
<path d="M98.5257 49.504H98.7509C98.7926 49.504 98.826 49.479 98.8232 49.4539L98.7037 48.5088C98.7037 48.481 98.6647 48.4615 98.6203 48.4615H98.4118C98.3673 48.4615 98.3339 48.4865 98.3395 48.5115L98.4562 49.4539C98.4423 49.4762 98.484 49.504 98.5257 49.504Z" fill="#FF6644"/>
<path d="M91.9676 49.5929H92.19C92.2345 49.5929 92.2651 49.5679 92.2623 49.5401L92.1483 48.5976C92.1483 48.5698 92.1038 48.5476 92.0593 48.5476H91.8369C91.7925 48.5476 91.7591 48.5726 91.7619 48.6004L91.8786 49.5429C91.8842 49.5707 91.9231 49.5929 91.9676 49.5929Z" fill="#FF6644"/>
<path d="M95.2479 49.5401H95.4703C95.5147 49.5401 95.5481 49.5151 95.5453 49.4873L95.4286 48.5448C95.4286 48.5143 95.3869 48.492 95.3424 48.4948H95.12C95.0755 48.4948 95.0449 48.5198 95.0449 48.5476L95.1617 49.49C95.1589 49.5234 95.2034 49.5401 95.2479 49.5401Z" fill="#FF6644"/>
<path d="M80.5195 40.8359L92.5681 39.1818L94.236 51.0107L82.4044 52.6342L80.5195 40.8359Z" fill="#FF6644"/>
<path opacity="0.8" d="M80.5195 40.8359L92.5681 39.1818L94.236 51.0107L82.4044 52.6342L80.5195 40.8359Z" fill="white"/>
<path opacity="0.2" d="M92.7339 38.6106L89.5166 39.0656L91.2423 51.2689L94.4596 50.8139L92.7339 38.6106Z" fill="#FF6644"/>
<path d="M95.9844 49.5206L94.3164 48.8673L94.4804 50.9523C94.4804 50.9523 95.5924 50.8967 96.1901 50.3157L95.9844 49.5206Z" fill="#CE7A63"/>
<path d="M101.23 39.1401C101.678 40.3911 102.064 41.6421 102.392 42.9209C102.559 43.5631 102.715 44.208 102.84 44.8669C102.901 45.2005 102.954 45.5396 102.993 45.8927C103.038 46.2616 103.053 46.6334 103.04 47.0047C103.032 47.2465 102.995 47.4864 102.929 47.7192C102.838 48.0054 102.685 48.2682 102.481 48.4892C102.184 48.8077 101.831 49.0687 101.439 49.2593C100.797 49.5705 100.122 49.8065 99.4261 49.9626C98.1254 50.2643 96.7989 50.4421 95.4646 50.4936L95.334 49.4455C95.9428 49.301 96.5655 49.1397 97.1716 48.9702C97.7776 48.8006 98.3809 48.6115 98.9591 48.4003C99.5114 48.2105 100.044 47.9675 100.549 47.6747C100.733 47.5673 100.896 47.4291 101.033 47.266C101.069 47.2104 101.069 47.1965 101.064 47.1965C101.069 47.1141 101.069 47.0315 101.064 46.9491C101.053 46.6796 101.024 46.4112 100.977 46.1457C100.933 45.8677 100.872 45.5563 100.805 45.2505C100.666 44.6556 100.51 44.0468 100.335 43.438C99.9877 42.2314 99.5957 41.0055 99.2037 39.824L101.23 39.1401Z" fill="#CE7A63"/>
<path d="M92.7792 49.8959L92.9099 50.3796C92.9491 50.535 93.0379 50.6733 93.1628 50.7736C93.2877 50.8739 93.442 50.9308 93.6021 50.9356L94.4973 50.9606L94.3332 48.8784L93.4214 48.9813C93.3246 48.991 93.2307 49.0197 93.145 49.0658C93.0593 49.1119 92.9836 49.1745 92.9221 49.2499C92.8607 49.3253 92.8147 49.4121 92.7868 49.5053C92.759 49.5985 92.7498 49.6963 92.7598 49.793C92.7639 49.8277 92.7704 49.8621 92.7792 49.8959Z" fill="#CE7A63"/>
<path d="M100.283 36.8104C101.217 37.1913 101.981 40.2604 101.981 40.2604L99.4013 42.2759C99.4013 42.2759 97.5721 39.4125 97.9446 38.1699C98.2615 37.119 99.0927 36.3295 100.283 36.8104Z" fill="#263238"/>
<path d="M110.254 87.0172H110.221C110.174 87.014 110.129 86.9991 110.089 86.9738C110.05 86.9486 110.018 86.9138 109.995 86.8727C109.979 86.849 109.969 86.8213 109.966 86.7925C109.964 86.7637 109.969 86.7348 109.982 86.7087C110.096 86.4863 110.816 86.3973 110.893 86.389C110.903 86.3872 110.912 86.3884 110.921 86.3924C110.929 86.3964 110.936 86.403 110.941 86.4112C110.946 86.419 110.949 86.4282 110.949 86.4376C110.949 86.447 110.946 86.4562 110.941 86.464C110.791 86.667 110.499 87.0006 110.254 87.0172ZM110.796 86.4974C110.518 86.5391 110.126 86.6308 110.07 86.7531C110.064 86.7635 110.06 86.7756 110.06 86.7879C110.06 86.8002 110.064 86.8123 110.07 86.8226C110.084 86.8512 110.104 86.8756 110.13 86.8932C110.156 86.9108 110.186 86.921 110.218 86.9227C110.357 86.9227 110.579 86.7726 110.802 86.4974H110.796Z" fill="#263238"/>
<path d="M110.861 86.478C110.619 86.478 110.135 86.3918 110.027 86.2C110.009 86.1667 110.004 86.1286 110.011 86.0917C110.018 86.0549 110.037 86.0216 110.065 85.997C110.09 85.9701 110.12 85.9489 110.154 85.935C110.187 85.921 110.224 85.9147 110.26 85.9164C110.552 85.9164 110.922 86.364 110.933 86.389C110.937 86.3957 110.939 86.4034 110.939 86.4113C110.939 86.4191 110.937 86.4268 110.933 86.4335C110.931 86.4416 110.926 86.4489 110.92 86.4544C110.913 86.4599 110.905 86.4632 110.897 86.4641L110.861 86.478ZM110.243 86.0165C110.204 86.0203 110.168 86.038 110.141 86.0665C110.099 86.111 110.107 86.1388 110.118 86.161C110.182 86.2834 110.563 86.3834 110.808 86.3834C110.668 86.2085 110.479 86.0796 110.266 86.0137L110.243 86.0165Z" fill="#263238"/>
<path d="M83.586 89.1495C83.4315 89.0991 83.2965 89.002 83.1996 88.8715C83.1776 88.833 83.1642 88.7902 83.1603 88.7461C83.1565 88.7019 83.1623 88.6574 83.1773 88.6158C83.185 88.5917 83.1987 88.5701 83.2172 88.5531C83.2358 88.536 83.2584 88.5241 83.283 88.5185C83.5387 88.4712 84.142 89.1189 84.2588 89.2496C84.2643 89.2578 84.2672 89.2675 84.2672 89.2774C84.2672 89.2873 84.2643 89.297 84.2588 89.3052C84.2541 89.314 84.2466 89.3209 84.2376 89.3249C84.2285 89.329 84.2184 89.3298 84.2087 89.3274C83.9957 89.2893 83.787 89.2297 83.586 89.1495ZM83.3942 88.6269C83.3657 88.6131 83.334 88.6074 83.3024 88.6102C83.3024 88.6102 83.2774 88.6102 83.2663 88.6436C83.2551 88.6725 83.2508 88.7036 83.2537 88.7345C83.2566 88.7654 83.2666 88.7951 83.283 88.8215C83.3692 88.9716 83.6666 89.1134 84.0892 89.2051C83.8909 88.9776 83.6583 88.7825 83.3997 88.6269H83.3942Z" fill="#263238"/>
<path d="M84.2058 89.3218H84.1892C83.9862 89.1189 83.6554 88.5101 83.7694 88.3155C83.7944 88.2738 83.8472 88.2293 83.9668 88.2627C84.4143 88.3933 84.2781 89.2607 84.2698 89.2968C84.2698 89.3059 84.2664 89.3147 84.2602 89.3214C84.254 89.3281 84.2455 89.3323 84.2364 89.333C84.2308 89.3342 84.2249 89.3338 84.2195 89.3318C84.2141 89.3298 84.2094 89.3264 84.2058 89.3218ZM83.9834 88.3516H83.9556C83.9112 88.3377 83.8778 88.3516 83.8667 88.3516C83.8 88.4656 84.014 88.9243 84.2086 89.1689C84.2058 88.9549 84.2336 88.4628 83.9834 88.3516Z" fill="#263238"/>
<path d="M92.596 28.1619C92.596 28.1619 91.484 30.0217 92.318 30.8362C93.152 31.6508 93.3966 28.7623 93.3966 28.7623L92.596 28.1619Z" fill="#263238"/>
<path d="M97.7614 32.5264C97.7614 32.5264 99.1514 30.3525 98.5732 28.1924C97.995 26.0324 95.2928 27.4279 94.153 26.8358C93.7354 26.582 93.2906 26.3759 92.8269 26.2214C92.7524 26.1993 92.6738 26.1946 92.5972 26.2076C92.5206 26.2206 92.448 26.251 92.3849 26.2965C92.1069 26.5411 92.5906 26.9998 92.7408 27.1722C92.6484 27.0654 92.5418 26.9718 92.4238 26.8942C92.2765 26.7969 92.0791 26.7885 92.1458 27.0359C92.2602 27.3018 92.4651 27.5185 92.7241 27.6476C92.6157 27.5864 91.9735 27.2611 91.929 27.4641C91.9234 27.5133 91.9363 27.5628 91.9651 27.6031C92.3821 28.3815 93.2217 29.36 94.1891 29.3795C95.354 29.3962 96.466 32.6738 97.7614 32.5264Z" fill="#263238"/>
<path d="M98.2528 32.6238C98.1805 33.3577 97.0907 33.366 97.0907 33.366C96.9123 33.7861 96.6159 34.1454 96.2373 34.4002C96.2038 34.8434 96.2187 35.289 96.2818 35.729C96.4652 36.4213 96.6988 36.6603 96.9907 36.816L96.7571 37.0468C96.3102 37.3046 95.8052 37.4452 95.2893 37.4554L94.9835 37.2775L94.5832 37.3414C93.4712 36.9773 93.7492 36.2294 93.7492 36.2294C93.952 35.7216 93.9629 35.1573 93.7798 34.6421C92.7122 34.3085 92.2758 33.3799 92.1257 31.8176C91.9755 30.2552 92.854 28.7596 92.854 28.7596C94.0605 29.9244 96.4513 29.1766 96.4513 29.1766C96.3485 31.3672 97.3715 32.1762 97.3715 32.1762C97.7079 31.876 98.3223 31.8926 98.2528 32.6238Z" fill="#CE7A63"/>
<path d="M94.3726 32.8239C94.6596 32.7437 94.9075 32.5619 95.0704 32.3124C95.0836 32.2927 95.0886 32.2687 95.0845 32.2454C95.0803 32.2221 95.0673 32.2013 95.0482 32.1873C95.0387 32.1803 95.028 32.1753 95.0165 32.1724C95.0051 32.1696 94.9932 32.1691 94.9816 32.1709C94.9699 32.1727 94.9588 32.1768 94.9487 32.183C94.9387 32.1891 94.93 32.1972 94.9231 32.2068C94.8293 32.3754 94.6839 32.5096 94.5083 32.5896C94.3327 32.6697 94.1361 32.6914 93.9473 32.6516C93.9248 32.6446 93.9005 32.6469 93.8796 32.6578C93.8588 32.6687 93.8431 32.6875 93.8361 32.71C93.8291 32.7328 93.8312 32.7575 93.8421 32.7788C93.853 32.8001 93.8718 32.8163 93.8945 32.8239C94.0512 32.8649 94.2159 32.8649 94.3726 32.8239Z" fill="#263238"/>
<path d="M94.6888 30.9113C94.6888 31.053 94.6332 31.1754 94.5387 31.1893C94.4442 31.2032 94.358 31.0864 94.3469 30.9446C94.3358 30.8028 94.4052 30.6666 94.4998 30.6666C94.5943 30.6666 94.6777 30.7667 94.6888 30.9113Z" fill="#263238"/>
<path d="M92.9878 30.8391C92.9878 30.9808 92.9322 31.1032 92.8377 31.1171C92.7432 31.131 92.6598 31.0142 92.6487 30.8724C92.6376 30.7306 92.7043 30.6083 92.7988 30.5944C92.8933 30.5805 92.9795 30.6945 92.9878 30.8391Z" fill="#263238"/>
<path d="M93.4382 32.2151L93.4187 31.1865L92.9072 32.0539C92.9779 32.1189 93.0624 32.1672 93.1543 32.1951C93.2462 32.223 93.3433 32.2299 93.4382 32.2151Z" fill="#BA4D3C"/>
<path d="M95.4644 30.0439C95.4765 30.0407 95.4878 30.035 95.4977 30.0273C95.5113 30.0193 95.5231 30.0086 95.5325 29.996C95.5419 29.9833 95.5485 29.9689 95.5522 29.9536C95.5558 29.9382 95.5563 29.9223 95.5537 29.9068C95.551 29.8913 95.5452 29.8765 95.5367 29.8632C95.4441 29.7081 95.3098 29.582 95.1491 29.4994C94.9883 29.4169 94.8077 29.3811 94.6276 29.3962C94.612 29.3979 94.5968 29.4027 94.5831 29.4104C94.5694 29.4181 94.5573 29.4285 94.5477 29.441C94.5381 29.4535 94.5311 29.4677 94.5272 29.483C94.5232 29.4982 94.5224 29.5141 94.5247 29.5296C94.5289 29.5609 94.5453 29.5893 94.5703 29.6086C94.5953 29.6278 94.6269 29.6364 94.6582 29.6325C94.7926 29.6241 94.9267 29.6529 95.0459 29.7157C95.165 29.7784 95.2646 29.8728 95.3337 29.9883C95.3467 30.0104 95.3664 30.0276 95.3899 30.0376C95.4134 30.0476 95.4395 30.0499 95.4644 30.0439Z" fill="#263238"/>
<path d="M92.4483 29.93C92.4795 29.9218 92.5064 29.9019 92.5233 29.8744C92.5732 29.799 92.6439 29.7397 92.7268 29.7037C92.8097 29.6676 92.9012 29.6564 92.9904 29.6714C93.0057 29.6746 93.0216 29.6747 93.037 29.6717C93.0524 29.6686 93.067 29.6625 93.08 29.6537C93.0929 29.6449 93.104 29.6335 93.1125 29.6203C93.121 29.6071 93.1267 29.5924 93.1294 29.5769C93.1351 29.546 93.1284 29.514 93.1107 29.488C93.093 29.462 93.0657 29.444 93.0349 29.4379C92.8973 29.4124 92.7553 29.429 92.6273 29.4856C92.4993 29.5421 92.3914 29.636 92.3176 29.7548C92.3021 29.7823 92.2978 29.8147 92.3055 29.8452C92.3133 29.8758 92.3326 29.9022 92.3593 29.9189C92.3866 29.9334 92.4183 29.9374 92.4483 29.93Z" fill="#263238"/>
<path d="M97.4447 36.9133L96.847 37.4971L95.7822 38.5424L95.3819 37.9058L94.9844 37.2775L96.3744 35.6206L97.3863 36.8438L97.4447 36.9133Z" fill="white"/>
<path d="M94.9841 37.2775L94.6755 37.7918L94.2223 38.5424L93.1826 36.6659L93.847 35.8847L94.9841 37.2775Z" fill="white"/>
</g>
<defs>
<clipPath id="clip0_1450_4443">
<rect width="139" height="139" fill="white" transform="translate(0 -25)"/>
</clipPath>
</defs>
</svg>
