<svg width="398" height="295" viewBox="0 0 398 295" fill="none" xmlns="http://www.w3.org/2000/svg">
<g clip-path="url(#clip0_2973_13784)">
<path d="M398 253.39H0V253.589H398V253.39Z" fill="#EBEBEB"/>
<path d="M137.883 258.469H119.432V258.668H137.883V258.469Z" fill="#EBEBEB"/>
<path d="M365.181 262.736H320.072V262.935H365.181V262.736Z" fill="#EBEBEB"/>
<path d="M79.1142 262.736H34.0049V262.935H79.1142V262.736Z" fill="#EBEBEB"/>
<path d="M188.652 217.889H34.9522C33.7482 217.887 32.5941 217.407 31.7435 216.555C30.8928 215.703 30.415 214.548 30.415 213.344V-2.71461C30.4255 -3.91177 30.9079 -5.05646 31.7574 -5.90003C32.607 -6.7436 33.755 -7.21792 34.9522 -7.21997H188.652C189.857 -7.21997 191.013 -6.74111 191.866 -5.88872C192.718 -5.03634 193.197 -3.88026 193.197 -2.67481V213.344C193.197 214.549 192.718 215.705 191.866 216.558C191.013 217.41 189.857 217.889 188.652 217.889ZM34.9522 -7.06077C33.8009 -7.05866 32.6975 -6.59983 31.8842 -5.785C31.0708 -4.97017 30.614 -3.86591 30.614 -2.71461V213.344C30.614 214.495 31.0708 215.599 31.8842 216.414C32.6975 217.229 33.8009 217.688 34.9522 217.69H188.652C189.803 217.686 190.906 217.226 191.72 216.412C192.535 215.598 192.994 214.495 192.998 213.344V-2.71461C192.994 -3.86599 192.535 -4.96902 191.72 -5.78318C190.906 -6.59733 189.803 -7.05658 188.652 -7.06077H34.9522Z" fill="#EBEBEB"/>
<path d="M360.835 217.889H207.127C205.923 217.885 204.769 217.404 203.918 216.553C203.066 215.701 202.586 214.548 202.582 213.344V-2.71461C202.595 -3.9125 203.079 -5.05718 203.93 -5.90053C204.78 -6.74388 205.929 -7.21794 207.127 -7.21997H360.835C362.031 -7.21583 363.177 -6.74058 364.024 -5.89724C364.872 -5.05389 365.354 -3.9104 365.364 -2.71461V213.344C365.365 213.939 365.249 214.53 365.022 215.081C364.795 215.631 364.461 216.132 364.041 216.554C363.62 216.976 363.121 217.311 362.57 217.54C362.02 217.769 361.431 217.888 360.835 217.889ZM207.127 -7.06077C205.976 -7.05658 204.873 -6.59733 204.059 -5.78318C203.244 -4.96902 202.785 -3.86599 202.781 -2.71461V213.344C202.785 214.495 203.244 215.598 204.059 216.412C204.873 217.226 205.976 217.686 207.127 217.69H360.835C361.986 217.686 363.089 217.226 363.903 216.412C364.718 215.598 365.177 214.495 365.181 213.344V-2.71461C365.177 -3.86599 364.718 -4.96902 363.903 -5.78318C363.089 -6.59733 361.986 -7.05658 360.835 -7.06077H207.127Z" fill="#EBEBEB"/>
<path d="M78.5654 52.8062H144.872C145.539 52.8051 146.2 52.9357 146.817 53.1906C147.434 53.4454 147.994 53.8195 148.466 54.2913C148.937 54.7631 149.311 55.3233 149.566 55.9399C149.821 56.5566 149.952 57.2174 149.951 57.8846V253.207H73.5347V57.8767C73.5367 56.5394 74.0661 55.2569 75.008 54.3076C75.9499 53.3582 77.2282 52.8187 78.5654 52.8062Z" fill="#F5F5F5"/>
<path d="M89.6933 64.6428H79.8389V86.5806H89.6933V64.6428Z" fill="#EBEBEB"/>
<path d="M143.583 64.6428H133.728V86.5806H143.583V64.6428Z" fill="#EBEBEB"/>
<path d="M107.651 64.6428H97.7964V86.5806H107.651V64.6428Z" fill="#EBEBEB"/>
<path d="M125.617 64.6428H115.763V86.5806H125.617V64.6428Z" fill="#EBEBEB"/>
<path d="M89.6933 99.2769H79.8389V121.215H89.6933V99.2769Z" fill="#EBEBEB"/>
<path d="M143.583 99.2769H133.728V121.215H143.583V99.2769Z" fill="#EBEBEB"/>
<path d="M107.651 99.2769H97.7964V121.215H107.651V99.2769Z" fill="#EBEBEB"/>
<path d="M125.617 99.2769H115.763V121.215H125.617V99.2769Z" fill="#EBEBEB"/>
<path d="M89.6933 133.903H79.8389V155.841H89.6933V133.903Z" fill="#EBEBEB"/>
<path d="M143.583 133.903H133.728V155.841H143.583V133.903Z" fill="#EBEBEB"/>
<path d="M107.651 133.903H97.7964V155.841H107.651V133.903Z" fill="#EBEBEB"/>
<path d="M125.617 133.903H115.763V155.841H125.617V133.903Z" fill="#EBEBEB"/>
<path d="M89.6933 168.537H79.8389V190.475H89.6933V168.537Z" fill="#EBEBEB"/>
<path d="M143.583 168.537H133.728V190.475H143.583V168.537Z" fill="#EBEBEB"/>
<path d="M107.651 168.537H97.7964V190.475H107.651V168.537Z" fill="#EBEBEB"/>
<path d="M125.617 168.537H115.763V190.475H125.617V168.537Z" fill="#EBEBEB"/>
<path d="M89.6933 203.163H79.8389V225.101H89.6933V203.163Z" fill="#EBEBEB"/>
<path d="M143.583 203.163H133.728V225.101H143.583V203.163Z" fill="#EBEBEB"/>
<path d="M107.651 203.163H97.7964V225.101H107.651V203.163Z" fill="#EBEBEB"/>
<path d="M125.617 203.163H115.763V225.101H125.617V203.163Z" fill="#EBEBEB"/>
<path d="M313.576 71.011H361.05C362.145 71.0131 363.194 71.449 363.969 72.2233C364.743 72.9976 365.179 74.0472 365.181 75.1422V253.207H309.461V75.1502C309.461 74.0565 309.894 73.0073 310.665 72.2317C311.436 71.4562 312.483 71.0173 313.576 71.011Z" fill="#F5F5F5"/>
<path d="M325.5 81.7808H316.545V101.721H325.5V81.7808Z" fill="#EBEBEB"/>
<path d="M341.834 81.7808H332.879V101.721H341.834V81.7808Z" fill="#EBEBEB"/>
<path d="M358.161 81.7808H349.206V101.721H358.161V81.7808Z" fill="#EBEBEB"/>
<path d="M325.5 113.262H316.545V133.202H325.5V113.262Z" fill="#EBEBEB"/>
<path d="M341.834 113.262H332.879V133.202H341.834V113.262Z" fill="#EBEBEB"/>
<path d="M358.161 113.262H349.206V133.202H358.161V113.262Z" fill="#EBEBEB"/>
<path d="M325.5 144.752H316.545V164.692H325.5V144.752Z" fill="#EBEBEB"/>
<path d="M341.834 144.752H332.879V164.692H341.834V144.752Z" fill="#EBEBEB"/>
<path d="M358.161 144.752H349.206V164.692H358.161V144.752Z" fill="#EBEBEB"/>
<path d="M325.5 176.226H316.545V196.166H325.5V176.226Z" fill="#EBEBEB"/>
<path d="M341.834 176.226H332.879V196.166H341.834V176.226Z" fill="#EBEBEB"/>
<path d="M358.161 176.226H349.206V196.166H358.161V176.226Z" fill="#EBEBEB"/>
<path d="M325.5 207.716H316.545V227.656H325.5V207.716Z" fill="#EBEBEB"/>
<path d="M341.834 207.716H332.879V227.656H341.834V207.716Z" fill="#EBEBEB"/>
<path d="M358.161 207.716H349.206V227.656H358.161V207.716Z" fill="#EBEBEB"/>
<path d="M204.819 20.0508H281.935C283.502 20.0508 285.004 20.673 286.112 21.7807C287.219 22.8883 287.842 24.3906 287.842 25.9571V253.207H198.92V25.9571C198.92 24.392 199.542 22.8909 200.648 21.7835C201.753 20.6761 203.254 20.0529 204.819 20.0508Z" fill="#F5F5F5"/>
<path d="M217.762 33.8298H206.299V59.3496H217.762V33.8298Z" fill="#EBEBEB"/>
<path d="M280.455 33.8298H268.993V59.3496H280.455V33.8298Z" fill="#EBEBEB"/>
<path d="M238.657 33.8298H227.194V59.3496H238.657V33.8298Z" fill="#EBEBEB"/>
<path d="M259.56 33.8298H248.098V59.3496H259.56V33.8298Z" fill="#EBEBEB"/>
<path d="M217.762 74.123H206.299V99.6428H217.762V74.123Z" fill="#EBEBEB"/>
<path d="M280.455 74.123H268.993V99.6428H280.455V74.123Z" fill="#EBEBEB"/>
<path d="M238.657 74.123H227.194V99.6428H238.657V74.123Z" fill="#EBEBEB"/>
<path d="M259.56 74.123H248.098V99.6428H259.56V74.123Z" fill="#EBEBEB"/>
<path d="M217.762 114.417H206.299V139.937H217.762V114.417Z" fill="#EBEBEB"/>
<path d="M280.455 114.417H268.993V139.937H280.455V114.417Z" fill="#EBEBEB"/>
<path d="M238.657 114.417H227.194V139.937H238.657V114.417Z" fill="#EBEBEB"/>
<path d="M259.56 114.417H248.098V139.937H259.56V114.417Z" fill="#EBEBEB"/>
<path d="M217.762 154.702H206.299V180.222H217.762V154.702Z" fill="#EBEBEB"/>
<path d="M280.455 154.702H268.993V180.222H280.455V154.702Z" fill="#EBEBEB"/>
<path d="M238.657 154.702H227.194V180.222H238.657V154.702Z" fill="#EBEBEB"/>
<path d="M259.56 154.702H248.098V180.222H259.56V154.702Z" fill="#EBEBEB"/>
<path d="M217.762 194.988H206.299V220.508H217.762V194.988Z" fill="#EBEBEB"/>
<path d="M280.455 194.988H268.993V220.508H280.455V194.988Z" fill="#EBEBEB"/>
<path d="M238.657 194.988H227.194V220.508H238.657V194.988Z" fill="#EBEBEB"/>
<path d="M259.56 194.988H248.098V220.508H259.56V194.988Z" fill="#EBEBEB"/>
<path d="M198.913 103.559H149.927V253.215H198.913V103.559Z" fill="#E6E6E6"/>
<path d="M309.493 119.583H287.85V253.208H309.493V119.583Z" fill="#E6E6E6"/>
<path d="M73.4868 253.207H30.6143V190.729L73.4868 176.226V253.207Z" fill="#E6E6E6"/>
<path d="M199 289.338C284.238 289.338 353.336 283.675 353.336 276.689C353.336 269.704 284.238 264.041 199 264.041C113.762 264.041 44.6636 269.704 44.6636 276.689C44.6636 283.675 113.762 289.338 199 289.338Z" fill="#F5F5F5"/>
<path d="M236.953 226.74H223.421C216.376 226.74 210.685 236.953 210.685 249.554C210.685 262.154 216.392 272.359 223.421 272.359H236.953C243.998 272.359 249.689 262.147 249.689 249.554C249.689 236.961 243.998 226.74 236.953 226.74Z" fill="#263238"/>
<mask id="mask0_2973_13784" style="mask-type:luminance" maskUnits="userSpaceOnUse" x="210" y="226" width="40" height="47">
<path d="M236.953 226.74H223.421C216.376 226.74 210.685 236.953 210.685 249.554C210.685 262.154 216.392 272.359 223.421 272.359H236.953C243.998 272.359 249.689 262.147 249.689 249.554C249.689 236.961 243.998 226.74 236.953 226.74Z" fill="white"/>
</mask>
<g mask="url(#mask0_2973_13784)">
<path opacity="0.05" d="M252.873 226.74H239.341C232.296 226.74 226.605 236.953 226.605 249.554C226.605 262.154 232.312 272.359 239.341 272.359H252.873C259.918 272.359 265.609 262.146 265.609 249.554C265.609 236.961 259.918 226.74 252.873 226.74Z" fill="white"/>
</g>
<path d="M346.571 231.628L109.609 231.46V80.1011H346.571V231.628Z" fill="#FFCA4A"/>
<path opacity="0.3" d="M346.57 80.1011H185.969V231.62H346.57V80.1011Z" fill="#263238"/>
<path opacity="0.2" d="M185.97 80.1011H109.609V234.613H185.97V80.1011Z" fill="white"/>
<path opacity="0.1" d="M110.183 87.1379H346.571" stroke="white" stroke-width="1.592" stroke-linecap="round" stroke-linejoin="round"/>
<path opacity="0.1" d="M110.183 93.689H346.571" stroke="white" stroke-width="1.592" stroke-linecap="round" stroke-linejoin="round"/>
<path opacity="0.1" d="M110.183 100.232H346.571" stroke="white" stroke-width="1.592" stroke-linecap="round" stroke-linejoin="round"/>
<path opacity="0.1" d="M110.183 106.775H346.571" stroke="white" stroke-width="1.592" stroke-linecap="round" stroke-linejoin="round"/>
<path opacity="0.1" d="M110.183 113.326H346.571" stroke="white" stroke-width="1.592" stroke-linecap="round" stroke-linejoin="round"/>
<path opacity="0.1" d="M110.183 119.869H346.571" stroke="white" stroke-width="1.592" stroke-linecap="round" stroke-linejoin="round"/>
<path opacity="0.1" d="M110.183 126.413H346.571" stroke="white" stroke-width="1.592" stroke-linecap="round" stroke-linejoin="round"/>
<path opacity="0.1" d="M110.183 132.955H346.571" stroke="white" stroke-width="1.592" stroke-linecap="round" stroke-linejoin="round"/>
<path opacity="0.1" d="M110.183 139.507H346.571" stroke="white" stroke-width="1.592" stroke-linecap="round" stroke-linejoin="round"/>
<path opacity="0.1" d="M110.183 146.05H346.571" stroke="white" stroke-width="1.592" stroke-linecap="round" stroke-linejoin="round"/>
<path opacity="0.1" d="M110.183 152.593H346.571" stroke="white" stroke-width="1.592" stroke-linecap="round" stroke-linejoin="round"/>
<path opacity="0.1" d="M110.183 159.144H346.571" stroke="white" stroke-width="1.592" stroke-linecap="round" stroke-linejoin="round"/>
<path opacity="0.1" d="M110.183 165.687H346.571" stroke="white" stroke-width="1.592" stroke-linecap="round" stroke-linejoin="round"/>
<path opacity="0.1" d="M110.183 172.23H346.571" stroke="white" stroke-width="1.592" stroke-linecap="round" stroke-linejoin="round"/>
<path opacity="0.1" d="M110.183 178.773H346.571" stroke="white" stroke-width="1.592" stroke-linecap="round" stroke-linejoin="round"/>
<path opacity="0.1" d="M110.183 185.324H346.571" stroke="white" stroke-width="1.592" stroke-linecap="round" stroke-linejoin="round"/>
<path opacity="0.1" d="M110.183 191.867H346.571" stroke="white" stroke-width="1.592" stroke-linecap="round" stroke-linejoin="round"/>
<path opacity="0.1" d="M110.183 198.41H346.571" stroke="white" stroke-width="1.592" stroke-linecap="round" stroke-linejoin="round"/>
<path opacity="0.1" d="M110.183 204.962H346.571" stroke="white" stroke-width="1.592" stroke-linecap="round" stroke-linejoin="round"/>
<path opacity="0.1" d="M110.183 211.505H346.571" stroke="white" stroke-width="1.592" stroke-linecap="round" stroke-linejoin="round"/>
<path opacity="0.1" d="M110.183 218.048H346.571" stroke="white" stroke-width="1.592" stroke-linecap="round" stroke-linejoin="round"/>
<path opacity="0.1" d="M110.183 224.599H346.571" stroke="white" stroke-width="1.592" stroke-linecap="round" stroke-linejoin="round"/>
<path d="M66.1238 229.717H53.6027C47.0755 229.717 41.79 239.174 41.79 250.843C41.79 262.512 47.0755 271.961 53.6027 271.961H66.1238C72.651 271.961 77.9364 262.505 77.9364 250.843C77.9364 239.182 72.651 229.717 66.1238 229.717Z" fill="#263238"/>
<path opacity="0.05" d="M82.0516 229.717H69.5226C62.9954 229.717 57.71 239.174 57.71 250.843C57.71 262.512 62.9954 271.961 69.5226 271.961H82.0516C88.5709 271.961 93.8643 262.505 93.8643 250.843C93.8643 239.182 88.5709 229.717 82.0516 229.717Z" fill="white"/>
<path d="M59.1584 188.46H53.2361C52.074 188.5 51.1188 187.259 51.0949 185.682C51.079 185.518 51.079 185.353 51.0949 185.189L52.6869 167.303C52.8859 165.464 54.0242 164.119 55.3933 164.031H61.3713C62.5255 164.031 63.4807 165.249 63.5046 166.825C63.5046 166.984 63.5046 167.144 63.5046 167.303L61.9126 185.189C61.6738 187.004 60.4957 188.413 59.1584 188.46Z" fill="#263238"/>
<path d="M65.0808 129.382L53.6582 190.984L178.017 239.699L177.15 118.293L149.799 117.497H74.8796C70.3742 117.458 66.4022 122.297 65.0808 129.382Z" fill="#FFCA4A"/>
<path d="M157.608 139.292C152.967 139.085 148.804 142.89 147.443 148.565L138.035 187.983H119.926L118.938 239.986H178.503" fill="#FFCA4A"/>
<path d="M66.8638 184.671C65.041 184.671 63.5684 182.331 63.5684 179.45C63.5675 178.947 63.6155 178.446 63.7117 177.953L70.5493 141.783C71.1224 138.782 72.8736 136.728 74.8556 136.736H140.271C140.979 136.736 141.56 137.644 141.56 138.774C141.562 138.974 141.543 139.174 141.505 139.371C140.072 146.822 135.415 171.506 133.632 180.946C133.218 183.159 131.929 184.671 130.448 184.671H66.8638Z" fill="#263238"/>
<path d="M127.057 200.703C127.056 201.337 127.011 201.97 126.922 202.598L126.579 204.93L126.38 206.307L124.916 216.368L122.528 232.726L121.867 237.271H29.3003V232.726L29.364 216.368L29.4515 206.586V202.606C28.6555 197.352 31.1948 192.258 35.0633 191.199C35.5172 191.075 35.9858 191.013 36.4563 191.016H119.925C123.865 190.984 127.057 195.346 127.057 200.703Z" fill="#FFCA4A"/>
<path d="M174.109 141.632V180.405C174.109 182.753 172.907 184.664 171.419 184.672H148.796C147.308 184.672 146.106 182.761 146.106 180.405C146.105 180.021 146.137 179.638 146.201 179.259L153.174 139.618C153.509 137.716 154.623 136.434 155.865 136.506L171.514 137.365C172.963 137.453 174.109 139.34 174.109 141.632Z" fill="#263238"/>
<path opacity="0.1" d="M105.024 136.736H92.5267L78.1748 184.671H90.68L105.024 136.736Z" fill="white"/>
<path opacity="0.1" d="M114.751 136.736H108.781L94.437 184.671H100.399L114.751 136.736Z" fill="white"/>
<path d="M151.041 216.368V232.726H29.3164L29.3801 216.368H151.041Z" fill="black"/>
<path d="M134.086 216.368H122.831L102.588 228.261V232.726H151.041V216.368H134.086Z" fill="white"/>
<path d="M50.299 228.261V232.726H29.3164L29.3801 216.368H30.0646L50.299 228.261Z" fill="white"/>
<path opacity="0.3" d="M178.073 239.986L177.15 118.293L160.434 117.497C156.262 117.29 151.447 122.138 150.229 127.758L138.114 190.984H133.393C128.092 190.984 124.462 194.845 124.47 198.944L124.542 240.002H178.073" fill="#263238"/>
<path d="M126.747 205.503C126.745 205.654 126.712 205.803 126.648 205.94C126.585 206.077 126.494 206.199 126.381 206.299C126.186 206.48 125.93 206.579 125.664 206.577H29.4517V204.412H125.688C125.871 204.413 126.051 204.46 126.211 204.549C126.372 204.638 126.506 204.766 126.603 204.922C126.704 205.099 126.754 205.3 126.747 205.503Z" fill="white"/>
<path d="M46.423 204.42V206.586H29.4204L29.4284 204.42H46.423Z" fill="#263238"/>
<path d="M126.747 205.503C126.745 205.654 126.712 205.803 126.649 205.94C126.586 206.077 126.494 206.199 126.381 206.299C126.186 206.48 125.93 206.579 125.664 206.577H102.326V204.412H125.664C125.848 204.413 126.028 204.46 126.188 204.549C126.348 204.638 126.483 204.766 126.58 204.922C126.689 205.096 126.747 205.297 126.747 205.503Z" fill="#263238"/>
<path d="M350.821 235.56V235.99C350.821 237.045 350.402 238.058 349.655 238.804C348.909 239.551 347.897 239.97 346.841 239.97H30.6699C29.6144 239.97 28.6021 239.551 27.8557 238.804C27.1093 238.058 26.6899 237.045 26.6899 235.99V235.56C26.6899 234.505 27.1093 233.492 27.8557 232.746C28.6021 231.999 29.6144 231.58 30.6699 231.58H346.841C347.897 231.58 348.909 231.999 349.655 232.746C350.402 233.492 350.821 234.505 350.821 235.56Z" fill="#263238"/>
<path d="M100.781 234.852H53.6582V237.152H100.781V234.852Z" fill="black"/>
<path d="M41.1209 235.998C41.1209 236.257 41.0441 236.511 40.9001 236.727C40.7562 236.942 40.5515 237.111 40.312 237.21C40.0724 237.31 39.8088 237.336 39.5542 237.286C39.2997 237.236 39.0656 237.112 38.8816 236.929C38.6976 236.746 38.5719 236.513 38.5204 236.259C38.4688 236.005 38.4937 235.741 38.5918 235.501C38.69 235.261 38.8571 235.055 39.0721 234.91C39.287 234.764 39.5402 234.686 39.7996 234.684C39.9727 234.683 40.1444 234.716 40.3046 234.782C40.4649 234.848 40.6106 234.944 40.7334 235.066C40.8562 235.188 40.9537 235.333 41.0202 235.493C41.0867 235.653 41.1209 235.825 41.1209 235.998Z" fill="white"/>
<path d="M112.036 235.998C112.036 236.257 111.959 236.511 111.815 236.727C111.671 236.943 111.466 237.112 111.226 237.211C110.986 237.311 110.722 237.337 110.467 237.286C110.212 237.235 109.978 237.11 109.794 236.926C109.611 236.743 109.486 236.509 109.435 236.254C109.384 235.999 109.41 235.735 109.51 235.495C109.609 235.255 109.777 235.05 109.993 234.906C110.209 234.761 110.463 234.684 110.723 234.684C110.896 234.684 111.066 234.718 111.226 234.784C111.385 234.85 111.53 234.947 111.652 235.069C111.774 235.191 111.87 235.336 111.936 235.495C112.003 235.654 112.036 235.825 112.036 235.998Z" fill="white"/>
<path d="M150.117 249.036C150.117 236.372 155.856 226.103 162.941 226.103H149.337C142.261 226.103 136.521 236.372 136.521 249.036C136.521 261.7 142.261 271.961 149.337 271.961H162.941C155.856 271.985 150.117 261.724 150.117 249.036Z" fill="black"/>
<path opacity="0.7" d="M150.117 249.036C150.117 236.372 155.856 226.103 162.941 226.103H149.337C142.261 226.103 136.521 236.372 136.521 249.036C136.521 261.7 142.261 271.961 149.337 271.961H162.941C155.856 271.985 150.117 261.724 150.117 249.036Z" fill="#263238"/>
<path d="M162.941 271.993C170.023 271.993 175.764 261.725 175.764 249.06C175.764 236.395 170.023 226.127 162.941 226.127C155.858 226.127 150.117 236.395 150.117 249.06C150.117 261.725 155.858 271.993 162.941 271.993Z" fill="#263238"/>
<path d="M163.968 266.938C168.988 266.938 173.058 258.934 173.058 249.06C173.058 239.186 168.988 231.182 163.968 231.182C158.947 231.182 154.877 239.186 154.877 249.06C154.877 258.934 158.947 266.938 163.968 266.938Z" fill="white"/>
<path d="M163.14 264.534C167.945 264.534 171.841 257.606 171.841 249.06C171.841 240.514 167.945 233.586 163.14 233.586C158.335 233.586 154.44 240.514 154.44 249.06C154.44 257.606 158.335 264.534 163.14 264.534Z" fill="#263238"/>
<path d="M161.23 260.355C164.738 260.355 167.582 255.298 167.582 249.06C167.582 242.822 164.738 237.765 161.23 237.765C157.721 237.765 154.877 242.822 154.877 249.06C154.877 255.298 157.721 260.355 161.23 260.355Z" fill="black"/>
<path opacity="0.5" d="M350.821 235.56V235.99C350.821 237.045 350.402 238.058 349.655 238.804C348.909 239.551 347.896 239.97 346.841 239.97H185.969V231.58H346.841C347.896 231.58 348.909 231.999 349.655 232.746C350.402 233.492 350.821 234.505 350.821 235.56Z" fill="black"/>
<path d="M300.824 249.036C300.824 236.372 306.563 226.103 313.639 226.103H300.044C292.959 226.103 287.22 236.372 287.22 249.036C287.22 261.7 292.959 271.961 300.044 271.961H313.624C306.563 271.985 300.824 261.724 300.824 249.036Z" fill="black"/>
<path opacity="0.7" d="M300.824 249.036C300.824 236.372 306.563 226.103 313.639 226.103H300.044C292.959 226.103 287.22 236.372 287.22 249.036C287.22 261.7 292.959 271.961 300.044 271.961H313.624C306.563 271.985 300.824 261.724 300.824 249.036Z" fill="#263238"/>
<path d="M313.64 271.993C320.722 271.993 326.464 261.725 326.464 249.06C326.464 236.395 320.722 226.127 313.64 226.127C306.558 226.127 300.816 236.395 300.816 249.06C300.816 261.725 306.558 271.993 313.64 271.993Z" fill="#263238"/>
<path d="M314.674 266.938C319.695 266.938 323.765 258.934 323.765 249.06C323.765 239.186 319.695 231.182 314.674 231.182C309.654 231.182 305.584 239.186 305.584 249.06C305.584 258.934 309.654 266.938 314.674 266.938Z" fill="white"/>
<path d="M313.839 264.534C318.644 264.534 322.539 257.606 322.539 249.06C322.539 240.514 318.644 233.586 313.839 233.586C309.034 233.586 305.139 240.514 305.139 249.06C305.139 257.606 309.034 264.534 313.839 264.534Z" fill="#263238"/>
<path d="M311.928 260.355C315.436 260.355 318.28 255.298 318.28 249.06C318.28 242.822 315.436 237.765 311.928 237.765C308.42 237.765 305.576 242.822 305.576 249.06C305.576 255.298 308.42 260.355 311.928 260.355Z" fill="black"/>
<path d="M261.772 136.856C261.613 139.921 261.335 142.882 260.881 145.899C260.489 149.015 259.807 152.087 258.843 155.077C258.539 155.947 258.158 156.789 257.705 157.592C257.389 158.133 257.004 158.631 256.559 159.073L256.336 159.279L256.208 159.375L256.145 159.431L255.874 159.614L255.341 159.988C253.989 160.855 252.567 161.609 251.09 162.241C248.287 163.473 245.374 164.437 242.39 165.122L241.355 162.288C243.886 160.887 246.481 159.455 248.845 157.966C250.001 157.257 251.112 156.478 252.173 155.634L252.523 155.339L252.698 155.188C252.698 155.188 252.77 155.069 252.857 154.878C253.09 154.363 253.281 153.83 253.43 153.286C253.79 151.976 254.075 150.647 254.282 149.306C254.529 147.921 254.728 146.512 254.895 145.079C255.221 142.237 255.5 139.324 255.691 136.49L261.772 136.856Z" fill="#CE7A63"/>
<path d="M243.241 162.328L238.354 160.816L239.269 166.73C239.269 166.73 242.453 166.332 244.045 164.549L243.241 162.328Z" fill="#CE7A63"/>
<path d="M232.432 164.621L232.703 165.417C232.856 165.856 233.147 166.234 233.533 166.494C233.919 166.754 234.379 166.881 234.844 166.857L237.336 166.746L236.412 160.816L233.674 161.89C233.155 162.097 232.735 162.497 232.504 163.006C232.272 163.514 232.247 164.093 232.432 164.621Z" fill="#CE7A63"/>
<path d="M267.552 131.117C267.552 132.964 266.66 136.609 265.896 139.347C265.331 141.314 264.861 142.81 264.861 142.81L263.739 142.531L254.489 140.191C254.346 135.415 254.529 130.217 259.265 127.097C262.226 125.139 267.528 127.829 267.552 131.117Z" fill="#263238"/>
<path opacity="0.3" d="M267.543 131.435C266.938 130.798 265.569 130.687 262.584 131.634C258.31 132.987 257.116 137.668 257.06 140.844L263.738 142.531L264.312 142.683L264.861 142.81C264.861 142.81 265.092 142.062 265.426 140.923C265.561 140.462 265.728 139.921 265.888 139.331C266.684 136.757 267.239 134.113 267.543 131.435Z" fill="black"/>
<path d="M248.567 279.714L242.924 277.74L246.474 265.513L252.11 267.495L248.567 279.714Z" fill="#CE7A63"/>
<path d="M323.972 265.227L319.379 268.65L309.979 259.122L314.571 255.699L323.972 265.227Z" fill="#CE7A63"/>
<path d="M317.501 267.257L322.46 263.157C322.544 263.085 322.651 263.044 322.762 263.044C322.873 263.044 322.981 263.085 323.065 263.157L326.87 266.612C326.955 266.697 327.023 266.798 327.069 266.909C327.115 267.021 327.139 267.14 327.139 267.261C327.139 267.381 327.115 267.501 327.069 267.612C327.023 267.723 326.955 267.824 326.87 267.909L326.79 267.981C325.039 269.382 324.115 269.971 321.934 271.77C320.597 272.876 317.787 275.527 315.932 277.055C314.078 278.584 312.47 276.841 313.107 276.037C315.948 272.439 316.609 270.067 316.943 268.124C317.024 267.78 317.22 267.473 317.501 267.257Z" fill="#263238"/>
<path d="M242.541 275.973L248.814 278.592C248.926 278.641 249.019 278.725 249.079 278.831C249.139 278.937 249.163 279.06 249.148 279.181L248.44 284.713C248.412 284.935 248.297 285.136 248.121 285.273C247.945 285.41 247.722 285.472 247.5 285.445C247.418 285.437 247.337 285.415 247.262 285.382C245.041 284.482 243.998 284.036 241.244 282.882L232.79 279.34C230.498 278.377 230.991 275.862 231.994 276.045C236.635 276.888 239.628 276.61 241.459 275.917C241.634 275.855 241.82 275.827 242.006 275.837C242.191 275.846 242.373 275.893 242.541 275.973Z" fill="#263238"/>
<path opacity="0.2" d="M246.474 265.521L244.651 271.818L250.143 274.301L252.117 267.496L246.474 265.521Z" fill="black"/>
<path opacity="0.2" d="M314.579 255.699L309.979 259.122L314.826 264.033L319.419 260.61L314.579 255.699Z" fill="black"/>
<path d="M284.904 160.999L261.661 161.333C258.477 143.335 257.681 134.747 257.681 130.615C257.677 129.585 258.033 128.585 258.687 127.789C259.34 126.993 260.252 126.45 261.263 126.253C262.68 125.975 264.447 125.656 266.222 125.409C266.827 125.33 267.44 125.25 268.045 125.187C271.555 124.885 275.083 124.835 278.6 125.035C279.125 125.035 279.643 125.083 280.192 125.115C282.58 125.266 284.761 125.569 286.313 125.807C286.872 125.897 287.371 126.205 287.703 126.664C288.034 127.122 288.17 127.693 288.08 128.251C288.084 128.291 288.084 128.331 288.08 128.371C287.396 131.555 286.839 134.38 286.393 136.896C285.684 140.876 285.239 144.123 284.976 146.957C284.578 151.628 284.554 156.324 284.904 160.999Z" fill="#263238"/>
<path opacity="0.1" d="M284.968 146.981C283.798 143.471 283.862 136.187 285.12 133.831L286.401 136.912C285.677 140.915 285.231 144.147 284.968 146.981Z" fill="black"/>
<path d="M261.661 161.333C261.661 161.333 257.681 195.171 254.091 216.257C251.25 232.766 244.07 267.13 244.07 267.13L253.391 270.433C253.391 270.433 264.065 234.613 265.936 219.314C273.458 197.257 278.871 161.166 278.871 161.166L261.661 161.333Z" fill="#FFCA4A"/>
<path d="M242.557 269.438L253.343 273.234L254.784 269.772L243.082 265.298L242.557 269.438Z" fill="#263238"/>
<path opacity="0.1" d="M273.442 171.387L269.956 178.065C268.682 183.096 268.985 195.338 270.6 203.075C273.498 191.414 275.814 179.14 277.255 170.901L273.442 171.387Z" fill="black"/>
<path d="M266.708 161.333C266.708 161.333 270.871 199.207 278.648 220.237C282.548 230.784 311.483 262.051 311.483 262.051L318.01 256.829C318.01 256.829 299.662 225.284 291.638 217.029C288.367 198.721 292.482 171.275 284.88 161.007L266.708 161.333Z" fill="#FFCA4A"/>
<path d="M312.032 264.288L319.69 258.015L317.62 254.616L309.238 261.916L312.032 264.288Z" fill="#263238"/>
<path d="M285.271 159.638L286.345 161.699C286.425 161.858 286.242 162.034 285.971 162.034L261.582 162.384C261.367 162.384 261.2 162.28 261.176 162.153L260.945 160.075C260.945 159.932 261.112 159.805 261.335 159.805L284.881 159.462C284.955 159.458 285.029 159.472 285.097 159.502C285.165 159.533 285.225 159.579 285.271 159.638Z" fill="#263238"/>
<path d="M282.11 162.328H282.755C282.874 162.328 282.97 162.256 282.962 162.185L282.62 159.478C282.62 159.399 282.508 159.343 282.381 159.343H281.784C281.657 159.343 281.561 159.415 281.577 159.486L281.911 162.185C281.871 162.248 281.991 162.328 282.11 162.328Z" fill="#FFCA4A"/>
<path d="M263.333 162.583H263.97C264.097 162.583 264.185 162.511 264.177 162.432L263.851 159.733C263.851 159.654 263.723 159.59 263.596 159.59H262.959C262.832 159.59 262.736 159.661 262.744 159.741L263.078 162.44C263.094 162.519 263.206 162.583 263.333 162.583Z" fill="#FFCA4A"/>
<path d="M272.726 162.431H273.362C273.49 162.431 273.585 162.36 273.577 162.28L273.243 159.582C273.243 159.494 273.124 159.43 272.996 159.438H272.359C272.232 159.438 272.145 159.51 272.145 159.59L272.479 162.288C272.471 162.384 272.598 162.431 272.726 162.431Z" fill="#FFCA4A"/>
<path d="M230.553 137.509L265.052 132.773L269.828 166.643L235.95 171.291L230.553 137.509Z" fill="#FFCA4A"/>
<path opacity="0.8" d="M230.553 137.509L265.052 132.773L269.828 166.643L235.95 171.291L230.553 137.509Z" fill="white"/>
<path opacity="0.2" d="M265.526 131.137L256.313 132.44L261.255 167.381L270.467 166.079L265.526 131.137Z" fill="#FFCA4A"/>
<path d="M274.835 162.376L270.059 160.505L270.528 166.475C270.528 166.475 273.712 166.316 275.424 164.652L274.835 162.376Z" fill="#CE7A63"/>
<path d="M289.856 132.653C291.137 136.235 292.244 139.817 293.183 143.479C293.661 145.317 294.106 147.164 294.465 149.051C294.64 150.006 294.791 150.977 294.902 151.988C295.03 153.044 295.076 154.109 295.038 155.172C295.015 155.864 294.909 156.551 294.719 157.218C294.458 158.037 294.02 158.79 293.438 159.423C292.587 160.334 291.575 161.082 290.453 161.627C288.616 162.519 286.682 163.194 284.69 163.641C280.965 164.505 277.167 165.014 273.347 165.162L272.973 162.161C274.716 161.747 276.499 161.285 278.234 160.8C279.97 160.314 281.697 159.773 283.353 159.168C284.934 158.624 286.459 157.929 287.906 157.09C288.431 156.783 288.9 156.387 289.291 155.92C289.394 155.761 289.394 155.721 289.378 155.721C289.394 155.485 289.394 155.249 289.378 155.013C289.348 154.241 289.266 153.473 289.131 152.712C289.004 151.916 288.829 151.025 288.638 150.149C288.24 148.446 287.794 146.702 287.293 144.959C286.298 141.505 285.175 137.994 284.053 134.611L289.856 132.653Z" fill="#CE7A63"/>
<path d="M265.657 163.45L266.031 164.836C266.144 165.28 266.398 165.676 266.756 165.964C267.113 166.251 267.555 166.414 268.013 166.428L270.577 166.499L270.107 160.537L267.496 160.832C267.219 160.859 266.95 160.942 266.705 161.074C266.459 161.206 266.242 161.385 266.066 161.601C265.89 161.817 265.759 162.065 265.679 162.332C265.599 162.599 265.573 162.879 265.602 163.156C265.613 163.255 265.632 163.354 265.657 163.45Z" fill="#CE7A63"/>
<path d="M287.141 125.983C289.815 127.073 292.004 135.861 292.004 135.861L284.618 141.632C284.618 141.632 279.38 133.433 280.447 129.875C281.354 126.866 283.734 124.605 287.141 125.983Z" fill="#263238"/>
<path d="M315.694 269.74H315.598C315.465 269.731 315.335 269.688 315.223 269.616C315.11 269.544 315.017 269.444 314.953 269.327C314.906 269.259 314.877 269.179 314.87 269.097C314.863 269.015 314.878 268.932 314.914 268.857C315.24 268.22 317.302 267.965 317.524 267.941C317.551 267.936 317.578 267.94 317.602 267.951C317.627 267.963 317.647 267.982 317.66 268.005C317.675 268.027 317.683 268.054 317.683 268.081C317.683 268.108 317.675 268.134 317.66 268.156C317.23 268.737 316.394 269.693 315.694 269.74ZM317.246 268.252C316.45 268.371 315.328 268.634 315.168 268.984C315.149 269.014 315.139 269.048 315.139 269.084C315.139 269.119 315.149 269.154 315.168 269.183C315.206 269.265 315.265 269.335 315.339 269.385C315.414 269.436 315.5 269.465 315.59 269.47C315.988 269.47 316.625 269.04 317.262 268.252H317.246Z" fill="#263238"/>
<path d="M317.429 268.196C316.736 268.196 315.351 267.949 315.041 267.4C314.992 267.305 314.976 267.196 314.996 267.09C315.016 266.985 315.071 266.889 315.152 266.819C315.223 266.742 315.309 266.681 315.405 266.641C315.502 266.601 315.605 266.583 315.71 266.588C316.545 266.588 317.604 267.87 317.636 267.941C317.648 267.96 317.654 267.983 317.654 268.005C317.654 268.028 317.648 268.05 317.636 268.069C317.63 268.092 317.616 268.113 317.598 268.129C317.579 268.144 317.557 268.154 317.532 268.156L317.429 268.196ZM315.662 266.875C315.55 266.886 315.445 266.936 315.367 267.018C315.248 267.145 315.272 267.225 315.304 267.289C315.487 267.639 316.577 267.925 317.278 267.925C316.879 267.424 316.338 267.055 315.726 266.867L315.662 266.875Z" fill="#263238"/>
<path d="M239.333 275.845C238.891 275.701 238.504 275.423 238.227 275.049C238.164 274.939 238.126 274.817 238.115 274.69C238.104 274.564 238.12 274.437 238.163 274.317C238.185 274.248 238.224 274.186 238.278 274.138C238.331 274.089 238.395 274.055 238.466 274.039C239.198 273.903 240.925 275.758 241.26 276.132C241.276 276.156 241.284 276.183 241.284 276.212C241.284 276.24 241.276 276.268 241.26 276.291C241.246 276.316 241.225 276.336 241.199 276.348C241.173 276.359 241.144 276.362 241.117 276.355C240.506 276.246 239.909 276.075 239.333 275.845ZM238.784 274.349C238.703 274.31 238.612 274.293 238.522 274.301C238.522 274.301 238.45 274.301 238.418 274.397C238.386 274.48 238.374 274.569 238.382 274.657C238.39 274.745 238.419 274.831 238.466 274.906C238.713 275.336 239.564 275.742 240.774 276.005C240.206 275.353 239.54 274.795 238.8 274.349H238.784Z" fill="#263238"/>
<path d="M241.108 276.339H241.061C240.48 275.758 239.532 274.015 239.859 273.458C239.93 273.338 240.082 273.211 240.424 273.306C241.705 273.681 241.315 276.164 241.291 276.268C241.292 276.294 241.282 276.319 241.264 276.338C241.246 276.357 241.222 276.369 241.196 276.371C241.18 276.374 241.163 276.373 241.148 276.368C241.132 276.362 241.119 276.352 241.108 276.339ZM240.472 273.561H240.392C240.265 273.521 240.169 273.561 240.137 273.561C239.946 273.887 240.559 275.201 241.116 275.901C241.108 275.288 241.188 273.88 240.472 273.561Z" fill="#263238"/>
<path d="M265.132 101.219C265.132 101.219 261.948 106.544 264.336 108.877C266.724 111.209 267.424 102.938 267.424 102.938L265.132 101.219Z" fill="#263238"/>
<path d="M279.922 113.716C279.922 113.716 283.902 107.492 282.246 101.307C280.591 95.1218 272.853 99.1177 269.59 97.4222C268.394 96.6954 267.121 96.1054 265.793 95.6631C265.58 95.5998 265.355 95.5863 265.135 95.6236C264.916 95.6608 264.708 95.7479 264.527 95.878C263.731 96.5785 265.116 97.8919 265.546 98.3854C265.282 98.0796 264.976 97.8117 264.639 97.5894C264.217 97.3108 263.652 97.2869 263.843 97.9953C264.17 98.7566 264.757 99.3771 265.498 99.7466C265.188 99.5714 263.349 98.6401 263.222 99.2212C263.206 99.3621 263.243 99.5039 263.325 99.6192C264.519 101.848 266.923 104.65 269.693 104.706C273.029 104.753 276.213 114.138 279.922 113.716Z" fill="#263238"/>
<path d="M281.33 113.995C281.123 116.096 278.003 116.12 278.003 116.12C277.492 117.323 276.643 118.351 275.559 119.081C275.463 120.35 275.506 121.626 275.686 122.886C276.212 124.868 276.88 125.552 277.716 125.998L277.048 126.659C275.768 127.397 274.322 127.8 272.845 127.829L271.969 127.32L270.823 127.503C267.639 126.46 268.435 124.319 268.435 124.319C269.016 122.865 269.047 121.249 268.522 119.774C265.466 118.818 264.216 116.16 263.786 111.686C263.356 107.213 265.872 102.93 265.872 102.93C269.326 106.265 276.172 104.124 276.172 104.124C275.877 110.397 278.807 112.713 278.807 112.713C279.77 111.853 281.529 111.901 281.33 113.995Z" fill="#CE7A63"/>
<path d="M270.218 114.568C271.039 114.338 271.749 113.818 272.216 113.103C272.254 113.047 272.268 112.978 272.256 112.911C272.244 112.845 272.207 112.785 272.152 112.745C272.125 112.725 272.094 112.711 272.061 112.702C272.029 112.694 271.995 112.693 271.961 112.698C271.928 112.703 271.896 112.715 271.867 112.733C271.839 112.75 271.814 112.773 271.794 112.801C271.525 113.284 271.109 113.668 270.606 113.897C270.104 114.126 269.541 114.188 269 114.074C268.936 114.054 268.866 114.061 268.806 114.092C268.747 114.124 268.702 114.177 268.682 114.242C268.661 114.307 268.668 114.378 268.699 114.439C268.73 114.5 268.784 114.546 268.849 114.568C269.298 114.685 269.769 114.685 270.218 114.568Z" fill="#263238"/>
<path d="M271.125 109.091C271.125 109.497 270.966 109.848 270.696 109.887C270.425 109.927 270.178 109.593 270.146 109.187C270.115 108.781 270.314 108.391 270.584 108.391C270.855 108.391 271.094 108.677 271.125 109.091Z" fill="#263238"/>
<path d="M266.254 108.885C266.254 109.291 266.095 109.641 265.824 109.681C265.553 109.72 265.315 109.386 265.283 108.98C265.251 108.574 265.442 108.224 265.713 108.184C265.983 108.144 266.23 108.471 266.254 108.885Z" fill="#263238"/>
<path d="M267.543 112.825L267.488 109.88L266.023 112.363C266.225 112.549 266.467 112.688 266.73 112.768C266.994 112.847 267.271 112.867 267.543 112.825Z" fill="#BA4D3C"/>
<path d="M273.347 106.608C273.381 106.599 273.414 106.583 273.442 106.56C273.481 106.538 273.515 106.507 273.542 106.471C273.568 106.435 273.588 106.393 273.598 106.349C273.608 106.306 273.61 106.26 273.602 106.216C273.595 106.171 273.578 106.129 273.554 106.091C273.288 105.647 272.904 105.286 272.444 105.049C271.984 104.813 271.466 104.71 270.951 104.754C270.906 104.758 270.862 104.772 270.823 104.794C270.784 104.816 270.749 104.846 270.722 104.882C270.694 104.918 270.674 104.958 270.663 105.002C270.652 105.046 270.649 105.091 270.656 105.136C270.668 105.225 270.715 105.306 270.786 105.362C270.858 105.417 270.948 105.441 271.038 105.43C271.423 105.406 271.807 105.489 272.148 105.668C272.489 105.848 272.775 106.118 272.972 106.449C273.01 106.512 273.066 106.562 273.133 106.59C273.201 106.619 273.275 106.625 273.347 106.608Z" fill="#263238"/>
<path d="M264.71 106.282C264.8 106.258 264.877 106.201 264.925 106.122C265.068 105.907 265.27 105.737 265.507 105.634C265.745 105.53 266.007 105.498 266.262 105.541C266.306 105.551 266.352 105.551 266.396 105.542C266.44 105.533 266.482 105.516 266.519 105.491C266.556 105.465 266.588 105.433 266.612 105.395C266.636 105.357 266.653 105.315 266.66 105.271C266.677 105.182 266.657 105.091 266.607 105.016C266.556 104.942 266.478 104.89 266.39 104.873C265.996 104.8 265.589 104.847 265.223 105.009C264.856 105.171 264.547 105.44 264.336 105.78C264.291 105.859 264.279 105.951 264.301 106.039C264.324 106.126 264.379 106.202 264.455 106.25C264.533 106.291 264.624 106.303 264.71 106.282Z" fill="#263238"/>
<path d="M279.014 126.277L277.302 127.949L274.254 130.942L273.108 129.119L271.969 127.32L275.949 122.576L278.847 126.078L279.014 126.277Z" fill="white"/>
<path d="M271.969 127.32L271.086 128.792L269.788 130.942L266.811 125.569L268.713 123.332L271.969 127.32Z" fill="white"/>
</g>
<defs>
<clipPath id="clip0_2973_13784">
<rect width="398" height="398" fill="white" transform="translate(0 -51)"/>
</clipPath>
</defs>
</svg>
