<svg width="15" height="19" viewBox="0 0 15 19" fill="none" xmlns="http://www.w3.org/2000/svg">
<path d="M14.3333 5.33332V13.6667C14.3333 17 13.5 17.8333 10.1667 17.8333H5.16667C1.83333 17.8333 1 17 1 13.6667V5.33332C1 1.99999 1.83333 1.16666 5.16667 1.16666H10.1667C13.5 1.16666 14.3333 1.99999 14.3333 5.33332Z" stroke="#292D32" stroke-width="1.25" stroke-linecap="round" stroke-linejoin="round"/>
<path d="M9.33333 4.08331H6" stroke="#292D32" stroke-width="1.25" stroke-linecap="round" stroke-linejoin="round"/>
<path d="M7.66667 15.4166C8.38003 15.4166 8.95833 14.8383 8.95833 14.125C8.95833 13.4116 8.38003 12.8333 7.66667 12.8333C6.9533 12.8333 6.375 13.4116 6.375 14.125C6.375 14.8383 6.9533 15.4166 7.66667 15.4166Z" stroke="#292D32" stroke-width="1.25" stroke-linecap="round" stroke-linejoin="round"/>
</svg>
