<svg width="197" height="671" viewBox="0 0 197 671" fill="none" xmlns="http://www.w3.org/2000/svg">
<g opacity="0.1">
<path d="M115.346 195.928C111.169 201.498 106.992 209.851 104.207 216.813" stroke="#C6EB5F" stroke-width="6.96151" stroke-miterlimit="10"/>
<path d="M91.6765 609.441C91.6765 609.441 84.715 624.756 79.1458 633.11" stroke="#C6EB5F" stroke-width="6.96151" stroke-miterlimit="10"/>
<path d="M80.5381 326.805C84.715 333.766 88.8919 337.943 94.4611 343.513" stroke="#C6EB5F" stroke-width="6.96151" stroke-miterlimit="10"/>
<path d="M48.5151 10.7507C48.5151 10.7507 38.769 23.2815 34.5921 27.4584" stroke="#C6EB5F" stroke-width="6.96151" stroke-miterlimit="10"/>
<path d="M182.176 102.644C186.353 108.213 189.138 113.782 193.315 120.744" stroke="#C6EB5F" stroke-width="6.96151" stroke-miterlimit="10"/>
<path d="M54.257 358.325C41.5647 358.736 41.8404 377.655 54.257 378.094C59.8596 378.295 63.9015 373.77 64.3721 368.476C64.9081 362.438 59.8345 358.492 54.257 358.325C52.2799 358.265 52.2869 361.328 54.257 361.387C58.2403 361.507 61.2088 363.816 61.3257 367.943C61.4288 371.68 58.5731 374.646 54.942 375.009C46.1148 375.892 45.0455 361.686 54.257 361.387C56.2271 361.324 56.2326 358.261 54.257 358.325Z" fill="black"/>
<path d="M152.449 213.744C163.901 213.725 175.353 213.705 186.804 213.686C188.038 213.684 188.616 212.405 188.127 211.381C183.552 201.801 178.977 192.219 174.403 182.637C173.861 181.505 172.365 181.791 171.758 182.637C164.881 192.239 158.004 201.839 151.128 211.44C149.975 213.049 152.634 214.577 153.773 212.985C160.65 203.384 167.526 193.784 174.403 184.183C173.52 184.183 172.639 184.183 171.758 184.183C176.333 193.763 180.908 203.345 185.482 212.927C185.923 212.158 186.364 211.39 186.804 210.623C175.353 210.642 163.901 210.662 152.449 210.681C150.474 210.685 150.474 213.748 152.449 213.744Z" fill="black"/>
<path d="M23.7788 152.377V148.96C23.7788 146.597 24.264 144.435 25.2344 142.473C26.2259 140.49 27.6604 138.908 29.5379 137.726C31.4365 136.524 33.7359 135.923 36.4361 135.923C39.1785 135.923 41.4779 136.524 43.3343 137.726C45.1907 138.908 46.5936 140.49 47.5429 142.473C48.4922 144.435 48.9668 146.597 48.9668 148.96V152.377C48.9668 154.74 48.4816 156.913 47.5112 158.896C46.5619 160.858 45.1485 162.44 43.271 163.642C41.4146 164.824 39.1363 165.414 36.4361 165.414C33.6937 165.414 31.3837 164.824 29.5062 163.642C27.6287 162.44 26.2048 160.858 25.2344 158.896C24.264 156.913 23.7788 154.74 23.7788 152.377ZM30.234 148.96V152.377C30.234 154.339 30.6981 156.101 31.6263 157.662C32.5545 159.202 34.1578 159.972 36.4361 159.972C38.6511 159.972 40.2122 159.202 41.1193 157.662C42.0475 156.101 42.5116 154.339 42.5116 152.377V148.96C42.5116 146.998 42.0686 145.247 41.1826 143.707C40.2966 142.146 38.7144 141.365 36.4361 141.365C34.2211 141.365 32.6284 142.146 31.658 143.707C30.7087 145.247 30.234 146.998 30.234 148.96ZM-8.49731 115.291V111.874C-8.49731 109.511 -8.01212 107.349 -7.04172 105.387C-6.05023 103.404 -4.61574 101.822 -2.73824 100.641C-0.839646 99.4382 1.45976 98.8369 4.15999 98.8369C6.9024 98.8369 9.20181 99.4382 11.0582 100.641C12.9146 101.822 14.3175 103.404 15.2668 105.387C16.2161 107.349 16.6907 109.511 16.6907 111.874V115.291C16.6907 117.654 16.2055 119.827 15.2351 121.81C14.2858 123.772 12.8724 125.354 10.9949 126.556C9.13852 127.738 6.86021 128.328 4.15999 128.328C1.41757 128.328 -0.892385 127.738 -2.76988 126.556C-4.64738 125.354 -6.07133 123.772 -7.04172 121.81C-8.01212 119.827 -8.49731 117.654 -8.49731 115.291ZM-2.04209 111.874V115.291C-2.04209 117.253 -1.57799 119.015 -0.649787 120.576C0.278415 122.116 1.88167 122.886 4.15999 122.886C6.37502 122.886 7.93608 122.116 8.84319 120.576C9.77139 119.015 10.2355 117.253 10.2355 115.291V111.874C10.2355 109.912 9.79248 108.161 8.90647 106.621C8.02046 105.06 6.4383 104.28 4.15999 104.28C1.94496 104.28 0.35225 105.06 -0.618143 106.621C-1.56744 108.161 -2.04209 109.912 -2.04209 111.874ZM-6.09242 164.528L38.4613 99.7229H45.6759L1.12224 164.528H-6.09242Z" fill="black"/>
<path d="M1.40023 520.295V455.031H12.4754V520.295H1.40023ZM-25.6943 493.201V482.126H39.5699V493.201H-25.6943Z" fill="black"/>
<path d="M109.655 487.442L109.072 530.382H102.304L101.72 487.442H109.655ZM105.688 547.652C104.249 547.652 103.014 547.136 101.983 546.106C100.952 545.075 100.437 543.84 100.437 542.401C100.437 540.962 100.952 539.727 101.983 538.696C103.014 537.665 104.249 537.15 105.688 537.15C107.127 537.15 108.362 537.665 109.392 538.696C110.423 539.727 110.939 540.962 110.939 542.401C110.939 543.354 110.695 544.229 110.209 545.026C109.743 545.824 109.111 546.465 108.313 546.952C107.535 547.418 106.66 547.652 105.688 547.652ZM132.518 487.442L131.934 530.382H125.167L124.583 487.442H132.518ZM128.551 547.652C127.112 547.652 125.877 547.136 124.846 546.106C123.815 545.075 123.3 543.84 123.3 542.401C123.3 540.962 123.815 539.727 124.846 538.696C125.877 537.665 127.112 537.15 128.551 537.15C129.99 537.15 131.225 537.665 132.255 538.696C133.286 539.727 133.801 540.962 133.801 542.401C133.801 543.354 133.558 544.229 133.072 545.026C132.605 545.824 131.973 546.465 131.176 546.952C130.398 547.418 129.523 547.652 128.551 547.652Z" fill="black"/>
<path d="M79.388 248.915C70.5594 248.993 61.7294 249.07 52.9022 249.148C53.3951 249.794 53.8866 250.44 54.3795 251.087C57.3339 240.624 60.1547 230.052 63.7691 219.795C64.113 218.818 63.2261 217.892 62.2933 217.856C55.3819 217.594 48.4692 217.332 41.5578 217.071C40.927 217.047 40.1961 217.551 40.0805 218.195C37.3767 233.309 34.67 248.422 31.9662 263.534C31.7907 264.513 32.3811 265.456 33.4434 265.474C41.7541 265.605 50.0619 265.736 58.3726 265.867C57.8797 265.221 57.3882 264.574 56.8954 263.927C53.9715 277.672 51.0491 291.415 48.1266 305.16C47.7772 306.803 50.0661 307.931 50.9265 306.341C60.855 287.968 70.7836 269.594 80.7121 251.221C81.6505 249.483 79.0051 247.936 78.0667 249.675C68.1382 268.048 58.2097 286.422 48.2812 304.795C49.2154 305.189 50.1483 305.582 51.0811 305.976C54.0049 292.231 56.926 278.488 59.8498 264.743C60.0573 263.766 59.4113 262.82 58.3726 262.803C50.0619 262.673 41.7527 262.542 33.4434 262.411C33.9349 263.057 34.4278 263.703 34.9193 264.35C37.1066 252.129 39.2952 239.906 41.4826 227.684C41.9225 225.215 42.3653 222.748 42.8066 220.28C42.879 219.875 42.9514 219.469 43.0238 219.064C42.7342 220.684 40.9354 220.111 44.0709 220.23C50.1441 220.459 56.2187 220.69 62.2919 220.92C61.7991 220.274 61.3076 219.628 60.8147 218.981C57.1989 229.238 54.3781 239.81 51.425 250.273C51.1563 251.226 51.9095 252.221 52.9022 252.212C61.7308 252.134 70.5608 252.058 79.388 251.98C81.3623 251.96 81.3637 248.897 79.388 248.915Z" fill="black"/>
<path d="M35.7031 429.142C32.3212 441.341 28.9407 453.539 25.5588 465.74C25.2775 466.753 26.0558 467.604 27.0346 467.678C32.7681 468.111 38.5281 467.834 44.2101 468.852C43.9038 468.103 43.6002 467.352 43.2939 466.603C40.0387 474.291 36.7835 481.978 33.5283 489.667C33.0883 490.709 33.5826 491.95 34.851 491.969C39.9663 492.053 45.0802 492.134 50.1956 492.216C49.7027 491.57 49.2112 490.924 48.7183 490.278C46.8443 499.564 44.8199 508.918 43.7631 518.34C43.5905 519.877 45.9379 520.399 46.6173 519.114C53.1528 506.718 59.6911 494.322 66.228 481.927C66.7904 480.859 66.0804 479.699 64.9053 479.624C60.397 479.329 55.8873 479.034 51.379 478.74C51.819 479.508 52.2604 480.277 52.7017 481.043C56.3343 473.414 59.9681 465.784 63.6021 458.155C64.0977 457.112 63.5074 455.881 62.2794 455.852C56.1658 455.703 50.0522 455.554 43.9386 455.406C44.4315 456.052 44.9229 456.698 45.4158 457.344C48.9509 448.215 52.4859 439.087 56.021 429.958C56.3872 429.012 55.4641 428.02 54.5438 428.02C48.7559 428.02 42.9667 428.02 37.1775 428.02C35.2018 428.02 35.2018 431.081 37.1775 431.081C42.9653 431.081 48.7546 431.081 54.5438 431.081C54.0509 430.435 53.5594 429.789 53.0665 429.143C49.5315 438.272 45.9964 447.4 42.4613 456.53C42.0882 457.49 43.0238 458.446 43.9372 458.468C50.0508 458.617 56.1644 458.766 62.278 458.913C61.838 458.145 61.3966 457.376 60.9553 456.61C57.3228 464.24 53.6889 471.869 50.055 479.499C49.5426 480.575 50.1649 481.723 51.3776 481.801C55.8859 482.097 60.3956 482.392 64.9039 482.686C64.4639 481.917 64.0225 481.148 63.5812 480.383C57.0457 492.777 50.5074 505.173 43.9706 517.567C44.9215 517.826 45.8739 518.083 46.8248 518.341C47.8509 509.196 49.8531 500.107 51.67 491.092C51.8678 490.115 51.2384 489.171 50.1942 489.154C45.0788 489.071 39.9649 488.99 34.8496 488.908C35.2896 489.676 35.7309 490.445 36.1723 491.211C39.4275 483.524 42.6827 475.835 45.9379 468.149C46.286 467.324 46.098 466.092 45.0218 465.9C39.0669 464.832 33.048 465.07 27.0332 464.618C27.5261 465.264 28.0176 465.91 28.5105 466.556C31.8924 454.356 35.2729 442.158 38.6548 429.958C39.1852 428.049 36.2294 427.24 35.7031 429.142Z" fill="black"/>
<path d="M-64.5385 575.891C-52.786 602.839 -41.1436 629.841 -29.7559 656.946C-29.4983 657.563 -29.0208 658.106 -28.2801 658.071C-17.228 657.562 -6.17174 656.168 4.79404 654.776C18.4303 653.044 32.4647 651.306 45.6038 647.111C48.3077 646.248 52.234 645.077 53.9048 642.549C56.5905 638.483 55.8902 629.991 56.383 625.305C58.8614 601.753 60.6477 578.117 62.2669 554.494C62.4034 552.521 59.3389 552.535 59.2053 554.494C58.1067 570.493 56.8773 586.483 55.4864 602.46C54.8766 609.458 54.2208 616.451 53.5135 623.441C53.0137 628.375 53.5428 636.123 51.4822 640.665C49.5441 644.938 37.3308 646.24 33.4922 647.065C23.0486 649.311 12.4211 650.766 1.82847 652.086C-6.39586 653.109 -14.6453 653.978 -22.9058 654.651C-24.1631 654.752 -25.4217 654.843 -26.6789 654.923C-28.6421 655.049 -26.8572 656.002 -26.9407 655.802C-27.7775 653.814 -28.6157 651.828 -29.4552 649.842C-40.1161 624.612 -50.9426 599.451 -61.8917 574.344C-62.6811 572.538 -65.3182 574.099 -64.5385 575.891Z" fill="black"/>
<path d="M-61.3043 576.21C-20.4889 569.462 20.3279 562.715 61.1418 555.968C63.0869 555.648 62.2599 552.695 60.3287 553.015C19.5134 559.762 -21.3034 566.508 -62.1173 573.256C-64.0638 573.578 -63.2354 576.53 -61.3043 576.21Z" fill="black"/>
<path d="M-51.8574 598.801C-14.8179 593.734 21.9918 587.196 58.9797 581.804C60.929 581.52 60.0977 578.569 58.1666 578.851C21.1773 584.243 -15.6338 590.781 -52.6704 595.848C-54.6211 596.114 -53.7885 599.064 -51.8574 598.801Z" fill="black"/>
<path d="M-43.0204 619.354C-9.70539 615.128 23.3688 609.228 56.6698 604.901C58.601 604.65 58.6246 601.584 56.6698 601.839C23.3688 606.163 -9.70539 612.065 -43.0204 616.292C-44.9515 616.536 -44.9766 619.602 -43.0204 619.354Z" fill="black"/>
<path d="M-32.9484 640.864C-3.66272 636.617 25.623 632.371 54.9087 628.127C56.8579 627.844 56.0267 624.894 54.0955 625.174C24.8098 629.419 -4.47724 633.665 -33.7629 637.912C-35.7122 638.193 -34.8795 641.143 -32.9484 640.864Z" fill="black"/>
<path d="M-3.20196 565.413C2.23916 593.988 6.75437 622.729 10.9396 651.509C11.2223 653.458 14.174 652.627 13.8927 650.696C9.70745 621.914 5.19363 593.172 -0.248884 564.6C-0.617845 562.661 -3.56953 563.485 -3.20196 565.413Z" fill="black"/>
<path d="M32.5134 559.922C33.0745 589.257 32.4646 618.599 32.7278 647.937C32.7459 649.911 35.8075 649.912 35.7894 647.937C35.5263 618.599 36.1375 589.257 35.575 559.922C35.5388 557.949 32.4758 557.945 32.5134 559.922Z" fill="black"/>
<path d="M-19.9152 567.519C-20.7046 562.186 -21.5846 556.893 -21.3465 551.484C-20.9204 541.806 -13.7737 538.335 -5.09412 537.317C10.8672 535.447 13.915 549.571 15.6958 561.944C15.9756 563.893 18.9259 563.062 18.6488 561.131C17.6311 554.052 16.7135 546.682 12.4016 540.745C7.77356 534.374 -0.376984 533.577 -7.59468 534.555C-26.4325 537.105 -25.075 553.434 -22.8668 568.332C-22.58 570.281 -19.6284 569.45 -19.9152 567.519Z" fill="black"/>
<path d="M-86.2724 0.472728C-96.2664 11.0459 -106.259 21.619 -116.253 32.1922C-117.236 33.2308 -116.469 34.6705 -115.171 34.8069C-83.8039 38.1067 -52.4353 41.405 -21.0681 44.7048C-20.514 44.7633 -20.0392 44.3595 -19.7454 43.946C-12.117 33.1612 -4.48716 22.3778 3.14127 11.5944C3.88058 10.5474 2.85443 9.40018 1.81857 9.29018C-27.1845 6.20206 -56.1875 3.11393 -85.1906 0.0244062C-87.1537 -0.184439 -87.1343 2.88002 -85.1906 3.08747C-56.1875 6.1756 -27.1845 9.26512 1.81857 12.3532C1.37859 11.5847 0.937256 10.8161 0.495903 10.049C-6.59232 20.068 -13.6805 30.0884 -20.7688 40.1074C-21.2032 40.7214 -21.6376 41.3354 -22.072 41.9494C-22.8753 43.0855 -20.5348 41.6974 -21.3076 41.6167C-22.4284 41.4997 -23.5478 41.3814 -24.6686 41.263C-30.0136 40.7005 -35.3573 40.138 -40.701 39.5769C-65.5244 36.965 -90.3477 34.3544 -115.171 31.7438C-114.809 32.6154 -114.448 33.487 -114.089 34.3586C-104.095 23.7854 -94.1028 13.2123 -84.1088 2.63915C-82.7527 1.20369 -84.9135 -0.96552 -86.2724 0.472728Z" fill="black"/>
<path d="M0.288498 10.8203C-1.17342 25.5425 -2.63532 40.2661 -4.09584 54.9883C-4.19609 55.9922 -4.61935 56.2762 -4.05408 55.5397C-4.63328 56.2943 -5.21246 57.0476 -5.79305 57.8008C-8.32705 61.0992 -10.8638 64.3975 -13.3992 67.6959C-17.92 73.5756 -22.4408 79.4567 -26.9616 85.3364C-28.1646 86.9027 -25.5025 88.4245 -24.3163 86.8818C-19.7969 81.0007 -15.2761 75.121 -10.7553 69.2414C-8.19203 65.9068 -1.55072 60.183 -1.11353 55.7889C0.373446 40.7994 1.8632 25.8085 3.35018 10.8189C3.5465 8.85578 0.480637 8.87388 0.288498 10.8203Z" fill="black"/>
<path d="M99.6671 382.789C95.5097 407.196 91.3481 431.605 87.1893 456.012C87.0626 456.755 87.3772 457.761 88.26 457.894C117.018 462.311 145.847 466.415 174.542 471.239C175.297 471.368 176.276 471.051 176.425 470.169C180.499 446.264 184.572 422.36 188.645 398.454C188.777 397.683 188.453 396.742 187.574 396.57C158.954 390.993 130.305 386.423 101.549 381.717C99.6183 381.4 98.7899 384.353 100.736 384.67C129.492 389.376 158.141 393.947 186.761 399.523C186.403 398.895 186.047 398.267 185.692 397.64C181.618 421.544 177.544 445.448 173.472 469.354C174.1 468.996 174.728 468.64 175.355 468.285C146.663 463.461 117.834 459.355 89.073 454.94C89.4309 455.568 89.7873 456.196 90.1437 456.824C94.3025 432.416 98.4655 408.009 102.622 383.601C102.949 381.673 99.9971 380.846 99.6671 382.789Z" fill="black"/>
<path d="M99.0239 369.434C98.4601 372.737 95.6462 389.25 95.6462 389.25C95.6462 389.25 184.135 403.31 190.553 404.403L193.93 384.588C193.93 384.588 150.204 376.797 129.822 373.324C120.385 371.716 108.081 370.978 99.0239 369.434Z" fill="#C6EB5F"/>
<path d="M97.5466 369.028C96.4174 375.631 95.2939 382.238 94.1689 388.843C94.0408 389.589 94.3568 390.586 95.2382 390.725C126.874 395.752 158.559 400.544 190.144 405.879C190.899 406.007 191.878 405.691 192.028 404.808C193.155 398.203 194.28 391.598 195.406 384.993C195.535 384.233 195.215 383.267 194.335 383.109C182.123 380.933 169.906 378.772 157.689 376.623C138.305 373.213 118.834 371.072 99.429 367.956C97.4979 367.645 96.6695 370.595 98.6159 370.909C118.016 374.023 137.495 376.169 156.874 379.576C169.091 381.724 181.309 383.888 193.522 386.063C193.164 385.435 192.808 384.807 192.452 384.18C191.325 390.785 190.2 397.39 189.074 403.995C189.702 403.638 190.33 403.281 190.958 402.925C159.372 397.589 127.689 392.798 96.0513 387.771C96.4091 388.399 96.7655 389.027 97.122 389.655C98.2483 383.05 99.3719 376.444 100.5 369.839C100.831 367.91 97.8794 367.083 97.5466 369.028Z" fill="black"/>
<path d="M145.834 375.12C141.291 404.77 136.871 434.438 131.851 464.013C131.524 465.945 134.475 466.772 134.805 464.827C139.824 435.254 144.246 405.584 148.787 375.934C149.084 374.002 146.132 373.171 145.834 375.12Z" fill="black"/>
<path d="M146.805 374.686C140.314 374.402 112.518 367.176 116.916 357.303C124.276 340.779 142.519 370.33 145.482 376.992C146.365 376.477 147.246 375.96 148.128 375.445C144.116 368.053 133.382 339.39 151.188 341.967C164.76 343.932 151.585 369.618 148.187 375.519C147.186 377.259 149.712 378.654 150.833 377.066C155.535 370.406 161.317 363.268 169.206 360.34C175.669 357.94 183.564 366.387 176.646 370.889C169.416 375.597 157.794 375.748 149.51 374.76C147.551 374.526 147.573 377.59 149.51 377.822C157.592 378.786 182.453 379.034 182.732 366.595C182.871 360.416 175.573 356.295 170.239 356.962C160.811 358.144 153.196 368.425 148.186 375.516C149.069 376.031 149.95 376.548 150.831 377.063C155.362 369.192 169.342 339.258 150.208 338.755C130.113 338.227 140.244 367.335 145.479 376.989C146.44 378.76 148.91 377.205 148.125 375.442C143.615 365.31 125.419 337.169 114.268 355.754C106.509 368.687 139.195 377.415 146.802 377.746C148.781 377.836 148.772 374.772 146.805 374.686Z" fill="black"/>
<path d="M125.173 163.294C142.344 160.954 159.815 157.373 176.082 151.294C176.883 150.995 177.363 150.278 177.153 149.41C170.076 120.207 162.129 91.2188 155.053 62.0153C154.304 62.5917 153.553 63.1681 152.803 63.7445C159.387 68.5062 165.969 73.2665 172.553 78.0281C172.976 78.3345 173.671 78.2941 174.097 78.0281C184.611 71.4996 190.241 56.066 194.534 45.018C194.768 44.4152 194.395 43.5714 193.831 43.2888C175.051 33.8601 157.449 16.8142 135.375 16.7264C130.629 16.707 125.37 17.2388 124.93 22.9779C124.461 29.1054 124.199 34.3279 118.942 38.3781C115.867 40.7478 111.837 41.6946 108.1 42.4075C106.126 42.7834 107.011 45.6251 108.913 45.3605C109.231 45.3174 109.545 45.2728 109.862 45.2297C111.57 44.9944 111.167 42.0747 109.455 42.2209C99.0893 43.1134 91.5959 39.8999 88.4312 29.292C86.8022 23.8314 83.0388 23.3134 77.9875 24.4231C55.8596 29.2836 42.875 51.9322 27.1713 66.2507C26.709 66.6725 26.5378 67.5817 26.9318 68.1066C34.0423 77.5645 43.6492 90.932 55.5283 94.3682C56.0045 94.5061 56.6922 94.3849 57.018 93.9742C62.0651 87.61 67.115 81.2444 72.1621 74.8801C71.2919 74.5195 70.4203 74.1589 69.5488 73.7969C70.6403 103.826 70.8339 133.883 71.9241 163.912C71.9561 164.801 72.5993 165.371 73.4556 165.444C90.9053 166.906 108.816 165.578 126.121 163.165C128.07 162.893 127.239 159.942 125.308 160.212C108.284 162.584 90.6185 163.818 73.4556 162.381C73.9651 162.892 74.4761 163.401 74.9871 163.912C73.8969 133.883 73.7034 103.826 72.6118 73.7969C72.5687 72.5954 70.8868 71.5929 69.9985 72.7137C67.3336 76.0734 64.6687 79.4316 62.0053 82.7912C60.2579 84.9938 58.5106 87.1965 56.7633 89.3991C54.6762 92.0305 55.9864 91.5015 53.625 90.3765C47.1926 87.3092 41.9116 81.0773 37.2418 75.8603C35.2814 73.6702 33.4074 71.4022 31.5667 69.1118C28.8852 65.7745 30.1118 67.746 32.895 65.1118C47.7202 51.0801 59.1121 31.7007 80.321 27.042C85.5394 25.8962 85.9265 32.0668 87.426 35.581C88.505 38.1136 90.7048 40.7228 93.0313 42.1819C98.0562 45.3327 103.664 45.7824 109.455 45.284C109.319 44.2815 109.183 43.2791 109.048 42.2752C108.731 42.3184 108.416 42.3643 108.1 42.4075C108.37 43.3918 108.643 44.3748 108.913 45.3592C114.153 44.3623 118.932 42.6511 122.916 39.0005C125.013 37.0791 126.207 34.4296 127.102 31.7939C128.126 28.7796 126.455 21.6371 130.003 20.2671C138.852 16.8518 151.096 22.3597 158.733 26.3431C168.065 31.2134 176.696 37.3757 185.856 42.5592C186.573 42.9644 190.8 46.214 191.552 44.2787C191.329 44.851 191.097 45.4204 190.864 45.9885C189.774 48.6617 188.582 51.2932 187.358 53.9079C184.254 60.5394 180.737 67.32 175.773 72.7625C175.018 73.5909 172.654 74.3358 174.02 75.3243C173.454 74.915 172.885 74.5042 172.319 74.0935C170.166 72.5369 168.015 70.9817 165.864 69.4251C162.026 66.6502 158.188 63.874 154.351 61.0991C153.193 60.2624 151.812 61.6338 152.101 62.8284C159.177 92.0319 167.124 121.02 174.201 150.223C174.558 149.595 174.914 148.967 175.271 148.339C159.001 154.417 141.531 157.998 124.361 160.34C122.41 160.607 123.242 163.557 125.173 163.294Z" fill="black"/>
<path d="M31.9789 64.0594C34.6298 68.9129 38.6216 72.9227 42.6384 76.6625C47.3263 81.0246 52.1199 85.2864 57.7156 88.4497C59.4379 89.4229 60.9819 86.7762 59.2624 85.8057C50.2612 80.7196 39.6616 71.7407 34.6243 62.5139C33.6761 60.7805 31.0321 62.3245 31.9789 64.0594Z" fill="black"/>
<path d="M170.42 73.4225C173.728 68.4896 178.168 64.5299 181.1 59.3255C183.986 54.2004 186.279 48.911 188.117 43.3265C188.737 41.4441 185.778 40.6449 185.164 42.512C183.208 48.4558 180.614 53.9442 177.55 59.3853C174.971 63.9632 170.706 67.5066 167.773 71.8785C166.672 73.5228 169.325 75.0543 170.42 73.4225Z" fill="black"/>
<path d="M74.1016 158.911C90.5809 160.34 107.316 158.946 123.682 156.895C140.647 154.769 157.941 151.666 173.919 145.407C175.737 144.696 174.946 141.733 173.106 142.454C157.354 148.622 140.388 151.635 123.682 153.832C107.355 155.979 90.5461 157.273 74.1016 155.847C72.1329 155.677 72.1496 158.741 74.1016 158.911Z" fill="black"/>
<path d="M77.9764 26.5116C80.0147 42.8684 93.1469 53.9637 109.887 51.1791C125.686 48.5504 136.761 35.6284 133.396 19.3928C132.995 17.4589 130.043 18.2803 130.443 20.2073C133.394 34.4491 123.748 45.2854 110.187 48.0394C95.2674 51.0705 82.8787 41.2575 81.0381 26.5116C80.7972 24.5777 77.7314 24.5554 77.9764 26.5116Z" fill="black"/>
<path d="M117.878 71.2085C120.629 91.1588 121.941 95.7743 133.937 94.2442C152.171 91.9218 146.743 82.7646 144.428 67.5468" fill="#C6EB5F"/>
<path d="M116.401 71.6165C117.326 78.2676 117.573 86.7954 121.739 92.4315C124.662 96.3842 129.937 96.355 134.344 95.7215C140.136 94.8889 146.546 93.2515 148.226 86.9138C149.851 80.7932 146.865 73.1536 145.905 67.1403C145.595 65.1938 142.643 66.0223 142.952 67.9548C143.761 73.0241 145.188 78.0726 145.471 83.2102C145.826 89.6747 140.555 91.5585 135.079 92.547C130.487 93.3754 125.66 93.5731 123.2 88.9994C120.379 83.7574 120.156 76.5592 119.356 70.8034C119.084 68.8528 116.132 69.6854 116.401 71.6165Z" fill="black"/>
<path d="M117.878 72.7401C126.625 71.6165 135.313 70.1115 144.042 68.8751C145.992 68.5994 145.16 65.6477 143.229 65.922C134.77 67.1194 126.355 68.5897 117.878 69.6771C115.947 69.9263 115.924 72.9921 117.878 72.7401Z" fill="black"/>
<path d="M119.839 78.3526C127.947 76.7695 136.151 75.8297 144.332 74.7187C146.281 74.4541 145.449 71.5025 143.519 71.7656C135.336 72.8767 127.134 73.8165 119.026 75.3995C117.087 75.7768 117.909 78.7285 119.839 78.3526Z" fill="black"/>
<mask id="mask0_1058_1709" style="mask-type:luminance" maskUnits="userSpaceOnUse" x="113" y="540" width="61" height="118">
<path d="M163.908 540.764L113.628 615.628C111.052 619.507 121.267 653.134 123.711 657.112C125.377 659.827 158.78 638.479 159.592 633.805C165.214 601.388 169.24 575.65 173.466 544.281" fill="white"/>
</mask>
<g mask="url(#mask0_1058_1709)">
<path d="M151.14 549.135C157.684 556.87 164.23 564.604 170.776 572.339C173.68 575.771 178.579 570.821 175.698 567.417C169.153 559.681 162.609 551.947 156.062 544.213C153.159 540.781 148.26 545.73 151.14 549.135Z" fill="#C6EB5F"/>
<path d="M139.431 562.629C148.689 574.529 157.948 586.429 167.206 598.329C169.96 601.869 174.85 596.904 172.128 593.407C162.871 581.507 153.612 569.607 144.353 557.707C141.6 554.165 136.709 559.131 139.431 562.629Z" fill="#C6EB5F"/>
<path d="M128.283 577.99C140.219 593.46 152.155 608.93 164.092 624.4C166.791 627.901 172.844 624.44 170.101 620.887C158.166 605.417 146.23 589.947 134.295 574.477C131.594 570.977 125.543 574.436 128.283 577.99Z" fill="#C6EB5F"/>
<path d="M115.897 590.77C129.581 609.215 143.267 627.659 156.951 646.104C159.593 649.667 165.641 646.2 162.962 642.591C149.276 624.146 135.593 605.702 121.906 587.257C119.265 583.694 113.217 587.161 115.897 590.77Z" fill="#C6EB5F"/>
<path d="M105.971 608.12C117.813 624.684 129.653 641.249 141.495 657.814C144.08 661.432 150.121 657.96 147.504 654.301C135.664 637.737 123.824 621.171 111.983 604.607C109.398 600.988 103.355 604.459 105.971 608.12Z" fill="#C6EB5F"/>
</g>
<path d="M162.585 539.993C153.949 552.851 145.312 565.711 136.676 578.569C130.889 587.186 125.1 595.803 119.314 604.42C117.185 607.589 112.962 611.794 111.975 615.588C111.155 618.732 112.056 622.329 112.632 625.441C113.795 631.722 115.566 637.908 117.398 644.02C118.505 647.713 120.084 660.055 125.887 658.624C134.933 656.395 144.068 648.96 151.43 643.589C154.467 641.375 157.693 639.05 160.053 636.095C161.194 634.665 161.207 633.416 161.534 631.526C162.575 625.505 163.595 619.482 164.6 613.455C168.416 590.589 171.837 567.661 174.943 544.688C175.205 542.758 172.253 541.924 171.99 543.875C169.221 564.357 166.194 584.801 162.873 605.201C162.057 610.219 161.218 615.232 160.37 620.244C159.704 624.188 159.784 630.257 157.952 633.788C155.888 637.767 150.053 640.869 146.55 643.328C142.003 646.518 137.277 649.468 132.439 652.196C130.47 653.305 128.454 654.364 126.364 655.224C124.202 656.115 124.765 656.012 123.867 653.731C119.745 643.243 116.316 631.623 114.91 620.43C114.285 615.45 117.708 612.295 120.379 608.322C125.924 600.062 131.473 591.803 137.02 583.544C146.377 569.611 155.734 555.677 165.093 541.746C165.139 541.678 165.185 541.608 165.232 541.54C166.336 539.893 163.681 538.361 162.585 539.993Z" fill="black"/>
<path d="M164.997 538.495C164.196 533.367 163.84 528.318 163.863 523.139C163.876 520.629 163.941 518.121 163.973 515.611C164.015 512.422 165.052 512.267 167.805 512.116C174.332 511.76 181.704 514.468 187.293 517.619C190.047 519.172 192.532 520.921 191.024 524.194C189.28 527.98 186.408 531.232 183.535 534.195C179.894 537.95 166.694 549.245 164.997 538.495C164.689 536.548 161.737 537.377 162.044 539.308C163.756 550.139 174.707 545.48 180.575 540.871C185.111 537.31 199.357 525.347 193.308 518.525C187.477 511.95 175.45 508.635 166.935 509.099C164.537 509.23 160.951 510.381 160.93 513.361C160.864 522.112 160.69 530.634 162.046 539.308C162.347 541.256 165.297 540.426 164.997 538.495Z" fill="black"/>
<path d="M147.552 247.279C146.624 247.125 145.702 247.004 144.789 246.913" stroke="#C6EB5F" stroke-width="2.78461" stroke-linecap="round" stroke-linejoin="round"/>
<path d="M139.303 246.753C125.139 247.36 113.747 256.044 110.406 270.971C105.211 294.186 116.027 306.713 137.467 310.33C156.678 313.308 172.273 306.335 175.308 284.178C177.824 265.047 167.787 252.963 152.945 248.523" stroke="#C6EB5F" stroke-width="2.78461" stroke-linecap="round" stroke-linejoin="round" stroke-dasharray="5.49 5.49"/>
<path d="M150.286 247.821C149.388 247.615 148.477 247.434 147.552 247.279" stroke="#C6EB5F" stroke-width="2.78461" stroke-linecap="round" stroke-linejoin="round"/>
<path d="M148.767 240.63C124.848 237.138 105.366 251.233 102.589 275.561C101.491 285.189 102.502 295.67 109.05 303.34C115.975 311.455 125.955 315.108 136.202 316.967C146.167 318.774 156.85 317.877 165.793 312.936C175.162 307.761 179.822 297.564 181.766 287.499C186.339 263.8 171.908 244.88 148.767 240.63C146.837 240.275 146.011 243.226 147.953 243.583C169.918 247.618 182.263 264.435 178.811 286.686C175.428 308.481 157.342 316.889 137.014 314.014C117.892 311.308 104.409 299.22 105.293 279.245C106.343 255.554 124.493 240.159 147.953 243.583C149.885 243.865 150.717 240.914 148.767 240.63Z" fill="black"/>
<path d="M129.554 277.888C128.535 277.635 127.557 277.203 126.621 276.593C125.685 275.983 124.898 275.137 124.259 274.057C123.622 272.969 123.224 271.607 123.064 269.971C122.906 268.327 123.095 266.352 123.629 264.048C124.141 261.84 124.801 259.932 125.61 258.324C126.42 256.708 127.355 255.407 128.413 254.42C129.473 253.426 130.629 252.754 131.882 252.403C133.143 252.054 134.475 252.042 135.879 252.367C137.275 252.691 138.452 253.258 139.409 254.07C140.377 254.876 141.091 255.854 141.551 257.004C142.012 258.154 142.194 259.397 142.098 260.735L139.127 260.046C139.111 258.863 138.791 257.809 138.167 256.886C137.543 255.964 136.573 255.35 135.259 255.045C133.327 254.597 131.611 255.085 130.11 256.507C128.617 257.931 127.514 260.159 126.803 263.193L126.998 263.238C127.612 262.653 128.288 262.19 129.026 261.848C129.773 261.5 130.56 261.28 131.385 261.189C132.21 261.098 133.048 261.151 133.9 261.349C135.328 261.68 136.552 262.34 137.571 263.329C138.593 264.309 139.315 265.507 139.74 266.922C140.166 268.329 140.193 269.836 139.821 271.443C139.463 272.985 138.791 274.317 137.804 275.44C136.819 276.554 135.614 277.343 134.19 277.808C132.775 278.267 131.23 278.294 129.554 277.888ZM130.174 275.21C131.197 275.447 132.173 275.404 133.103 275.081C134.041 274.76 134.845 274.224 135.515 273.472C136.193 272.723 136.655 271.821 136.899 270.766C137.138 269.736 137.124 268.745 136.857 267.793C136.6 266.836 136.128 266.013 135.442 265.323C134.763 264.636 133.912 264.174 132.89 263.937C132.119 263.758 131.365 263.746 130.628 263.9C129.893 264.046 129.213 264.324 128.587 264.735C127.97 265.148 127.44 265.662 126.998 266.278C126.558 266.886 126.252 267.563 126.079 268.309C125.849 269.299 125.866 270.278 126.129 271.246C126.401 272.215 126.881 273.057 127.57 273.773C128.267 274.49 129.135 274.97 130.174 275.21ZM150.798 282.812C148.964 282.387 147.517 281.526 146.459 280.229C145.401 278.923 144.753 277.238 144.513 275.173C144.276 273.1 144.471 270.708 145.099 267.998C145.724 265.304 146.598 263.082 147.721 261.333C148.855 259.578 150.184 258.346 151.707 257.639C153.241 256.926 154.916 256.78 156.734 257.201C158.552 257.622 159.989 258.49 161.044 259.803C162.109 261.11 162.76 262.8 162.998 264.874C163.246 266.941 163.058 269.321 162.433 272.015C161.805 274.726 160.928 276.96 159.802 278.717C158.679 280.466 157.355 281.694 155.832 282.401C154.31 283.1 152.632 283.237 150.798 282.812ZM151.419 280.134C153.237 280.556 154.852 280.006 156.264 278.487C157.677 276.967 158.759 274.584 159.512 271.338C160.012 269.18 160.207 267.288 160.096 265.663C159.993 264.04 159.604 262.732 158.928 261.737C158.26 260.744 157.326 260.109 156.125 259.83C154.323 259.413 152.709 259.975 151.283 261.517C149.859 263.051 148.771 265.437 148.021 268.675C147.52 270.834 147.322 272.72 147.427 274.335C147.532 275.95 147.919 277.249 148.588 278.234C149.266 279.221 150.21 279.854 151.419 280.134Z" fill="black"/>
<path d="M130.73 292.943L131.035 291.629C131.245 290.72 131.625 289.931 132.173 289.263C132.731 288.588 133.424 288.108 134.252 287.821C135.089 287.527 136.028 287.501 137.066 287.742C138.121 287.986 138.952 288.423 139.559 289.051C140.168 289.671 140.567 290.405 140.755 291.252C140.945 292.091 140.935 292.965 140.724 293.874L140.42 295.189C140.209 296.098 139.829 296.891 139.278 297.567C138.738 298.237 138.054 298.72 137.224 299.015C136.405 299.304 135.476 299.328 134.437 299.087C133.382 298.842 132.546 298.409 131.929 297.787C131.314 297.157 130.907 296.422 130.709 295.581C130.512 294.731 130.519 293.852 130.73 292.943ZM133.518 292.204L133.213 293.519C133.038 294.273 133.06 294.992 133.278 295.676C133.498 296.351 134.046 296.79 134.922 296.993C135.774 297.191 136.443 297.034 136.93 296.522C137.426 296.004 137.761 295.368 137.936 294.613L138.241 293.299C138.416 292.544 138.402 291.831 138.198 291.16C137.997 290.48 137.457 290.039 136.581 289.836C135.729 289.638 135.047 289.796 134.534 290.31C134.032 290.818 133.693 291.449 133.518 292.204ZM121.621 275.799L121.925 274.484C122.136 273.575 122.515 272.787 123.064 272.119C123.622 271.444 124.315 270.963 125.142 270.676C125.98 270.383 126.918 270.357 127.957 270.598C129.012 270.842 129.843 271.278 130.45 271.907C131.058 272.527 131.457 273.26 131.645 274.108C131.836 274.947 131.825 275.821 131.615 276.73L131.31 278.045C131.099 278.954 130.719 279.746 130.169 280.423C129.629 281.093 128.944 281.575 128.115 281.87C127.295 282.159 126.366 282.183 125.327 281.943C124.272 281.698 123.436 281.265 122.819 280.643C122.204 280.013 121.798 279.278 121.599 278.436C121.403 277.587 121.41 276.708 121.621 275.799ZM124.409 275.06L124.104 276.374C123.929 277.129 123.95 277.848 124.168 278.531C124.388 279.207 124.936 279.646 125.813 279.849C126.665 280.046 127.334 279.889 127.82 279.378C128.316 278.86 128.652 278.224 128.827 277.469L129.132 276.155C129.306 275.4 129.292 274.687 129.089 274.015C128.887 273.336 128.348 272.894 127.472 272.691C126.619 272.494 125.937 272.652 125.425 273.166C124.922 273.674 124.583 274.305 124.409 275.06ZM118.156 294.954L141.073 273.997L143.848 274.64L120.931 295.597L118.156 294.954ZM149.716 302.573C148.466 302.283 147.438 301.732 146.632 300.918C145.832 300.105 145.292 299.103 145.011 297.91C144.736 296.719 144.764 295.408 145.096 293.977C145.43 292.535 145.983 291.336 146.756 290.381C147.534 289.428 148.461 288.762 149.537 288.384C150.619 288.008 151.785 287.965 153.035 288.255C154.285 288.544 155.31 289.095 156.11 289.908C156.916 290.722 157.456 291.727 157.729 292.925C158.009 294.123 157.982 295.444 157.647 296.887C157.316 298.317 156.761 299.506 155.984 300.454C155.213 301.402 154.287 302.065 153.205 302.441C152.13 302.819 150.967 302.863 149.716 302.573ZM150.159 300.662C151.109 300.882 151.947 300.82 152.673 300.475C153.399 300.13 154.001 299.595 154.48 298.87C154.958 298.145 155.305 297.319 155.519 296.393C155.734 295.468 155.786 294.571 155.677 293.703C155.568 292.835 155.264 292.084 154.765 291.449C154.266 290.814 153.542 290.386 152.592 290.166C151.642 289.946 150.804 290.011 150.076 290.362C149.349 290.713 148.745 291.254 148.265 291.985C147.785 292.716 147.438 293.545 147.224 294.471C147.009 295.396 146.957 296.29 147.068 297.152C147.178 298.014 147.484 298.759 147.984 299.388C148.484 300.017 149.21 300.442 150.159 300.662ZM168.685 292.072L168.267 293.875L160.801 292.145L161.219 290.341L168.685 292.072ZM160.245 304.71L163.898 288.948C164.082 288.155 164.422 287.537 164.917 287.094C165.412 286.651 165.988 286.367 166.645 286.24C167.301 286.114 167.96 286.127 168.621 286.28C169.144 286.402 169.561 286.543 169.872 286.703C170.183 286.864 170.412 286.999 170.557 287.109L169.518 288.806C169.418 288.745 169.278 288.665 169.098 288.567C168.924 288.469 168.684 288.385 168.378 288.314C167.674 288.151 167.125 288.211 166.73 288.493C166.342 288.777 166.068 289.261 165.909 289.946L162.373 305.203L160.245 304.71ZM177.835 294.193L177.417 295.996L169.951 294.266L170.369 292.462L177.835 294.193ZM169.395 306.83L173.048 291.069C173.232 290.275 173.571 289.657 174.067 289.215C174.562 288.772 175.138 288.488 175.794 288.361C176.451 288.234 177.11 288.248 177.771 288.401C178.294 288.522 178.711 288.663 179.022 288.824C179.333 288.985 179.561 289.12 179.707 289.23L178.668 290.927C178.568 290.866 178.428 290.786 178.248 290.687C178.074 290.59 177.834 290.506 177.527 290.435C176.824 290.272 176.275 290.332 175.88 290.614C175.492 290.897 175.218 291.382 175.059 292.067L171.523 307.324L169.395 306.83Z" fill="black"/>
</g>
</svg>
