<svg width="18" height="18" viewBox="0 0 18 18" fill="none" xmlns="http://www.w3.org/2000/svg">
<path d="M6.5025 10.5H3C2.175 10.5 1.5 11.175 1.5 12V16.5H6.5025V10.5Z" stroke="#C6EB5F" stroke-width="1.5" stroke-miterlimit="10" stroke-linecap="round" stroke-linejoin="round"/>
<path d="M9.9975 7.5H7.995C7.17 7.5 6.495 8.175 6.495 9V16.5H11.4975V9C11.4975 8.175 10.83 7.5 9.9975 7.5Z" stroke="#C6EB5F" stroke-width="1.5" stroke-miterlimit="10" stroke-linecap="round" stroke-linejoin="round"/>
<path d="M15 12.75H11.4975V16.5H16.5V14.25C16.5 13.425 15.825 12.75 15 12.75Z" stroke="#C6EB5F" stroke-width="1.5" stroke-miterlimit="10" stroke-linecap="round" stroke-linejoin="round"/>
<path d="M9.38999 1.55212L9.78749 2.34712C9.83999 2.45962 9.98249 2.56462 10.1025 2.57962L10.8225 2.69962C11.28 2.77462 11.3925 3.11211 11.0625 3.43461L10.5 3.99711C10.4025 4.09461 10.35 4.27461 10.38 4.40211L10.5375 5.09212C10.665 5.63962 10.3725 5.84963 9.89249 5.56463L9.21749 5.16713C9.09749 5.09213 8.89499 5.09213 8.77499 5.16713L8.09999 5.56463C7.61999 5.84963 7.32749 5.63962 7.45499 5.09212L7.61249 4.40211C7.64249 4.27461 7.58999 4.08711 7.49249 3.99711L6.93749 3.44211C6.60749 3.11211 6.71249 2.78211 7.17749 2.70711L7.89749 2.58713C8.01749 2.56463 8.15999 2.45963 8.21249 2.35463L8.60999 1.55961C8.82749 1.12461 9.17249 1.12462 9.38999 1.55212Z" stroke="#C6EB5F" stroke-width="1.5" stroke-linecap="round" stroke-linejoin="round"/>
</svg>
