<svg width="20" height="20" viewBox="0 0 20 20" fill="none" xmlns="http://www.w3.org/2000/svg">
<path d="M17.7618 10.0811C17.7618 11.6162 17.3065 13.1169 16.4537 14.3933C15.6008 15.6697 14.3886 16.6646 12.9703 17.252C11.552 17.8395 9.99139 17.9932 8.48576 17.6937C6.98012 17.3942 5.59711 16.655 4.5116 15.5695C3.4261 14.484 2.68686 13.101 2.38738 11.5953C2.08789 10.0897 2.24159 8.52908 2.82906 7.1108C3.41653 5.69253 4.41138 4.4803 5.68779 3.62743C6.96421 2.77456 8.46487 2.31934 10 2.31934C11.0193 2.31921 12.0287 2.51988 12.9705 2.9099C13.9122 3.29992 14.7679 3.87164 15.4887 4.59242C16.2095 5.31319 16.7812 6.16889 17.1712 7.11065C17.5612 8.05241 17.7619 9.06178 17.7618 10.0811ZM13.7373 5.6713C13.649 5.62017 13.5515 5.58697 13.4503 5.57359C13.3492 5.56021 13.2464 5.56692 13.1479 5.59333C13.0493 5.61974 12.957 5.66533 12.8761 5.7275C12.7952 5.78967 12.7274 5.86719 12.6765 5.95561L8.92353 12.4556L7.22451 10.4164C7.15924 10.3381 7.07918 10.2735 6.98892 10.2261C6.89866 10.1788 6.79996 10.1497 6.69845 10.1405C6.59694 10.1313 6.49462 10.1422 6.39732 10.1725C6.30002 10.2029 6.20965 10.2521 6.13137 10.3174C6.05309 10.3827 5.98844 10.4627 5.9411 10.553C5.89376 10.6432 5.86466 10.7419 5.85547 10.8434C5.8369 11.0484 5.90052 11.2524 6.03235 11.4105L8.44314 14.3046C8.51596 14.392 8.6071 14.4624 8.7101 14.5106C8.8131 14.5589 8.92546 14.584 9.03922 14.584C9.06147 14.584 9.08371 14.583 9.10588 14.5811C9.23045 14.5705 9.3506 14.5299 9.4561 14.4628C9.5616 14.3957 9.64931 14.3041 9.71177 14.1958L14.0196 6.7311C14.0706 6.64286 14.1037 6.54543 14.117 6.4444C14.1303 6.34336 14.1235 6.2407 14.0971 6.14227C14.0707 6.04385 14.0252 5.95159 13.9631 5.87078C13.901 5.78996 13.8236 5.72218 13.7353 5.6713H13.7373Z" fill="#C6EB5F"/>
</svg>
