<svg width="18" height="18" viewBox="0 0 18 18" fill="none" xmlns="http://www.w3.org/2000/svg">
<path d="M10.2974 2.63199L11.6174 5.27199C11.7974 5.63949 12.2774 5.99199 12.6824 6.05949L15.0749 6.45699C16.6049 6.71199 16.9649 7.82199 15.8624 8.91699L14.0024 10.777C13.6874 11.092 13.5149 11.6995 13.6124 12.1345L14.1449 14.437C14.5649 16.2595 13.5974 16.9645 11.9849 16.012L9.74243 14.6845C9.33743 14.4445 8.66993 14.4445 8.25743 14.6845L6.01493 16.012C4.40993 16.9645 3.43493 16.252 3.85493 14.437L4.38743 12.1345C4.48493 11.6995 4.31243 11.092 3.99743 10.777L2.13743 8.91699C1.04243 7.82199 1.39493 6.71199 2.92493 6.45699L5.31743 6.05949C5.71493 5.99199 6.19493 5.63949 6.37493 5.27199L7.69493 2.63199C8.41493 1.19949 9.58493 1.19949 10.2974 2.63199Z" fill="#F2C94C"/>
</svg>
