<svg width="28" height="28" viewBox="0 0 28 28" fill="none" xmlns="http://www.w3.org/2000/svg">
<path opacity="0.4" d="M24.9317 13.2883V20.2767C24.9317 23.4967 22.3184 26.11 19.0984 26.11H8.90169C5.68169 26.11 3.06836 23.4967 3.06836 20.2767V13.37C3.95503 14.3267 5.21503 14.875 6.58003 14.875C8.05003 14.875 9.46169 14.14 10.3484 12.9617C11.1417 14.14 12.495 14.875 14 14.875C15.4934 14.875 16.8234 14.175 17.6284 13.0083C18.5267 14.1633 19.915 14.875 21.3617 14.875C22.7734 14.875 24.0567 14.3033 24.9317 13.2883Z" fill="#022B23"/>
<path d="M17.4881 1.45831H10.4881L9.62475 10.045C9.55475 10.8383 9.67141 11.585 9.96308 12.2616C10.6397 13.8483 12.2264 14.875 13.9997 14.875C15.7964 14.875 17.3481 13.8716 18.0481 12.2733C18.2581 11.7716 18.3864 11.1883 18.3981 10.5933V10.3716L17.4881 1.45831Z" fill="#022B23"/>
<path opacity="0.6" d="M26.0867 9.64831L25.7484 6.41665C25.2584 2.89331 23.6601 1.45831 20.2417 1.45831H15.7617L16.6251 10.2083C16.6367 10.325 16.6484 10.4533 16.6484 10.675C16.7184 11.2816 16.9051 11.8416 17.1851 12.3433C18.0251 13.8833 19.6584 14.875 21.3617 14.875C22.9134 14.875 24.3134 14.1866 25.1884 12.9733C25.8884 12.04 26.2034 10.8616 26.0867 9.64831Z" fill="#022B23"/>
<path opacity="0.6" d="M7.68841 1.45831C4.25841 1.45831 2.67175 2.89331 2.17008 6.45165L1.85508 9.65998C1.73841 10.9083 2.07675 12.1216 2.81175 13.0666C3.69841 14.2216 5.06341 14.875 6.58008 14.875C8.28341 14.875 9.91675 13.8833 10.7451 12.3666C11.0484 11.8416 11.2467 11.235 11.3051 10.605L12.2151 1.46998H7.68841V1.45831Z" fill="#022B23"/>
<path d="M13.2418 19.4367C11.7601 19.5884 10.6401 20.8484 10.6401 22.3417V26.11H17.3485V22.75C17.3601 20.3117 15.9251 19.1567 13.2418 19.4367Z" fill="#022B23"/>
</svg>
