<svg width="20" height="20" viewBox="0 0 20 20" fill="none" xmlns="http://www.w3.org/2000/svg">
<path d="M7.08337 11.875C7.08337 13.475 8.40004 14.7917 10 14.7917C11.6 14.7917 12.9167 13.475 12.9167 11.875" stroke="#1E1E1E" stroke-width="1.25" stroke-miterlimit="10" stroke-linecap="round" stroke-linejoin="round"/>
<path d="M7.34162 1.66663L4.32495 4.69163" stroke="#1E1E1E" stroke-width="1.25" stroke-miterlimit="10" stroke-linecap="round" stroke-linejoin="round"/>
<path d="M12.6583 1.66663L15.675 4.69163" stroke="#1E1E1E" stroke-width="1.25" stroke-miterlimit="10" stroke-linecap="round" stroke-linejoin="round"/>
<path d="M1.66663 6.54167C1.66663 5 2.49163 4.875 3.51663 4.875H16.4833C17.5083 4.875 18.3333 5 18.3333 6.54167C18.3333 8.33333 17.5083 8.20833 16.4833 8.20833H3.51663C2.49163 8.20833 1.66663 8.33333 1.66663 6.54167Z" stroke="#1E1E1E" stroke-width="1.25"/>
<path d="M2.91663 8.33337L4.09163 15.5334C4.35829 17.15 4.99996 18.3334 7.38329 18.3334H12.4083C15 18.3334 15.3833 17.2 15.6833 15.6334L17.0833 8.33337" stroke="#1E1E1E" stroke-width="1.25" stroke-linecap="round"/>
</svg>
