<svg width="20" height="20" viewBox="0 0 20 20" fill="none" xmlns="http://www.w3.org/2000/svg">
<path opacity="0.4" d="M10.0002 2.08398C10.3859 2.08408 10.8407 2.37271 11.2268 3.13574V3.13672L12.6604 6.01172C12.7377 6.16646 12.85 6.30833 12.9778 6.43262L4.95041 14.46L5.18967 13.4277V13.4248C5.25466 13.1352 5.2248 12.8146 5.14474 12.5342C5.07469 12.289 4.95535 12.0373 4.78635 11.8379L4.71115 11.7559L2.68674 9.73047C2.17839 9.22212 2.01289 8.76059 2.05783 8.4043L2.08908 8.25879C2.21355 7.88781 2.62075 7.54824 3.42795 7.41113L3.42697 7.41016L6.02658 6.97754H6.03146C6.29847 6.93004 6.56489 6.79582 6.78342 6.63574C6.9746 6.49562 7.15917 6.31288 7.28635 6.10547L7.33713 6.01562L7.34006 6.01172L8.77267 3.13672L8.7717 3.13574C9.15787 2.37211 9.61439 2.08398 10.0002 2.08398Z" fill="#022B23" stroke="#171719" stroke-width="0.833333"/>
<path d="M15.72 7.26855H15.723L16.5638 7.41016C17.3706 7.5472 17.777 7.88703 17.9017 8.25781H17.9026C18.0048 8.58283 17.9155 9.0218 17.5023 9.51562L17.305 9.72949V9.73047L15.2884 11.7549C15.0769 11.9664 14.931 12.2538 14.8499 12.5361C14.7792 12.7828 14.7479 13.0599 14.7894 13.3213L14.8118 13.4316L15.3851 15.9346L15.386 15.9355C15.6177 16.9341 15.4253 17.4827 15.1234 17.7031C14.9954 17.7953 14.8332 17.8496 14.6165 17.8496C14.291 17.8496 13.865 17.7259 13.3538 17.4238H13.3528L10.9124 15.9746L10.9105 15.9736L10.8069 15.918C10.5574 15.7984 10.2695 15.7471 10.0003 15.7471C9.73119 15.7471 9.44314 15.7986 9.19366 15.918L9.08917 15.9736L9.08722 15.9746L6.64777 17.4238C5.75807 17.9448 5.17618 17.9244 4.88019 17.7061H4.88116C4.81916 17.6602 4.76401 17.6056 4.71613 17.5391L14.636 7.61914C14.8895 7.36567 15.2321 7.23529 15.5735 7.25195L15.72 7.26855Z" fill="#022B23" stroke="#171719" stroke-width="0.833333"/>
</svg>
