<svg width="715" height="6" viewBox="0 0 715 6" fill="none" xmlns="http://www.w3.org/2000/svg">
<g clip-path="url(#clip0_1050_3909)">
<path d="M0 3C0 1.34315 1.34315 0 3 0H309V6H3.00001C1.34315 6 0 4.65685 0 3Z" fill="#C6EB5F"/>
<line x1="2.75" y1="-8.5" x2="2.75" y2="15.5" stroke="#93C51D" stroke-width="1.5"/>
<line x1="6.75" y1="-8.5" x2="6.75" y2="15.5" stroke="#93C51D" stroke-width="1.5"/>
<line x1="10.75" y1="-8.5" x2="10.75" y2="15.5" stroke="#93C51D" stroke-width="1.5"/>
<line x1="14.75" y1="-8.5" x2="14.75" y2="15.5" stroke="#93C51D" stroke-width="1.5"/>
<line x1="18.75" y1="-8.5" x2="18.75" y2="15.5" stroke="#93C51D" stroke-width="1.5"/>
<line x1="22.75" y1="-8.5" x2="22.75" y2="15.5" stroke="#93C51D" stroke-width="1.5"/>
<line x1="26.75" y1="-8.5" x2="26.75" y2="15.5" stroke="#93C51D" stroke-width="1.5"/>
<line x1="30.75" y1="-8.5" x2="30.75" y2="15.5" stroke="#93C51D" stroke-width="1.5"/>
<line x1="34.75" y1="-8.5" x2="34.75" y2="15.5" stroke="#93C51D" stroke-width="1.5"/>
<line x1="38.75" y1="-8.5" x2="38.75" y2="15.5" stroke="#93C51D" stroke-width="1.5"/>
<line x1="42.75" y1="-8.5" x2="42.75" y2="15.5" stroke="#93C51D" stroke-width="1.5"/>
<line x1="46.75" y1="-8.5" x2="46.75" y2="15.5" stroke="#93C51D" stroke-width="1.5"/>
<line x1="50.75" y1="-8.5" x2="50.75" y2="15.5" stroke="#93C51D" stroke-width="1.5"/>
<line x1="54.75" y1="-8.5" x2="54.75" y2="15.5" stroke="#93C51D" stroke-width="1.5"/>
<line x1="58.75" y1="-8.5" x2="58.75" y2="15.5" stroke="#93C51D" stroke-width="1.5"/>
<line x1="62.75" y1="-8.5" x2="62.75" y2="15.5" stroke="#93C51D" stroke-width="1.5"/>
<line x1="66.75" y1="-8.5" x2="66.75" y2="15.5" stroke="#93C51D" stroke-width="1.5"/>
<line x1="70.75" y1="-8.5" x2="70.75" y2="15.5" stroke="#93C51D" stroke-width="1.5"/>
<line x1="74.75" y1="-8.5" x2="74.75" y2="15.5" stroke="#93C51D" stroke-width="1.5"/>
<line x1="78.75" y1="-8.5" x2="78.75" y2="15.5" stroke="#93C51D" stroke-width="1.5"/>
<line x1="82.75" y1="-8.5" x2="82.75" y2="15.5" stroke="#93C51D" stroke-width="1.5"/>
<line x1="86.75" y1="-8.5" x2="86.75" y2="15.5" stroke="#93C51D" stroke-width="1.5"/>
<line x1="90.75" y1="-8.5" x2="90.75" y2="15.5" stroke="#93C51D" stroke-width="1.5"/>
<line x1="94.75" y1="-8.5" x2="94.75" y2="15.5" stroke="#93C51D" stroke-width="1.5"/>
<line x1="98.75" y1="-8.5" x2="98.75" y2="15.5" stroke="#93C51D" stroke-width="1.5"/>
<path d="M102 -8.5V15.5" stroke="#93C51D" stroke-width="1.5"/>
<path d="M106 -8.5V15.5" stroke="#93C51D" stroke-width="1.5"/>
<path d="M110 -8.5V15.5" stroke="#93C51D" stroke-width="1.5"/>
<path d="M114 -8.5V15.5" stroke="#93C51D" stroke-width="1.5"/>
<path d="M118 -8.5V15.5" stroke="#93C51D" stroke-width="1.5"/>
<path d="M122 -8.5V15.5" stroke="#93C51D" stroke-width="1.5"/>
<path d="M126 -8.5V15.5" stroke="#93C51D" stroke-width="1.5"/>
<path d="M130 -8.5V15.5" stroke="#93C51D" stroke-width="1.5"/>
<path d="M134 -8.5V15.5" stroke="#93C51D" stroke-width="1.5"/>
<path d="M138 -8.5V15.5" stroke="#93C51D" stroke-width="1.5"/>
<path d="M142 -8.5V15.5" stroke="#93C51D" stroke-width="1.5"/>
<path d="M146 -8.5V15.5" stroke="#93C51D" stroke-width="1.5"/>
<path d="M150 -8.5V15.5" stroke="#93C51D" stroke-width="1.5"/>
<path d="M154 -8.5V15.5" stroke="#93C51D" stroke-width="1.5"/>
<path d="M158 -8.5V15.5" stroke="#93C51D" stroke-width="1.5"/>
<path d="M162 -8.5V15.5" stroke="#93C51D" stroke-width="1.5"/>
<path d="M166 -8.5V15.5" stroke="#93C51D" stroke-width="1.5"/>
<path d="M170 -8.5V15.5" stroke="#93C51D" stroke-width="1.5"/>
<path d="M174 -8.5V15.5" stroke="#93C51D" stroke-width="1.5"/>
<path d="M178 -8.5V15.5" stroke="#93C51D" stroke-width="1.5"/>
<path d="M182 -8.5V15.5" stroke="#93C51D" stroke-width="1.5"/>
<path d="M186 -8.5V15.5" stroke="#93C51D" stroke-width="1.5"/>
<path d="M190 -8.5V15.5" stroke="#93C51D" stroke-width="1.5"/>
<path d="M194 -8.5V15.5" stroke="#93C51D" stroke-width="1.5"/>
<path d="M198 -8.5V15.5" stroke="#93C51D" stroke-width="1.5"/>
<path d="M202 -8.5V15.5" stroke="#93C51D" stroke-width="1.5"/>
<path d="M206 -8.5V15.5" stroke="#93C51D" stroke-width="1.5"/>
<path d="M210 -8.5V15.5" stroke="#93C51D" stroke-width="1.5"/>
<path d="M214 -8.5V15.5" stroke="#93C51D" stroke-width="1.5"/>
<path d="M218 -8.5V15.5" stroke="#93C51D" stroke-width="1.5"/>
<path d="M222 -8.5V15.5" stroke="#93C51D" stroke-width="1.5"/>
<path d="M226 -8.5V15.5" stroke="#93C51D" stroke-width="1.5"/>
<path d="M230 -8.5V15.5" stroke="#93C51D" stroke-width="1.5"/>
<path d="M234 -8.5V15.5" stroke="#93C51D" stroke-width="1.5"/>
<path d="M238 -8.5V15.5" stroke="#93C51D" stroke-width="1.5"/>
<path d="M242 -8.5V15.5" stroke="#93C51D" stroke-width="1.5"/>
<path d="M246 -8.5V15.5" stroke="#93C51D" stroke-width="1.5"/>
<path d="M250 -8.5V15.5" stroke="#93C51D" stroke-width="1.5"/>
<path d="M254 -8.5V15.5" stroke="#93C51D" stroke-width="1.5"/>
<path d="M258 -8.5V15.5" stroke="#93C51D" stroke-width="1.5"/>
<path d="M262 -8.5V15.5" stroke="#93C51D" stroke-width="1.5"/>
<path d="M266 -8.5V15.5" stroke="#93C51D" stroke-width="1.5"/>
<path d="M270 -8.5V15.5" stroke="#93C51D" stroke-width="1.5"/>
<path d="M274 -8.5V15.5" stroke="#93C51D" stroke-width="1.5"/>
<path d="M278 -8.5V15.5" stroke="#93C51D" stroke-width="1.5"/>
<path d="M282 -8.5V15.5" stroke="#93C51D" stroke-width="1.5"/>
<path d="M286 -8.5V15.5" stroke="#93C51D" stroke-width="1.5"/>
<path d="M290 -8.5V15.5" stroke="#93C51D" stroke-width="1.5"/>
<path d="M294 -8.5V15.5" stroke="#93C51D" stroke-width="1.5"/>
<path d="M298 -8.5V15.5" stroke="#93C51D" stroke-width="1.5"/>
<path d="M302 -8.5V15.5" stroke="#93C51D" stroke-width="1.5"/>
<path d="M306 -8.5V15.5" stroke="#93C51D" stroke-width="1.5"/>
</g>
<g clip-path="url(#clip1_1050_3909)">
<rect width="79" height="6" transform="translate(317)" fill="#707070"/>
<path d="M319 -8.5V15.5" stroke="#1E1E1E" stroke-width="1.5"/>
<path d="M323 -8.5V15.5" stroke="#1E1E1E" stroke-width="1.5"/>
<path d="M327 -8.5V15.5" stroke="#1E1E1E" stroke-width="1.5"/>
<path d="M331 -8.5V15.5" stroke="#1E1E1E" stroke-width="1.5"/>
<path d="M335 -8.5V15.5" stroke="#1E1E1E" stroke-width="1.5"/>
<path d="M339 -8.5V15.5" stroke="#1E1E1E" stroke-width="1.5"/>
<path d="M343 -8.5V15.5" stroke="#1E1E1E" stroke-width="1.5"/>
<path d="M347 -8.5V15.5" stroke="#1E1E1E" stroke-width="1.5"/>
<path d="M351 -8.5V15.5" stroke="#1E1E1E" stroke-width="1.5"/>
<path d="M355 -8.5V15.5" stroke="#1E1E1E" stroke-width="1.5"/>
<path d="M359 -8.5V15.5" stroke="#1E1E1E" stroke-width="1.5"/>
<path d="M363 -8.5V15.5" stroke="#1E1E1E" stroke-width="1.5"/>
<path d="M367 -8.5V15.5" stroke="#1E1E1E" stroke-width="1.5"/>
<path d="M371 -8.5V15.5" stroke="#1E1E1E" stroke-width="1.5"/>
<path d="M375 -8.5V15.5" stroke="#1E1E1E" stroke-width="1.5"/>
<path d="M379 -8.5V15.5" stroke="#1E1E1E" stroke-width="1.5"/>
<path d="M383 -8.5V15.5" stroke="#1E1E1E" stroke-width="1.5"/>
<path d="M387 -8.5V15.5" stroke="#1E1E1E" stroke-width="1.5"/>
<path d="M391 -8.5V15.5" stroke="#1E1E1E" stroke-width="1.5"/>
<path d="M395 -8.5V15.5" stroke="#1E1E1E" stroke-width="1.5"/>
</g>
<g clip-path="url(#clip2_1050_3909)">
<rect width="207" height="6" transform="translate(404)" fill="#FFEEBE"/>
<line x1="406.75" y1="-8.5" x2="406.75" y2="15.5" stroke="#FFCA4A" stroke-width="1.5"/>
<path d="M410 -8.5V15.5" stroke="#FFCA4A" stroke-width="1.5"/>
<path d="M414 -8.5V15.5" stroke="#FFCA4A" stroke-width="1.5"/>
<path d="M418 -8.5V15.5" stroke="#FFCA4A" stroke-width="1.5"/>
<path d="M422 -8.5V15.5" stroke="#FFCA4A" stroke-width="1.5"/>
<path d="M426 -8.5V15.5" stroke="#FFCA4A" stroke-width="1.5"/>
<path d="M430 -8.5V15.5" stroke="#FFCA4A" stroke-width="1.5"/>
<path d="M434 -8.5V15.5" stroke="#FFCA4A" stroke-width="1.5"/>
<path d="M438 -8.5V15.5" stroke="#FFCA4A" stroke-width="1.5"/>
<path d="M442 -8.5V15.5" stroke="#FFCA4A" stroke-width="1.5"/>
<path d="M446 -8.5V15.5" stroke="#FFCA4A" stroke-width="1.5"/>
<path d="M450 -8.5V15.5" stroke="#FFCA4A" stroke-width="1.5"/>
<path d="M454 -8.5V15.5" stroke="#FFCA4A" stroke-width="1.5"/>
<path d="M458 -8.5V15.5" stroke="#FFCA4A" stroke-width="1.5"/>
<path d="M462 -8.5V15.5" stroke="#FFCA4A" stroke-width="1.5"/>
<path d="M466 -8.5V15.5" stroke="#FFCA4A" stroke-width="1.5"/>
<path d="M470 -8.5V15.5" stroke="#FFCA4A" stroke-width="1.5"/>
<path d="M474 -8.5V15.5" stroke="#FFCA4A" stroke-width="1.5"/>
<path d="M478 -8.5V15.5" stroke="#FFCA4A" stroke-width="1.5"/>
<path d="M482 -8.5V15.5" stroke="#FFCA4A" stroke-width="1.5"/>
<path d="M486 -8.5V15.5" stroke="#FFCA4A" stroke-width="1.5"/>
<path d="M490 -8.5V15.5" stroke="#FFCA4A" stroke-width="1.5"/>
<path d="M494 -8.5V15.5" stroke="#FFCA4A" stroke-width="1.5"/>
<path d="M498 -8.5V15.5" stroke="#FFCA4A" stroke-width="1.5"/>
<path d="M502 -8.5V15.5" stroke="#FFCA4A" stroke-width="1.5"/>
<path d="M506 -8.5V15.5" stroke="#FFCA4A" stroke-width="1.5"/>
<path d="M510 -8.5V15.5" stroke="#FFCA4A" stroke-width="1.5"/>
<path d="M514 -8.5V15.5" stroke="#FFCA4A" stroke-width="1.5"/>
<path d="M518 -8.5V15.5" stroke="#FFCA4A" stroke-width="1.5"/>
<path d="M522 -8.5V15.5" stroke="#FFCA4A" stroke-width="1.5"/>
<path d="M526 -8.5V15.5" stroke="#FFCA4A" stroke-width="1.5"/>
<path d="M530 -8.5V15.5" stroke="#FFCA4A" stroke-width="1.5"/>
<path d="M534 -8.5V15.5" stroke="#FFCA4A" stroke-width="1.5"/>
<path d="M538 -8.5V15.5" stroke="#FFCA4A" stroke-width="1.5"/>
<path d="M542 -8.5V15.5" stroke="#FFCA4A" stroke-width="1.5"/>
<path d="M546 -8.5V15.5" stroke="#FFCA4A" stroke-width="1.5"/>
<path d="M550 -8.5V15.5" stroke="#FFCA4A" stroke-width="1.5"/>
<path d="M554 -8.5V15.5" stroke="#FFCA4A" stroke-width="1.5"/>
<path d="M558 -8.5V15.5" stroke="#FFCA4A" stroke-width="1.5"/>
<path d="M562 -8.5V15.5" stroke="#FFCA4A" stroke-width="1.5"/>
<path d="M566 -8.5V15.5" stroke="#FFCA4A" stroke-width="1.5"/>
<path d="M570 -8.5V15.5" stroke="#FFCA4A" stroke-width="1.5"/>
<path d="M574 -8.5V15.5" stroke="#FFCA4A" stroke-width="1.5"/>
<path d="M578 -8.5V15.5" stroke="#FFCA4A" stroke-width="1.5"/>
<path d="M582 -8.5V15.5" stroke="#FFCA4A" stroke-width="1.5"/>
<path d="M586 -8.5V15.5" stroke="#FFCA4A" stroke-width="1.5"/>
<path d="M590 -8.5V15.5" stroke="#FFCA4A" stroke-width="1.5"/>
<path d="M594 -8.5V15.5" stroke="#FFCA4A" stroke-width="1.5"/>
<path d="M598 -8.5V15.5" stroke="#FFCA4A" stroke-width="1.5"/>
<path d="M602 -8.5V15.5" stroke="#FFCA4A" stroke-width="1.5"/>
<path d="M606 -8.5V15.5" stroke="#FFCA4A" stroke-width="1.5"/>
<path d="M610 -8.5V15.5" stroke="#FFCA4A" stroke-width="1.5"/>
</g>
<g clip-path="url(#clip3_1050_3909)">
<path d="M619 0H712C713.657 0 715 1.34315 715 3C715 4.65685 713.657 6 712 6H619V0Z" fill="#F99007"/>
<line x1="619.75" y1="-8.5" x2="619.75" y2="15.5" stroke="#B74806" stroke-width="1.5"/>
<path d="M623 -8.5V15.5" stroke="#B74806" stroke-width="1.5"/>
<path d="M627 -8.5V15.5" stroke="#B74806" stroke-width="1.5"/>
<path d="M631 -8.5V15.5" stroke="#B74806" stroke-width="1.5"/>
<path d="M635 -8.5V15.5" stroke="#B74806" stroke-width="1.5"/>
<path d="M639 -8.5V15.5" stroke="#B74806" stroke-width="1.5"/>
<path d="M643 -8.5V15.5" stroke="#B74806" stroke-width="1.5"/>
<path d="M647 -8.5V15.5" stroke="#B74806" stroke-width="1.5"/>
<path d="M651 -8.5V15.5" stroke="#B74806" stroke-width="1.5"/>
<path d="M655 -8.5V15.5" stroke="#B74806" stroke-width="1.5"/>
<path d="M659 -8.5V15.5" stroke="#B74806" stroke-width="1.5"/>
<path d="M663 -8.5V15.5" stroke="#B74806" stroke-width="1.5"/>
<path d="M667 -8.5V15.5" stroke="#B74806" stroke-width="1.5"/>
<path d="M671 -8.5V15.5" stroke="#B74806" stroke-width="1.5"/>
<path d="M675 -8.5V15.5" stroke="#B74806" stroke-width="1.5"/>
<path d="M679 -8.5V15.5" stroke="#B74806" stroke-width="1.5"/>
<path d="M683 -8.5V15.5" stroke="#B74806" stroke-width="1.5"/>
<path d="M687 -8.5V15.5" stroke="#B74806" stroke-width="1.5"/>
<path d="M691 -8.5V15.5" stroke="#B74806" stroke-width="1.5"/>
<path d="M695 -8.5V15.5" stroke="#B74806" stroke-width="1.5"/>
<path d="M699 -8.5V15.5" stroke="#B74806" stroke-width="1.5"/>
<path d="M703 -8.5V15.5" stroke="#B74806" stroke-width="1.5"/>
<path d="M707 -8.5V15.5" stroke="#B74806" stroke-width="1.5"/>
<path d="M711 -8.5V15.5" stroke="#B74806" stroke-width="1.5"/>
<path d="M715 -8.5V15.5" stroke="#B74806" stroke-width="1.5"/>
</g>
<defs>
<clipPath id="clip0_1050_3909">
<path d="M0 3C0 1.34315 1.34315 0 3 0H309V6H3.00001C1.34315 6 0 4.65685 0 3Z" fill="white"/>
</clipPath>
<clipPath id="clip1_1050_3909">
<rect width="79" height="6" fill="white" transform="translate(317)"/>
</clipPath>
<clipPath id="clip2_1050_3909">
<rect width="207" height="6" fill="white" transform="translate(404)"/>
</clipPath>
<clipPath id="clip3_1050_3909">
<path d="M619 0H712C713.657 0 715 1.34315 715 3C715 4.65685 713.657 6 712 6H619V0Z" fill="white"/>
</clipPath>
</defs>
</svg>
