<svg width="132" height="131" viewBox="0 0 132 131" fill="none" xmlns="http://www.w3.org/2000/svg">
<path d="M66 0.3125C83.2888 0.3125 99.8695 7.18045 112.095 19.4055C124.32 31.6305 131.188 48.2112 131.188 65.5C131.188 82.7888 124.32 99.3695 112.095 111.595C99.8695 123.82 83.2888 130.688 66 130.688C48.7112 130.688 32.1305 123.82 19.9055 111.595C7.68045 99.3695 0.8125 82.7888 0.8125 65.5C0.8125 48.2112 7.68045 31.6305 19.9055 19.4055C32.1305 7.18045 48.7112 0.3125 66 0.3125ZM57.8795 78.3606L43.3986 63.8703C42.8794 63.3512 42.2631 62.9394 41.5848 62.6584C40.9066 62.3775 40.1796 62.2329 39.4454 62.2329C38.7112 62.2329 37.9843 62.3775 37.306 62.6584C36.6277 62.9394 36.0114 63.3512 35.4922 63.8703C34.4438 64.9188 33.8548 66.3408 33.8548 67.8235C33.8548 69.3062 34.4438 70.7282 35.4922 71.7766L53.931 90.2154C54.4487 90.7371 55.0645 91.1512 55.743 91.4338C56.4215 91.7164 57.1492 91.8619 57.8842 91.8619C58.6191 91.8619 59.3468 91.7164 60.0253 91.4338C60.7038 91.1512 61.3196 90.7371 61.8373 90.2154L100.019 52.0248C100.545 51.5078 100.963 50.8918 101.25 50.2123C101.537 49.5327 101.686 48.8031 101.69 48.0656C101.693 47.328 101.55 46.597 101.27 45.9149C100.989 45.2327 100.577 44.6128 100.055 44.091C99.5342 43.5691 98.9148 43.1556 98.233 42.8743C97.5511 42.5931 96.8204 42.4496 96.0828 42.4521C95.3452 42.4547 94.6154 42.6032 93.9356 42.8893C93.2557 43.1753 92.6392 43.593 92.1216 44.1185L57.8795 78.3606Z" fill="#26AC05"/>
</svg>
