<svg width="353" height="353" viewBox="0 0 353 353" fill="none" xmlns="http://www.w3.org/2000/svg">
<path d="M218.689 73.1504C218.689 73.1504 181.654 120.062 122.396 92.0806C63.1392 64.0991 3.88281 139.814 54.909 185.903C105.935 231.992 56.0022 257.317 90.6679 285.563C130.068 317.667 164.37 252.567 195.644 267.381C264.668 300.077 315.804 287.134 304.282 249.275C284.056 182.819 258.193 178.496 277.945 143.929C297.698 109.363 254.104 37.4905 218.689 73.1504Z" fill="#F9F9F9"/>
<path d="M155.414 220.341C155.414 252.195 181.234 278.015 213.089 278.015C220.507 278.028 227.856 276.6 234.73 273.811C234.871 273.828 235.013 273.836 235.156 273.836H260.399C261.211 273.836 262.016 273.677 262.766 273.366C263.517 273.055 264.199 272.6 264.774 272.025C265.348 271.451 265.804 270.769 266.114 270.018C266.425 269.268 266.585 268.463 266.584 267.651V241.923C269.356 235.066 270.776 227.737 270.764 220.341C270.764 188.486 244.944 162.666 213.089 162.666C181.234 162.666 155.414 188.486 155.414 220.341Z" fill="#E1F5A1"/>
<path d="M236.174 179.458C236.174 219.421 203.782 251.813 163.819 251.813C154.513 251.829 145.293 250.038 136.67 246.539C136.492 246.56 136.314 246.57 136.135 246.57H104.466C103.447 246.571 102.438 246.371 101.496 245.981C100.554 245.591 99.6986 245.019 98.9779 244.299C98.2572 243.578 97.6857 242.722 97.2959 241.781C96.9061 240.839 96.7058 239.83 96.7063 238.81V206.534C93.2288 197.931 91.4484 188.737 91.4632 179.459C91.4632 139.496 123.855 107.104 163.819 107.104C203.782 107.104 236.174 139.495 236.174 179.458Z" fill="#B2DF3C"/>
<path d="M130.263 194.14C136.054 194.14 140.749 189.446 140.749 183.654C140.749 177.863 136.054 173.168 130.263 173.168C124.471 173.168 119.776 177.863 119.776 183.654C119.776 189.446 124.471 194.14 130.263 194.14Z" fill="white"/>
<path d="M160.672 194.14C166.463 194.14 171.158 189.446 171.158 183.654C171.158 177.863 166.463 173.168 160.672 173.168C154.881 173.168 150.186 177.863 150.186 183.654C150.186 189.446 154.881 194.14 160.672 194.14Z" fill="white"/>
<path d="M192.132 194.14C197.923 194.14 202.618 189.446 202.618 183.654C202.618 177.863 197.923 173.168 192.132 173.168C186.34 173.168 181.645 177.863 181.645 183.654C181.645 189.446 186.34 194.14 192.132 194.14Z" fill="white"/>
<path d="M224.639 144.854C235.063 144.854 243.514 136.403 243.514 125.979C243.514 115.554 235.063 107.104 224.639 107.104C214.214 107.104 205.763 115.554 205.763 125.979C205.763 136.403 214.214 144.854 224.639 144.854Z" fill="#B2DF3C" stroke="white" stroke-width="18.9107" stroke-miterlimit="10"/>
<path d="M230.638 120.385C230.389 119.425 229.943 118.528 229.328 117.75C228.785 117.095 228.082 116.592 227.286 116.292C225.568 115.7 223.701 115.7 221.984 116.292C221.189 116.591 220.487 117.094 219.949 117.75C219.328 118.524 218.881 119.423 218.639 120.385C218.308 121.681 218.153 123.016 218.179 124.354V127.535C218.152 128.875 218.31 130.213 218.647 131.511C218.892 132.481 219.341 133.388 219.965 134.17C220.506 134.832 221.21 135.342 222.007 135.651C223.716 136.264 225.585 136.264 227.293 135.651C228.086 135.342 228.785 134.831 229.32 134.17C229.934 133.384 230.378 132.478 230.622 131.511C230.953 130.212 231.108 128.875 231.082 127.535H231.098V124.354C231.124 123.016 230.969 121.681 230.638 120.385V120.385ZM227.792 128.01C227.803 128.859 227.735 129.708 227.59 130.544C227.491 131.139 227.288 131.712 226.99 132.236C226.76 132.64 226.419 132.97 226.007 133.187C225.584 133.391 225.12 133.492 224.651 133.483C224.182 133.49 223.717 133.389 223.294 133.187C222.877 132.969 222.529 132.64 222.288 132.236C221.983 131.713 221.772 131.14 221.664 130.544C221.505 129.709 221.432 128.86 221.446 128.01V123.847C221.432 123 221.503 122.154 221.656 121.321C221.759 120.737 221.968 120.177 222.272 119.668C222.514 119.279 222.86 118.966 223.27 118.764C223.696 118.579 224.155 118.483 224.619 118.483C225.083 118.483 225.542 118.579 225.968 118.764C226.382 118.961 226.729 119.275 226.966 119.668C227.27 120.177 227.479 120.737 227.582 121.321C227.736 122.154 227.806 123 227.792 123.847V128.01L227.792 128.01Z" fill="white"/>
</svg>
