<svg width="25" height="25" viewBox="0 0 25 25" fill="none" xmlns="http://www.w3.org/2000/svg">
<path opacity="0.4" d="M12.1304 22.2389C17.7133 22.2389 22.2391 17.7131 22.2391 12.1302C22.2391 6.5473 17.7133 2.02148 12.1304 2.02148C6.54756 2.02148 2.02174 6.5473 2.02174 12.1302C2.02174 17.7131 6.54756 22.2389 12.1304 22.2389Z" fill="#018124"/>
<path d="M10.6949 15.7493C10.4928 15.7493 10.3007 15.6684 10.1592 15.5269L7.29842 12.6662C7.00526 12.373 7.00526 11.8878 7.29842 11.5946C7.59157 11.3015 8.07679 11.3015 8.36994 11.5946L10.6949 13.9196L15.8908 8.72377C16.184 8.43062 16.6692 8.43062 16.9623 8.72377C17.2555 9.01692 17.2555 9.50214 16.9623 9.79529L11.2307 15.5269C11.0892 15.6684 10.8971 15.7493 10.6949 15.7493Z" fill="#018124"/>
</svg>
