<svg width="26" height="26" viewBox="0 0 26 26" fill="none" xmlns="http://www.w3.org/2000/svg">
<path d="M2.19868 8.00597L0.310223 13.3158C0.12218 13.7633 0 14.4886 0 14.8337C0 15.1788 0 16.9276 0 16.9276C0 17.4957 0.464953 17.9622 1.03467 17.9622H2.27327C2.39784 19.2461 3.47933 20.249 4.79568 20.249C6.11203 20.249 7.19428 19.2461 7.3189 17.9623H9.60959V7.09668H3.72689C3.15798 7.09668 2.47005 7.50613 2.19868 8.00597ZM4.79568 18.9811C4.09586 18.9811 3.52772 18.4129 3.52772 17.7131C3.52772 17.0133 4.09586 16.4467 4.79568 16.4467C5.49631 16.4467 6.06364 17.0132 6.06364 17.7131C6.06364 18.413 5.49626 18.9811 4.79568 18.9811ZM8.41938 8.44558V12.4835H2.38037L3.56738 8.84711C3.67133 8.65511 4.02441 8.44563 4.24181 8.44563L8.41938 8.44558Z" fill="#707070"/>
<path d="M11.06 5.75098V17.9623H18.5304C18.6534 19.2461 19.7356 20.249 21.052 20.249C22.3692 20.249 23.4498 19.2461 23.576 17.9623H26V5.75098H11.06ZM21.052 18.9811C20.3522 18.9811 19.7841 18.4129 19.7841 17.7131C19.7841 17.0133 20.3522 16.4467 21.052 16.4467C21.7527 16.4467 22.32 17.0132 22.32 17.7131C22.32 18.413 21.7526 18.9811 21.052 18.9811Z" fill="#707070"/>
</svg>
