<svg width="18" height="19" viewBox="0 0 18 19" fill="none" xmlns="http://www.w3.org/2000/svg">
<path opacity="0.4" d="M16.5 11V13.25C16.5 14.495 15.495 15.5 14.25 15.5H13.5C13.5 14.675 12.825 14 12 14C11.175 14 10.5 14.675 10.5 15.5H7.5C7.5 14.675 6.825 14 6 14C5.175 14 4.5 14.675 4.5 15.5H3.75C2.505 15.5 1.5 14.495 1.5 13.25V11H9.75C10.575 11 11.25 10.325 11.25 9.5V4.25H12.63C13.17 4.25 13.665 4.54251 13.935 5.00751L15.2175 7.25H14.25C13.8375 7.25 13.5 7.5875 13.5 8V10.25C13.5 10.6625 13.8375 11 14.25 11H16.5Z" fill="#707070"/>
<path d="M6 17C6.82843 17 7.5 16.3284 7.5 15.5C7.5 14.6716 6.82843 14 6 14C5.17157 14 4.5 14.6716 4.5 15.5C4.5 16.3284 5.17157 17 6 17Z" fill="#707070"/>
<path d="M12 17C12.8284 17 13.5 16.3284 13.5 15.5C13.5 14.6716 12.8284 14 12 14C11.1716 14 10.5 14.6716 10.5 15.5C10.5 16.3284 11.1716 17 12 17Z" fill="#292D32"/>
<path d="M16.5 9.89752V11H14.25C13.8375 11 13.5 10.6625 13.5 10.25V8C13.5 7.5875 13.8375 7.25 14.25 7.25H15.2175L16.305 9.15498C16.4325 9.37998 16.5 9.63502 16.5 9.89752Z" fill="#292D32"/>
<path d="M10.5 2H4.5C3.0375 2 1.82251 3.05 1.56001 4.4375H5.25C5.5575 4.4375 5.8125 4.6925 5.8125 5C5.8125 5.3075 5.5575 5.5625 5.25 5.5625H1.5V6.6875H3.75C4.0575 6.6875 4.3125 6.9425 4.3125 7.25C4.3125 7.5575 4.0575 7.8125 3.75 7.8125H1.5V8.9375H2.25C2.5575 8.9375 2.8125 9.1925 2.8125 9.5C2.8125 9.8075 2.5575 10.0625 2.25 10.0625H1.5V11H9.75C10.575 11 11.25 10.325 11.25 9.5V2.75C11.25 2.3375 10.9125 2 10.5 2Z" fill="#292D32"/>
<path d="M1.56001 4.4375H0.75C0.4425 4.4375 0.1875 4.6925 0.1875 5C0.1875 5.3075 0.4425 5.5625 0.75 5.5625H1.5V5C1.5 4.805 1.52251 4.6175 1.56001 4.4375Z" fill="#292D32"/>
<path d="M0.75 6.6875C0.4425 6.6875 0.1875 6.9425 0.1875 7.25C0.1875 7.5575 0.4425 7.8125 0.75 7.8125H1.5V6.6875H0.75Z" fill="#292D32"/>
<path d="M0.75 8.9375C0.4425 8.9375 0.1875 9.1925 0.1875 9.5C0.1875 9.8075 0.4425 10.0625 0.75 10.0625H1.5V8.9375H0.75Z" fill="#292D32"/>
</svg>
